<svg xmlns="http://www.w3.org/2000/svg" width="158" height="156" viewBox="0 0 158 156" fill="none">
  <path d="M65.2275 57.6912C62.836 59.6919 55.4269 61.0987 48.4712 78.6522L38.2329 69.4456C33.5071 71.8437 29.8454 75.9179 27.9634 80.8718L43.3598 94.7069C45.1433 96.3037 47.4874 97.128 49.8779 96.9988C52.2682 96.8705 54.51 95.7986 56.1114 94.0191L62.4913 86.9169L59.9566 103.726L49.5777 115.293C52.1819 119.865 56.1957 123.473 61.0195 125.576L72.0081 113.353C73.6347 111.544 74.7844 109.357 75.3531 106.991C77.7446 96.9544 76.9318 79.2462 78.4793 63.9904C72.2771 62.8337 69.9793 61.427 65.2275 57.6912Z" fill="#71CEF8"/>
  <path d="M149.935 58.3949L132.115 77.1989L139.181 46.0933L157 27.2893L149.935 58.3949Z" fill="#17334F"/>
  <path d="M93.4412 51.5014C93.2068 51.3451 92.8004 51.4857 92.2689 51.8609L93.5029 52.8769C93.707 52.1579 93.707 51.6577 93.4412 51.5014Z" fill="#17334F"/>
  <path d="M82.4059 61.1145C82.0768 61.9586 82.1204 62.6677 82.3746 62.8339C82.6288 63.0001 83.3618 62.8339 83.8555 62.193L82.4059 61.1145Z" fill="#17334F"/>
  <path d="M89.5203 52.1894C89.2859 52.033 88.8795 52.1737 88.348 52.5489L89.582 53.5649C89.7836 52.8615 89.7671 52.3613 89.5203 52.1894Z" fill="#17334F"/>
  <path d="M52.9572 111.446L49.502 115.292C52.1061 119.864 56.12 123.471 60.9438 125.575L64.5545 121.558C59.8067 119.357 55.7839 115.85 52.9572 111.446Z" fill="#17334F"/>
  <path d="M72.8397 54.7526L78.6232 63.7404L80.155 60.958L72.8397 54.7526Z" fill="#17334F"/>
  <path d="M78.7638 32.0868L79.561 33.8062L79.9986 32.6339L78.7638 32.0868Z" fill="#17334F"/>
  <path d="M74.6217 73.416L62.4764 86.9211L61.2416 95.2055L74.6217 73.416Z" fill="#17334F"/>
  <path d="M45.1104 125.358C44.0944 126.452 43.0471 127.546 41.9686 128.671C41.1089 133.751 41.5153 145.412 43.1565 150.836C47.5167 143.583 49.0963 138.989 51.3011 131.516C48.9258 129.802 46.8365 127.724 45.1104 125.358Z" fill="#17334F"/>
  <path d="M27.9016 65.413C27.1513 64.6627 26.2916 63.7405 25.1506 62.5056C16.3018 63.7561 6.56456 66.7103 2.43799 68.6642C8.732 71.0443 15.474 72.005 22.1823 71.4778L22.5262 71.7904C24.0016 69.4169 25.8121 67.2688 27.9016 65.413Z" fill="#17334F"/>
  <path d="M41.6092 72.3991L38.2362 69.3552C33.5139 71.7579 29.8537 75.8305 27.9667 80.7814L31.3898 83.8607C33.7581 79.2274 37.277 75.2811 41.6092 72.3991Z" fill="#17334F"/>
  <path d="M85.6414 21.912C85.708 21.5333 85.6373 21.1433 85.4423 20.8117C85.2482 20.4802 84.9413 20.2287 84.5785 20.1021C84.8121 19.8861 84.9775 19.6066 85.0548 19.2978C85.1322 18.989 85.1173 18.6645 85.012 18.3639C84.9076 18.0635 84.7167 17.8001 84.465 17.6063C84.2124 17.4125 83.9088 17.2966 83.5913 17.2729C83.7204 16.9974 83.7714 16.6913 83.7369 16.3888C83.7032 16.0863 83.5855 15.7992 83.3979 15.5595C83.2104 15.3198 82.9603 15.1367 82.6748 15.0308C82.3893 14.9249 82.08 14.9002 81.7814 14.9595C81.82 14.6562 81.7723 14.3481 81.644 14.0704C81.5157 13.7928 81.3125 13.5567 81.0566 13.3889C80.8007 13.2212 80.5029 13.1286 80.1977 13.1216C79.8917 13.1146 79.5906 13.1936 79.3273 13.3495C79.2714 13.038 79.1272 12.749 78.9115 12.5175C78.6957 12.2859 78.4176 12.1215 78.1107 12.0439C77.8039 11.9663 77.4811 11.979 77.1812 12.0803C76.8813 12.1816 76.617 12.3672 76.42 12.6149C76.2709 12.3165 76.0381 12.068 75.7501 11.8996C75.462 11.7313 75.1312 11.6505 74.7981 11.6671C74.4649 11.6837 74.1437 11.7969 73.8738 11.993C73.6039 12.189 73.3969 12.4595 73.2782 12.7712C73.0893 12.5721 72.8533 12.4237 72.592 12.3397C72.3308 12.2558 72.0525 12.2388 71.7829 12.2907C71.5134 12.3425 71.2613 12.4612 71.0498 12.6361C70.8382 12.8109 70.674 13.0362 70.5724 13.2911C70.5993 12.9003 70.5139 12.5099 70.3265 12.1659C70.139 11.8219 69.8571 11.5386 69.5141 11.3493C69.1711 11.1601 68.7812 11.0728 68.3902 11.0975C67.9993 11.1224 67.6235 11.2584 67.3071 11.4894C67.134 11.0897 66.8428 10.7523 66.4727 10.5225C66.1026 10.2927 65.6711 10.1814 65.236 10.2034C64.8008 10.2256 64.3828 10.38 64.0378 10.6461C63.6929 10.9122 63.4374 11.2774 63.3056 11.6926C62.9478 11.4763 62.5324 11.3747 62.1151 11.4016C61.6979 11.4285 61.2989 11.5826 60.9718 11.843C60.6448 12.1036 60.4054 12.4581 60.286 12.8588C60.1665 13.2594 60.1727 13.6872 60.3037 14.0842C59.8852 14.1316 59.4914 14.3068 59.176 14.5861C58.8607 14.8653 58.6391 15.2349 58.5415 15.6447C58.4437 16.0544 58.4748 16.4843 58.6302 16.8758C58.7857 17.2672 59.0581 17.6012 59.4102 17.8323C59.0805 18.0994 58.8417 18.4621 58.7269 18.8705C58.6121 19.279 58.6269 19.713 58.7693 20.1127C58.9117 20.5124 59.1746 20.858 59.5218 21.102C59.869 21.3459 60.2833 21.476 60.7076 21.4743C60.6224 21.8819 60.6637 22.3057 60.8261 22.6891C60.9883 23.0725 61.2637 23.3973 61.6155 23.6199C61.9673 23.8426 62.3787 23.9525 62.7946 23.935C63.2106 23.9174 63.6113 23.7734 63.9432 23.522C64.0747 23.8592 64.2957 24.154 64.5825 24.3747C64.8693 24.5953 65.2109 24.7334 65.5705 24.7741C65.5044 25.0075 65.4911 25.2527 65.5315 25.4919C65.5718 25.7311 65.6648 25.9583 65.8039 26.1571C65.9428 26.3559 66.1242 26.5214 66.335 26.6415C66.5457 26.7615 66.7806 26.8333 67.0225 26.8514C66.8918 27.1278 66.8412 27.4352 66.8765 27.7389C66.9117 28.0426 67.0312 28.3304 67.2217 28.5695C67.412 28.8088 67.6656 28.9898 67.9536 29.0923C68.2417 29.1947 68.5527 29.2144 68.8513 29.1491C68.8154 29.453 68.8655 29.7609 68.9958 30.0378C69.1261 30.3147 69.3314 30.5495 69.5884 30.7155C69.8454 30.8816 70.1439 30.9722 70.4499 30.9772C70.7559 30.9821 71.0571 30.9012 71.3194 30.7435C71.3751 31.0553 71.5201 31.3443 71.7367 31.5756C71.9532 31.8069 72.2322 31.9704 72.5397 32.0464C72.8472 32.1225 73.1703 32.1078 73.4697 32.0042C73.769 31.9006 74.032 31.7124 74.2267 31.4625C74.4238 31.7452 74.6793 31.9821 74.976 32.1574C75.2727 32.3326 75.6035 32.4422 75.9461 32.4785C76.4697 31.5326 76.8242 30.5025 76.9934 29.4346C77.1673 28.3472 76.9641 27.2331 76.4175 26.2771C74.0885 25.5112 75.1358 22.7758 76.7145 23.8387C77.4648 24.3545 77.7494 24.3216 77.8087 23.8231C77.813 23.679 77.8563 23.5389 77.9339 23.4175C78.0116 23.2961 78.1207 23.198 78.2496 23.1337C78.3886 23.4269 78.6111 23.6724 78.8892 23.8394C79.1669 24.0064 79.4886 24.0875 79.8127 24.0725C80.1368 24.0575 80.4495 23.947 80.7103 23.7549C80.9719 23.5629 81.171 23.2978 81.282 22.993C81.4334 23.1529 81.6152 23.2808 81.8168 23.3692C82.0183 23.4576 82.2355 23.5046 82.4552 23.5076C82.6756 23.5105 82.8936 23.4692 83.0977 23.3861C83.3017 23.3031 83.4868 23.1801 83.6423 23.0242C84.0289 23.9353 84.3226 24.8833 84.5176 25.8534C84.7521 25.7212 84.9512 25.5334 85.096 25.3064C85.2416 25.0795 85.3288 24.8203 85.3502 24.5518C85.3716 24.2832 85.3271 24.0134 85.2202 23.7662C85.1132 23.5189 84.9471 23.3017 84.7364 23.1337C84.9717 23.0143 85.1758 22.8418 85.3329 22.6297C85.49 22.4177 85.5961 22.172 85.6414 21.912Z" fill="#17334F"/>
  <path d="M119.779 17.4417C119.674 16.808 119.384 16.2197 118.944 15.7512C118.504 15.2827 117.936 14.955 117.31 14.8096C116.684 14.6643 116.03 14.7076 115.429 14.9343C114.828 15.1611 114.308 15.5609 113.933 16.0834C113.56 16.6058 113.349 17.2273 113.329 17.8693C113.308 18.5114 113.478 19.1451 113.818 19.6903C114.158 20.2356 114.652 20.6679 115.236 20.9326C115.822 21.1973 116.473 21.2826 117.106 21.1775C117.955 21.0355 118.714 20.5626 119.215 19.8622C119.716 19.1619 119.919 18.2914 119.779 17.4417Z" fill="#17334F"/>
  <path d="M22.7425 90.3135L15.4116 92.6729L18.4407 110.556L22.7425 90.3135Z" fill="#17334F"/>
  <path d="M124.547 59.3952L120.342 63.256C121.817 63.5682 123.25 64.0562 124.609 64.7097C125.185 64.9549 125.714 65.2988 126.172 65.7257C126.813 66.4604 123.375 65.4131 121.686 65.2255H121.671C122.012 65.4054 122.323 65.6374 122.593 65.9133C123.147 66.5476 118.906 65.112 118.529 65.3818C120.154 66.1165 122.671 67.5076 123.281 68.5903C124 69.8876 120.311 67.3077 117.919 67.2296C119.435 67.933 121.092 68.9185 121.686 70.0127C122.499 71.4935 119.561 68.7787 116.059 68.6684H116.044C119.389 70.7005 120.952 72.3705 116.2 70.3097C115.329 69.92 114.399 69.677 113.449 69.5907L103.898 78.3242L132.097 77.2301L136.239 58.9731L124.547 59.3952Z" fill="#17334F"/>
  <path d="M149.935 58.3949L132.116 77.1989L139.181 46.0933L157 27.2893L149.935 58.3949Z" stroke="#17334F" stroke-width="0.826815" stroke-linejoin="round"/>
  <path d="M124.547 59.3952L120.342 63.256C121.817 63.5682 123.25 64.0562 124.609 64.7097C125.185 64.9549 125.714 65.2988 126.173 65.7257C126.813 66.4604 123.375 65.4131 121.686 65.2255H121.671C122.012 65.4054 122.323 65.6374 122.593 65.9133C123.148 66.5476 118.907 65.112 118.529 65.3818C120.155 66.1165 122.671 67.5076 123.281 68.5903C124 69.8876 120.311 67.3077 117.919 67.2296C119.436 67.933 121.092 68.9185 121.686 70.0127C122.499 71.4935 119.561 68.7787 116.059 68.6684H116.044C119.389 70.7005 120.952 72.3705 116.2 70.3097C115.329 69.92 114.399 69.677 113.449 69.5907L103.898 78.3242L132.097 77.2301L136.239 58.9731L124.547 59.3952Z" stroke="#17334F" stroke-width="0.826815" stroke-linejoin="round"/>
  <path d="M85.6415 21.912C85.7082 21.5333 85.6374 21.1433 85.4424 20.8117C85.2483 20.4802 84.9414 20.2287 84.5786 20.1021C84.8123 19.8861 84.9776 19.6066 85.055 19.2978C85.1323 18.989 85.1175 18.6645 85.0122 18.3639C84.9077 18.0635 84.7168 17.8001 84.4651 17.6063C84.2125 17.4125 83.909 17.2966 83.5914 17.2729C83.7206 16.9974 83.7716 16.6913 83.737 16.3888C83.7033 16.0863 83.5856 15.7992 83.3981 15.5595C83.2105 15.3198 82.9604 15.1367 82.6749 15.0308C82.3895 14.9249 82.0801 14.9002 81.7815 14.9595C81.8202 14.6562 81.7725 14.3481 81.6441 14.0704C81.5158 13.7928 81.3126 13.5567 81.0567 13.3889C80.8009 13.2212 80.5031 13.1286 80.1978 13.1216C79.8918 13.1146 79.5907 13.1936 79.3274 13.3495C79.2715 13.038 79.1274 12.749 78.9116 12.5175C78.6958 12.2859 78.4177 12.1215 78.1109 12.0439C77.804 11.9663 77.4813 11.979 77.1813 12.0803C76.8815 12.1816 76.6171 12.3672 76.4201 12.6149C76.271 12.3165 76.0382 12.068 75.7502 11.8996C75.4622 11.7313 75.1314 11.6505 74.7982 11.6671C74.465 11.6837 74.1438 11.7969 73.8739 11.993C73.604 12.189 73.3971 12.4595 73.2783 12.7712C73.0894 12.5721 72.8534 12.4237 72.5922 12.3397C72.3309 12.2558 72.0526 12.2388 71.7831 12.2907C71.5135 12.3425 71.2614 12.4612 71.0499 12.6361C70.8383 12.8109 70.6742 13.0362 70.5725 13.2911C70.5994 12.9003 70.514 12.5099 70.3266 12.1659C70.1391 11.8219 69.8572 11.5386 69.5143 11.3493C69.1712 11.1601 68.7813 11.0728 68.3903 11.0975C67.9994 11.1224 67.6236 11.2584 67.3073 11.4894C67.1341 11.0897 66.8429 10.7523 66.4728 10.5225C66.1027 10.2927 65.6712 10.1814 65.2361 10.2034C64.8009 10.2256 64.3829 10.38 64.0379 10.6461C63.693 10.9122 63.4375 11.2774 63.3057 11.6926C62.948 11.4763 62.5325 11.3747 62.1152 11.4016C61.698 11.4285 61.299 11.5826 60.972 11.843C60.6449 12.1036 60.4055 12.4581 60.2861 12.8588C60.1666 13.2594 60.1728 13.6872 60.3038 14.0842C59.8853 14.1316 59.4915 14.3068 59.1761 14.5861C58.8608 14.8653 58.6392 15.2349 58.5416 15.6447C58.4439 16.0544 58.4749 16.4843 58.6304 16.8758C58.7859 17.2672 59.0582 17.6012 59.4103 17.8323C59.0806 18.0994 58.8418 18.4621 58.727 18.8705C58.6122 19.279 58.627 19.713 58.7694 20.1127C58.9118 20.5124 59.1747 20.858 59.5219 21.102C59.8691 21.3459 60.2835 21.476 60.7077 21.4743C60.6226 21.8819 60.6639 22.3057 60.8262 22.6891C60.9884 23.0725 61.2638 23.3972 61.6156 23.6199C61.9674 23.8426 62.3788 23.9525 62.7948 23.935C63.2107 23.9174 63.6114 23.7734 63.9433 23.522C64.0748 23.8592 64.2958 24.154 64.5826 24.3747C64.8694 24.5953 65.211 24.7334 65.5706 24.7741C65.5045 25.0075 65.4912 25.2527 65.5316 25.4919C65.5719 25.7311 65.6649 25.9583 65.804 26.1571C65.9429 26.3559 66.1243 26.5214 66.3351 26.6415C66.5459 26.7615 66.7807 26.8333 67.0226 26.8514C66.892 27.1278 66.8414 27.4352 66.8766 27.7389C66.9118 28.0426 67.0313 28.3304 67.2218 28.5695C67.4121 28.8088 67.6657 28.9898 67.9537 29.0923C68.2418 29.1947 68.5528 29.2144 68.8514 29.1491C68.8156 29.453 68.8656 29.7609 68.9959 30.0378C69.1262 30.3147 69.3315 30.5495 69.5886 30.7155C69.8456 30.8816 70.144 30.9722 70.45 30.9772C70.756 30.9821 71.0572 30.9012 71.3195 30.7435C71.3753 31.0553 71.5202 31.3443 71.7368 31.5756C71.9533 31.8069 72.2323 31.9704 72.5398 32.0464C72.8474 32.1225 73.1704 32.1078 73.4698 32.0042C73.7692 31.9006 74.0321 31.7124 74.2268 31.4625C74.4239 31.7452 74.6795 31.9821 74.9761 32.1574C75.2728 32.3326 75.6036 32.4422 75.9462 32.4785C76.4699 31.5326 76.8243 30.5025 76.9935 29.4346C77.1674 28.3472 76.9642 27.2331 76.4176 26.2771C74.0886 25.5112 75.1359 22.7758 76.7146 23.8387C77.4649 24.3545 77.7495 24.3216 77.8088 23.8231C77.8131 23.679 77.8564 23.5389 77.9341 23.4175C78.0117 23.2961 78.1208 23.198 78.2497 23.1337C78.3887 23.4269 78.6112 23.6724 78.8894 23.8394C79.167 24.0064 79.4887 24.0875 79.8128 24.0725C80.137 24.0575 80.4496 23.947 80.7104 23.7549C80.972 23.5629 81.1711 23.2978 81.2821 22.993C81.4335 23.1529 81.6153 23.2808 81.8169 23.3692C82.0184 23.4576 82.2356 23.5046 82.4553 23.5076C82.6758 23.5105 82.8938 23.4692 83.0978 23.3861C83.3018 23.3031 83.4869 23.1801 83.6424 23.0242C84.0291 23.9353 84.3228 24.8833 84.5177 25.8534C84.7522 25.7212 84.9513 25.5334 85.0961 25.3064C85.2417 25.0795 85.3289 24.8203 85.3503 24.5518C85.3717 24.2832 85.3273 24.0134 85.2203 23.7662C85.1134 23.5189 84.9472 23.3017 84.7366 23.1337C84.9719 23.0143 85.1759 22.8418 85.333 22.6297C85.4901 22.4177 85.5963 22.172 85.6415 21.912Z" stroke="#17334F" stroke-width="0.826815" stroke-linejoin="round"/>
  <path d="M84.219 31.5885L130.877 23.7418" stroke="#17334F" stroke-width="0.826815" stroke-linecap="round" stroke-linejoin="round"/>
  <path d="M7.65894 44.4363L75.6535 33.0258" stroke="#17334F" stroke-width="0.826815" stroke-linecap="round" stroke-linejoin="round"/>
  <path d="M79.4673 38.9348L93.457 51.5021" stroke="#17334F" stroke-width="0.826815" stroke-linecap="round" stroke-linejoin="round"/>
  <path d="M93.5194 52.878C93.707 52.1746 93.7078 51.6728 93.4569 51.5025C93.2233 51.3445 92.7988 51.4844 92.269 51.862C91.4751 52.4888 90.7569 53.2067 90.13 54.001" stroke="#17334F" stroke-width="0.826815" stroke-linecap="round" stroke-linejoin="round"/>
  <path d="M35.0589 71.4003C29.7757 67.1956 29.338 67.0706 25.1489 62.4907C16.3018 63.7412 6.56456 66.6954 2.43799 68.6493C8.73669 71.0292 15.4828 71.9899 22.1955 71.4629L29.3701 77.9185" stroke="#17334F" stroke-width="0.826815" stroke-linecap="round" stroke-linejoin="round"/>
  <path d="M74.7937 38.9656L89.5337 52.1893" stroke="#17334F" stroke-width="0.826815" stroke-linecap="round" stroke-linejoin="round"/>
  <path d="M82.3746 62.8338L72.8397 54.7526L78.6141 63.7379" stroke="#17334F" stroke-width="0.826815" stroke-linecap="round" stroke-linejoin="round"/>
  <path d="M116.403 64.5964C116.979 64.7215 122.252 66.5643 123.359 68.5354C124.099 69.8476 120.358 67.2381 117.935 67.1599" stroke="#17334F" stroke-width="0.826815" stroke-linecap="round" stroke-linejoin="round"/>
  <path d="M115.887 66.3208C117.357 66.8523 120.839 68.3232 121.749 69.9784C122.572 71.4807 119.61 68.728 116.059 68.6185" stroke="#17334F" stroke-width="0.826815" stroke-linecap="round" stroke-linejoin="round"/>
  <path d="M115.481 68.2892C119.201 70.4619 121.251 72.4733 116.2 70.2899C113.59 69.162 94.5635 68.5862 94.5635 68.5862C92.8934 68.4134 91.2991 67.8036 89.94 66.8182L82.4059 61.0973" stroke="#17334F" stroke-width="0.826815" stroke-linecap="round" stroke-linejoin="round"/>
  <path d="M88.3457 52.5486L96.0049 59.348C96.0049 59.348 115.2 62.9431 116.669 63.3627C118.138 63.7823 121.657 64.6741 122.687 65.848C123.235 66.4725 120.219 65.3947 118.388 65.301" stroke="#17334F" stroke-width="0.826815" stroke-linecap="round" stroke-linejoin="round"/>
  <path d="M89.5961 53.5644C89.7837 52.861 89.7845 52.3592 89.5336 52.1889C89.2999 52.0309 88.8754 52.1716 88.3456 52.5484C86.1828 54.0876 82.9686 58.8592 82.2964 61.4736C82.1319 62.1153 82.1615 62.6937 82.3746 62.8335C82.6214 62.9981 83.3281 62.8023 83.8554 62.2083" stroke="#17334F" stroke-width="0.826815" stroke-linecap="round" stroke-linejoin="round"/>
  <path d="M58.4906 67.9307C62.2644 68.0896 65.9766 66.9351 68.9946 64.6638" stroke="#17334F" stroke-width="0.826815" stroke-linecap="round" stroke-linejoin="round"/>
  <path d="M78.4825 63.9748L80.1551 60.958" stroke="#17334F" stroke-width="0.826815" stroke-linecap="round" stroke-linejoin="round"/>
  <path d="M79.2172 37.4485C78.1855 38.9491 76.2942 38.2926 73.6838 35.776" stroke="#17334F" stroke-width="0.826815" stroke-linecap="round" stroke-linejoin="round"/>
  <path d="M62.474 86.9384L74.6217 73.416L61.2416 95.2055" stroke="#17334F" stroke-width="0.826815" stroke-linecap="round" stroke-linejoin="round"/>
  <path d="M43.3598 94.6899C44.2422 95.4821 45.2719 96.0934 46.3904 96.4874C47.5088 96.8815 48.6939 97.0518 49.8781 96.9876C51.0624 96.9243 52.2223 96.6273 53.2918 96.1156C54.3614 95.6031 55.3195 94.8849 56.1114 94.0021L62.4707 86.9386L59.9566 103.721L49.5777 115.288C52.1819 119.861 56.1957 123.468 61.0195 125.572L72.0081 113.333C73.6347 111.524 74.7844 109.337 75.3531 106.971C77.7454 96.9342 76.9318 79.2103 78.4793 63.9702C72.2581 62.8135 69.9604 61.4067 65.2242 57.6709C62.1639 59.9078 55.3331 61.5679 48.4687 78.6369L38.2329 69.4303C33.5107 71.833 29.8504 75.9055 27.9634 80.8565L43.3598 94.6899Z" stroke="#17334F" stroke-width="0.826815" stroke-linecap="round" stroke-linejoin="round"/>
  <path d="M79.9774 32.6098C79.5636 32.4555 79.1597 32.2758 78.7681 32.0718L79.562 33.7994" stroke="#17334F" stroke-width="0.826815" stroke-linecap="round" stroke-linejoin="round"/>
  <path d="M80.624 44.2022C79.4722 40.8786 78.5163 35.7969 79.9732 32.6107C85.8916 34.7817 85.3906 27.1086 83.6564 23.0536M65.2234 57.6605C65.8885 55.5703 66.3389 53.4177 66.5677 51.2362C66.9658 47.8798 67.9399 44.6172 69.447 41.5919C70.9196 38.4978 74.3009 35.6447 76.0285 32.354C76.5462 31.45 76.875 30.4502 76.9951 29.4154C77.1695 28.328 76.9662 27.2138 76.4193 26.2579C74.0902 25.492 75.1425 22.75 76.7162 23.8195C77.469 24.332 77.7635 24.3041 77.8104 23.8039C77.8528 23.5409 77.9055 23.2906 77.9677 23.0536" stroke="#17334F" stroke-width="0.826815" stroke-linecap="round" stroke-linejoin="round"/>
  <path d="M53.0354 111.446C55.8625 115.851 59.8862 119.359 64.6352 121.56" stroke="#17334F" stroke-width="0.826815" stroke-linecap="round" stroke-linejoin="round"/>
  <path d="M31.3708 83.8729C33.9968 79.1013 37.2793 75.1821 41.5935 72.4623" stroke="#17334F" stroke-width="0.826815" stroke-linecap="round" stroke-linejoin="round"/>
  <path d="M51.4411 118.121C48.1388 122.152 45.1846 125.316 41.9687 128.672C41.109 133.752 41.5154 145.412 43.1567 150.836C47.5169 143.584 49.0964 138.973 51.3012 131.503L57.9912 124.063" stroke="#17334F" stroke-width="0.826815" stroke-linecap="round" stroke-linejoin="round"/>
  <path d="M22.5394 71.7757C24.015 69.4065 25.8261 67.2636 27.9165 65.4139" stroke="#17334F" stroke-width="0.826815" stroke-linecap="round" stroke-linejoin="round"/>
  <path d="M121.749 65.1636C123.453 65.3355 126.92 66.3976 126.282 65.6638C125.819 65.2321 125.285 64.8832 124.703 64.6321C122.498 63.5544 120.389 63.2097 118.044 62.5688L99.8632 58.1609L92.2765 51.8542" stroke="#17334F" stroke-width="0.826815" stroke-linecap="round" stroke-linejoin="round"/>
  <path d="M63.6019 67.3197L49.581 87.9213L36.0289 77.1828" stroke="#17334F" stroke-width="0.826815" stroke-linecap="round" stroke-linejoin="round"/>
  <path d="M101.929 20.4128C102.034 21.0466 101.949 21.6972 101.684 22.2826C101.42 22.8678 100.987 23.3615 100.442 23.7011C99.897 24.0407 99.2627 24.211 98.621 24.1904C97.9785 24.1699 97.3574 23.9594 96.835 23.5856C96.3126 23.2119 95.9128 22.6915 95.6857 22.0905C95.4595 21.4895 95.4159 20.8347 95.5615 20.209C95.7063 19.5833 96.0345 19.0148 96.5026 18.5753C96.9715 18.1358 97.5598 17.8451 98.1932 17.74C99.0431 17.5994 99.9143 17.8021 100.614 18.3032C101.314 18.8044 101.788 19.5632 101.929 20.4128Z" stroke="#17334F" stroke-width="0.826815" stroke-linecap="round" stroke-linejoin="round"/>
  <path d="M110.776 18.9425C110.881 19.5762 110.796 20.2269 110.531 20.8122C110.267 21.3975 109.834 21.8912 109.289 22.2308C108.744 22.5704 108.11 22.7407 107.468 22.7201C106.826 22.6995 106.204 22.489 105.682 22.1153C105.16 21.7415 104.76 21.2212 104.533 20.6201C104.307 20.0192 104.263 19.3644 104.409 18.7387C104.553 18.113 104.882 17.5445 105.35 17.105C105.819 16.6655 106.407 16.3748 107.04 16.2696C107.89 16.1291 108.761 16.3317 109.461 16.8329C110.162 17.3341 110.635 18.0929 110.776 18.9425Z" stroke="#17334F" stroke-width="0.826815" stroke-linecap="round" stroke-linejoin="round"/>
  <path d="M119.779 17.4419C119.885 18.0756 119.799 18.7263 119.534 19.3116C119.27 19.8969 118.838 20.3906 118.292 20.7302C117.747 21.0698 117.113 21.24 116.471 21.2195C115.829 21.1989 115.208 20.9884 114.685 20.6147C114.163 20.2408 113.763 19.7206 113.536 19.1195C113.31 18.5186 113.266 17.8638 113.412 17.2381C113.557 16.6123 113.885 16.0438 114.353 15.6044C114.822 15.1649 115.41 14.8742 116.044 14.769C116.894 14.6283 117.765 14.8308 118.465 15.332C119.166 15.8332 119.639 16.5922 119.779 17.4419Z" stroke="#17334F" stroke-width="0.826815" stroke-linecap="round" stroke-linejoin="round"/>
  <path d="M26.7442 6.00012L20.7732 14.4096" stroke="#17334F" stroke-width="0.826815" stroke-linecap="round" stroke-linejoin="round"/>
  <path d="M27.9634 13.1907L19.5696 7.21973" stroke="#17334F" stroke-width="0.826815" stroke-linecap="round" stroke-linejoin="round"/>
  <path d="M3.03202 96.6446L2.84445 96.7072L8.61226 101.818L1 110.181L5.07967 113.823L12.6919 105.445L18.4433 110.557L22.7426 90.3149L3.03202 96.6446Z" stroke="#17334F" stroke-width="0.826815" stroke-linecap="round" stroke-linejoin="round"/>
  <path d="M103.695 108.18L91.5969 104.429L101.773 97.3634" stroke="#17334F" stroke-width="0.826815" stroke-linecap="round" stroke-linejoin="round"/>
  <path d="M113.636 106.585L123.734 99.1138L111.714 95.7532" stroke="#17334F" stroke-width="0.826815" stroke-linecap="round" stroke-linejoin="round"/>
  <path d="M109.854 91.2972L105.43 112.837" stroke="#17334F" stroke-width="0.826815" stroke-linecap="round" stroke-linejoin="round"/>
  <path d="M11.9923 71.1099L20.1011 121.106C20.3908 122.811 21.0137 124.442 21.9342 125.906C22.8548 127.37 24.0549 128.639 25.4658 129.639C26.8768 130.639 28.4711 131.351 30.1575 131.736C31.844 132.119 33.5895 132.167 35.2943 131.875L41.7954 130.782" stroke="#17334F" stroke-width="0.826815" stroke-linecap="round" stroke-linejoin="round"/>
  <path d="M138.459 70.5648L143.288 100.332C143.58 102.037 143.532 103.783 143.149 105.469C142.764 107.156 142.052 108.75 141.052 110.161C140.052 111.572 138.783 112.772 137.319 113.693C135.855 114.613 134.224 115.236 132.519 115.526L53.797 128.764" stroke="#17334F" stroke-width="0.826815" stroke-linecap="round" stroke-linejoin="round"/>
  <path d="M58.7891 18.7543L17.8501 25.6322C16.145 25.922 14.5137 26.545 13.0495 27.4655C11.5853 28.386 10.3169 29.586 9.31669 30.9971C8.31656 32.4081 7.6042 34.0023 7.2205 35.6887C6.8368 37.3752 6.78917 39.1207 7.0804 40.8255L11.0905 65.5502" stroke="#17334F" stroke-width="0.826815" stroke-linecap="round" stroke-linejoin="round"/>
  <path d="M81.7964 14.8896L115.075 9.29854C116.779 9.00731 118.525 9.05494 120.211 9.43864C121.898 9.82234 123.492 10.5347 124.903 11.5348C126.314 12.535 127.514 13.8035 128.435 15.2677C129.356 16.7319 129.978 18.3632 130.268 20.0682L136.439 58.1111" stroke="#17334F" stroke-width="0.826815" stroke-linecap="round" stroke-linejoin="round"/>
  <path d="M45.1105 125.358C46.8322 127.723 48.922 129.797 51.3003 131.5" stroke="#17334F" stroke-width="0.826815" stroke-linecap="round" stroke-linejoin="round"/>
</svg>