<svg width="156" height="156" viewBox="0 0 156 156" fill="none" xmlns="http://www.w3.org/2000/svg">
<g id="Send-And-Receive-Via-Qr-Code-2--Streamline-Bangalore 1">
<g id="send-and-receive-via-qr-code-2--finance-send-and-receive-via-qr-code">
<g id="cash 2">
<path id="vector" d="M152.1 132.552H105.529V151.686H152.1V132.552Z" stroke="#F0F2F4" stroke-width="0.78" stroke-linecap="round" stroke-linejoin="round"/>
<path id="Subtract" fill-rule="evenodd" clip-rule="evenodd" d="M110.76 146.64L111.444 145.026C111.003 144.472 110.764 143.81 110.76 143.13C110.76 141.19 112.682 139.62 115.054 139.62C117.425 139.62 119.34 141.19 119.34 143.13C119.34 145.07 117.418 146.64 115.046 146.64C114.162 146.644 113.295 146.416 112.554 145.983L110.76 146.64ZM113.566 143.339C113.612 143.277 113.637 143.205 113.637 143.13C113.636 143.03 113.592 142.934 113.513 142.864C113.434 142.793 113.327 142.754 113.215 142.754C113.132 142.754 113.051 142.776 112.982 142.818C112.913 142.859 112.86 142.918 112.828 142.987C112.796 143.056 112.788 143.131 112.805 143.204C112.821 143.277 112.861 143.344 112.92 143.397C112.979 143.449 113.054 143.485 113.135 143.5C113.216 143.514 113.301 143.506 113.378 143.478C113.454 143.449 113.52 143.401 113.566 143.339ZM115.467 143.13C115.467 143.205 115.442 143.277 115.396 143.339C115.35 143.401 115.284 143.45 115.207 143.478C115.13 143.507 115.046 143.514 114.964 143.5C114.883 143.485 114.808 143.449 114.749 143.396C114.691 143.344 114.651 143.277 114.634 143.204C114.618 143.131 114.627 143.055 114.658 142.986C114.69 142.917 114.744 142.859 114.813 142.817C114.882 142.776 114.963 142.754 115.046 142.754C115.158 142.754 115.265 142.794 115.343 142.864C115.422 142.935 115.466 143.03 115.467 143.13ZM117.233 143.339C117.279 143.277 117.304 143.205 117.304 143.13C117.303 143.03 117.259 142.935 117.18 142.864C117.102 142.794 116.995 142.754 116.883 142.754C116.8 142.754 116.719 142.776 116.65 142.817C116.581 142.859 116.527 142.917 116.495 142.986C116.463 143.055 116.455 143.131 116.472 143.204C116.488 143.277 116.528 143.344 116.586 143.396C116.645 143.449 116.72 143.485 116.801 143.5C116.883 143.514 116.967 143.507 117.044 143.478C117.121 143.45 117.187 143.401 117.233 143.339Z" fill="#24BBFF"/>
</g>
<g id="line">
<path id="vector_4" d="M68.1313 8.4313C76.3751 6.64724 84.945 7.08851 92.9619 9.70987C100.979 12.3312 108.154 17.0383 113.751 23.348" stroke="#F0F2F4" stroke-width="0.78" stroke-linecap="round" stroke-linejoin="round"/>
<path id="vector_5" d="M31.5237 46.1638C32.8844 38.8908 35.9219 32.0352 40.3952 26.1413C44.8685 20.2473 50.6544 15.4775 57.2933 12.2104" stroke="#F0F2F4" stroke-width="0.78" stroke-linecap="round" stroke-linejoin="round"/>
<path id="vector_6" d="M83.247 137.17C81.577 137.345 79.8992 137.434 78.2207 137.434C70.8905 137.438 63.6593 135.742 57.0948 132.48C50.5302 129.219 44.8109 124.479 40.386 118.636" stroke="#F0F2F4" stroke-width="0.78" stroke-linecap="round" stroke-linejoin="round"/>
<path id="vector_7" d="M125.35 95.8214C124.253 104.55 120.756 112.804 115.249 119.666C109.743 126.528 102.441 131.728 94.157 134.689" stroke="#F0F2F4" stroke-width="0.78" stroke-linecap="round" stroke-linejoin="round"/>
</g>
<g id="phone 1">
<path id="vector_8" fill-rule="evenodd" clip-rule="evenodd" d="M72.596 113.049C72.5098 113.942 72.0933 114.769 71.4284 115.37C70.7634 115.971 69.8979 116.302 69.0017 116.297H27.746C26.7589 116.293 25.8123 115.904 25.1065 115.215C24.4007 114.524 23.9909 113.587 23.9637 112.6L22.5161 49.8601C22.5023 49.3781 22.5857 48.8984 22.7613 48.4492C22.9369 48.0002 23.201 47.591 23.5379 47.2462C23.8749 46.9013 24.2778 46.6277 24.7227 46.4418C25.1675 46.2558 25.6453 46.1612 26.1275 46.1637H23.2719C21.1791 46.1637 19.8953 48.4935 20.0528 51.3452C20.084 51.9107 21.5465 114.759 21.5465 114.759C21.5638 115.783 21.9783 116.76 22.7026 117.484C23.4268 118.208 24.404 118.622 25.4278 118.638H67.7147C69.8098 118.638 73.0242 119.86 72.596 113.049Z" fill="#24BBFF"/>
<path id="vector_9" d="M72.5647 110.502H23.9153L23.9636 112.6C23.9908 113.587 24.4006 114.524 25.1064 115.214C25.8122 115.904 26.7588 116.293 27.7459 116.297H69.0016C69.4837 116.3 69.9614 116.204 70.4062 116.019C70.8509 115.832 71.2538 115.559 71.5907 115.214C71.9276 114.869 72.1917 114.46 72.3673 114.011C72.543 113.562 72.6265 113.082 72.613 112.6L72.5647 110.502Z" stroke="#F0F2F4" stroke-width="0.78" stroke-linecap="round" stroke-linejoin="round"/>
<path id="vector_10" d="M22.5284 50.3991H71.177L71.1646 49.8601C71.1374 48.8736 70.7276 47.9362 70.0217 47.2463C69.3159 46.5564 68.3694 46.1682 67.3823 46.1637H26.1297C25.6475 46.1612 25.1698 46.2558 24.7249 46.4418C24.28 46.6277 23.8771 46.9013 23.5402 47.2462C23.2032 47.591 22.9391 48.0002 22.7635 48.4492C22.588 48.8984 22.5046 49.3781 22.5183 49.8601L22.5284 50.3991Z" stroke="#F0F2F4" stroke-width="0.78" stroke-linecap="round" stroke-linejoin="round"/>
<path id="vector_11" d="M22.5286 50.3993H71.1772L72.5648 110.502H23.9154L22.5286 50.3993Z" stroke="#F0F2F4" stroke-width="0.78" stroke-linecap="round" stroke-linejoin="round"/>
<path id="vector_12" d="M26.1298 46.1637H23.2719C21.1791 46.1637 19.8953 48.4936 20.0528 51.3452C20.0575 51.4232 20.1043 52.9052 21.5465 114.759C21.5638 115.783 21.9783 116.76 22.7026 117.484C23.4268 118.208 24.404 118.622 25.4278 118.638H67.7147C69.8075 118.638 73.0242 119.862 72.596 113.051" stroke="#F0F2F4" stroke-width="0.78" stroke-linecap="round" stroke-linejoin="round"/>
<g id="group_2">
<path id="vector_13" d="M39.1238 64.9946H31.8831L32.0391 71.8632" stroke="#F0F2F4" stroke-width="0.78" stroke-linecap="round" stroke-linejoin="round"/>
<path id="vector_14" d="M55.2549 64.9944H62.4956L62.6516 71.8631" stroke="#F0F2F4" stroke-width="0.78" stroke-linecap="round" stroke-linejoin="round"/>
<path id="vector_15" d="M39.8374 95.9071H32.5967L32.4407 89.0385" stroke="#F0F2F4" stroke-width="0.78" stroke-linecap="round" stroke-linejoin="round"/>
<path id="vector_16" d="M55.9688 95.9071H63.2095L63.0535 89.0385" stroke="#F0F2F4" stroke-width="0.78" stroke-linecap="round" stroke-linejoin="round"/>
<path id="vector_17" fill-rule="evenodd" clip-rule="evenodd" d="M43.4661 75.8074H52.3159L52.5203 84.6573H43.6704L43.4661 75.8074Z" fill="#F0F2F4"/>
<path id="vector_18" fill-rule="evenodd" clip-rule="evenodd" d="M35.8291 79.0811H39.6901L39.779 82.9429H35.918L35.8291 79.0811Z" fill="#F0F2F4"/>
<path id="vector_19" fill-rule="evenodd" clip-rule="evenodd" d="M45.7905 68.4286H49.6515L49.7404 72.2896H45.8794L45.7905 68.4286Z" fill="#F0F2F4"/>
<path id="vector_20" fill-rule="evenodd" clip-rule="evenodd" d="M55.3213 78.3017H59.1831L59.272 82.1627H55.411L55.3213 78.3017Z" fill="#F0F2F4"/>
<path id="vector_21" fill-rule="evenodd" clip-rule="evenodd" d="M45.8044 88.6119H49.6654L49.7544 92.4729H45.8934L45.8044 88.6119Z" fill="#F0F2F4"/>
<path id="vector_22" fill-rule="evenodd" clip-rule="evenodd" d="M35.5825 68.4279H40.665L40.782 73.5103H35.7003L35.5825 68.4279Z" fill="#F0F2F4"/>
<path id="vector_23" fill-rule="evenodd" clip-rule="evenodd" d="M36.0203 87.3904H41.1027L41.2205 92.4729H36.138L36.0203 87.3904Z" fill="#F0F2F4"/>
<path id="vector_24" fill-rule="evenodd" clip-rule="evenodd" d="M53.8728 68.4279H58.9545L59.0723 73.5103H53.9898L53.8728 68.4279Z" fill="#F0F2F4"/>
<path id="vector_25" fill-rule="evenodd" clip-rule="evenodd" d="M54.3103 87.3904H59.3928L59.5098 92.4729H54.4273L54.3103 87.3904Z" fill="#F0F2F4"/>
<path id="vector_26" d="M43.4661 75.8074H52.3159L52.5203 84.6573H43.6704L43.4661 75.8074Z" stroke="#F0F2F4" stroke-width="0.78" stroke-linecap="round" stroke-linejoin="round"/>
<path id="vector_27" d="M35.8291 79.0811H39.6901L39.779 82.9429H35.918L35.8291 79.0811Z" stroke="#F0F2F4" stroke-width="0.78" stroke-linecap="round" stroke-linejoin="round"/>
<path id="vector_28" d="M45.7905 68.4286H49.6515L49.7404 72.2896H45.8794L45.7905 68.4286Z" stroke="#F0F2F4" stroke-width="0.78" stroke-linecap="round" stroke-linejoin="round"/>
<path id="vector_29" d="M55.3213 78.3017H59.1831L59.272 82.1627H55.411L55.3213 78.3017Z" stroke="#F0F2F4" stroke-width="0.78" stroke-linecap="round" stroke-linejoin="round"/>
<path id="vector_30" d="M45.8044 88.6119H49.6654L49.7544 92.4729H45.8934L45.8044 88.6119Z" stroke="#F0F2F4" stroke-width="0.78" stroke-linecap="round" stroke-linejoin="round"/>
<path id="vector_31" d="M35.5825 68.4279H40.665L40.782 73.5103H35.7003L35.5825 68.4279Z" stroke="#F0F2F4" stroke-width="0.78" stroke-linecap="round" stroke-linejoin="round"/>
<path id="vector_32" d="M36.0203 87.3904H41.1027L41.2205 92.4729H36.138L36.0203 87.3904Z" stroke="#F0F2F4" stroke-width="0.78" stroke-linecap="round" stroke-linejoin="round"/>
<path id="vector_33" d="M53.8728 68.4279H58.9545L59.0723 73.5103H53.9898L53.8728 68.4279Z" stroke="#F0F2F4" stroke-width="0.78" stroke-linecap="round" stroke-linejoin="round"/>
<path id="vector_34" d="M54.3103 87.3904H59.3928L59.5098 92.4729H54.4273L54.3103 87.3904Z" stroke="#F0F2F4" stroke-width="0.78" stroke-linecap="round" stroke-linejoin="round"/>
</g>
<path id="vector_35" fill-rule="evenodd" clip-rule="evenodd" d="M52.7278 113.049C52.7205 112.792 52.6134 112.547 52.4292 112.367C52.245 112.187 51.9979 112.085 51.7403 112.084H44.8162C44.6903 112.083 44.5654 112.108 44.4491 112.156C44.3329 112.205 44.2276 112.276 44.1396 112.366C44.0516 112.457 43.9827 112.564 43.9371 112.681C43.8915 112.798 43.87 112.924 43.874 113.049C43.8809 113.307 43.9877 113.552 44.1719 113.732C44.356 113.912 44.6031 114.014 44.8607 114.014H51.7809C51.9071 114.016 52.0325 113.992 52.1492 113.944C52.2659 113.896 52.3718 113.824 52.4602 113.734C52.5487 113.644 52.618 113.537 52.664 113.419C52.71 113.301 52.7317 113.176 52.7278 113.049Z" fill="#F0F2F4"/>
<path id="vector_36" d="M52.7278 113.049C52.7205 112.792 52.6134 112.547 52.4292 112.367C52.245 112.187 51.9979 112.085 51.7403 112.084H44.8162C44.6903 112.083 44.5654 112.108 44.4491 112.156C44.3329 112.205 44.2276 112.276 44.1396 112.366C44.0516 112.457 43.9827 112.564 43.9371 112.681C43.8915 112.798 43.87 112.924 43.874 113.049C43.8809 113.307 43.9877 113.552 44.1719 113.732C44.356 113.912 44.6031 114.014 44.8607 114.014H51.7809C51.9071 114.016 52.0325 113.992 52.1492 113.944C52.2659 113.896 52.3718 113.824 52.4602 113.734C52.5487 113.644 52.618 113.537 52.664 113.419C52.71 113.301 52.7317 113.176 52.7278 113.049Z" stroke="#F0F2F4" stroke-width="0.78" stroke-linecap="round" stroke-linejoin="round"/>
<path id="vector_37" d="M47.5027 49.1491C47.8731 48.7744 47.8624 48.1633 47.4788 47.7841C47.0953 47.405 46.4841 47.4014 46.1137 47.776C45.7433 48.1507 45.754 48.7619 46.1376 49.141C46.5212 49.5202 47.1324 49.5238 47.5027 49.1491Z" stroke="#F0F2F4" stroke-width="0.78" stroke-linecap="round" stroke-linejoin="round"/>
</g>
<g id="phone 2">
<path id="vector_38" fill-rule="evenodd" clip-rule="evenodd" d="M133.536 23.3481H130.681C131.163 23.3459 131.641 23.4406 132.086 23.6268C132.53 23.8129 132.933 24.0865 133.27 24.4314C133.607 24.7763 133.871 25.1854 134.047 25.6345C134.222 26.0835 134.306 26.5633 134.292 27.0453L132.844 89.7852C132.817 90.7719 132.407 91.7087 131.701 92.399C130.995 93.0885 130.049 93.4769 129.063 93.4816H87.8099C86.9137 93.4863 86.0479 93.1556 85.3833 92.555C84.718 91.9544 84.3015 91.1268 84.2149 90.2345C83.7875 97.0454 87.0042 95.8216 89.0969 95.8216H131.385C132.41 95.8044 133.387 95.3903 134.111 94.6656C134.835 93.941 135.248 92.9637 135.264 91.9396C135.264 91.9396 136.727 29.0951 136.758 28.5296C136.916 25.6779 135.632 23.3481 133.536 23.3481Z" fill="#24BBFF"/>
<path id="vector_39" d="M84.2467 87.6869H132.895L132.847 89.7851C132.82 90.7718 132.41 91.7086 131.704 92.3989C130.998 93.0884 130.052 93.4768 129.066 93.4815H87.8098C87.3278 93.4839 86.8496 93.3895 86.405 93.203C85.9604 93.0174 85.5572 92.7436 85.2202 92.3989C84.8832 92.0541 84.6196 91.6446 84.4441 91.1961C84.2686 90.7468 84.1851 90.2671 84.1984 89.7851L84.2467 87.6869Z" stroke="#F0F2F4" stroke-width="0.78" stroke-linecap="round" stroke-linejoin="round"/>
<path id="vector_40" d="M134.283 27.5842H85.6338L85.6463 27.0452C85.6736 26.0585 86.0838 25.1212 86.789 24.4313C87.4949 23.7414 88.4418 23.3528 89.4285 23.348H130.684C131.166 23.3458 131.644 23.4406 132.089 23.6267C132.534 23.8128 132.936 24.0864 133.273 24.4313C133.61 24.7763 133.874 25.1854 134.05 25.6344C134.225 26.0835 134.309 26.5632 134.296 27.0452L134.283 27.5842Z" stroke="#F0F2F4" stroke-width="0.78" stroke-linecap="round" stroke-linejoin="round"/>
<path id="vector_41" d="M134.283 27.5841H85.6337L84.2468 87.6868H132.895L134.283 27.5841Z" stroke="#F0F2F4" stroke-width="0.78" stroke-linecap="round" stroke-linejoin="round"/>
<path id="vector_42" d="M130.684 23.348H133.539C135.632 23.348 136.916 25.6778 136.758 28.5295C136.758 28.6075 136.707 30.0895 135.264 91.9395C135.248 92.9637 134.834 93.941 134.11 94.6656C133.386 95.3895 132.41 95.8044 131.385 95.8216H89.0969C87.0042 95.8216 83.7875 97.0454 84.2149 90.2344" stroke="#F0F2F4" stroke-width="0.78" stroke-linecap="round" stroke-linejoin="round"/>
<path id="vector_43" d="M117.687 42.1786H124.928L124.772 49.0481" stroke="#F0F2F4" stroke-width="0.78" stroke-linecap="round" stroke-linejoin="round"/>
<path id="vector_44" d="M101.556 42.1786H94.3152L94.1592 49.0481" stroke="#F0F2F4" stroke-width="0.78" stroke-linecap="round" stroke-linejoin="round"/>
<path id="vector_45" d="M116.973 73.0926H124.214L124.37 66.2239" stroke="#F0F2F4" stroke-width="0.78" stroke-linecap="round" stroke-linejoin="round"/>
<path id="vector_46" d="M100.843 73.0926H93.5999L93.7559 66.2239" stroke="#F0F2F4" stroke-width="0.78" stroke-linecap="round" stroke-linejoin="round"/>
<path id="vector_47" fill-rule="evenodd" clip-rule="evenodd" d="M113.345 52.9924H104.495L104.291 61.8423H113.14L113.345 52.9924Z" fill="#F0F2F4"/>
<path id="vector_48" fill-rule="evenodd" clip-rule="evenodd" d="M120.982 56.2662H117.121L117.032 60.128H120.894L120.982 56.2662Z" fill="#F0F2F4"/>
<path id="vector_49" fill-rule="evenodd" clip-rule="evenodd" d="M111.021 45.6138H107.159L107.071 49.4748H110.932L111.021 45.6138Z" fill="#F0F2F4"/>
<path id="vector_50" fill-rule="evenodd" clip-rule="evenodd" d="M101.489 55.4871H97.6285L97.5396 59.3481H101.401L101.489 55.4871Z" fill="#F0F2F4"/>
<path id="vector_51" fill-rule="evenodd" clip-rule="evenodd" d="M111.007 65.7968H107.146L107.056 69.6578H110.918L111.007 65.7968Z" fill="#F0F2F4"/>
<path id="vector_52" fill-rule="evenodd" clip-rule="evenodd" d="M121.228 45.6138H116.146L116.029 50.6955H121.111L121.228 45.6138Z" fill="#F0F2F4"/>
<path id="vector_53" fill-rule="evenodd" clip-rule="evenodd" d="M120.791 64.5756H115.708L115.591 69.6581H120.674L120.791 64.5756Z" fill="#F0F2F4"/>
<path id="vector_54" fill-rule="evenodd" clip-rule="evenodd" d="M102.939 45.6138H97.8563L97.7393 50.6955H102.821L102.939 45.6138Z" fill="#F0F2F4"/>
<path id="vector_55" fill-rule="evenodd" clip-rule="evenodd" d="M102.501 64.5756H97.4188L97.301 69.6581H102.384L102.501 64.5756Z" fill="#F0F2F4"/>
<path id="vector_56" d="M113.345 52.9924H104.495L104.291 61.8423H113.14L113.345 52.9924Z" stroke="#F0F2F4" stroke-width="0.78" stroke-linecap="round" stroke-linejoin="round"/>
<path id="vector_57" d="M120.982 56.2662H117.121L117.032 60.128H120.894L120.982 56.2662Z" stroke="#F0F2F4" stroke-width="0.78" stroke-linecap="round" stroke-linejoin="round"/>
<path id="vector_58" d="M111.021 45.6138H107.159L107.071 49.4748H110.932L111.021 45.6138Z" stroke="#F0F2F4" stroke-width="0.78" stroke-linecap="round" stroke-linejoin="round"/>
<path id="vector_59" d="M101.489 55.4871H97.6285L97.5396 59.3481H101.401L101.489 55.4871Z" stroke="#F0F2F4" stroke-width="0.78" stroke-linecap="round" stroke-linejoin="round"/>
<path id="vector_60" d="M111.007 65.7968H107.146L107.056 69.6578H110.918L111.007 65.7968Z" stroke="#F0F2F4" stroke-width="0.78" stroke-linecap="round" stroke-linejoin="round"/>
<path id="vector_61" d="M121.228 45.6138H116.146L116.029 50.6955H121.111L121.228 45.6138Z" stroke="#F0F2F4" stroke-width="0.78" stroke-linecap="round" stroke-linejoin="round"/>
<path id="vector_62" d="M120.791 64.5756H115.708L115.591 69.6581H120.674L120.791 64.5756Z" stroke="#F0F2F4" stroke-width="0.78" stroke-linecap="round" stroke-linejoin="round"/>
<path id="vector_63" d="M102.939 45.6138H97.8563L97.7393 50.6955H102.821L102.939 45.6138Z" stroke="#F0F2F4" stroke-width="0.78" stroke-linecap="round" stroke-linejoin="round"/>
<path id="vector_64" d="M102.501 64.5756H97.4188L97.301 69.6581H102.384L102.501 64.5756Z" stroke="#F0F2F4" stroke-width="0.78" stroke-linecap="round" stroke-linejoin="round"/>
<path id="vector_65" fill-rule="evenodd" clip-rule="evenodd" d="M104.088 90.2345C104.095 89.9771 104.202 89.7321 104.386 89.552C104.571 89.3718 104.818 89.2704 105.075 89.2688H111.995C112.121 89.268 112.246 89.2922 112.362 89.3406C112.478 89.3897 112.584 89.4607 112.672 89.5512C112.76 89.6409 112.829 89.7485 112.875 89.8655C112.921 89.9833 112.942 90.1089 112.938 90.2345C112.931 90.4919 112.823 90.7368 112.639 90.917C112.455 91.0971 112.208 91.1985 111.95 91.1993H105.03C104.905 91.2001 104.78 91.1759 104.663 91.1276C104.547 91.0792 104.442 91.0074 104.354 90.9177C104.266 90.8273 104.197 90.7204 104.151 90.6034C104.106 90.4856 104.084 90.3608 104.088 90.2345Z" fill="#F0F2F4"/>
<path id="vector_66" d="M104.088 90.2345C104.095 89.9771 104.202 89.7321 104.386 89.552C104.571 89.3718 104.818 89.2704 105.075 89.2688H111.995C112.121 89.268 112.246 89.2922 112.362 89.3406C112.478 89.3897 112.584 89.4607 112.672 89.5512C112.76 89.6409 112.829 89.7485 112.875 89.8655C112.921 89.9833 112.942 90.1089 112.938 90.2345C112.931 90.4919 112.823 90.7368 112.639 90.917C112.455 91.0971 112.208 91.1985 111.95 91.1993H105.03C104.905 91.2001 104.78 91.1759 104.663 91.1276C104.547 91.0792 104.442 91.0074 104.354 90.9177C104.266 90.8273 104.197 90.7204 104.151 90.6034C104.106 90.4856 104.084 90.3608 104.088 90.2345Z" stroke="#F0F2F4" stroke-width="0.78" stroke-linecap="round" stroke-linejoin="round"/>
<path id="vector_67" d="M110.675 26.327C111.059 25.9478 111.069 25.3368 110.698 24.9621C110.328 24.5874 109.717 24.591 109.333 24.9702C108.95 25.3493 108.939 25.9605 109.31 26.3351C109.68 26.7098 110.291 26.7062 110.675 26.327Z" stroke="#F0F2F4" stroke-width="0.78" stroke-linecap="round" stroke-linejoin="round"/>
</g>
<g id="coin 1">
<path id="vector_68" d="M32.7965 39.611C37.8039 39.611 41.8632 35.5007 41.8632 30.4304C41.8632 25.3601 37.8039 21.2498 32.7965 21.2498C27.789 21.2498 23.7297 25.3601 23.7297 30.4304C23.7297 35.5007 27.789 39.611 32.7965 39.611Z" fill="#24BBFF"/>
<path id="Vector_32" d="M34.7034 27.6839C32.2958 26.5089 29.5979 28.1833 29.985 30.6494L28.8599 31.669L30.4085 31.7876C31.7756 34.0533 35.2478 34.1488 36.3851 31.9181C36.7329 31.1377 36.7512 30.254 36.436 29.4605C36.1209 28.6669 35.4979 28.0281 34.7034 27.6839Z" stroke="#F0F2F4" stroke-width="0.702" stroke-linecap="round" stroke-linejoin="round"/>
<path id="vector_69" d="M32.7965 39.611C37.8039 39.611 41.8632 35.5007 41.8632 30.4304C41.8632 25.3601 37.8039 21.2498 32.7965 21.2498C27.789 21.2498 23.7297 25.3601 23.7297 30.4304C23.7297 35.5007 27.789 39.611 32.7965 39.611Z" stroke="#F0F2F4" stroke-width="0.78" stroke-linecap="round" stroke-linejoin="round"/>
</g>
<g id="coin 3">
<path id="vector_72" d="M114.597 125.273C119.604 125.273 123.663 121.163 123.663 116.093C123.663 111.023 119.604 106.912 114.597 106.912C109.589 106.912 105.53 111.023 105.53 116.093C105.53 121.163 109.589 125.273 114.597 125.273Z" fill="#24BBFF"/>
<path id="Vector_32_2" d="M116.604 113.484C114.196 112.309 111.498 113.983 111.885 116.449L110.76 117.469L112.309 117.588C113.676 119.853 117.148 119.949 118.285 117.718C118.633 116.938 118.651 116.054 118.336 115.261C118.021 114.467 117.398 113.828 116.604 113.484Z" stroke="#F0F2F4" stroke-width="0.702" stroke-linecap="round" stroke-linejoin="round"/>
<path id="vector_73" d="M114.597 125.273C119.604 125.273 123.663 121.163 123.663 116.093C123.663 111.023 119.604 106.912 114.597 106.912C109.589 106.912 105.53 111.023 105.53 116.093C105.53 121.163 109.589 125.273 114.597 125.273Z" stroke="#F0F2F4" stroke-width="0.78" stroke-linecap="round" stroke-linejoin="round"/>
</g>
<g id="coin 2">
<path id="vector_76" d="M62.6442 15.9252C65.8109 15.9252 68.378 13.3259 68.378 10.1197C68.378 6.91332 65.8109 4.31409 62.6442 4.31409C59.4775 4.31409 56.9104 6.91332 56.9104 10.1197C56.9104 13.3259 59.4775 15.9252 62.6442 15.9252Z" stroke="#F0F2F4" stroke-width="0.78" stroke-linecap="round" stroke-linejoin="round"/>
<path id="Vector_31" d="M64.332 7.84561C62.8524 8.59911 61.4604 9.53073 60.1835 10.6219C60.1476 10.6455 60.1176 10.678 60.0961 10.7165C60.0747 10.755 60.0624 10.7984 60.0604 10.8431C60.0583 10.8877 60.0665 10.9322 60.0844 10.9727C60.1022 11.0132 60.129 11.0486 60.1626 11.0758L61.1142 11.8733C61.6908 11.0748 62.4726 10.4 63.2581 9.70281C62.6535 10.5286 62.124 11.4127 61.6765 12.3434L62.7004 13.1997C62.7334 13.2274 62.7723 13.2464 62.8137 13.2549C62.8551 13.2635 62.8979 13.2614 62.9384 13.2489C62.9789 13.2364 63.0159 13.2138 63.0464 13.1829C63.0769 13.1521 63.0999 13.1141 63.1136 13.0719L64.7243 8.17308C64.7432 8.11816 64.7451 8.05838 64.73 8.00221C64.7148 7.94604 64.6833 7.89632 64.6399 7.8601C64.5965 7.82387 64.5435 7.80299 64.4882 7.80039C64.4329 7.79779 64.3783 7.81361 64.332 7.84561Z" stroke="#F0F2F4" stroke-width="0.39" stroke-linecap="round" stroke-linejoin="round"/>
</g>
<g id="coin 4">
<path id="vector_79" d="M88.423 140.475C91.5898 140.475 94.1568 137.876 94.1568 134.669C94.1568 131.463 91.5898 128.864 88.423 128.864C85.2562 128.864 82.6892 131.463 82.6892 134.669C82.6892 137.876 85.2562 140.475 88.423 140.475Z" stroke="#F0F2F4" stroke-width="0.78" stroke-linecap="round" stroke-linejoin="round"/>
<path id="Vector_31_2" d="M85.3816 136.51C87.0275 136.729 88.7024 136.752 90.373 136.578C90.416 136.579 90.459 136.569 90.4986 136.549C90.5381 136.53 90.5728 136.501 90.5998 136.465C90.6268 136.43 90.6453 136.388 90.6536 136.345C90.662 136.301 90.6599 136.257 90.6476 136.216L90.3165 135.019C89.3887 135.349 88.362 135.462 87.3196 135.59C88.286 135.253 89.2236 134.826 90.1201 134.313L89.7627 133.027C89.7513 132.985 89.73 132.948 89.7008 132.917C89.6715 132.887 89.6351 132.864 89.5947 132.851C89.5542 132.839 89.5109 132.836 89.4683 132.844C89.4257 132.852 89.3851 132.871 89.35 132.898L85.2443 136.018C85.1977 136.053 85.1621 136.101 85.1427 136.156C85.1234 136.21 85.1211 136.269 85.1363 136.324C85.1515 136.378 85.1833 136.426 85.2274 136.459C85.2714 136.492 85.3254 136.51 85.3816 136.51Z" stroke="#F0F2F4" stroke-width="0.39" stroke-linecap="round" stroke-linejoin="round"/>
</g>
<g id="cash 1">
<path id="vector_82" fill-rule="evenodd" clip-rule="evenodd" d="M7.9965 141.944V144.066H43.5583V129.454H41.4374V127.334H39.4617V139.885H5.87646V141.944H7.9965Z" fill="#24BBFF"/>
<path id="vector_83" d="M39.4617 125.274H3.8999V139.885H39.4617V125.274Z" stroke="#F0F2F4" stroke-width="0.78" stroke-linecap="round" stroke-linejoin="round"/>
<path id="Subtract_2" fill-rule="evenodd" clip-rule="evenodd" d="M6.23999 136.5L6.92354 134.885C6.48276 134.332 6.24396 133.67 6.23999 132.99C6.23999 131.05 8.16248 129.48 10.5335 129.48C12.9046 129.48 14.82 131.05 14.82 132.99C14.82 134.93 12.8975 136.5 10.5264 136.5C9.64182 136.504 8.77532 136.276 8.03432 135.843L6.23999 136.5ZM9.04589 133.199C9.09198 133.137 9.1166 133.064 9.1166 132.99C9.11642 132.89 9.07193 132.794 8.99293 132.724C8.91394 132.653 8.80691 132.613 8.69538 132.613C8.61234 132.614 8.53124 132.636 8.46228 132.677C8.39337 132.719 8.33966 132.778 8.30807 132.847C8.27644 132.915 8.26827 132.991 8.28461 133.064C8.30095 133.137 8.34105 133.204 8.39985 133.257C8.45865 133.309 8.53349 133.345 8.61496 133.359C8.69643 133.374 8.78083 133.366 8.85754 133.338C8.93421 133.309 8.99976 133.261 9.04589 133.199ZM10.9465 132.99C10.9465 133.064 10.9218 133.137 10.8757 133.199C10.8296 133.261 10.764 133.309 10.6872 133.338C10.6104 133.366 10.5261 133.374 10.4444 133.359C10.363 133.345 10.2881 133.309 10.2294 133.256C10.1706 133.204 10.1306 133.137 10.1144 133.063C10.0982 132.99 10.1065 132.915 10.1383 132.846C10.1701 132.777 10.2239 132.718 10.293 132.677C10.3621 132.636 10.4432 132.613 10.5264 132.613C10.6377 132.614 10.7445 132.653 10.8232 132.724C10.9019 132.795 10.9462 132.89 10.9465 132.99ZM12.7127 133.199C12.7588 133.137 12.7836 133.064 12.7836 132.99C12.7832 132.89 12.739 132.795 12.6603 132.724C12.5816 132.653 12.4748 132.614 12.3635 132.613C12.2803 132.613 12.1993 132.636 12.13 132.677C12.061 132.718 12.0071 132.777 11.9752 132.846C11.9434 132.915 11.9351 132.99 11.9516 133.063C11.9677 133.137 12.0078 133.204 12.0663 133.256C12.1251 133.309 12.2001 133.345 12.2814 133.359C12.3631 133.374 12.4474 133.366 12.5242 133.338C12.6011 133.309 12.6667 133.261 12.7127 133.199Z" fill="#24BBFF"/>
<path id="vector_84" d="M5.87646 139.885V141.944H41.4374V127.334H39.4617" stroke="#F0F2F4" stroke-width="0.78" stroke-linecap="round" stroke-linejoin="round"/>
<path id="vector_85" d="M7.99658 141.944V144.066H43.5583V129.454H41.4375" stroke="#F0F2F4" stroke-width="0.78" stroke-linecap="round" stroke-linejoin="round"/>
</g>
</g>
</g>
</svg>
