<svg xmlns="http://www.w3.org/2000/svg" width="156" height="156" viewBox="0 0 156 156" fill="none">
  <path d="M152.1 132.552H105.529V151.686H152.1V132.552Z" stroke="#17334F" stroke-width="0.78" stroke-linecap="round" stroke-linejoin="round"/>
  <path fill-rule="evenodd" clip-rule="evenodd" d="M110.76 146.64L111.444 145.026C111.003 144.472 110.764 143.81 110.76 143.13C110.76 141.19 112.682 139.62 115.054 139.62C117.425 139.62 119.34 141.19 119.34 143.13C119.34 145.07 117.418 146.64 115.046 146.64C114.162 146.644 113.295 146.416 112.554 145.983L110.76 146.64ZM113.566 143.339C113.612 143.277 113.637 143.205 113.637 143.13C113.636 143.03 113.592 142.934 113.513 142.864C113.434 142.793 113.327 142.754 113.215 142.754C113.132 142.754 113.051 142.776 112.982 142.818C112.913 142.859 112.86 142.918 112.828 142.987C112.796 143.056 112.788 143.131 112.805 143.204C112.821 143.277 112.861 143.344 112.92 143.397C112.979 143.449 113.054 143.485 113.135 143.5C113.216 143.514 113.301 143.506 113.378 143.478C113.454 143.449 113.52 143.401 113.566 143.339ZM115.467 143.13C115.467 143.205 115.442 143.277 115.396 143.339C115.35 143.401 115.284 143.45 115.207 143.478C115.13 143.507 115.046 143.514 114.964 143.5C114.883 143.485 114.808 143.449 114.749 143.396C114.691 143.344 114.651 143.277 114.634 143.204C114.618 143.131 114.627 143.055 114.658 142.986C114.69 142.917 114.744 142.859 114.813 142.817C114.882 142.776 114.963 142.754 115.046 142.754C115.158 142.754 115.265 142.794 115.343 142.864C115.422 142.935 115.466 143.03 115.467 143.13ZM117.233 143.339C117.279 143.277 117.304 143.205 117.304 143.13C117.303 143.03 117.259 142.935 117.18 142.864C117.102 142.794 116.995 142.754 116.883 142.754C116.8 142.754 116.719 142.776 116.65 142.817C116.581 142.859 116.527 142.917 116.495 142.986C116.463 143.055 116.455 143.131 116.472 143.204C116.488 143.277 116.528 143.344 116.586 143.396C116.645 143.449 116.72 143.485 116.801 143.5C116.883 143.514 116.967 143.507 117.044 143.478C117.121 143.45 117.187 143.401 117.233 143.339Z" fill="#71CEF8"/>
  <path d="M68.1315 8.4313C76.3752 6.64724 84.9451 7.08851 92.962 9.70987C100.979 12.3312 108.154 17.0383 113.751 23.348" stroke="#17334F" stroke-width="0.78" stroke-linecap="round" stroke-linejoin="round"/>
  <path d="M31.5237 46.1638C32.8844 38.8908 35.9219 32.0352 40.3952 26.1413C44.8685 20.2473 50.6544 15.4775 57.2933 12.2104" stroke="#17334F" stroke-width="0.78" stroke-linecap="round" stroke-linejoin="round"/>
  <path d="M83.247 137.17C81.577 137.345 79.8992 137.434 78.2207 137.434C70.8905 137.438 63.6593 135.742 57.0948 132.48C50.5302 129.219 44.8109 124.479 40.386 118.636" stroke="#17334F" stroke-width="0.78" stroke-linecap="round" stroke-linejoin="round"/>
  <path d="M125.35 95.8214C124.252 104.55 120.756 112.804 115.249 119.666C109.743 126.528 102.441 131.728 94.1569 134.689" stroke="#17334F" stroke-width="0.78" stroke-linecap="round" stroke-linejoin="round"/>
  <path fill-rule="evenodd" clip-rule="evenodd" d="M72.5962 113.049C72.51 113.942 72.0936 114.769 71.4286 115.37C70.7637 115.971 69.8982 116.302 69.002 116.297H27.7462C26.7591 116.293 25.8126 115.904 25.1068 115.215C24.4009 114.524 23.9911 113.587 23.964 112.6L22.5163 49.8601C22.5026 49.3781 22.586 48.8984 22.7615 48.4492C22.9371 48.0002 23.2012 47.591 23.5382 47.2462C23.8751 46.9013 24.278 46.6277 24.7229 46.4418C25.1678 46.2558 25.6455 46.1612 26.1277 46.1637H23.2721C21.1794 46.1637 19.8955 48.4935 20.0531 51.3452C20.0843 51.9107 21.5468 114.759 21.5468 114.759C21.564 115.783 21.9786 116.76 22.7028 117.484C23.427 118.208 24.4042 118.622 25.428 118.638H67.715C69.81 118.638 73.0244 119.86 72.5962 113.049Z" fill="#71CEF8"/>
  <path d="M72.565 110.502H23.9156L23.964 112.6C23.9912 113.587 24.401 114.524 25.1068 115.214C25.8126 115.904 26.7591 116.293 27.7462 116.297H69.002C69.4841 116.3 69.9618 116.204 70.4065 116.019C70.8513 115.832 71.2542 115.559 71.591 115.214C71.9279 114.869 72.192 114.46 72.3677 114.011C72.5433 113.562 72.6269 113.082 72.6134 112.6L72.565 110.502Z" stroke="#17334F" stroke-width="0.78" stroke-linecap="round" stroke-linejoin="round"/>
  <path d="M22.5288 50.3991H71.1774L71.1649 49.8601C71.1378 48.8736 70.728 47.9362 70.0221 47.2463C69.3162 46.5564 68.3697 46.1682 67.3827 46.1637H26.1301C25.6479 46.1612 25.1701 46.2558 24.7253 46.4418C24.2804 46.6277 23.8775 46.9013 23.5405 47.2462C23.2036 47.591 22.9395 48.0002 22.7639 48.4492C22.5883 48.8984 22.5049 49.3781 22.5187 49.8601L22.5288 50.3991Z" stroke="#17334F" stroke-width="0.78" stroke-linecap="round" stroke-linejoin="round"/>
  <path d="M22.5288 50.3993H71.1774L72.565 110.502H23.9156L22.5288 50.3993Z" stroke="#17334F" stroke-width="0.78" stroke-linecap="round" stroke-linejoin="round"/>
  <path d="M26.13 46.1637H23.2721C21.1794 46.1637 19.8955 48.4936 20.0531 51.3452C20.0577 51.4232 20.1045 52.9052 21.5468 114.759C21.564 115.783 21.9786 116.76 22.7028 117.484C23.427 118.208 24.4042 118.622 25.428 118.638H67.715C69.8077 118.638 73.0244 119.862 72.5962 113.051" stroke="#17334F" stroke-width="0.78" stroke-linecap="round" stroke-linejoin="round"/>
  <path d="M39.124 64.9946H31.8833L32.0393 71.8632" stroke="#17334F" stroke-width="0.78" stroke-linecap="round" stroke-linejoin="round"/>
  <path d="M55.2552 64.9944H62.496L62.652 71.8631" stroke="#17334F" stroke-width="0.78" stroke-linecap="round" stroke-linejoin="round"/>
  <path d="M39.8378 95.9071H32.597L32.441 89.0385" stroke="#17334F" stroke-width="0.78" stroke-linecap="round" stroke-linejoin="round"/>
  <path d="M55.9689 95.9071H63.2096L63.0536 89.0385" stroke="#17334F" stroke-width="0.78" stroke-linecap="round" stroke-linejoin="round"/>
  <path fill-rule="evenodd" clip-rule="evenodd" d="M43.4663 75.8074H52.3162L52.5205 84.6573H43.6707L43.4663 75.8074Z" fill="#17334F"/>
  <path fill-rule="evenodd" clip-rule="evenodd" d="M35.8293 79.0811H39.6903L39.7793 82.9429H35.9183L35.8293 79.0811Z" fill="#17334F"/>
  <path fill-rule="evenodd" clip-rule="evenodd" d="M45.7906 68.4286H49.6516L49.7406 72.2896H45.8796L45.7906 68.4286Z" fill="#17334F"/>
  <path fill-rule="evenodd" clip-rule="evenodd" d="M55.3215 78.3017H59.1833L59.2722 82.1627H55.4112L55.3215 78.3017Z" fill="#17334F"/>
  <path fill-rule="evenodd" clip-rule="evenodd" d="M45.8047 88.6119H49.6657L49.7546 92.4729H45.8936L45.8047 88.6119Z" fill="#17334F"/>
  <path fill-rule="evenodd" clip-rule="evenodd" d="M35.5829 68.4279H40.6654L40.7824 73.5103H35.7007L35.5829 68.4279Z" fill="#17334F"/>
  <path fill-rule="evenodd" clip-rule="evenodd" d="M36.0204 87.3904H41.1029L41.2206 92.4729H36.1382L36.0204 87.3904Z" fill="#17334F"/>
  <path fill-rule="evenodd" clip-rule="evenodd" d="M53.873 68.4279H58.9547L59.0725 73.5103H53.99L53.873 68.4279Z" fill="#17334F"/>
  <path fill-rule="evenodd" clip-rule="evenodd" d="M54.3107 87.3904H59.3931L59.5101 92.4729H54.4277L54.3107 87.3904Z" fill="#17334F"/>
  <path d="M43.4663 75.8074H52.3162L52.5205 84.6573H43.6707L43.4663 75.8074Z" stroke="#17334F" stroke-width="0.78" stroke-linecap="round" stroke-linejoin="round"/>
  <path d="M35.8293 79.0811H39.6903L39.7793 82.9429H35.9183L35.8293 79.0811Z" stroke="#17334F" stroke-width="0.78" stroke-linecap="round" stroke-linejoin="round"/>
  <path d="M45.7906 68.4286H49.6516L49.7406 72.2896H45.8796L45.7906 68.4286Z" stroke="#17334F" stroke-width="0.78" stroke-linecap="round" stroke-linejoin="round"/>
  <path d="M55.3215 78.3017H59.1833L59.2722 82.1627H55.4112L55.3215 78.3017Z" stroke="#17334F" stroke-width="0.78" stroke-linecap="round" stroke-linejoin="round"/>
  <path d="M45.8047 88.6119H49.6657L49.7546 92.4729H45.8936L45.8047 88.6119Z" stroke="#17334F" stroke-width="0.78" stroke-linecap="round" stroke-linejoin="round"/>
  <path d="M35.5829 68.4279H40.6654L40.7824 73.5103H35.7007L35.5829 68.4279Z" stroke="#17334F" stroke-width="0.78" stroke-linecap="round" stroke-linejoin="round"/>
  <path d="M36.0204 87.3904H41.1029L41.2206 92.4729H36.1382L36.0204 87.3904Z" stroke="#17334F" stroke-width="0.78" stroke-linecap="round" stroke-linejoin="round"/>
  <path d="M53.873 68.4279H58.9547L59.0725 73.5103H53.99L53.873 68.4279Z" stroke="#17334F" stroke-width="0.78" stroke-linecap="round" stroke-linejoin="round"/>
  <path d="M54.3107 87.3904H59.3931L59.5101 92.4729H54.4277L54.3107 87.3904Z" stroke="#17334F" stroke-width="0.78" stroke-linecap="round" stroke-linejoin="round"/>
  <path fill-rule="evenodd" clip-rule="evenodd" d="M52.728 113.049C52.7208 112.792 52.6137 112.547 52.4294 112.367C52.2452 112.187 51.9982 112.085 51.7405 112.084H44.8165C44.6905 112.083 44.5656 112.108 44.4493 112.156C44.3331 112.205 44.2278 112.276 44.1398 112.366C44.0519 112.457 43.983 112.564 43.9373 112.681C43.8917 112.798 43.8703 112.924 43.8742 113.049C43.8811 113.307 43.988 113.552 44.1721 113.732C44.3563 113.912 44.6033 114.014 44.8609 114.014H51.7811C51.9074 114.016 52.0327 113.992 52.1494 113.944C52.2662 113.896 52.372 113.824 52.4605 113.734C52.5489 113.644 52.6183 113.537 52.6642 113.419C52.7102 113.301 52.7319 113.176 52.728 113.049Z" fill="#17334F"/>
  <path d="M52.728 113.049C52.7208 112.792 52.6137 112.547 52.4294 112.367C52.2452 112.187 51.9982 112.085 51.7405 112.084H44.8165C44.6905 112.083 44.5656 112.108 44.4493 112.156C44.3331 112.205 44.2278 112.276 44.1398 112.366C44.0519 112.457 43.983 112.564 43.9373 112.681C43.8917 112.798 43.8703 112.924 43.8742 113.049C43.8811 113.307 43.988 113.552 44.1721 113.732C44.3563 113.912 44.6033 114.014 44.8609 114.014H51.7811C51.9074 114.016 52.0327 113.992 52.1494 113.944C52.2662 113.896 52.372 113.824 52.4605 113.734C52.5489 113.644 52.6183 113.537 52.6642 113.419C52.7102 113.301 52.7319 113.176 52.728 113.049Z" stroke="#17334F" stroke-width="0.78" stroke-linecap="round" stroke-linejoin="round"/>
  <path d="M47.5028 49.1491C47.8732 48.7744 47.8626 48.1633 47.479 47.7841C47.0954 47.405 46.4842 47.4014 46.1138 47.776C45.7435 48.1507 45.7541 48.7619 46.1377 49.141C46.5213 49.5202 47.1325 49.5238 47.5028 49.1491Z" stroke="#17334F" stroke-width="0.78" stroke-linecap="round" stroke-linejoin="round"/>
  <path fill-rule="evenodd" clip-rule="evenodd" d="M133.536 23.3481H130.681C131.163 23.3459 131.641 23.4406 132.086 23.6268C132.531 23.8129 132.933 24.0865 133.27 24.4314C133.607 24.7763 133.871 25.1854 134.047 25.6345C134.222 26.0835 134.306 26.5633 134.293 27.0453L132.844 89.7852C132.817 90.7719 132.407 91.7087 131.702 92.399C130.996 93.0885 130.049 93.4769 129.063 93.4816H87.8102C86.9139 93.4863 86.0481 93.1556 85.3836 92.555C84.7182 91.9544 84.3017 91.1268 84.2151 90.2345C83.7877 97.0454 87.0044 95.8216 89.0972 95.8216H131.386C132.41 95.8044 133.387 95.3903 134.111 94.6656C134.835 93.941 135.248 92.9637 135.265 91.9396C135.265 91.9396 136.727 29.0951 136.758 28.5296C136.916 25.6779 135.632 23.3481 133.536 23.3481Z" fill="#71CEF8"/>
  <path d="M84.2471 87.6869H132.896L132.847 89.7851C132.82 90.7718 132.411 91.7086 131.705 92.3989C130.999 93.0884 130.053 93.4768 129.066 93.4815H87.8102C87.3281 93.4839 86.85 93.3895 86.4054 93.203C85.9608 93.0174 85.5575 92.7436 85.2206 92.3989C84.8836 92.0541 84.62 91.6446 84.4445 91.1961C84.269 90.7468 84.1855 90.2671 84.1988 89.7851L84.2471 87.6869Z" stroke="#17334F" stroke-width="0.78" stroke-linecap="round" stroke-linejoin="round"/>
  <path d="M134.283 27.5842H85.6339L85.6464 27.0452C85.6737 26.0585 86.084 25.1212 86.7891 24.4313C87.495 23.7414 88.4419 23.3528 89.4286 23.348H130.684C131.166 23.3458 131.644 23.4406 132.089 23.6267C132.534 23.8128 132.936 24.0864 133.273 24.4313C133.61 24.7763 133.875 25.1854 134.05 25.6344C134.226 26.0835 134.309 26.5632 134.296 27.0452L134.283 27.5842Z" stroke="#17334F" stroke-width="0.78" stroke-linecap="round" stroke-linejoin="round"/>
  <path d="M134.283 27.5841H85.6339L84.2471 87.6868H132.896L134.283 27.5841Z" stroke="#17334F" stroke-width="0.78" stroke-linecap="round" stroke-linejoin="round"/>
  <path d="M130.684 23.348H133.539C135.632 23.348 136.917 25.6778 136.758 28.5295C136.758 28.6075 136.708 30.0895 135.265 91.9395C135.248 92.9637 134.834 93.941 134.11 94.6656C133.386 95.3895 132.41 95.8044 131.386 95.8216H89.0972C87.0044 95.8216 83.7877 97.0454 84.2151 90.2344" stroke="#17334F" stroke-width="0.78" stroke-linecap="round" stroke-linejoin="round"/>
  <path d="M117.687 42.1786H124.928L124.772 49.0481" stroke="#17334F" stroke-width="0.78" stroke-linecap="round" stroke-linejoin="round"/>
  <path d="M101.556 42.1786H94.3154L94.1594 49.0481" stroke="#17334F" stroke-width="0.78" stroke-linecap="round" stroke-linejoin="round"/>
  <path d="M116.974 73.0926H124.214L124.37 66.2239" stroke="#17334F" stroke-width="0.78" stroke-linecap="round" stroke-linejoin="round"/>
  <path d="M100.843 73.0926H93.6001L93.7561 66.2239" stroke="#17334F" stroke-width="0.78" stroke-linecap="round" stroke-linejoin="round"/>
  <path fill-rule="evenodd" clip-rule="evenodd" d="M113.345 52.9924H104.495L104.291 61.8423H113.141L113.345 52.9924Z" fill="#17334F"/>
  <path fill-rule="evenodd" clip-rule="evenodd" d="M120.983 56.2662H117.122L117.032 60.128H120.894L120.983 56.2662Z" fill="#17334F"/>
  <path fill-rule="evenodd" clip-rule="evenodd" d="M111.021 45.6138H107.16L107.071 49.4748H110.932L111.021 45.6138Z" fill="#17334F"/>
  <path fill-rule="evenodd" clip-rule="evenodd" d="M101.49 55.4871H97.6288L97.5399 59.3481H101.401L101.49 55.4871Z" fill="#17334F"/>
  <path fill-rule="evenodd" clip-rule="evenodd" d="M111.007 65.7968H107.146L107.057 69.6578H110.918L111.007 65.7968Z" fill="#17334F"/>
  <path fill-rule="evenodd" clip-rule="evenodd" d="M121.229 45.6138H116.146L116.029 50.6955H121.112L121.229 45.6138Z" fill="#17334F"/>
  <path fill-rule="evenodd" clip-rule="evenodd" d="M120.791 64.5756H115.708L115.591 69.6581H120.674L120.791 64.5756Z" fill="#17334F"/>
  <path fill-rule="evenodd" clip-rule="evenodd" d="M102.939 45.6138H97.8565L97.7395 50.6955H102.821L102.939 45.6138Z" fill="#17334F"/>
  <path fill-rule="evenodd" clip-rule="evenodd" d="M102.501 64.5756H97.4189L97.3011 69.6581H102.384L102.501 64.5756Z" fill="#17334F"/>
  <path d="M113.345 52.9924H104.495L104.291 61.8423H113.141L113.345 52.9924Z" stroke="#17334F" stroke-width="0.78" stroke-linecap="round" stroke-linejoin="round"/>
  <path d="M120.983 56.2662H117.122L117.032 60.128H120.894L120.983 56.2662Z" stroke="#17334F" stroke-width="0.78" stroke-linecap="round" stroke-linejoin="round"/>
  <path d="M111.021 45.6138H107.16L107.071 49.4748H110.932L111.021 45.6138Z" stroke="#17334F" stroke-width="0.78" stroke-linecap="round" stroke-linejoin="round"/>
  <path d="M101.49 55.4871H97.6288L97.5399 59.3481H101.401L101.49 55.4871Z" stroke="#17334F" stroke-width="0.78" stroke-linecap="round" stroke-linejoin="round"/>
  <path d="M111.007 65.7968H107.146L107.057 69.6578H110.918L111.007 65.7968Z" stroke="#17334F" stroke-width="0.78" stroke-linecap="round" stroke-linejoin="round"/>
  <path d="M121.229 45.6138H116.146L116.029 50.6955H121.112L121.229 45.6138Z" stroke="#17334F" stroke-width="0.78" stroke-linecap="round" stroke-linejoin="round"/>
  <path d="M120.791 64.5756H115.708L115.591 69.6581H120.674L120.791 64.5756Z" stroke="#17334F" stroke-width="0.78" stroke-linecap="round" stroke-linejoin="round"/>
  <path d="M102.939 45.6138H97.8565L97.7395 50.6955H102.821L102.939 45.6138Z" stroke="#17334F" stroke-width="0.78" stroke-linecap="round" stroke-linejoin="round"/>
  <path d="M102.501 64.5756H97.4189L97.3011 69.6581H102.384L102.501 64.5756Z" stroke="#17334F" stroke-width="0.78" stroke-linecap="round" stroke-linejoin="round"/>
  <path fill-rule="evenodd" clip-rule="evenodd" d="M104.088 90.2345C104.095 89.9771 104.202 89.7321 104.386 89.552C104.571 89.3718 104.818 89.2704 105.075 89.2688H111.995C112.121 89.268 112.246 89.2922 112.362 89.3406C112.478 89.3897 112.584 89.4607 112.672 89.5512C112.76 89.6409 112.829 89.7485 112.875 89.8655C112.921 89.9833 112.942 90.1089 112.938 90.2345C112.931 90.4919 112.823 90.7368 112.639 90.917C112.455 91.0971 112.208 91.1985 111.95 91.1993H105.03C104.905 91.2001 104.78 91.1759 104.664 91.1276C104.547 91.0792 104.442 91.0074 104.354 90.9177C104.266 90.8273 104.197 90.7204 104.151 90.6034C104.106 90.4856 104.084 90.3608 104.088 90.2345Z" fill="#17334F"/>
  <path d="M104.088 90.2345C104.095 89.9771 104.202 89.7321 104.386 89.552C104.571 89.3718 104.818 89.2704 105.075 89.2688H111.995C112.121 89.268 112.246 89.2922 112.362 89.3406C112.478 89.3897 112.584 89.4607 112.672 89.5512C112.76 89.6409 112.829 89.7485 112.875 89.8655C112.921 89.9833 112.942 90.1089 112.938 90.2345C112.931 90.4919 112.823 90.7368 112.639 90.917C112.455 91.0971 112.208 91.1985 111.95 91.1993H105.03C104.905 91.2001 104.78 91.1759 104.664 91.1276C104.547 91.0792 104.442 91.0074 104.354 90.9177C104.266 90.8273 104.197 90.7204 104.151 90.6034C104.106 90.4856 104.084 90.3608 104.088 90.2345Z" stroke="#17334F" stroke-width="0.78" stroke-linecap="round" stroke-linejoin="round"/>
  <path d="M110.675 26.327C111.059 25.9478 111.069 25.3368 110.698 24.9621C110.329 24.5874 109.717 24.591 109.333 24.9702C108.95 25.3493 108.94 25.9605 109.31 26.3351C109.681 26.7098 110.291 26.7062 110.675 26.327Z" stroke="#17334F" stroke-width="0.78" stroke-linecap="round" stroke-linejoin="round"/>
  <path d="M32.7967 39.611C37.8041 39.611 41.8634 35.5007 41.8634 30.4304C41.8634 25.3601 37.8041 21.2498 32.7967 21.2498C27.7893 21.2498 23.73 25.3601 23.73 30.4304C23.73 35.5007 27.7893 39.611 32.7967 39.611Z" fill="#71CEF8"/>
  <path d="M34.7036 27.6839C32.2961 26.5089 29.5981 28.1833 29.9853 30.6494L28.8601 31.669L30.4087 31.7876C31.7758 34.0533 35.2481 34.1488 36.3853 31.9181C36.7331 31.1377 36.7515 30.254 36.4363 29.4605C36.1211 28.6669 35.4981 28.0281 34.7036 27.6839Z" stroke="#17334F" stroke-width="0.702" stroke-linecap="round" stroke-linejoin="round"/>
  <path d="M32.7967 39.611C37.8041 39.611 41.8634 35.5007 41.8634 30.4304C41.8634 25.3601 37.8041 21.2498 32.7967 21.2498C27.7893 21.2498 23.73 25.3601 23.73 30.4304C23.73 35.5007 27.7893 39.611 32.7967 39.611Z" stroke="#17334F" stroke-width="0.78" stroke-linecap="round" stroke-linejoin="round"/>
  <path d="M114.597 125.273C119.604 125.273 123.664 121.163 123.664 116.093C123.664 111.023 119.604 106.912 114.597 106.912C109.589 106.912 105.53 111.023 105.53 116.093C105.53 121.163 109.589 125.273 114.597 125.273Z" fill="#71CEF8"/>
  <path d="M116.604 113.484C114.196 112.309 111.498 113.983 111.885 116.449L110.76 117.469L112.309 117.588C113.676 119.853 117.148 119.949 118.285 117.718C118.633 116.938 118.651 116.054 118.336 115.261C118.021 114.467 117.398 113.828 116.604 113.484Z" stroke="#17334F" stroke-width="0.702" stroke-linecap="round" stroke-linejoin="round"/>
  <path d="M114.597 125.273C119.604 125.273 123.664 121.163 123.664 116.093C123.664 111.023 119.604 106.912 114.597 106.912C109.589 106.912 105.53 111.023 105.53 116.093C105.53 121.163 109.589 125.273 114.597 125.273Z" stroke="#17334F" stroke-width="0.78" stroke-linecap="round" stroke-linejoin="round"/>
  <path d="M62.6442 15.9252C65.8109 15.9252 68.378 13.3259 68.378 10.1197C68.378 6.91332 65.8109 4.31409 62.6442 4.31409C59.4775 4.31409 56.9104 6.91332 56.9104 10.1197C56.9104 13.3259 59.4775 15.9252 62.6442 15.9252Z" stroke="#17334F" stroke-width="0.78" stroke-linecap="round" stroke-linejoin="round"/>
  <path d="M64.332 7.84561C62.8524 8.59911 61.4604 9.53073 60.1835 10.6219C60.1476 10.6455 60.1176 10.678 60.0961 10.7165C60.0747 10.755 60.0624 10.7984 60.0604 10.8431C60.0583 10.8877 60.0665 10.9322 60.0844 10.9727C60.1022 11.0132 60.129 11.0486 60.1626 11.0758L61.1142 11.8733C61.6908 11.0748 62.4726 10.4 63.2581 9.70281C62.6535 10.5286 62.124 11.4127 61.6765 12.3434L62.7004 13.1997C62.7334 13.2274 62.7723 13.2464 62.8137 13.2549C62.8551 13.2635 62.8979 13.2614 62.9384 13.2489C62.9789 13.2364 63.0159 13.2138 63.0464 13.1829C63.0769 13.1521 63.0999 13.1141 63.1136 13.0719L64.7243 8.17308C64.7432 8.11816 64.7451 8.05838 64.73 8.00221C64.7148 7.94604 64.6833 7.89632 64.6399 7.8601C64.5965 7.82387 64.5435 7.80299 64.4882 7.80039C64.4329 7.79779 64.3783 7.81361 64.332 7.84561Z" stroke="#17334F" stroke-width="0.39" stroke-linecap="round" stroke-linejoin="round"/>
  <path d="M88.4232 140.475C91.59 140.475 94.157 137.876 94.157 134.669C94.157 131.463 91.59 128.864 88.4232 128.864C85.2564 128.864 82.6895 131.463 82.6895 134.669C82.6895 137.876 85.2564 140.475 88.4232 140.475Z" stroke="#17334F" stroke-width="0.78" stroke-linecap="round" stroke-linejoin="round"/>
  <path d="M85.382 136.51C87.0279 136.729 88.7028 136.752 90.3733 136.578C90.4163 136.579 90.4594 136.569 90.4989 136.549C90.5384 136.53 90.5732 136.501 90.6002 136.465C90.6272 136.43 90.6457 136.388 90.654 136.345C90.6623 136.301 90.6603 136.257 90.648 136.216L90.3169 135.019C89.389 135.349 88.3624 135.462 87.32 135.59C88.2864 135.253 89.224 134.826 90.1205 134.313L89.7631 133.027C89.7516 132.985 89.7304 132.948 89.7011 132.917C89.6719 132.887 89.6355 132.864 89.595 132.851C89.5546 132.839 89.5112 132.836 89.4687 132.844C89.4261 132.852 89.3855 132.871 89.3503 132.898L85.2447 136.018C85.198 136.053 85.1625 136.101 85.1431 136.156C85.1237 136.21 85.1215 136.269 85.1366 136.324C85.1518 136.378 85.1837 136.426 85.2277 136.459C85.2718 136.492 85.3257 136.51 85.382 136.51Z" stroke="#17334F" stroke-width="0.39" stroke-linecap="round" stroke-linejoin="round"/>
  <path fill-rule="evenodd" clip-rule="evenodd" d="M7.99663 141.944V144.066H43.5584V129.454H41.4376V127.334H39.4618V139.885H5.87659V141.944H7.99663Z" fill="#71CEF8"/>
  <path d="M39.4618 125.274H3.90002V139.885H39.4618V125.274Z" stroke="#17334F" stroke-width="0.78" stroke-linecap="round" stroke-linejoin="round"/>
  <path fill-rule="evenodd" clip-rule="evenodd" d="M6.23999 136.5L6.92354 134.885C6.48276 134.332 6.24396 133.67 6.23999 132.99C6.23999 131.05 8.16248 129.48 10.5335 129.48C12.9046 129.48 14.82 131.05 14.82 132.99C14.82 134.93 12.8975 136.5 10.5264 136.5C9.64182 136.504 8.77532 136.276 8.03432 135.843L6.23999 136.5ZM9.04589 133.199C9.09198 133.137 9.1166 133.064 9.1166 132.99C9.11642 132.89 9.07193 132.794 8.99293 132.724C8.91394 132.653 8.80691 132.613 8.69538 132.613C8.61234 132.614 8.53124 132.636 8.46228 132.677C8.39337 132.719 8.33966 132.778 8.30807 132.847C8.27644 132.915 8.26827 132.991 8.28461 133.064C8.30095 133.137 8.34105 133.204 8.39985 133.257C8.45865 133.309 8.53349 133.345 8.61496 133.359C8.69643 133.374 8.78083 133.366 8.85754 133.338C8.93421 133.309 8.99976 133.261 9.04589 133.199ZM10.9465 132.99C10.9465 133.064 10.9218 133.137 10.8757 133.199C10.8296 133.261 10.764 133.309 10.6872 133.338C10.6104 133.366 10.5261 133.374 10.4444 133.359C10.363 133.345 10.2881 133.309 10.2294 133.256C10.1706 133.204 10.1306 133.137 10.1144 133.063C10.0982 132.99 10.1065 132.915 10.1383 132.846C10.1701 132.777 10.2239 132.718 10.293 132.677C10.3621 132.636 10.4432 132.613 10.5264 132.613C10.6377 132.614 10.7445 132.653 10.8232 132.724C10.9019 132.795 10.9462 132.89 10.9465 132.99ZM12.7127 133.199C12.7588 133.137 12.7836 133.064 12.7836 132.99C12.7832 132.89 12.739 132.795 12.6603 132.724C12.5816 132.653 12.4748 132.614 12.3635 132.613C12.2803 132.613 12.1993 132.636 12.13 132.677C12.061 132.718 12.0071 132.777 11.9752 132.846C11.9434 132.915 11.9351 132.99 11.9516 133.063C11.9677 133.137 12.0078 133.204 12.0663 133.256C12.1251 133.309 12.2001 133.345 12.2814 133.359C12.3631 133.374 12.4474 133.366 12.5242 133.338C12.6011 133.309 12.6667 133.261 12.7127 133.199Z" fill="#71CEF8"/>
  <path d="M5.87659 139.885V141.944H41.4376V127.334H39.4618" stroke="#17334F" stroke-width="0.78" stroke-linecap="round" stroke-linejoin="round"/>
  <path d="M7.99658 141.944V144.066H43.5583V129.454H41.4375" stroke="#17334F" stroke-width="0.78" stroke-linecap="round" stroke-linejoin="round"/>
</svg>