<svg width="180" height="180" viewBox="0 0 180 180" fill="none" xmlns="http://www.w3.org/2000/svg">
<g id="Secured--Streamline-Bangalore 1">
<g id="secured--interface-secured">
<g id="shield">
<path id="vector" d="M55.1431 99.765C47.6821 84.834 40.9168 70.0443 31.0123 44.8317C31.0123 44.8317 28.9585 47.6793 28.963 47.6604C35.1775 63.4815 42.967 82.4661 52.7437 101.893C68.0671 132.712 104.955 133.256 121.972 107.821C103.998 130.634 69.3001 128.095 55.1431 99.765Z" fill="#1D2329"/>
<path id="vector_2" d="M55.1431 99.765C47.6821 84.834 40.9168 70.0443 31.0123 44.8317C31.0123 44.8317 28.9585 47.6793 28.963 47.6604C35.1775 63.4815 42.967 82.4661 52.7437 101.893C68.0671 132.712 104.955 133.256 121.972 107.821C103.998 130.634 69.3001 128.095 55.1431 99.765Z" stroke="#1D2329" stroke-linecap="round" stroke-linejoin="round"/>
<path id="vector_3" d="M58.9826 69.831C58.9434 69.2951 59.015 68.7569 59.1928 68.2499C59.3706 67.7429 59.6509 67.2779 60.0162 66.8839C60.3815 66.4899 60.824 66.1753 61.3162 65.9597C61.8083 65.7441 62.3396 65.6321 62.8768 65.6307H91.1008V4.5054C91.1008 4.5054 30.971 45 31.0124 44.8317C40.9169 70.0443 47.6821 84.834 55.1431 99.765C62.9443 115.375 77.023 123.18 91.1008 123.18V109.775C74.2393 109.006 60.5486 91.7496 58.9826 69.8319V69.831Z" fill="#24BBFF"/>
<path id="vector_4" d="M91.1009 4.5054C91.1009 4.5054 30.971 45 31.0124 44.8317C40.9169 70.0443 47.6822 84.834 55.1432 99.765C62.9444 115.375 77.0231 123.18 91.1009 123.18C105.179 123.18 119.257 115.375 127.058 99.765C134.448 84.9798 141.225 70.2 151.189 44.8317C151.231 45 91.1009 4.5054 91.1009 4.5054Z" stroke="#1D2329" stroke-linecap="round" stroke-linejoin="round"/>
<path id="vector_5" d="M91.1008 65.6307V4.5054" stroke="#1D2329" stroke-linecap="round" stroke-linejoin="round"/>
<path id="vector_6" d="M91.1008 123.18V109.775" stroke="#1D2329" stroke-linecap="round" stroke-linejoin="round"/>
</g>
<g id="lock">
<path id="vector_7" d="M121.675 65.6307H62.8767C62.3393 65.6318 61.8078 65.7437 61.3155 65.9593C60.8231 66.1748 60.3805 66.4895 60.0151 66.8837C59.6497 67.2778 59.3695 67.743 59.1918 68.2503C59.0141 68.7575 58.9429 69.2959 58.9824 69.8319C60.5844 92.2563 74.88 109.8 92.2761 109.8C109.672 109.8 123.967 92.2545 125.569 69.8301C125.608 69.2942 125.537 68.756 125.359 68.2489C125.181 67.7418 124.901 67.2768 124.536 66.8826C124.17 66.4887 123.728 66.1743 123.235 65.9589C122.743 65.7435 122.212 65.6318 121.675 65.6307Z" stroke="#1D2329" stroke-linecap="round" stroke-linejoin="round"/>
<path id="vector_8" d="M121.298 65.6316C121.298 45.7038 108.418 29.5497 92.5272 29.5497C76.6368 29.5497 63.756 45.7038 63.756 65.6316H77.22C77.22 52.2135 84.0753 41.337 92.5317 41.337C100.988 41.337 107.843 52.2135 107.843 65.6316H121.298Z" fill="#1D2329"/>
<path id="vector_9" d="M121.298 65.6316C121.298 45.7038 108.418 29.5497 92.5272 29.5497C76.6368 29.5497 63.756 45.7038 63.756 65.6316H77.22C77.22 52.2135 84.0753 41.337 92.5317 41.337C100.988 41.337 107.843 52.2135 107.843 65.6316H121.298Z" stroke="#1D2329" stroke-linecap="round" stroke-linejoin="round"/>
<path id="vector_10" d="M100.211 95.8707L93.5361 79.56C94.2604 79.3207 94.8756 78.8311 95.2715 78.1791C95.6673 77.5271 95.8179 76.7553 95.6961 76.0023C95.5723 75.2513 95.1858 74.5687 94.6055 74.0762C94.0252 73.5837 93.2888 73.3134 92.5277 73.3134C91.7665 73.3134 91.0302 73.5837 90.4498 74.0762C89.8695 74.5687 89.483 75.2513 89.3592 76.0023C89.2378 76.7552 89.3883 77.5266 89.784 78.1786C90.1796 78.8305 90.7944 79.3202 91.5183 79.56L84.843 95.8707H100.211Z" fill="#1D2329"/>
<path id="vector_11" d="M100.211 95.8707L93.5361 79.56C94.2604 79.3207 94.8756 78.8311 95.2715 78.1791C95.6673 77.5271 95.8179 76.7553 95.6961 76.0023C95.5723 75.2513 95.1858 74.5687 94.6055 74.0762C94.0252 73.5837 93.2888 73.3134 92.5277 73.3134C91.7665 73.3134 91.0302 73.5837 90.4498 74.0762C89.8695 74.5687 89.483 75.2513 89.3592 76.0023C89.2378 76.7552 89.3883 77.5266 89.784 78.1786C90.1796 78.8305 90.7944 79.3202 91.5183 79.56L84.843 95.8707H100.211Z" stroke="#1D2329" stroke-linecap="round" stroke-linejoin="round"/>
</g>
<g id="hand">
<path id="vector_12" d="M35.6131 124.602C27.136 124.487 19.6885 124.391 13.4965 124.256V157.712H35.6131V124.602Z" stroke="#1D2329" stroke-linecap="round" stroke-linejoin="round"/>
<path id="vector_13" d="M166.05 145.092C164.73 142.26 162.779 140.592 158.455 140.842C159.117 140.155 159.554 139.283 159.71 138.341C159.865 137.4 159.732 136.433 159.326 135.57C158.03 132.79 155.561 131.584 150.944 132.123C151.309 131.014 151.226 129.806 150.713 128.757C149.252 125.625 146.303 124.487 140.47 125.6C140.783 124.483 140.7 123.294 140.235 122.232C137.663 115.404 117.239 124.354 97.0299 131.995C84.0357 136.907 69.9067 120.227 44.1559 123.918C41.3241 124.299 38.4739 124.527 35.6176 124.602V157.714H47.1376C94.4091 181.04 112.001 177.671 129.43 168.741C142.197 162.199 149.371 158.96 162.746 152.243C165.286 150.97 167.49 148.187 166.05 145.092Z" stroke="#1D2329" stroke-linecap="round" stroke-linejoin="round"/>
<path id="vector_14" d="M80.8344 160.339C84.6621 160.619 107.577 166.598 116.393 168.189C125.054 169.753 131.893 157.029 120.151 152.518C94.6224 142.708 94.6404 134.707 67.5819 130.093" stroke="#1D2329" stroke-linecap="round" stroke-linejoin="round"/>
<path id="vector_15" d="M123.407 154.301C145.968 143.042 152.041 141.211 158.45 140.842" stroke="#1D2329" stroke-linecap="round" stroke-linejoin="round"/>
<path id="vector_16" d="M110.047 148.151C131.161 138.28 143.634 132.968 150.939 132.123" stroke="#1D2329" stroke-linecap="round" stroke-linejoin="round"/>
<path id="vector_17" d="M102.794 140.152C103.749 139.799 108.316 138.018 109.245 137.592C124.31 130.694 134.108 126.813 140.466 125.6" stroke="#1D2329" stroke-linecap="round" stroke-linejoin="round"/>
<path id="vector_18" d="M24.5547 143.255C23.4126 143.255 22.3171 143.708 21.5093 144.516C20.7015 145.323 20.2476 146.418 20.2473 147.56C20.2471 148.703 20.7006 149.798 21.508 150.606C22.3155 151.414 23.4108 151.868 24.5529 151.868C25.1185 151.868 25.6785 151.757 26.201 151.54C26.7235 151.324 27.1984 151.007 27.5983 150.607C27.9983 150.207 28.3156 149.733 28.5322 149.21C28.7487 148.688 28.8602 148.128 28.8603 147.562C28.8604 146.997 28.7492 146.437 28.5328 145.914C28.3165 145.392 27.9994 144.917 27.5996 144.517C27.1998 144.117 26.7251 143.799 26.2027 143.583C25.6802 143.366 25.1203 143.255 24.5547 143.255Z" stroke="#1D2329" stroke-linecap="round" stroke-linejoin="round"/>
</g>
<g id="elements">
<path id="vector_19" d="M119.597 9.75599L123.127 15.5799L127.28 6.87869" stroke="#1D2329" stroke-linecap="round" stroke-linejoin="round"/>
<g id="group">
<path id="vector_20" d="M14.5369 79.9893H25.9588" stroke="#1D2329" stroke-linecap="round" stroke-linejoin="round"/>
<path id="vector_21" d="M20.2473 85.7007V74.2797" stroke="#1D2329" stroke-linecap="round" stroke-linejoin="round"/>
</g>
<g id="group_2">
<path id="vector_22" d="M147.151 102.645L155.227 110.721" stroke="#1D2329" stroke-linecap="round" stroke-linejoin="round"/>
<path id="vector_23" d="M147.151 110.721L155.227 102.645" stroke="#1D2329" stroke-linecap="round" stroke-linejoin="round"/>
</g>
<g id="group_3">
<path id="vector_24" d="M37.7632 164.63L41.8825 168.749" stroke="#1D2329" stroke-linecap="round" stroke-linejoin="round"/>
<path id="vector_25" d="M37.7632 168.749L41.8825 164.63" stroke="#1D2329" stroke-linecap="round" stroke-linejoin="round"/>
</g>
<g id="group_4">
<path id="vector_26" d="M49.8223 51.1038H56.053" stroke="#1D2329" stroke-linecap="round" stroke-linejoin="round"/>
<path id="vector_27" d="M52.9381 54.2187V47.9889" stroke="#1D2329" stroke-linecap="round" stroke-linejoin="round"/>
</g>
</g>
</g>
</g>
</svg>
