<svg width="180" height="180" viewBox="0 0 180 180" fill="none" xmlns="http://www.w3.org/2000/svg">
<g id="Secured--Streamline-Bangalore 1">
<g id="secured--interface-secured">
<g id="shield">
<path id="vector" d="M55.143 99.765C47.682 84.834 40.9167 70.0443 31.0122 44.8317C31.0122 44.8317 28.9584 47.6793 28.9629 47.6604C35.1774 63.4815 42.9669 82.4661 52.7436 101.893C68.067 132.712 104.955 133.256 121.972 107.821C103.998 130.634 69.3 128.095 55.143 99.765Z" fill="#F0F2F4"/>
<path id="vector_2" d="M55.143 99.765C47.682 84.834 40.9167 70.0443 31.0122 44.8317C31.0122 44.8317 28.9584 47.6793 28.9629 47.6604C35.1774 63.4815 42.9669 82.4661 52.7436 101.893C68.067 132.712 104.955 133.256 121.972 107.821C103.998 130.634 69.3 128.095 55.143 99.765Z" stroke="#F0F2F4" stroke-linecap="round" stroke-linejoin="round"/>
<path id="vector_3" d="M58.9824 69.831C58.9433 69.2951 59.0148 68.7569 59.1927 68.2499C59.3705 67.7429 59.6508 67.2779 60.0161 66.8839C60.3814 66.4899 60.8239 66.1753 61.316 65.9597C61.8082 65.7441 62.3394 65.6321 62.8767 65.6307H91.1007V4.5054C91.1007 4.5054 30.9708 45 31.0122 44.8317C40.9167 70.0443 47.682 84.834 55.143 99.765C62.9442 115.375 77.0229 123.18 91.1007 123.18V109.775C74.2392 109.006 60.5484 91.7496 58.9824 69.8319V69.831Z" fill="#24BBFF"/>
<path id="vector_4" d="M91.1007 4.5054C91.1007 4.5054 30.9708 45 31.0122 44.8317C40.9167 70.0443 47.682 84.834 55.143 99.765C62.9442 115.375 77.0229 123.18 91.1007 123.18C105.179 123.18 119.257 115.375 127.058 99.765C134.447 84.9798 141.225 70.2 151.189 44.8317C151.231 45 91.1007 4.5054 91.1007 4.5054Z" stroke="#F0F2F4" stroke-linecap="round" stroke-linejoin="round"/>
<path id="vector_5" d="M91.1006 65.6307V4.5054" stroke="#F0F2F4" stroke-linecap="round" stroke-linejoin="round"/>
<path id="vector_6" d="M91.1006 123.18V109.775" stroke="#F0F2F4" stroke-linecap="round" stroke-linejoin="round"/>
</g>
<g id="lock">
<path id="vector_7" d="M121.674 65.6307H62.8766C62.3391 65.6318 61.8077 65.7437 61.3153 65.9593C60.823 66.1748 60.3804 66.4895 60.015 66.8837C59.6496 67.2778 59.3694 67.743 59.1917 68.2503C59.014 68.7575 58.9427 69.2959 58.9823 69.8319C60.5843 92.2563 74.8799 109.8 92.276 109.8C109.672 109.8 123.967 92.2545 125.569 69.8301C125.608 69.2942 125.536 68.756 125.359 68.2489C125.181 67.7418 124.901 67.2768 124.536 66.8826C124.17 66.4887 123.728 66.1743 123.235 65.9589C122.743 65.7435 122.212 65.6318 121.674 65.6307Z" stroke="#F0F2F4" stroke-linecap="round" stroke-linejoin="round"/>
<path id="vector_8" d="M121.298 65.6316C121.298 45.7038 108.417 29.5497 92.5271 29.5497C76.6367 29.5497 63.7559 45.7038 63.7559 65.6316H77.2199C77.2199 52.2135 84.0752 41.337 92.5316 41.337C100.988 41.337 107.843 52.2135 107.843 65.6316H121.298Z" fill="#F0F2F4"/>
<path id="vector_9" d="M121.298 65.6316C121.298 45.7038 108.417 29.5497 92.5271 29.5497C76.6367 29.5497 63.7559 45.7038 63.7559 65.6316H77.2199C77.2199 52.2135 84.0752 41.337 92.5316 41.337C100.988 41.337 107.843 52.2135 107.843 65.6316H121.298Z" stroke="#F0F2F4" stroke-linecap="round" stroke-linejoin="round"/>
<path id="vector_10" d="M100.211 95.8707L93.5359 79.56C94.2601 79.3207 94.8754 78.8311 95.2712 78.1791C95.6671 77.5271 95.8177 76.7553 95.6959 76.0023C95.5721 75.2513 95.1856 74.5687 94.6053 74.0762C94.0249 73.5837 93.2886 73.3134 92.5274 73.3134C91.7663 73.3134 91.0299 73.5837 90.4496 74.0762C89.8693 74.5687 89.4828 75.2513 89.359 76.0023C89.2375 76.7552 89.3881 77.5266 89.7837 78.1786C90.1794 78.8305 90.7942 79.3202 91.5181 79.56L84.8428 95.8707H100.211Z" fill="#F0F2F4"/>
<path id="vector_11" d="M100.211 95.8707L93.5359 79.56C94.2601 79.3207 94.8754 78.8311 95.2712 78.1791C95.6671 77.5271 95.8177 76.7553 95.6959 76.0023C95.5721 75.2513 95.1856 74.5687 94.6053 74.0762C94.0249 73.5837 93.2886 73.3134 92.5274 73.3134C91.7663 73.3134 91.0299 73.5837 90.4496 74.0762C89.8693 74.5687 89.4828 75.2513 89.359 76.0023C89.2375 76.7552 89.3881 77.5266 89.7837 78.1786C90.1794 78.8305 90.7942 79.3202 91.5181 79.56L84.8428 95.8707H100.211Z" stroke="#F0F2F4" stroke-linecap="round" stroke-linejoin="round"/>
</g>
<g id="hand">
<path id="vector_12" d="M35.6129 124.602C27.1358 124.487 19.6883 124.391 13.4963 124.256V157.712H35.6129V124.602Z" stroke="#F0F2F4" stroke-linecap="round" stroke-linejoin="round"/>
<path id="vector_13" d="M166.05 145.092C164.73 142.26 162.779 140.592 158.455 140.842C159.117 140.155 159.554 139.283 159.71 138.341C159.865 137.4 159.731 136.433 159.326 135.57C158.03 132.79 155.561 131.584 150.943 132.123C151.309 131.014 151.226 129.806 150.713 128.757C149.252 125.625 146.303 124.487 140.47 125.6C140.783 124.483 140.7 123.294 140.235 122.232C137.663 115.404 117.238 124.354 97.0298 131.995C84.0356 136.907 69.9065 120.227 44.1557 123.918C41.3239 124.299 38.4737 124.527 35.6174 124.602V157.714H47.1374C94.409 181.04 112.001 177.671 129.43 168.741C142.197 162.199 149.371 158.96 162.746 152.243C165.286 150.97 167.49 148.187 166.05 145.092Z" stroke="#F0F2F4" stroke-linecap="round" stroke-linejoin="round"/>
<path id="vector_14" d="M80.8343 160.339C84.662 160.619 107.577 166.598 116.393 168.189C125.054 169.753 131.893 157.029 120.151 152.518C94.6223 142.708 94.6403 134.707 67.5818 130.093" stroke="#F0F2F4" stroke-linecap="round" stroke-linejoin="round"/>
<path id="vector_15" d="M123.407 154.301C145.968 143.042 152.04 141.211 158.45 140.842" stroke="#F0F2F4" stroke-linecap="round" stroke-linejoin="round"/>
<path id="vector_16" d="M110.047 148.151C131.161 138.28 143.634 132.968 150.939 132.123" stroke="#F0F2F4" stroke-linecap="round" stroke-linejoin="round"/>
<path id="vector_17" d="M102.793 140.152C103.749 139.799 108.316 138.018 109.245 137.592C124.31 130.694 134.108 126.813 140.466 125.6" stroke="#F0F2F4" stroke-linecap="round" stroke-linejoin="round"/>
<path id="vector_18" d="M24.5547 143.255C23.4126 143.255 22.3171 143.708 21.5093 144.516C20.7015 145.323 20.2476 146.418 20.2473 147.56C20.2471 148.703 20.7006 149.798 21.508 150.606C22.3155 151.414 23.4108 151.868 24.5529 151.868C25.1185 151.868 25.6785 151.757 26.201 151.54C26.7235 151.324 27.1984 151.007 27.5983 150.607C27.9983 150.207 28.3156 149.733 28.5322 149.21C28.7487 148.688 28.8602 148.128 28.8603 147.562C28.8604 146.997 28.7492 146.437 28.5328 145.914C28.3165 145.392 27.9994 144.917 27.5996 144.517C27.1998 144.117 26.7251 143.799 26.2027 143.583C25.6802 143.366 25.1203 143.255 24.5547 143.255Z" stroke="#F0F2F4" stroke-linecap="round" stroke-linejoin="round"/>
</g>
<g id="elements">
<path id="vector_19" d="M119.596 9.75599L123.127 15.5799L127.279 6.87869" stroke="#F0F2F4" stroke-linecap="round" stroke-linejoin="round"/>
<g id="group">
<path id="vector_20" d="M14.5366 79.9893H25.9585" stroke="#F0F2F4" stroke-linecap="round" stroke-linejoin="round"/>
<path id="vector_21" d="M20.2471 85.7007V74.2797" stroke="#F0F2F4" stroke-linecap="round" stroke-linejoin="round"/>
</g>
<g id="group_2">
<path id="vector_22" d="M147.151 102.645L155.226 110.721" stroke="#F0F2F4" stroke-linecap="round" stroke-linejoin="round"/>
<path id="vector_23" d="M147.151 110.721L155.226 102.645" stroke="#F0F2F4" stroke-linecap="round" stroke-linejoin="round"/>
</g>
<g id="group_3">
<path id="vector_24" d="M37.7629 164.63L41.8822 168.749" stroke="#F0F2F4" stroke-linecap="round" stroke-linejoin="round"/>
<path id="vector_25" d="M37.7629 168.749L41.8822 164.63" stroke="#F0F2F4" stroke-linecap="round" stroke-linejoin="round"/>
</g>
<g id="group_4">
<path id="vector_26" d="M49.822 51.1038H56.0527" stroke="#F0F2F4" stroke-linecap="round" stroke-linejoin="round"/>
<path id="vector_27" d="M52.9377 54.2187V47.9889" stroke="#F0F2F4" stroke-linecap="round" stroke-linejoin="round"/>
</g>
</g>
</g>
</g>
</svg>
