<svg width="307" height="209" viewBox="0 0 307 209" fill="none" xmlns="http://www.w3.org/2000/svg">
<path d="M103.075 54.0602C108.739 61.3291 111.545 70.4201 110.965 79.6168C124.289 78.4437 134.442 89.4319 133.618 101.717C129.515 97.7727 124.375 95.0777 118.797 93.9469C113.22 92.8161 107.436 93.2962 102.121 95.3311C96.8066 97.3659 92.1809 100.871 88.7848 105.438C85.3888 110.005 83.3627 115.443 82.9433 121.119H24.4834C20.6653 120.469 17.0206 119.045 13.7732 116.935C10.5258 114.824 7.74456 112.072 5.6004 108.847C2.9145 104.807 1.3086 100.147 0.935943 95.3102C0.563289 90.4736 1.43632 85.6222 3.47171 81.219C5.50711 76.8157 8.63697 73.0075 12.5626 70.1578C16.4882 67.3081 21.0787 65.5119 25.8959 64.9407C29.7416 64.4837 33.6401 64.8184 37.3516 65.9241C39.4153 59.3635 43.2338 53.4921 48.3938 48.9451C53.5539 44.3982 59.8592 41.3489 66.6273 40.1272C73.3955 38.9054 80.369 39.5577 86.7931 42.0136C93.2173 44.4694 98.8476 48.6352 103.075 54.0602Z" stroke="#24BBFF" stroke-width="1.615" stroke-linecap="round" stroke-linejoin="round"/>
<path d="M280.274 64.2993C282.31 60.3642 282.857 55.8263 281.815 51.5198C280.774 47.2134 278.212 43.4276 274.603 40.8583C270.993 38.289 266.577 37.1088 262.167 37.5347C257.757 37.9605 253.649 39.9638 250.597 43.1763C248.077 40.0808 244.887 37.5976 241.268 35.9137C237.649 34.2298 233.695 33.389 229.704 33.4548C225.712 33.5205 221.788 34.491 218.227 36.2933C214.665 38.0955 211.559 40.6825 209.142 43.8592C205.91 48.1101 204.043 53.2415 203.789 58.5755C203.786 58.7088 203.805 58.7779 203.781 58.8036C203.707 58.8792 203.238 58.5674 200.588 58.4148C190.564 57.9327 181.728 64.0503 178.276 72.9414C180.785 72.5552 183.32 72.3613 185.859 72.3613C207.908 72.3613 225.068 86.0394 232.174 103.912H282.996C285.796 104.02 288.588 103.538 291.19 102.496C293.792 101.454 296.145 99.8763 298.097 97.8652C300.049 95.854 301.555 93.4545 302.519 90.8228C303.482 88.191 303.881 85.3859 303.688 82.59C303.496 79.794 302.718 77.0698 301.403 74.5946C300.089 72.1193 298.268 69.9485 296.06 68.2233C293.851 66.498 291.304 65.257 288.585 64.5809C285.865 63.9049 283.033 63.8089 280.274 64.2993Z" stroke="#24BBFF" stroke-width="1.615" stroke-linecap="round" stroke-linejoin="round"/>
<path fill-rule="evenodd" clip-rule="evenodd" d="M39.426 98.7048L89.1314 69.8573L103.605 94.8096C99.5206 96.1327 95.768 98.3175 92.6011 101.216C89.4342 104.115 86.9267 107.66 85.2484 111.612C83.57 115.563 82.7599 119.829 82.8729 124.121C82.9858 128.413 84.0192 132.631 85.9031 136.488C78.9637 135.071 71.7605 135.725 65.1903 138.37C58.62 141.015 52.9729 145.535 48.9518 151.365L32.6865 123.315L39.426 98.7048Z" fill="#F0F2F4"/>
<path d="M48.4521 114.259L34.3947 126.242L32.6865 123.316L48.4521 114.259Z" fill="#24BBFF"/>
<path d="M48.4521 114.259L34.3947 126.242L32.6865 123.316L48.4521 114.259Z" stroke="#24BBFF" stroke-width="1.615" stroke-linecap="round" stroke-linejoin="round"/>
<path d="M39.426 98.7054L48.4521 114.259L32.6865 123.315" stroke="#24BBFF" stroke-width="1.615" stroke-linecap="round" stroke-linejoin="round"/>
<path d="M39.426 98.7048L89.1314 69.8573L103.605 94.8096C99.5206 96.1327 95.768 98.3175 92.6011 101.216C89.4342 104.115 86.9267 107.66 85.2484 111.612C83.57 115.563 82.7599 119.829 82.8729 124.121C82.9858 128.413 84.0192 132.631 85.9031 136.488C78.9637 135.071 71.7605 135.725 65.1903 138.37C58.62 141.015 52.9729 145.535 48.9518 151.365L32.6865 123.315L39.426 98.7048Z" stroke="#24BBFF" stroke-width="1.615" stroke-linecap="round" stroke-linejoin="round"/>
<path fill-rule="evenodd" clip-rule="evenodd" d="M268.848 163.834C270.016 163.762 271.154 163.442 272.189 162.896C273.224 162.351 274.131 161.592 274.85 160.67C275.521 159.812 276.016 158.83 276.308 157.781L290.514 106.848L222.077 87.968C235.808 102.66 240.449 125.311 230.136 145.155C237.756 142.918 245.936 143.59 253.088 147.042C260.241 150.493 265.857 156.477 268.848 163.834Z" fill="#F0F2F4"/>
<path fill-rule="evenodd" clip-rule="evenodd" d="M222.077 87.9675L290.514 106.847L292.642 99.3236C293.086 97.7415 293.049 96.0626 292.535 94.5016C292.021 92.9407 291.052 91.5687 289.754 90.561C288.893 89.8908 287.909 89.3971 286.857 89.1084L269.78 84.4113C268.727 84.1222 267.628 84.0435 266.545 84.1797C265.462 84.316 264.416 84.6644 263.468 85.2051C251.67 91.8819 251.233 92.2258 250.924 92.1342C250.889 92.123 250.857 92.1085 250.812 92.0956L216.065 82.5039C218.214 84.1583 220.225 85.9856 222.077 87.9675Z" fill="#24BBFF"/>
<path d="M290.514 106.847L290.3 107.622C290.505 107.678 290.724 107.652 290.908 107.547C291.093 107.443 291.229 107.27 291.287 107.066L290.514 106.847ZM222.077 87.9677L221.489 88.5156C221.59 88.6242 221.72 88.7026 221.863 88.7422L222.077 87.9677ZM292.642 99.3238L293.415 99.5424L293.416 99.5407L292.642 99.3238ZM286.857 89.1086L286.643 89.8831H286.645L286.857 89.1086ZM269.78 84.4115L269.994 83.637H269.992L269.78 84.4115ZM263.468 85.2054L263.863 85.9044H263.867L263.468 85.2054ZM250.812 92.0959L251.027 91.3213H251.026L250.812 92.0959ZM216.065 82.5041L216.279 81.7296C216.1 81.6802 215.908 81.6947 215.738 81.7706C215.568 81.8465 215.43 81.979 215.347 82.1456C215.264 82.3122 215.241 82.5025 215.283 82.6839C215.324 82.8654 215.428 83.0268 215.575 83.1405L216.065 82.5041ZM290.728 106.073L222.289 87.1931L221.863 88.7422L290.3 107.622L290.728 106.073ZM291.869 99.1053L289.741 106.629L291.287 107.066L293.415 99.5424L291.869 99.1053ZM292.089 96.1887C292.209 97.1665 292.133 98.1584 291.867 99.1069L293.416 99.5407C293.738 98.3877 293.829 97.1826 293.685 95.9943L292.089 96.1887ZM291.173 93.4087C291.659 94.2659 291.97 95.2107 292.089 96.1887L293.685 95.9959C293.54 94.8075 293.161 93.6596 292.571 92.6181L291.173 93.4103V93.4087ZM289.261 91.1944C290.039 91.8002 290.688 92.5522 291.173 93.4103L292.571 92.6181C291.981 91.5765 291.192 90.6617 290.247 89.9265L289.261 91.196V91.1944ZM286.645 89.8831C287.594 90.1434 288.483 90.5902 289.261 91.1944L290.247 89.9265C289.303 89.1914 288.223 88.6503 287.069 88.3341L286.645 89.8831ZM269.566 85.1861L286.643 89.8831L287.071 88.3341L269.994 83.637L269.566 85.1861ZM266.645 84.9772C267.623 84.854 268.617 84.925 269.568 85.1861L269.992 83.637C268.838 83.3199 267.632 83.2336 266.444 83.3831L266.645 84.9772ZM263.867 85.9028C264.723 85.4143 265.666 85.0993 266.645 84.9772L266.444 83.3831C265.256 83.5329 264.11 83.9151 263.069 84.508L263.867 85.9028ZM250.695 92.9041C251.082 93.0182 251.413 92.8865 251.691 92.7595C251.995 92.6197 252.475 92.3594 253.28 91.9078C254.905 90.9999 257.972 89.2404 263.863 85.9044L263.073 84.5063C257.166 87.8488 254.116 89.5987 252.494 90.5066C251.676 90.9646 251.254 91.1912 251.019 91.2988C250.759 91.4177 250.92 91.294 251.153 91.3631L250.695 92.9041ZM250.597 92.8704C250.587 92.8672 250.58 92.864 250.593 92.8704L250.627 92.8816L250.695 92.9041L251.153 91.3631L251.169 91.3695L251.151 91.3615C251.11 91.3462 251.069 91.3328 251.027 91.3213L250.597 92.8704ZM215.85 83.2787L250.598 92.8704L251.026 91.3213L216.279 81.7296L215.85 83.2787ZM215.575 83.1405C217.69 84.7684 219.668 86.5666 221.489 88.5172L222.663 87.4197C220.782 85.4055 218.738 83.5487 216.554 81.8678L215.575 83.1405Z" fill="#24BBFF"/>
<path d="M268.848 163.834C270.016 163.762 271.154 163.442 272.189 162.896C273.224 162.351 274.131 161.592 274.85 160.67C275.521 159.812 276.016 158.83 276.308 157.781L290.514 106.848L222.077 87.968C235.808 102.66 240.449 125.311 230.136 145.155C237.756 142.918 245.936 143.59 253.088 147.042C260.241 150.493 265.857 156.477 268.848 163.834Z" stroke="#24BBFF" stroke-width="1.615" stroke-linecap="round" stroke-linejoin="round"/>
<path d="M137.952 19.2378H147.588" stroke="#24BBFF" stroke-width="1.615" stroke-linecap="round" stroke-linejoin="round"/>
<path d="M164.665 19.207L174.271 19.1765" stroke="#24BBFF" stroke-width="1.615" stroke-linecap="round" stroke-linejoin="round"/>
<path d="M156.097 1.03296V10.6697" stroke="#24BBFF" stroke-width="1.615" stroke-linecap="round" stroke-linejoin="round"/>
<path d="M156.127 27.7462L156.158 37.3813" stroke="#24BBFF" stroke-width="1.615" stroke-linecap="round" stroke-linejoin="round"/>
<path d="M143.258 6.3999L150.058 13.1699" stroke="#24BBFF" stroke-width="1.615" stroke-linecap="round" stroke-linejoin="round"/>
<path d="M162.165 25.2466L168.996 32.0455" stroke="#24BBFF" stroke-width="1.615" stroke-linecap="round" stroke-linejoin="round"/>
<path d="M168.935 6.33936L162.135 13.1704" stroke="#24BBFF" stroke-width="1.615" stroke-linecap="round" stroke-linejoin="round"/>
<path d="M150.089 25.2466L143.289 32.076" stroke="#24BBFF" stroke-width="1.615" stroke-linecap="round" stroke-linejoin="round"/>
<path d="M9.23708 143.137L9.20654 159.175" stroke="#24BBFF" stroke-width="1.615" stroke-linecap="round" stroke-linejoin="round"/>
<path d="M17.2268 151.155H1.21704" stroke="#24BBFF" stroke-width="1.615" stroke-linecap="round" stroke-linejoin="round"/>
<path d="M306.159 169.695C306.159 170.795 305.722 171.85 304.944 172.628C304.166 173.405 303.112 173.842 302.012 173.842C300.912 173.842 299.857 173.405 299.08 172.628C298.302 171.85 297.865 170.795 297.865 169.695C297.865 168.596 298.302 167.541 299.08 166.763C299.857 165.986 300.912 165.549 302.012 165.549C303.112 165.549 304.166 165.986 304.944 166.763C305.722 167.541 306.159 168.596 306.159 169.695Z" stroke="#24BBFF" stroke-width="1.615" stroke-linecap="round" stroke-linejoin="round"/>
<path d="M78.6724 207.966C71.0659 207.967 63.6536 205.564 57.4934 201.102C51.3332 196.64 46.74 190.346 44.3694 183.118C42.795 178.322 42.2439 173.249 42.7517 168.227C43.2595 163.205 44.8149 158.345 47.3174 153.962C49.8199 149.578 53.2139 145.768 57.2804 142.777C61.3468 139.786 65.9952 137.682 70.9255 136.599C75.8555 135.515 80.9581 135.477 85.9036 136.488C82.5442 129.592 81.9557 121.671 84.2594 114.354C86.563 107.037 91.5835 100.882 98.2878 97.1539C104.992 93.4262 112.87 92.4101 120.301 94.3145C127.732 96.2189 134.15 100.899 138.235 107.392C141.401 97.238 147.73 88.3622 156.298 82.06C164.865 75.7578 175.223 72.3594 185.859 72.3608C223.652 72.3608 247.083 112.548 230.136 145.155C236.782 143.208 243.878 143.465 250.366 145.886C256.853 148.308 262.382 152.764 266.127 158.588C268.611 162.454 270.234 166.809 270.886 171.357C271.541 175.905 271.21 180.54 269.915 184.949C268.621 189.357 266.393 193.435 263.384 196.907C260.375 200.38 256.655 203.165 252.476 205.074C248.297 206.983 243.757 207.972 239.162 207.972L78.6724 207.966Z" stroke="#24BBFF" stroke-width="1.615" stroke-linecap="round" stroke-linejoin="round"/>
<path d="M128.809 153.286L128.348 153.093L128.809 153.286C130.559 149.112 133.262 145.401 136.639 142.525L136.829 142.363L136.814 142.113C136.533 137.599 137.305 133.023 139.055 128.848C143.476 118.303 153.521 111.5 164.637 111.5C168.443 111.5 172.159 112.297 175.683 113.871C182.511 116.921 187.784 122.534 190.526 129.684C193.269 136.834 193.15 144.656 190.191 151.714C188.441 155.888 185.738 159.599 182.361 162.475L182.171 162.637L182.186 162.887C182.467 167.401 181.695 171.977 179.945 176.152C175.524 186.697 165.478 193.5 154.364 193.5C150.557 193.5 146.841 192.703 143.317 191.129C136.489 188.079 131.216 182.466 128.474 175.317C125.731 168.166 125.85 160.344 128.809 153.286ZM137.85 148.238L137.605 147.365L136.997 148.038C135.156 150.076 133.678 152.412 132.592 155.001L133.053 155.195L132.592 155.001C127.403 167.379 132.931 181.819 144.946 187.185C147.948 188.527 151.119 189.208 154.365 189.208C163.851 189.208 172.403 183.403 176.162 174.437C177.248 171.848 177.885 169.138 178.064 166.36L178.122 165.468L177.332 165.886C173.393 167.968 169.026 169.062 164.606 169.062C160.801 169.062 157.086 168.265 153.563 166.691C149.475 164.865 145.836 162.027 143.04 158.485C140.671 155.485 138.894 151.97 137.85 148.238ZM141.485 144.162L141.213 144.343L141.27 144.665C142.697 152.739 147.862 159.474 155.192 162.747C158.194 164.088 161.364 164.769 164.61 164.769C169.206 164.769 173.656 163.411 177.515 160.839L177.787 160.657L177.73 160.336C176.303 152.261 171.138 145.527 163.809 142.253L163.605 142.709L163.809 142.253C160.807 140.912 157.637 140.231 154.391 140.231C149.794 140.231 145.345 141.589 141.485 144.162ZM175.96 146.515L176.353 146.205L175.96 146.515C178.329 149.515 180.106 153.03 181.151 156.762L181.395 157.636L182.003 156.962C183.844 154.924 185.322 152.588 186.408 149.999L185.947 149.806L186.408 149.999C188.922 144.001 189.024 137.35 186.693 131.274C184.362 125.197 179.874 120.414 174.055 117.815C171.052 116.474 167.882 115.793 164.635 115.793C155.149 115.793 146.597 121.598 142.838 130.563C141.753 133.152 141.115 135.862 140.936 138.64L140.879 139.532L141.669 139.114C145.607 137.032 149.974 135.939 154.394 135.939C158.199 135.939 161.914 136.736 165.437 138.309C169.525 140.135 173.165 142.973 175.96 146.515Z" stroke="#24BBFF"/>
<path d="M95 32.6038L103.387 28L107.931 36.3544" stroke="#24BBFF" stroke-width="1.615" stroke-linecap="round" stroke-linejoin="round"/>
<path d="M142.234 85.0514L134 80.1423L138.94 72" stroke="#24BBFF" stroke-width="1.615" stroke-linecap="round" stroke-linejoin="round"/>
<path d="M195.032 42L194.484 51.5435L185 50.9345" stroke="#24BBFF" stroke-width="1.615" stroke-linecap="round" stroke-linejoin="round"/>
</svg>
