<svg width="156" height="156" viewBox="0 0 156 156" fill="none" xmlns="http://www.w3.org/2000/svg">
<g id="Start-Up-Team--Streamline-Bangalore 1">
<g id="start-up-team--work-start-up-team">
<g id="rocket 2">
<path id="Vector" d="M116.505 101.257C113.36 105.563 111.834 110.84 112.197 116.16C117.516 115.783 122.532 113.541 126.36 109.829L116.505 101.257Z" fill="#F0F2F4"/>
<path id="Vector_2" d="M116.505 101.257C113.36 105.563 111.834 110.84 112.197 116.16C117.516 115.783 122.532 113.541 126.36 109.829L116.505 101.257Z" stroke="#F0F2F4" stroke-linecap="round" stroke-linejoin="round"/>
<path id="Vector_3" d="M111.701 97.0788L136.11 118.307C147.037 105.744 153.008 89.0737 151.981 70.8451C139.863 71.7766 128.224 75.9824 118.31 83.0131" stroke="#F0F2F4" stroke-linecap="round" stroke-linejoin="round"/>
<path id="Vector_4" d="M134.118 96.4042C134.776 96.4043 135.428 96.2747 136.036 96.0228C136.645 95.7709 137.197 95.4016 137.663 94.9361C138.128 94.4706 138.498 93.9179 138.749 93.3097C139.001 92.7014 139.131 92.0495 139.131 91.3911C139.131 90.3996 138.837 89.4304 138.286 88.606C137.735 87.7816 136.952 87.1391 136.036 86.7596C135.12 86.3802 134.112 86.2809 133.14 86.4744C132.167 86.6678 131.274 87.1453 130.573 87.8463C129.872 88.5474 129.394 89.4407 129.201 90.4131C129.008 91.3856 129.107 92.3935 129.486 93.3095C129.866 94.2255 130.508 95.0085 131.333 95.5593C132.157 96.1102 133.126 96.4042 134.118 96.4042Z" stroke="#F0F2F4" stroke-linecap="round" stroke-linejoin="round"/>
</g>
<g id="rocket 3">
<path id="Vector_5" d="M65.7073 33.7014C63.9185 35.7766 63.0215 38.4742 63.2113 41.2074C65.9438 41.0169 68.4908 39.7555 70.2984 37.6974L65.7073 33.7014Z" fill="#F0F2F4"/>
<path id="Vector_6" d="M65.7073 33.7014C63.9185 35.7766 63.0215 38.4742 63.2113 41.2074C65.9438 41.0169 68.4908 39.7555 70.2984 37.6974L65.7073 33.7014Z" stroke="#F0F2F4" stroke-linecap="round" stroke-linejoin="round"/>
<path id="Vector_7" d="M80.9063 29.9761C81.8413 26.6161 82.2137 23.1244 82.0084 19.6427C74.0426 20.2238 66.625 23.9151 61.3579 29.9192L74.6959 41.5186C76.4583 39.4915 77.9379 37.235 79.0943 34.8106C78.6945 34.7625 78.3109 34.6242 77.9724 34.4062C77.6339 34.1881 77.3493 33.896 77.1402 33.5519C76.9311 33.2078 76.8028 32.8207 76.7652 32.4198C76.7276 32.0189 76.7815 31.6147 76.923 31.2376C77.0644 30.8606 77.2896 30.5207 77.5817 30.2435C77.8737 29.9662 78.2249 29.759 78.6088 29.6373C78.9926 29.5157 79.3991 29.4828 79.7975 29.5413C80.1959 29.5997 80.5758 29.7478 80.9086 29.9746L80.9063 29.9761Z" fill="#F0F2F4"/>
<path id="Vector_8" d="M82.0084 19.6427C74.0426 20.2238 66.625 23.9151 61.3579 29.9192L74.6959 41.5186C79.9086 35.4682 82.5349 27.6116 82.0084 19.6427Z" stroke="#F0F2F4" stroke-linecap="round" stroke-linejoin="round"/>
<path id="Vector_9" d="M77.4073 30.4254C77.0917 30.7896 76.881 31.2327 76.7979 31.7074C76.7148 32.1821 76.7623 32.6705 76.9354 33.1202C77.1084 33.57 77.4006 33.9642 77.7805 34.2607C78.1604 34.5572 78.6138 34.7449 79.0921 34.8035C79.8337 33.2497 80.4407 31.6352 80.9064 29.9776C80.3697 29.6102 79.7167 29.4528 79.0716 29.5354C78.4265 29.6179 77.8342 29.9347 77.4073 30.4254Z" stroke="#F0F2F4" stroke-linecap="round" stroke-linejoin="round"/>
</g>
<g id="cog">
<path id="Vector_10" d="M118.248 132.639C117.761 131.401 117.068 130.255 116.2 129.247C116.694 128.733 117.005 128.07 117.084 127.361C117.163 126.653 117.006 125.938 116.637 125.328C116.392 124.923 116.061 124.577 115.668 124.314C115.275 124.051 114.828 123.878 114.361 123.806C113.893 123.735 113.415 123.767 112.961 123.9C112.507 124.033 112.088 124.264 111.733 124.577C111.378 124.89 111.096 125.276 110.907 125.709C108.632 124.958 106.183 124.91 103.88 125.572C103.694 125.149 103.42 124.771 103.075 124.464C102.73 124.156 102.324 123.926 101.883 123.789C101.442 123.653 100.976 123.612 100.518 123.67C100.06 123.728 99.62 123.883 99.2267 124.124C98.8331 124.366 98.4961 124.69 98.2385 125.073C97.9809 125.457 97.8088 125.891 97.7338 126.347C97.6579 126.802 97.6806 127.269 97.8005 127.715C97.9204 128.161 98.1347 128.576 98.4288 128.932C96.8213 130.673 95.7695 132.853 95.4078 135.194C94.9453 135.185 94.4861 135.274 94.0612 135.457C93.6363 135.64 93.2557 135.913 92.945 136.255C92.6343 136.598 92.4008 137.004 92.2602 137.444C92.1197 137.885 92.0754 138.351 92.1303 138.81C92.1851 139.27 92.3375 139.712 92.5772 140.107C92.9383 140.704 93.4829 141.168 94.1296 141.429C94.7763 141.69 95.4902 141.735 96.1644 141.557C96.6716 142.789 97.3836 143.927 98.2704 144.922C97.8801 145.359 97.6155 145.893 97.5049 146.469C97.3943 147.044 97.4419 147.638 97.6425 148.188C97.8431 148.739 98.1893 149.224 98.6441 149.593C99.0989 149.962 99.6453 150.201 100.225 150.284C100.688 150.349 101.16 150.313 101.608 150.179C102.056 150.045 102.47 149.815 102.821 149.506C103.171 149.196 103.451 148.814 103.639 148.386C105.859 149.078 108.233 149.105 110.468 148.464C110.654 148.886 110.929 149.264 111.273 149.572C111.618 149.88 112.024 150.11 112.466 150.247C112.907 150.383 113.372 150.424 113.83 150.366C114.288 150.308 114.729 150.153 115.122 149.911C115.515 149.669 115.852 149.345 116.109 148.962C116.367 148.578 116.539 148.144 116.615 147.689C116.69 147.233 116.667 146.767 116.547 146.321C116.427 145.875 116.213 145.46 115.919 145.103C117.486 143.408 118.525 141.295 118.912 139.019C119.372 139.032 119.83 138.946 120.254 138.768C120.679 138.59 121.061 138.323 121.374 137.986C121.847 137.477 122.143 136.83 122.218 136.139C122.294 135.449 122.145 134.753 121.794 134.154C121.443 133.555 120.909 133.085 120.271 132.813C119.633 132.541 118.924 132.481 118.249 132.642L118.248 132.639Z" stroke="#F0F2F4" stroke-linecap="round" stroke-linejoin="round"/>
<path id="Vector_11" d="M107.111 143.271C108.797 143.271 110.414 142.601 111.606 141.409C112.798 140.217 113.468 138.6 113.468 136.914C113.468 135.228 112.798 133.611 111.606 132.419C110.414 131.227 108.797 130.557 107.111 130.557C105.425 130.557 103.808 131.227 102.616 132.419C101.424 133.611 100.754 135.228 100.754 136.914C100.754 138.6 101.424 140.217 102.616 141.409C103.808 142.601 105.425 143.271 107.111 143.271Z" stroke="#F0F2F4" stroke-linecap="round" stroke-linejoin="round"/>
</g>
<g id="rocket 1">
<g id="Group">
<path id="Vector_12" d="M54.1585 79.8572L42.7627 88.7507L80.4905 121.567L88.3646 109.609L54.1585 79.8572Z" fill="#24BBFF"/>
<path id="Vector_13" d="M54.1585 79.8572L42.7627 88.7507L80.4905 121.567L88.3646 109.609L54.1585 79.8572Z" stroke="#F0F2F4" stroke-linecap="round" stroke-linejoin="round"/>
<g id="Group_2">
<path id="Vector_14" d="M61.6511 105.18L71.2771 94.7473" stroke="#F0F2F4" stroke-linecap="round" stroke-linejoin="round"/>
<path id="Vector_15" d="M58.6707 102.587L68.3817 92.2288" stroke="#F0F2F4" stroke-linecap="round" stroke-linejoin="round"/>
<path id="Vector_16" d="M55.8269 100.114L65.4537 89.682" stroke="#F0F2F4" stroke-linecap="round" stroke-linejoin="round"/>
<path id="Vector_17" d="M53.0291 97.5966L62.6129 87.2109" stroke="#F0F2F4" stroke-linecap="round" stroke-linejoin="round"/>
<path id="Vector_18" d="M49.5298 94.6366L59.5551 84.552" stroke="#F0F2F4" stroke-linecap="round" stroke-linejoin="round"/>
<path id="Vector_19" d="M46.3147 91.8403L56.5148 81.907" stroke="#F0F2F4" stroke-linecap="round" stroke-linejoin="round"/>
<path id="Vector_20" d="M76.9663 118.501L86.1235 107.661" stroke="#F0F2F4" stroke-linecap="round" stroke-linejoin="round"/>
<path id="Vector_21" d="M73.9172 115.849L83.1189 105.047" stroke="#F0F2F4" stroke-linecap="round" stroke-linejoin="round"/>
<path id="Vector_22" d="M70.572 112.878L80.106 102.426" stroke="#F0F2F4" stroke-linecap="round" stroke-linejoin="round"/>
<path id="Vector_23" d="M67.5767 110.303L77.2104 99.9078" stroke="#F0F2F4" stroke-linecap="round" stroke-linejoin="round"/>
<path id="Vector_24" d="M64.7188 107.846L74.2831 97.3619" stroke="#F0F2F4" stroke-linecap="round" stroke-linejoin="round"/>
</g>
</g>
<path id="Vector_25" d="M126.618 43.2197C126.795 38.7464 126.731 34.7817 126.495 30.5837C122.319 30.9301 118.375 31.4168 113.96 32.2139L126.618 43.2197Z" fill="#24BBFF"/>
<path id="Vector_26" d="M126.618 43.2197C126.795 38.7464 126.731 34.7817 126.495 30.5837C122.319 30.9301 118.375 31.4168 113.96 32.2139L126.618 43.2197Z" stroke="#F0F2F4" stroke-linecap="round" stroke-linejoin="round"/>
<path id="Vector_27" d="M113.958 32.214C86.9973 36.9784 62.4725 50.808 44.4443 71.4129L97.4282 117.498C115.336 96.7888 125.634 70.5839 126.616 43.2229L113.958 32.214Z" stroke="#F0F2F4" stroke-linecap="round" stroke-linejoin="round"/>
<path id="Vector_28" d="M52.5049 97.2246C43.5349 107.537 37.493 120.52 36.4026 134.16C49.7733 131.173 61.7526 123.432 70.7483 113.094L52.5049 97.2246Z" stroke="#F0F2F4" stroke-linecap="round" stroke-linejoin="round"/>
<path id="Vector_29" d="M57.94 101.952C55.0492 105.302 53.5898 109.653 53.8762 114.069C58.2889 113.74 62.3961 111.692 65.3134 108.365L57.94 101.952Z" fill="#F0F2F4"/>
<path id="Vector_30" d="M57.94 101.952C55.0492 105.302 53.5898 109.653 53.8762 114.069C58.2889 113.74 62.3961 111.692 65.3134 108.365L57.94 101.952Z" stroke="#F0F2F4" stroke-linecap="round" stroke-linejoin="round"/>
<path id="Vector_31" d="M100.869 60.7775C99.5503 59.6124 98.0141 58.7198 96.3489 58.1513C94.6837 57.5827 92.9225 57.3494 91.1667 57.4649C89.4109 57.5803 87.6953 58.0422 86.1189 58.8238C84.5424 59.6055 83.1363 60.6915 81.9817 62.0192C80.827 63.3469 79.9465 64.89 79.3911 66.5596C78.8357 68.2293 78.6162 69.9923 78.7455 71.7471C78.8747 73.502 79.3501 75.2139 80.1441 76.7841C80.9382 78.3543 82.0352 79.7518 83.3719 80.896C86.0443 83.1835 89.5123 84.322 93.0205 84.0637C96.5286 83.8053 99.7924 82.1709 102.101 79.5167C104.409 76.8624 105.575 73.4034 105.344 69.8934C105.114 66.3833 103.505 63.1067 100.869 60.7775Z" stroke="#F0F2F4" stroke-linecap="round" stroke-linejoin="round"/>
<path id="Vector_32" d="M99.3627 62.5091C98.2693 61.5581 96.9992 60.8317 95.625 60.3714C94.2508 59.9112 92.7995 59.7262 91.3538 59.8268C89.9081 59.9275 88.4964 60.312 87.1993 60.9582C85.9021 61.6045 84.745 62.4999 83.7939 63.5933C82.8429 64.6868 82.1165 65.9569 81.6562 67.331C81.196 68.7052 81.0109 70.1566 81.1116 71.6023C81.2123 73.048 81.5967 74.4597 82.243 75.7568C82.8893 77.0539 83.7847 78.2111 84.8781 79.1621C87.0865 81.0829 89.9674 82.0478 92.8871 81.8444C95.8068 81.6411 98.5261 80.2863 100.447 78.0779C102.368 75.8696 103.333 72.9887 103.129 70.069C102.926 67.1493 101.571 64.4299 99.3627 62.5091ZM86.9381 71.6211C86.7495 71.8453 86.5182 72.0298 86.2577 72.1637C85.9971 72.2976 85.7124 72.3783 85.4204 72.4011C85.1283 72.4239 84.8346 72.3883 84.5564 72.2964C84.2782 72.2046 84.021 72.0582 83.8 71.8659C83.5789 71.6737 83.3984 71.4393 83.2688 71.1765C83.1393 70.9138 83.0633 70.6278 83.0454 70.3354C83.0275 70.043 83.0679 69.7499 83.1645 69.4733C83.261 69.1966 83.4116 68.942 83.6075 68.7242C83.9948 68.2937 84.5357 68.0325 85.1137 67.9971C85.6916 67.9617 86.2604 68.1548 86.6973 68.5349C87.1342 68.9149 87.4043 69.4514 87.4494 70.0287C87.4944 70.606 87.3108 71.1779 86.9381 71.6211Z" fill="#F0F2F4"/>
<path id="Vector_33" d="M99.3627 62.5091C98.2693 61.5581 96.9992 60.8317 95.625 60.3714C94.2508 59.9112 92.7995 59.7262 91.3538 59.8268C89.9081 59.9275 88.4964 60.312 87.1993 60.9582C85.9021 61.6045 84.745 62.4999 83.7939 63.5933C82.8429 64.6868 82.1165 65.9569 81.6562 67.331C81.196 68.7052 81.0109 70.1566 81.1116 71.6023C81.2123 73.048 81.5967 74.4597 82.243 75.7568C82.8893 77.0539 83.7847 78.2111 84.8781 79.1621C87.0865 81.0829 89.9674 82.0478 92.8871 81.8444C95.8068 81.6411 98.5261 80.2863 100.447 78.0779C102.368 75.8696 103.333 72.9887 103.129 70.069C102.926 67.1493 101.571 64.4299 99.3627 62.5091Z" stroke="#F0F2F4" stroke-linecap="round" stroke-linejoin="round"/>
<path id="Vector_34" d="M86.7211 68.5073C86.3919 68.2203 85.9848 68.0374 85.5515 67.9819C85.1182 67.9264 84.6781 68.0007 84.2871 68.1955C83.8961 68.3903 83.5717 68.6968 83.355 69.0761C83.1383 69.4554 83.0391 69.8905 83.07 70.3263C83.1008 70.7617 83.2599 71.1783 83.5271 71.5235C83.7943 71.8687 84.1577 72.1271 84.5715 72.2662C85.0557 72.4284 85.5813 72.4177 86.0586 72.2359C86.5359 72.0541 86.9354 71.7124 87.1889 71.269C87.4425 70.8256 87.5345 70.308 87.4492 69.8045C87.3639 69.3009 87.1066 68.8425 86.7211 68.5073Z" stroke="#F0F2F4" stroke-linecap="round" stroke-linejoin="round"/>
</g>
<g id="effect">
<path id="Vector_35" d="M23.7492 136.545L9.38477 149.999" stroke="#F0F2F4" stroke-linecap="round" stroke-linejoin="round"/>
<path id="Vector_36" d="M39.0364 110.109L24.6719 123.563" stroke="#F0F2F4" stroke-linecap="round" stroke-linejoin="round"/>
<path id="Vector_37" d="M70.252 123.563L55.8867 137.016" stroke="#F0F2F4" stroke-linecap="round" stroke-linejoin="round"/>
<path id="Vector_38" d="M40.8945 136.545L26.53 149.999" stroke="#F0F2F4" stroke-linecap="round" stroke-linejoin="round"/>
</g>
<g id="light bulb">
<path id="Vector_39" d="M24.3827 57.9658C21.4949 58.1531 18.7401 59.2482 16.5118 61.0947C14.2836 62.9412 12.6958 65.4447 11.9754 68.2475C11.255 71.0503 11.4387 74.009 12.5004 76.7012C13.562 79.3933 15.4473 81.6811 17.8869 83.2378C18.7977 83.8039 19.5455 84.5974 20.0566 85.5403C20.5677 86.4832 20.8245 87.5428 20.8017 88.6151H30.5923C30.5923 86.3905 31.0127 84.4124 33.1491 82.9133C35.605 81.1957 37.4312 78.7216 38.349 75.8687C39.2667 73.0158 39.2255 69.9409 38.2316 67.1136C37.2381 64.2862 35.3468 61.8615 32.8462 60.2098C30.3456 58.558 27.3732 57.7699 24.3827 57.9658Z" stroke="#F0F2F4" stroke-linecap="round" stroke-linejoin="round"/>
<path id="Vector_40" d="M20.8018 88.6158C20.8018 89.9142 21.3175 91.1593 22.2356 92.0773C23.1536 92.9954 24.3987 93.5111 25.697 93.5111C26.9953 93.5111 28.2405 92.9954 29.1585 92.0773C30.0766 91.1593 30.5923 89.9142 30.5923 88.6158H20.8018Z" fill="#F0F2F4"/>
<path id="Vector_41" d="M20.8018 88.6158C20.8018 89.9142 21.3175 91.1593 22.2356 92.0773C23.1536 92.9954 24.3987 93.5111 25.697 93.5111C26.9953 93.5111 28.2405 92.9954 29.1585 92.0773C30.0766 91.1593 30.5923 89.9142 30.5923 88.6158H20.8018Z" stroke="#F0F2F4" stroke-linecap="round" stroke-linejoin="round"/>
<g id="Group_3">
<path id="Vector_42" d="M24.4022 70.5557C24.0322 71.4265 23.8416 72.3629 23.8416 73.3091C23.8416 74.2552 24.0322 75.1916 24.4022 76.0625C24.7722 75.1917 24.9628 74.2552 24.9628 73.3091C24.9628 72.3629 24.7722 71.4265 24.4022 70.5557Z" stroke="#F0F2F4" stroke-linecap="round" stroke-linejoin="round"/>
<path id="Vector_43" d="M27.09 70.5557C26.72 71.4265 26.5293 72.3629 26.5293 73.3091C26.5293 74.2552 26.72 75.1917 27.09 76.0625C27.4599 75.1916 27.6505 74.2552 27.6505 73.3091C27.6505 72.3629 27.4599 71.4265 27.09 70.5557Z" stroke="#F0F2F4" stroke-linecap="round" stroke-linejoin="round"/>
<path id="Vector_44" d="M27.0791 88.6158V80.7035C27.0791 77.2169 29.8044 76.915 29.8044 73.3091C29.8044 71.2031 29.0767 69.4231 28.3224 69.4231C27.7499 69.4231 27.4223 69.6883 27.0884 70.5557C26.686 69.9691 26.3178 69.4894 25.7445 69.4894C25.4455 69.5305 25.1631 69.6511 24.9267 69.8387C24.6902 70.0262 24.5085 70.2739 24.4006 70.5557C23.3866 68.505 21.4366 69.4286 21.6994 73.3091C21.9256 76.6888 24.4006 77.2793 24.4006 80.7035V88.6158" stroke="#F0F2F4" stroke-linecap="round" stroke-linejoin="round"/>
</g>
<path id="Vector_45" d="M43.357 50.8662L36.376 58.2567" stroke="#F0F2F4" stroke-linecap="round" stroke-linejoin="round"/>
<path id="Vector_46" d="M31.2717 44.7252L28.6462 54.93" stroke="#F0F2F4" stroke-linecap="round" stroke-linejoin="round"/>
<path id="Vector_47" d="M16.5671 44.7291L19.6653 54.6484" stroke="#F0F2F4" stroke-linecap="round" stroke-linejoin="round"/>
<path id="Vector_48" d="M3.8999 53.746L12.5212 59.4759" stroke="#F0F2F4" stroke-linecap="round" stroke-linejoin="round"/>
</g>
<g id="elements">
<g id="Group_4">
<path id="Vector_49" d="M7.66504 118.431L13.4597 124.225" stroke="#F0F2F4" stroke-linecap="round" stroke-linejoin="round"/>
<path id="Vector_50" d="M7.66504 124.225L13.4597 118.431" stroke="#F0F2F4" stroke-linecap="round" stroke-linejoin="round"/>
</g>
<g id="Group_5">
<path id="Vector_51" d="M133.267 132.68L136.223 135.637" stroke="#F0F2F4" stroke-linecap="round" stroke-linejoin="round"/>
<path id="Vector_52" d="M133.267 135.637L136.223 132.68" stroke="#F0F2F4" stroke-linecap="round" stroke-linejoin="round"/>
</g>
<g id="Group_6">
<path id="Vector_53" d="M126.55 9.70703H134.745" stroke="#F0F2F4" stroke-linecap="round" stroke-linejoin="round"/>
<path id="Vector_54" d="M130.648 13.8052V5.60974" stroke="#F0F2F4" stroke-linecap="round" stroke-linejoin="round"/>
</g>
<g id="Group_7">
<path id="Vector_55" d="M136.896 42.411H141.366" stroke="#F0F2F4" stroke-linecap="round" stroke-linejoin="round"/>
<path id="Vector_56" d="M139.132 44.6464V40.1763" stroke="#F0F2F4" stroke-linecap="round" stroke-linejoin="round"/>
</g>
</g>
</g>
</g>
</svg>
