<svg xmlns="http://www.w3.org/2000/svg" width="156" height="156" viewBox="0 0 156 156" fill="none">
  <path d="M116.506 101.257C113.36 105.563 111.834 110.84 112.198 116.16C117.517 115.783 122.532 113.541 126.36 109.829L116.506 101.257Z" fill="#17334F"/>
  <path d="M116.506 101.257C113.36 105.563 111.834 110.84 112.198 116.16C117.517 115.783 122.532 113.541 126.36 109.829L116.506 101.257Z" stroke="#17334F" stroke-linecap="round" stroke-linejoin="round"/>
  <path d="M111.702 97.0788L136.11 118.307C147.037 105.744 153.008 89.0737 151.982 70.8451C139.863 71.7766 128.224 75.9824 118.31 83.0131" stroke="#17334F" stroke-linecap="round" stroke-linejoin="round"/>
  <path d="M134.118 96.4042C134.776 96.4043 135.428 96.2747 136.036 96.0228C136.645 95.7709 137.197 95.4016 137.663 94.9361C138.128 94.4706 138.498 93.9179 138.75 93.3097C139.001 92.7014 139.131 92.0495 139.131 91.3911C139.131 90.3996 138.837 89.4304 138.286 88.606C137.735 87.7816 136.952 87.1391 136.036 86.7596C135.12 86.3802 134.112 86.2809 133.14 86.4744C132.167 86.6678 131.274 87.1453 130.573 87.8463C129.872 88.5474 129.395 89.4407 129.201 90.4131C129.008 91.3856 129.107 92.3935 129.486 93.3095C129.866 94.2255 130.508 95.0085 131.333 95.5593C132.157 96.1102 133.126 96.4042 134.118 96.4042Z" stroke="#17334F" stroke-linecap="round" stroke-linejoin="round"/>
  <path d="M65.7071 33.7014C63.9184 35.7766 63.0213 38.4742 63.2112 41.2074C65.9437 41.0169 68.4906 39.7555 70.2982 37.6974L65.7071 33.7014Z" fill="#17334F"/>
  <path d="M65.7071 33.7014C63.9184 35.7766 63.0213 38.4742 63.2112 41.2074C65.9437 41.0169 68.4906 39.7555 70.2982 37.6974L65.7071 33.7014Z" stroke="#17334F" stroke-linecap="round" stroke-linejoin="round"/>
  <path d="M80.9063 29.9761C81.8413 26.6161 82.2137 23.1244 82.0084 19.6427C74.0426 20.2238 66.625 23.9151 61.3579 29.9192L74.6959 41.5186C76.4583 39.4915 77.9379 37.235 79.0943 34.8106C78.6945 34.7625 78.3109 34.6242 77.9724 34.4062C77.6339 34.1881 77.3493 33.896 77.1402 33.5519C76.9311 33.2078 76.8028 32.8207 76.7652 32.4198C76.7276 32.0189 76.7815 31.6147 76.923 31.2376C77.0644 30.8606 77.2896 30.5207 77.5817 30.2435C77.8737 29.9662 78.2249 29.759 78.6088 29.6373C78.9926 29.5157 79.3991 29.4828 79.7975 29.5413C80.1959 29.5997 80.5758 29.7478 80.9086 29.9746L80.9063 29.9761Z" fill="#17334F"/>
  <path d="M82.0084 19.6427C74.0426 20.2238 66.625 23.9151 61.3579 29.9192L74.6959 41.5186C79.9086 35.4682 82.5349 27.6116 82.0084 19.6427Z" stroke="#17334F" stroke-linecap="round" stroke-linejoin="round"/>
  <path d="M77.4072 30.4254C77.0915 30.7896 76.8809 31.2327 76.7978 31.7074C76.7146 32.1821 76.7622 32.6705 76.9352 33.1202C77.1083 33.57 77.4004 33.9642 77.7803 34.2607C78.1603 34.5572 78.6136 34.7449 79.092 34.8035C79.8336 33.2497 80.4406 31.6352 80.9062 29.9776C80.3696 29.6102 79.7166 29.4528 79.0715 29.5354C78.4263 29.6179 77.834 29.9347 77.4072 30.4254Z" stroke="#17334F" stroke-linecap="round" stroke-linejoin="round"/>
  <path d="M118.248 132.639C117.761 131.401 117.069 130.255 116.201 129.247C116.694 128.733 117.005 128.07 117.084 127.361C117.163 126.653 117.006 125.938 116.637 125.328C116.392 124.923 116.062 124.577 115.668 124.314C115.275 124.051 114.829 123.878 114.361 123.806C113.893 123.735 113.416 123.767 112.962 123.9C112.508 124.033 112.088 124.264 111.733 124.577C111.379 124.89 111.097 125.276 110.907 125.709C108.632 124.958 106.183 124.91 103.88 125.572C103.694 125.149 103.42 124.771 103.075 124.464C102.731 124.156 102.324 123.926 101.883 123.789C101.442 123.653 100.977 123.612 100.519 123.67C100.061 123.728 99.6203 123.883 99.227 124.124C98.8333 124.366 98.4963 124.69 98.2387 125.073C97.9811 125.457 97.809 125.891 97.734 126.347C97.6581 126.802 97.6809 127.269 97.8008 127.715C97.9207 128.161 98.1349 128.576 98.429 128.932C96.8215 130.673 95.7697 132.853 95.4081 135.194C94.9455 135.185 94.4863 135.274 94.0615 135.457C93.6366 135.64 93.2559 135.913 92.9452 136.255C92.6345 136.598 92.401 137.004 92.2605 137.444C92.1199 137.885 92.0756 138.351 92.1305 138.81C92.1853 139.27 92.3377 139.712 92.5775 140.107C92.9385 140.704 93.4832 141.168 94.1299 141.429C94.7765 141.69 95.4904 141.735 96.1647 141.557C96.6718 142.789 97.3839 143.927 98.2707 144.922C97.8803 145.359 97.6158 145.893 97.5052 146.469C97.3946 147.044 97.4421 147.638 97.6428 148.188C97.8434 148.739 98.1895 149.224 98.6443 149.593C99.0991 149.962 99.6456 150.201 100.225 150.284C100.689 150.349 101.16 150.313 101.608 150.179C102.057 150.045 102.47 149.815 102.821 149.506C103.172 149.196 103.451 148.814 103.639 148.386C105.859 149.078 108.234 149.105 110.468 148.464C110.654 148.886 110.929 149.264 111.273 149.572C111.618 149.88 112.025 150.11 112.466 150.247C112.907 150.383 113.372 150.424 113.83 150.366C114.289 150.308 114.729 150.153 115.123 149.911C115.516 149.669 115.852 149.345 116.11 148.962C116.367 148.578 116.539 148.144 116.615 147.689C116.69 147.233 116.667 146.767 116.548 146.321C116.428 145.875 116.214 145.46 115.92 145.103C117.486 143.408 118.525 141.295 118.912 139.019C119.372 139.032 119.83 138.946 120.254 138.768C120.679 138.59 121.061 138.323 121.374 137.986C121.847 137.477 122.143 136.83 122.219 136.139C122.294 135.449 122.146 134.753 121.795 134.154C121.444 133.555 120.91 133.085 120.271 132.813C119.633 132.541 118.924 132.481 118.249 132.642L118.248 132.639Z" stroke="#17334F" stroke-linecap="round" stroke-linejoin="round"/>
  <path d="M107.111 143.271C108.797 143.271 110.414 142.601 111.606 141.409C112.798 140.217 113.468 138.6 113.468 136.914C113.468 135.228 112.798 133.611 111.606 132.419C110.414 131.227 108.797 130.557 107.111 130.557C105.425 130.557 103.808 131.227 102.616 132.419C101.424 133.611 100.754 135.228 100.754 136.914C100.754 138.6 101.424 140.217 102.616 141.409C103.808 142.601 105.425 143.271 107.111 143.271Z" stroke="#17334F" stroke-linecap="round" stroke-linejoin="round"/>
  <path d="M54.1585 79.8572L42.7627 88.7507L80.4905 121.567L88.3646 109.609L54.1585 79.8572Z" fill="#71CEF8"/>
  <path d="M54.1585 79.8572L42.7627 88.7507L80.4905 121.567L88.3646 109.609L54.1585 79.8572Z" stroke="#17334F" stroke-linecap="round" stroke-linejoin="round"/>
  <path d="M61.6511 105.18L71.2771 94.7473" stroke="#17334F" stroke-linecap="round" stroke-linejoin="round"/>
  <path d="M58.6708 102.587L68.3818 92.2288" stroke="#17334F" stroke-linecap="round" stroke-linejoin="round"/>
  <path d="M55.8269 100.114L65.4537 89.682" stroke="#17334F" stroke-linecap="round" stroke-linejoin="round"/>
  <path d="M53.0291 97.5966L62.6129 87.2109" stroke="#17334F" stroke-linecap="round" stroke-linejoin="round"/>
  <path d="M49.53 94.6366L59.5554 84.552" stroke="#17334F" stroke-linecap="round" stroke-linejoin="round"/>
  <path d="M46.3148 91.8403L56.5149 81.907" stroke="#17334F" stroke-linecap="round" stroke-linejoin="round"/>
  <path d="M76.9664 118.501L86.1236 107.661" stroke="#17334F" stroke-linecap="round" stroke-linejoin="round"/>
  <path d="M73.9175 115.849L83.1191 105.047" stroke="#17334F" stroke-linecap="round" stroke-linejoin="round"/>
  <path d="M70.572 112.878L80.106 102.426" stroke="#17334F" stroke-linecap="round" stroke-linejoin="round"/>
  <path d="M67.5768 110.303L77.2106 99.9078" stroke="#17334F" stroke-linecap="round" stroke-linejoin="round"/>
  <path d="M64.7189 107.846L74.2832 97.3619" stroke="#17334F" stroke-linecap="round" stroke-linejoin="round"/>
  <path d="M126.618 43.2197C126.795 38.7464 126.731 34.7817 126.495 30.5837C122.319 30.9301 118.375 31.4168 113.96 32.2139L126.618 43.2197Z" fill="#71CEF8"/>
  <path d="M126.618 43.2197C126.795 38.7464 126.731 34.7817 126.495 30.5837C122.319 30.9301 118.375 31.4168 113.96 32.2139L126.618 43.2197Z" stroke="#17334F" stroke-linecap="round" stroke-linejoin="round"/>
  <path d="M113.958 32.214C86.9973 36.9784 62.4725 50.808 44.4443 71.4129L97.4282 117.498C115.336 96.7888 125.634 70.5839 126.616 43.2229L113.958 32.214Z" stroke="#17334F" stroke-linecap="round" stroke-linejoin="round"/>
  <path d="M52.5049 97.2246C43.5349 107.537 37.493 120.52 36.4026 134.16C49.7733 131.173 61.7526 123.432 70.7483 113.094L52.5049 97.2246Z" stroke="#17334F" stroke-linecap="round" stroke-linejoin="round"/>
  <path d="M57.9399 101.952C55.0491 105.302 53.5897 109.653 53.8761 114.069C58.2887 113.74 62.396 111.692 65.3133 108.365L57.9399 101.952Z" fill="#17334F"/>
  <path d="M57.9399 101.952C55.0491 105.302 53.5897 109.653 53.8761 114.069C58.2887 113.74 62.396 111.692 65.3133 108.365L57.9399 101.952Z" stroke="#17334F" stroke-linecap="round" stroke-linejoin="round"/>
  <path d="M100.869 60.7775C99.5502 59.6124 98.014 58.7198 96.3488 58.1513C94.6836 57.5827 92.9223 57.3494 91.1666 57.4649C89.4108 57.5803 87.6952 58.0422 86.1188 58.8238C84.5423 59.6055 83.1362 60.6915 81.9815 62.0192C80.8268 63.3469 79.9464 64.89 79.391 66.5596C78.8355 68.2293 78.6161 69.9923 78.7454 71.7471C78.8746 73.502 79.35 75.2139 80.144 76.7841C80.938 78.3543 82.0351 79.7518 83.3718 80.896C86.0441 83.1835 89.5122 84.322 93.0203 84.0637C96.5285 83.8053 99.7923 82.1709 102.101 79.5167C104.409 76.8624 105.575 73.4034 105.344 69.8934C105.113 66.3833 103.505 63.1067 100.869 60.7775Z" stroke="#17334F" stroke-linecap="round" stroke-linejoin="round"/>
  <path d="M99.3626 62.5091C98.2692 61.5581 96.9991 60.8317 95.6249 60.3714C94.2507 59.9112 92.7994 59.7262 91.3537 59.8268C89.908 59.9275 88.4963 60.312 87.1991 60.9582C85.902 61.6045 84.7449 62.4999 83.7938 63.5933C82.8427 64.6868 82.1163 65.9569 81.6561 67.331C81.1959 68.7052 81.0108 70.1566 81.1115 71.6023C81.2122 73.048 81.5966 74.4597 82.2429 75.7568C82.8891 77.0539 83.7846 78.2111 84.878 79.1621C87.0863 81.0829 89.9672 82.0478 92.8869 81.8444C95.8067 81.6411 98.526 80.2863 100.447 78.0779C102.368 75.8696 103.332 72.9887 103.129 70.069C102.926 67.1493 101.571 64.4299 99.3626 62.5091ZM86.938 71.6211C86.7494 71.8453 86.5181 72.0298 86.2575 72.1637C85.997 72.2976 85.7123 72.3783 85.4202 72.4011C85.1281 72.4239 84.8344 72.3883 84.5562 72.2964C84.278 72.2046 84.0209 72.0582 83.7999 71.8659C83.5788 71.6737 83.3982 71.4393 83.2687 71.1765C83.1391 70.9138 83.0632 70.6278 83.0453 70.3354C83.0273 70.043 83.0678 69.7499 83.1643 69.4733C83.2608 69.1966 83.4115 68.942 83.6074 68.7242C83.9946 68.2937 84.5356 68.0325 85.1135 67.9971C85.6915 67.9617 86.2603 68.1548 86.6972 68.5349C87.1341 68.9149 87.4042 69.4514 87.4492 70.0287C87.4943 70.606 87.3107 71.1779 86.938 71.6211Z" fill="#17334F"/>
  <path d="M99.3626 62.5091C98.2692 61.5581 96.9991 60.8317 95.6249 60.3714C94.2507 59.9112 92.7994 59.7262 91.3537 59.8268C89.908 59.9275 88.4963 60.312 87.1991 60.9582C85.902 61.6045 84.7449 62.4999 83.7938 63.5933C82.8427 64.6868 82.1163 65.9569 81.6561 67.331C81.1959 68.7052 81.0108 70.1566 81.1115 71.6023C81.2122 73.048 81.5966 74.4597 82.2429 75.7568C82.8891 77.0539 83.7846 78.2111 84.878 79.1621C87.0863 81.0829 89.9672 82.0478 92.8869 81.8444C95.8067 81.6411 98.526 80.2863 100.447 78.0779C102.368 75.8696 103.332 72.9887 103.129 70.069C102.926 67.1493 101.571 64.4299 99.3626 62.5091Z" stroke="#17334F" stroke-linecap="round" stroke-linejoin="round"/>
  <path d="M86.7211 68.5073C86.3919 68.2203 85.9848 68.0374 85.5515 67.9819C85.1182 67.9264 84.6781 68.0007 84.2871 68.1955C83.8961 68.3903 83.5717 68.6968 83.355 69.0761C83.1383 69.4554 83.0391 69.8905 83.07 70.3263C83.1008 70.7617 83.2599 71.1783 83.5271 71.5235C83.7943 71.8687 84.1577 72.1271 84.5715 72.2662C85.0557 72.4284 85.5813 72.4177 86.0586 72.2359C86.5359 72.0541 86.9354 71.7124 87.1889 71.269C87.4425 70.8256 87.5345 70.308 87.4492 69.8045C87.3639 69.3009 87.1066 68.8425 86.7211 68.5073Z" stroke="#17334F" stroke-linecap="round" stroke-linejoin="round"/>
  <path d="M23.7495 136.545L9.38501 149.999" stroke="#17334F" stroke-linecap="round" stroke-linejoin="round"/>
  <path d="M39.0367 110.109L24.6722 123.563" stroke="#17334F" stroke-linecap="round" stroke-linejoin="round"/>
  <path d="M70.2523 123.563L55.8871 137.016" stroke="#17334F" stroke-linecap="round" stroke-linejoin="round"/>
  <path d="M40.8946 136.545L26.5302 149.999" stroke="#17334F" stroke-linecap="round" stroke-linejoin="round"/>
  <path d="M24.3828 57.9658C21.495 58.1531 18.7402 59.2482 16.5119 61.0947C14.2837 62.9412 12.696 65.4447 11.9755 68.2475C11.2551 71.0503 11.4388 74.009 12.5005 76.7012C13.5621 79.3933 15.4474 81.6811 17.887 83.2378C18.7979 83.8039 19.5456 84.5974 20.0567 85.5403C20.5678 86.4832 20.8246 87.5428 20.8018 88.6151H30.5924C30.5924 86.3905 31.0128 84.4124 33.1492 82.9133C35.6051 81.1957 37.4313 78.7216 38.3491 75.8687C39.2668 73.0158 39.2256 69.9409 38.2317 67.1136C37.2383 64.2862 35.3469 61.8615 32.8463 60.2098C30.3457 58.558 27.3733 57.7699 24.3828 57.9658Z" stroke="#17334F" stroke-linecap="round" stroke-linejoin="round"/>
  <path d="M20.8019 88.6158C20.8019 89.9142 21.3176 91.1593 22.2357 92.0773C23.1537 92.9954 24.3988 93.5111 25.6972 93.5111C26.9955 93.5111 28.2406 92.9954 29.1586 92.0773C30.0767 91.1593 30.5924 89.9142 30.5924 88.6158H20.8019Z" fill="#17334F"/>
  <path d="M20.8019 88.6158C20.8019 89.9142 21.3176 91.1593 22.2357 92.0773C23.1537 92.9954 24.3989 93.5111 25.6972 93.5111C26.9955 93.5111 28.2406 92.9954 29.1586 92.0773C30.0767 91.1593 30.5924 89.9142 30.5924 88.6158H20.8019Z" stroke="#17334F" stroke-linecap="round" stroke-linejoin="round"/>
  <path d="M24.4024 70.5557C24.0325 71.4265 23.8418 72.3629 23.8418 73.3091C23.8418 74.2552 24.0325 75.1916 24.4024 76.0625C24.7724 75.1917 24.9631 74.2552 24.9631 73.3091C24.9631 72.3629 24.7724 71.4265 24.4024 70.5557Z" stroke="#17334F" stroke-linecap="round" stroke-linejoin="round"/>
  <path d="M27.0903 70.5557C26.7203 71.4265 26.5295 72.3629 26.5295 73.3091C26.5295 74.2552 26.7203 75.1917 27.0903 76.0625C27.4601 75.1916 27.6508 74.2552 27.6508 73.3091C27.6508 72.3629 27.4601 71.4265 27.0903 70.5557Z" stroke="#17334F" stroke-linecap="round" stroke-linejoin="round"/>
  <path d="M27.0793 88.6158V80.7035C27.0793 77.2169 29.8046 76.915 29.8046 73.3091C29.8046 71.2031 29.0769 69.4231 28.3226 69.4231C27.7501 69.4231 27.4225 69.6883 27.0887 70.5557C26.6862 69.9691 26.318 69.4894 25.7447 69.4894C25.4458 69.5305 25.1633 69.6511 24.9269 69.8387C24.6905 70.0262 24.5088 70.2739 24.4008 70.5557C23.3868 68.505 21.4368 69.4286 21.6997 73.3091C21.9259 76.6888 24.4008 77.2793 24.4008 80.7035V88.6158" stroke="#17334F" stroke-linecap="round" stroke-linejoin="round"/>
  <path d="M43.3571 50.8662L36.3761 58.2567" stroke="#17334F" stroke-linecap="round" stroke-linejoin="round"/>
  <path d="M31.2718 44.7252L28.6464 54.93" stroke="#17334F" stroke-linecap="round" stroke-linejoin="round"/>
  <path d="M16.5673 44.7291L19.6654 54.6484" stroke="#17334F" stroke-linecap="round" stroke-linejoin="round"/>
  <path d="M3.90002 53.746L12.5214 59.4759" stroke="#17334F" stroke-linecap="round" stroke-linejoin="round"/>
  <path d="M7.66504 118.431L13.4597 124.225" stroke="#17334F" stroke-linecap="round" stroke-linejoin="round"/>
  <path d="M7.66504 124.225L13.4597 118.431" stroke="#17334F" stroke-linecap="round" stroke-linejoin="round"/>
  <path d="M133.267 132.68L136.223 135.637" stroke="#17334F" stroke-linecap="round" stroke-linejoin="round"/>
  <path d="M133.267 135.637L136.223 132.68" stroke="#17334F" stroke-linecap="round" stroke-linejoin="round"/>
  <path d="M126.55 9.70703H134.745" stroke="#17334F" stroke-linecap="round" stroke-linejoin="round"/>
  <path d="M130.648 13.8052V5.60974" stroke="#17334F" stroke-linecap="round" stroke-linejoin="round"/>
  <path d="M136.896 42.411H141.366" stroke="#17334F" stroke-linecap="round" stroke-linejoin="round"/>
  <path d="M139.132 44.6464V40.1763" stroke="#17334F" stroke-linecap="round" stroke-linejoin="round"/>
</svg>