<svg xmlns="http://www.w3.org/2000/svg" width="156" height="156" viewBox="0 0 156 156" fill="none">
  <path d="M89.0765 51.895C89.2635 51.7233 89.3954 51.4998 89.456 51.253C89.5157 51.0062 89.5018 50.7471 89.4148 50.5085C89.3279 50.2697 89.1719 50.0623 88.9662 49.9123C88.7614 49.7622 88.5169 49.6763 88.2631 49.6655C88.0093 49.6546 87.7579 49.7192 87.5406 49.8513C87.3232 49.9833 87.1502 50.1767 87.0431 50.407C86.936 50.6374 86.8995 50.8943 86.9391 51.1454C86.9779 51.3965 87.0904 51.6303 87.2619 51.8175C87.3745 51.9436 87.5118 52.0459 87.6647 52.1182C87.8176 52.1907 87.9837 52.2316 88.1529 52.2389C88.3221 52.2461 88.4905 52.2194 88.6496 52.1604C88.8079 52.1013 88.9531 52.0111 89.0765 51.895ZM85.2177 72.9181C85.2976 72.6948 85.3147 72.4542 85.2681 72.2217C85.2216 71.9894 85.1129 71.774 84.953 71.5987C84.8413 71.4712 84.7039 71.3675 84.551 71.2942C84.3981 71.2209 84.2313 71.1793 84.0621 71.1721C83.8921 71.1649 83.7229 71.1921 83.5638 71.2521C83.4055 71.312 83.2604 71.4036 83.1377 71.5211C82.9561 71.6989 82.8281 71.9241 82.7683 72.171C82.7078 72.4179 82.7179 72.6767 82.7978 72.9181C83.6034 72.9645 84.4113 72.9645 85.2177 72.9181ZM86.2033 57.9456C86.3904 57.7738 86.5223 57.5503 86.5821 57.3035C86.6426 57.0567 86.6279 56.7976 86.5409 56.559C86.454 56.3204 86.298 56.113 86.0931 55.963C85.8882 55.813 85.643 55.7272 85.3892 55.7163C85.1354 55.7055 84.884 55.7701 84.6674 55.902C84.4501 56.034 84.277 56.2274 84.1699 56.4577C84.0628 56.6879 84.0264 56.9448 84.0652 57.1959C84.104 57.4469 84.2165 57.6808 84.388 57.8679C84.5006 57.9941 84.6379 58.0964 84.7908 58.1688C84.9445 58.2411 85.1098 58.2822 85.279 58.2894C85.4482 58.2966 85.6174 58.2699 85.7757 58.2109C85.9348 58.1519 86.0799 58.0616 86.2033 57.9456ZM94.7102 60.932C94.8343 60.8178 94.9345 60.6803 95.0059 60.5272C95.0765 60.3742 95.1168 60.2087 95.1238 60.0402C95.1308 59.8716 95.1044 59.7034 95.047 59.5451C94.9888 59.3867 94.9003 59.2412 94.7854 59.1171C94.6714 58.9929 94.534 58.8925 94.3811 58.8215C94.2282 58.7506 94.0629 58.7104 93.8937 58.7034C93.7253 58.6963 93.5569 58.7225 93.3986 58.7806C93.2402 58.8386 93.0951 58.9272 92.9709 59.0414C92.846 59.155 92.7443 59.2922 92.6729 59.4453C92.6007 59.5983 92.5604 59.764 92.5534 59.9329C92.5456 60.1017 92.572 60.2703 92.631 60.4289C92.6892 60.5874 92.7784 60.7329 92.8933 60.8567C93.1261 61.1043 93.4467 61.2508 93.7866 61.2649C94.1258 61.2789 94.4579 61.1594 94.7102 60.932ZM95.7688 53.7484C95.9558 53.5766 96.0877 53.3532 96.1483 53.1064C96.208 52.8596 96.1941 52.6004 96.1071 52.3618C96.0202 52.1231 95.8642 51.9156 95.6586 51.7656C95.4537 51.6155 95.2092 51.5297 94.9554 51.5188C94.7016 51.5079 94.4502 51.5726 94.2329 51.7046C94.0156 51.8366 93.8425 52.03 93.7354 52.2604C93.6283 52.4907 93.5918 52.7477 93.6314 52.9987C93.6702 53.2498 93.7827 53.4836 93.9542 53.6708C94.1902 53.9129 94.5099 54.0557 94.8483 54.0701C95.1859 54.0846 95.5165 53.9695 95.7726 53.7484H95.7688ZM105.335 61.2363C105.478 61.1174 105.583 60.9597 105.638 60.7822C105.583 60.6526 105.52 60.5264 105.449 60.4043V60.3669C105.224 59.9108 104.971 59.4687 104.692 59.0429C104.692 59.038 104.692 59.033 104.69 59.0284C104.688 59.0238 104.685 59.0196 104.681 59.0161C104.678 59.0126 104.674 59.0099 104.669 59.0081C104.664 59.0063 104.659 59.0055 104.654 59.0057C104.461 58.9686 104.261 58.9765 104.071 59.0289C103.881 59.0812 103.706 59.1766 103.558 59.3076C103.43 59.4194 103.326 59.556 103.253 59.7092C103.18 59.8623 103.138 60.0289 103.131 60.1986C103.123 60.3684 103.15 60.5378 103.211 60.6967C103.271 60.8557 103.363 61.0006 103.481 61.1229C103.716 61.3771 104.04 61.5309 104.385 61.552C104.73 61.5731 105.071 61.4599 105.335 61.2363ZM102.231 54.5439C101.701 53.4473 101.551 53.2579 101.059 52.3506L101.021 52.3887C100.786 52.623 100.652 52.9387 100.645 53.2698C100.638 53.601 100.759 53.922 100.983 54.166C101.134 54.3419 101.332 54.4709 101.554 54.5377C101.776 54.6044 102.012 54.606 102.234 54.5424L102.231 54.5439ZM96.3322 67.324C96.5037 67.511 96.7272 67.643 96.974 67.703C97.2208 67.7632 97.4801 67.7487 97.7191 67.6616C97.9574 67.5745 98.1646 67.4186 98.3144 67.2135C98.4649 67.0086 98.5503 66.7637 98.5612 66.5099C98.572 66.2562 98.5076 66.0048 98.3757 65.7879C98.2437 65.5708 98.0505 65.3977 97.82 65.2905C97.5895 65.1834 97.3326 65.1469 97.0819 65.1858C96.8305 65.2246 96.5969 65.3369 96.4098 65.5086C96.2841 65.6218 96.1824 65.7589 96.1102 65.912C96.0381 66.0651 95.9977 66.231 95.9907 66.4C95.9837 66.569 96.0109 66.7376 96.0699 66.896C96.1297 67.0545 96.2197 67.1994 96.3361 67.3224L96.3322 67.324ZM85.0648 63.4675C84.8778 63.6393 84.7458 63.8627 84.6853 64.1095C84.6255 64.3563 84.6395 64.6155 84.7264 64.8541C84.8133 65.0929 84.9693 65.3003 85.1742 65.4503C85.3799 65.6004 85.6244 65.6863 85.8781 65.6971C86.1319 65.708 86.3834 65.6433 86.6007 65.5113C86.818 65.3793 86.9911 65.1859 87.0982 64.9556C87.2053 64.7252 87.2418 64.4683 87.2022 64.2172C87.1634 63.9661 87.0508 63.7323 86.8793 63.5452C86.7668 63.4194 86.6302 63.3175 86.4773 63.2454C86.3244 63.1732 86.1591 63.1323 85.9907 63.1249C85.8223 63.1175 85.6539 63.1439 85.4955 63.2024C85.3372 63.261 85.1921 63.3506 85.0687 63.466L85.0648 63.4675ZM62.2684 65.5824C62.0813 65.7542 61.9493 65.9776 61.8893 66.2244C61.8292 66.4712 61.8436 66.7303 61.9307 66.9689C62.0179 67.2075 62.1737 67.4149 62.3788 67.565C62.5837 67.7149 62.8286 67.8007 63.0824 67.8116C63.3362 67.8225 63.5875 67.7578 63.8045 67.6259C64.0215 67.494 64.1946 67.3006 64.3018 67.0703C64.409 66.84 64.4454 66.5831 64.4066 66.3321C64.3678 66.0811 64.2554 65.8471 64.0837 65.6599C63.9709 65.5336 63.8339 65.4312 63.6808 65.3587C63.5277 65.2862 63.3616 65.245 63.1924 65.2378C63.0232 65.2306 62.8542 65.2574 62.6955 65.3165C62.5368 65.3757 62.3916 65.4661 62.2684 65.5824ZM69.5637 53.8229C69.7509 53.6511 69.883 53.4277 69.9432 53.1809C70.0033 52.9341 69.989 52.6749 69.9019 52.4363C69.8148 52.1976 69.6589 51.9901 69.4539 51.8401C69.2489 51.69 69.004 51.6042 68.7502 51.5933C68.4964 51.5824 68.245 51.6471 68.0279 51.7791C67.8108 51.9111 67.6378 52.1045 67.5307 52.3349C67.4235 52.5652 67.3871 52.8222 67.426 53.0732C67.4649 53.3243 67.5774 53.5581 67.7492 53.7453C67.9841 53.989 68.3038 54.1329 68.642 54.1475C68.9801 54.1621 69.311 54.0462 69.5661 53.8236L69.5637 53.8229ZM62.7954 57.6041C62.7955 57.3496 62.7202 57.1009 62.5789 56.8893C62.4377 56.6777 62.2369 56.5128 62.0018 56.4154C61.7668 56.3179 61.5082 56.2923 61.2586 56.3419C61.0091 56.3915 60.7799 56.5141 60.6 56.694C60.4201 56.8739 60.2977 57.1031 60.2481 57.3526C60.1985 57.6022 60.224 57.8608 60.3214 58.0958C60.4188 58.3308 60.5838 58.5316 60.7954 58.6729C61.007 58.8141 61.2558 58.8894 61.5102 58.8893C61.6794 58.891 61.8474 58.8591 62.0042 58.7952C62.161 58.7312 62.3035 58.6368 62.4234 58.5172C62.5432 58.3976 62.6381 58.2553 62.7023 58.0987C62.7667 57.942 62.799 57.7742 62.7977 57.6049L62.7954 57.6041ZM75.0089 55.7896C75.1807 55.9766 75.4041 56.1086 75.6509 56.1686C75.8977 56.2288 76.1568 56.2143 76.3954 56.1272C76.6339 56.0401 76.8414 55.8842 76.9914 55.6791C77.1414 55.4742 77.2273 55.2293 77.2381 54.9755C77.2489 54.7218 77.1843 54.4705 77.0523 54.2535C76.9204 54.0364 76.7271 53.8633 76.4967 53.7561C76.2665 53.649 76.0096 53.6125 75.7585 53.6514C75.5075 53.6902 75.2736 53.8025 75.0865 53.9742C74.9613 54.0879 74.8599 54.2254 74.7882 54.3786C74.7166 54.5317 74.6761 54.6976 74.6691 54.8666C74.6621 55.0355 74.6887 55.2042 74.7475 55.3627C74.8061 55.5214 74.8958 55.6667 75.0112 55.7904L75.0089 55.7896ZM65.861 58.287C65.6738 58.4588 65.5417 58.6823 65.4815 58.9291C65.4213 59.1759 65.4357 59.435 65.5227 59.6737C65.6098 59.9124 65.7657 60.1198 65.9708 60.2699C66.1758 60.42 66.4207 60.5058 66.6745 60.5167C66.9283 60.5275 67.1796 60.4629 67.3967 60.3309C67.6138 60.1988 67.7869 60.0054 67.894 59.7751C68.0011 59.5447 68.0376 59.2878 67.9987 59.0367C67.9598 58.7856 67.8473 58.5518 67.6755 58.3646C67.4439 58.1158 67.1237 57.9682 66.7841 57.9536C66.4445 57.9391 66.1129 58.0589 65.861 58.287ZM74.4058 67.5886C74.2187 67.7604 74.0868 67.9838 74.0267 68.2306C73.9666 68.4774 73.981 68.7366 74.0682 68.9751C74.1553 69.2137 74.3112 69.4212 74.5162 69.5712C74.7212 69.7211 74.966 69.807 75.2198 69.8178C75.4736 69.8287 75.7249 69.764 75.942 69.6321C76.159 69.5002 76.332 69.3068 76.4392 69.0765C76.5464 68.8462 76.5829 68.5893 76.5441 68.3383C76.5052 68.0873 76.3928 67.8534 76.2211 67.6662C76.1084 67.5397 75.9715 67.4371 75.8185 67.3645C75.6654 67.2919 75.4994 67.2506 75.3302 67.2433C75.161 67.2359 74.9919 67.2625 74.8332 67.3216C74.6744 67.3806 74.5291 67.4709 74.4058 67.5871V67.5886ZM74.6325 48.8722C74.8584 48.6637 75.0018 48.3809 75.0366 48.0754C75.0713 47.7699 74.9951 47.4621 74.8218 47.2083C74.0145 47.3538 73.2274 47.5951 72.4772 47.9268C72.4789 48.2489 72.6003 48.5587 72.8179 48.7961C72.9303 48.923 73.0672 49.026 73.2204 49.0988C73.3735 49.1716 73.5399 49.2127 73.7093 49.2197C73.8788 49.2267 74.0478 49.1993 74.2065 49.1393C74.3651 49.0794 74.51 48.9879 74.6325 48.8706V48.8722ZM73.7632 62.5556C74.0176 62.5556 74.2662 62.4801 74.4778 62.3388C74.6893 62.1975 74.854 61.9966 74.9514 61.7615C75.0487 61.5265 75.0741 61.2679 75.0245 61.0184C74.9747 60.769 74.8522 60.5398 74.6723 60.36C74.4924 60.1801 74.2631 60.0577 74.0136 60.0082C73.7641 59.9586 73.5055 59.9843 73.2706 60.0817C73.0356 60.1791 72.8348 60.3441 72.6935 60.5557C72.5523 60.7673 72.4771 61.016 72.4772 61.2704C72.4809 61.6103 72.6175 61.9351 72.8579 62.1754C73.0983 62.4157 73.4233 62.5521 73.7632 62.5556ZM126.771 102.976C126.332 99.9 125.481 96.8981 124.238 94.0505C123.337 92.3082 123.368 91.5174 121.024 92.16C119.095 92.6893 105.257 96.7351 103.895 97.3024C103.631 87.7742 102.404 81.7129 99.2449 75.9014C98.6062 74.7271 97.3163 73.4435 95.539 71.4777C90.0947 74.0489 75.802 72.7628 75.802 72.7628C75.802 72.7628 70.6503 92.7257 68.9956 102.142C68.0484 106.633 68.6064 111.31 70.5835 115.452C76.5882 128.724 79.1726 133.958 82.4191 140.407C83.428 142.416 84.6053 141.571 86.1622 140.485C87.7439 139.379 92.1739 136.325 92.1739 136.325C92.5852 136.111 92.9057 135.757 93.0788 135.327C93.2526 134.897 93.2666 134.42 93.1192 133.981C90.593 125.58 87.6399 117.314 84.2716 109.215C83.5506 107.476 83.9689 106.492 84.6115 105.207C85.8975 102.636 88.3174 97.4933 88.3174 97.4933C89.5654 100.782 90.8483 104.866 93.2325 108.95C96.104 113.867 99.3567 115.824 104.311 114.622C109.641 113.328 124.314 106.947 125.524 106.417C127.077 105.739 127.068 104.908 126.774 102.978L126.771 102.976Z" fill="#71CEF8"/>
  <path d="M51.0391 86.3416C51.4543 87.0594 52.3996 89.0261 53.3449 90.9547C57.9533 88.7164 53.7857 84.7304 51.0391 86.3416Z" fill="#17334F"/>
  <path d="M59.9619 71.636C60.1142 70.773 60.2154 69.9017 60.2646 69.0267C59.7733 69.3294 57.6934 70.2367 57.6934 70.2367C58.3126 70.8953 59.0954 71.3782 59.9619 71.636Z" fill="#17334F"/>
  <path d="M131.803 25.2764C132.375 25.6089 133.033 25.7642 133.694 25.7229C134.354 25.6815 134.987 25.4453 135.514 25.0442C136.04 24.643 136.435 24.0948 136.65 23.469C136.865 22.8431 136.889 22.1676 136.72 21.528C136.55 20.8882 136.196 20.313 135.7 19.8749C135.204 19.4368 134.589 19.1555 133.933 19.0666C133.278 18.9778 132.611 19.0853 132.017 19.3755C131.421 19.6658 130.926 20.1259 130.593 20.6975C130.372 21.0775 130.228 21.4975 130.169 21.9333C130.11 22.3692 130.137 22.8124 130.249 23.2376C130.362 23.6629 130.557 24.0618 130.824 24.4116C131.09 24.7614 131.423 25.0553 131.803 25.2764Z" fill="#17334F"/>
  <path d="M12.8145 90.4518C12.8145 90.4518 12.4855 90.6117 11.4509 91.1433C8.69034 92.5612 10.917 97.0626 13.7567 95.6447C14.8029 95.1216 15.4898 94.6924 15.4898 94.6924C14.3751 93.432 13.4717 92.0001 12.8145 90.4518Z" fill="#17334F"/>
  <path d="M69.3014 61.9533C70.3996 57.8602 71.2774 55.9137 66.0496 68.5323C70.6286 66.3072 70.1551 66.561 70.2087 66.4524C69.7151 65.8263 69.3758 65.0927 69.2181 64.3111C69.0605 63.5296 69.0891 62.7219 69.3014 61.9533Z" fill="#17334F"/>
  <path d="M34.5912 79.3086C35.5348 80.5736 36.1564 82.0497 36.4026 83.6089C37.3428 83.2698 38.2543 82.8561 39.1283 82.371C38.8236 81.6415 38.4699 80.9329 38.0697 80.2507C37.9156 79.9481 37.6999 79.6811 37.4363 79.4669C37.1727 79.2527 36.8673 79.0967 36.5395 79.0074C36.2118 78.919 35.869 78.8996 35.5335 78.9515C35.1979 79.0035 34.8769 79.1246 34.5912 79.3086Z" fill="#17334F"/>
  <path d="M131.69 92.5418C130.413 90.1786 128.651 90.7514 126.245 92.0886C127.564 92.8073 129.03 93.4972 129.535 94.1305C131.259 96.6334 132.585 99.3886 133.467 102.297C133.585 102.855 133.588 103.431 133.478 103.989C133.367 104.548 133.145 105.079 132.824 105.549C135.168 107.251 136.909 108.536 136.718 106.155C136.456 102.865 133.603 96.0832 131.69 92.5418Z" fill="#17334F"/>
  <path d="M96.5254 42.9722C96.4121 39.6063 93.085 39.0017 91.2697 39.2291C91.3473 34.8426 88.0178 33.6326 86.1272 33.2927C85.1346 28.6912 77.0981 26.5965 74.8218 30.6835C74.1714 31.8476 74.7085 33.5193 75.729 34.6912C72.2032 34.0502 69.9036 38.4111 72.2505 41.1197C67.2594 41.4216 66.8054 46.7906 69.604 49.2866C75.0476 46.3172 78.1869 47.2198 79.1175 46.585C79.6615 46.0898 80.1683 45.5549 80.6332 44.9847C80.6906 44.9311 80.731 44.8615 80.7488 44.7847C80.7667 44.7081 80.7605 44.6278 80.7325 44.5544C80.7038 44.481 80.6534 44.4179 80.589 44.3733C80.5238 44.3286 80.4469 44.3045 80.3686 44.304C79.3022 44.304 77.2874 44.6641 76.2482 44.0712C74.613 43.1399 74.741 42.0223 75.8431 39.4146C76.6588 37.4829 77.7453 34.6881 79.7748 34.6881C82.2708 34.6881 82.8909 36.2753 82.9887 37.6753C83.0787 38.9598 81.9378 40.349 82.6107 40.8131C82.8785 40.9986 83.2161 40.7355 83.6321 40.5112C85.4078 39.7219 86.4718 42.4732 84.0853 43.7631C83.6724 43.9715 83.31 44.2666 83.022 44.628C82.7333 44.9895 82.5269 45.4089 82.4159 45.8576C82.3041 46.3063 82.291 46.7737 82.3771 47.2279C82.4632 47.6821 82.6456 48.1125 82.9134 48.4895C83.986 50.1814 87.2238 50.5687 88.4338 48.2249C88.8731 48.6938 89.4272 49.0398 90.0411 49.2286C90.655 49.4173 91.3077 49.4424 91.934 49.3012C92.5611 49.1601 93.1401 48.8575 93.6135 48.4237C94.0869 47.9899 94.4392 47.4398 94.6348 46.8279C97.584 48.6424 99.248 49.6995 100.155 51.1384C102.878 48.6059 101.062 43.3502 96.5254 42.9722Z" fill="#17334F"/>
  <path d="M94.0295 138.18C93.4249 139.692 92.9282 141.465 92.3283 142.113C90.1024 144.179 87.5615 145.876 84.8001 147.141C83.875 147.49 82.8536 147.49 81.9285 147.141C80.492 149.902 79.2417 152.124 81.7399 151.487C84.9126 150.682 91.5871 145.875 94.7846 143.396C97.0198 141.667 95.7873 140.344 94.0295 138.18Z" fill="#17334F"/>
  <path d="M95.5398 71.5196C93.1828 68.7591 91.0695 65.7987 89.2255 62.6721C89.7548 65.3574 91.872 70.0078 92.8933 72.2383C93.7928 72.0665 94.6776 71.8263 95.5398 71.5196Z" fill="#17334F"/>
  <path d="M82.3461 46.5261C82.3119 45.9466 82.4477 45.3697 82.7365 44.866C83.0252 44.3624 83.4543 43.9538 83.972 43.6902C84.9235 43.1337 85.4117 42.7077 85.4846 41.7624C85.5622 40.7418 84.8808 40.0689 84.1233 40.2102C83.4815 40.3312 82.9817 40.9731 82.6107 40.5881C82.1094 40.0681 83.0997 38.8116 83.0647 37.6017C83.1004 36.9783 82.9313 36.3602 82.5828 35.8419C82.2351 35.3235 81.7267 34.9331 81.1361 34.7301C79.3263 34.1869 78.225 34.8434 77.355 36.3561C76.3648 38.0188 75.6151 39.8134 75.1283 41.6863C74.8179 43.1221 75.6576 44.2172 77.2836 44.4469C77.8987 44.5132 78.5176 44.5391 79.1361 44.5245L78.3802 46.6417L76.9429 46.7969C76.9429 46.7969 76.5959 48.0806 76.4136 48.6875C75.7461 50.911 76.8668 53.244 78.8715 53.2626C81.6693 53.289 83.0096 51.3782 83.636 49.5575C83.6748 49.4442 83.7136 49.3309 83.7493 49.1796C83.3255 48.8762 82.9786 48.4786 82.7349 48.018C82.492 47.5576 82.3585 47.0468 82.3461 46.5261Z" stroke="#17334F" stroke-linecap="round" stroke-linejoin="round"/>
  <path d="M70.1334 66.5286L59.9998 71.4808C59.9998 71.4808 60.7759 68.8305 59.8865 64.4106C59.2236 61.6419 58.3249 58.9351 57.2004 56.3197L67.0313 50.648C71.7578 48.0007 73.6483 47.1695 76.9755 46.7908" stroke="#17334F" stroke-linecap="round" stroke-linejoin="round"/>
  <path d="M71.4947 53.559L69.2634 61.9533C69.0584 62.7287 69.0336 63.5407 69.191 64.3272C69.3484 65.1137 69.6838 65.8537 70.1715 66.4904C70.2087 66.5284 70.2491 66.6037 70.2848 66.6417C71.3814 68.003 73.1563 69.9689 75.8424 72.6953C92.4797 73.4893 100.155 72.96 106.092 61.5412C103.444 56.7387 100.248 51.0802 100.165 50.9482C99.4017 49.7422 98.1677 48.8101 96.0715 47.5512C95.6213 47.2804 95.1642 46.9839 94.6349 46.6432C94.4378 47.2537 94.0847 47.8022 93.6105 48.2347C93.137 48.6673 92.5588 48.9689 91.9325 49.1099C91.307 49.251 90.6551 49.2264 90.0412 49.0389C89.4281 48.8513 88.8739 48.5071 88.4339 48.0402C87.4886 49.9307 85.182 50.0441 83.7455 49.1368" stroke="#17334F" stroke-linecap="round" stroke-linejoin="round"/>
  <path d="M79.2075 59.2307L78.7923 62.6712C78.7 63.4723 78.7916 64.2838 79.0609 65.0441C79.3302 65.8043 79.7687 66.493 80.3445 67.0577C80.3826 67.0949 80.4183 67.1353 80.4959 67.2129C80.9025 67.601 81.3651 68.0069 81.8928 68.4601" stroke="#17334F" stroke-linecap="round" stroke-linejoin="round"/>
  <path d="M100.177 50.9637C100.535 50.6534 100.827 50.2751 101.038 49.8509C101.248 49.4268 101.372 48.9651 101.403 48.4926C101.457 47.8076 101.371 47.1187 101.153 46.4671C100.935 45.8154 100.588 45.2143 100.133 44.6993C99.6787 44.1843 99.1246 43.7661 98.5045 43.4694C97.8851 43.1728 97.2115 43.0036 96.5254 42.9722C96.5254 40.7037 94.5215 38.9637 91.2697 39.2291C91.5343 36.6198 89.6057 33.784 86.1272 33.2927C85.22 29.9275 81.4008 28.3738 79.2455 28.4522C76.2583 28.5616 74.3561 30.193 74.5951 32.158C74.722 33.0898 75.131 33.9605 75.7671 34.6532C75.5426 34.609 75.315 34.583 75.0864 34.5756C74.5845 34.5844 74.0894 34.6922 73.6293 34.8929C73.1693 35.0936 72.7534 35.3832 72.4056 35.7451C72.0578 36.1069 71.7849 36.5339 71.6026 37.0016C71.4203 37.4692 71.3321 37.9683 71.3433 38.4701C71.3497 39.411 71.684 40.3203 72.2886 41.0413C67.0328 41.344 67.0328 47.0949 69.6413 49.2082" stroke="#17334F" stroke-linecap="round" stroke-linejoin="round"/>
  <path d="M45.3929 41.0251C43.2082 37.5963 42.2668 35.8252 42.304 34.7674C42.3413 33.7096 43.098 33.4822 43.701 34.0487C46.319 36.6583 48.7333 39.4646 50.9226 42.4431C51.8671 44.1831 52.2529 46.4857 53.2292 48.606C53.8384 49.9254 57.1997 56.3197 57.1997 56.3197" stroke="#17334F" stroke-linecap="round" stroke-linejoin="round"/>
  <path d="M48.0891 49.5893C47.085 48.1726 46.3187 46.6016 45.8206 44.9381C43.6653 44.2955 42.4942 43.7654 42.0021 43.1609C41.3231 42.3281 41.6234 41.573 42.4934 41.573C44.694 41.5151 46.8928 41.7439 49.0344 42.2536" stroke="#17334F" stroke-linecap="round" stroke-linejoin="round"/>
  <path d="M43.1057 41.5761C40.3257 38.3801 38.6361 36.0906 38.5609 35.032C38.4856 33.9734 39.1709 33.663 39.8802 34.162C40.6804 34.7216 41.6955 35.5986 42.7518 36.5066" stroke="#17334F" stroke-linecap="round" stroke-linejoin="round"/>
  <path d="M37.8802 38.3971C37.1995 38.0564 36.6423 38.5453 36.8976 39.569C37.3299 41.3043 39.4363 44.6703 40.3761 46.148C41.9353 48.6005 43.3315 49.361 43.7785 51.4037C48.2248 71.6949 52.5857 72.2676 56.4453 70.8008C58.1457 70.1543 60.3025 69.0616 60.3025 69.0616" stroke="#17334F" stroke-linecap="round" stroke-linejoin="round"/>
  <path d="M41.4309 43.4108C38.8093 40.1108 37.24 37.7453 37.1996 36.6952C37.1593 35.6451 37.8756 35.3401 38.5609 35.8632C38.7115 35.9781 38.8636 36.1279 39.053 36.2792" stroke="#17334F" stroke-linecap="round" stroke-linejoin="round"/>
  <path d="M44.2473 41.601C45.1376 41.1231 46.0544 40.6964 46.9932 40.3228" stroke="#17334F" stroke-linecap="round" stroke-linejoin="round"/>
  <path d="M40.2628 44.3707C40.7888 43.9 41.3438 43.4628 41.9244 43.0615" stroke="#17334F" stroke-linecap="round" stroke-linejoin="round"/>
  <path d="M117.703 48.1101C119.78 45.0879 120.668 43.4635 120.652 42.4445C120.633 41.3859 119.935 41.1252 119.291 41.6878C116.577 44.2017 114.061 46.9195 111.763 49.8175C110.775 51.5171 110.288 53.7872 109.229 55.9052C108.816 56.7302 107.192 59.5917 106.091 61.5389" stroke="#17334F" stroke-linecap="round" stroke-linejoin="round"/>
  <path d="M116.527 57.9075C116.584 56.18 116.355 54.4551 115.846 52.803C117.284 51.0638 117.96 50.0044 118.04 49.2105C118.147 48.1511 117.468 47.6909 116.754 48.1519C115.229 49.1084 113.809 50.2239 112.519 51.4798" stroke="#17334F" stroke-linecap="round" stroke-linejoin="round"/>
  <path d="M118.662 50.2832C119.667 48.9064 119.813 48.7434 120.724 47.4714C121.922 45.7997 123.094 45.3061 123.901 44.367C124.754 43.3728 124.352 42.1683 123.409 42.5145C121.59 43.1835 121.065 43.3845 120.12 44.1784" stroke="#17334F" stroke-linecap="round" stroke-linejoin="round"/>
  <path d="M119.936 51.4357C120.916 50.2669 121.557 49.4745 122.047 48.9459C123.031 47.8873 124.246 47.9719 125.299 47.32C126.325 46.6859 126.281 45.268 125.299 45.3922C122.8 45.7065 122.195 45.8082 121.669 46.3375" stroke="#17334F" stroke-linecap="round" stroke-linejoin="round"/>
  <path d="M89.2278 62.6713C91.2216 66.0841 93.5522 69.2888 96.1847 72.2375C98.312 74.5736 101.214 76.964 102.726 77.6074C106.546 79.2317 113.604 79.1448 118.645 58.9662C119.07 57.2666 120.169 56.7047 121.292 54.8824C122.476 52.9615 122.19 52.0783 123.182 50.7993C123.594 50.2669 124.661 50.4291 125.753 49.816C126.817 49.2192 126.851 47.8176 125.831 47.9635C123.337 48.3181 122.727 48.2654 122.239 48.7947" stroke="#17334F" stroke-linecap="round" stroke-linejoin="round"/>
  <path d="M120.952 52.7651C120.175 51.5462 119.135 50.5167 117.908 49.7523" stroke="#17334F" stroke-linecap="round" stroke-linejoin="round"/>
  <path d="M75.7671 72.8428C75.7671 72.8428 70.6153 92.8049 68.9614 102.222C68.0135 106.713 68.5716 111.39 70.5493 115.531C76.5533 128.803 79.1385 134.037 82.3842 140.487C83.3931 142.495 84.5712 141.651 86.1273 140.565C87.709 139.459 92.139 136.405 92.139 136.405C92.5503 136.192 92.8724 135.838 93.0455 135.408C93.2193 134.978 93.2325 134.5 93.0843 134.061C90.555 125.662 87.6019 117.396 84.2367 109.295C83.5165 107.556 83.934 106.572 84.5774 105.287C85.8627 102.716 88.2825 97.5733 88.2825 97.5733" stroke="#17334F" stroke-linecap="round" stroke-linejoin="round"/>
  <path d="M84.9926 86.8328C89.2277 100.823 90.3476 104.009 93.1983 108.99C96.0178 113.915 99.3217 115.864 104.276 114.661C109.606 113.368 124.282 106.994 125.489 106.456C127.081 105.748 127.049 104.904 126.774 102.978C126.353 99.8984 125.5 96.8941 124.241 94.0528C123.34 92.3105 123.371 91.5196 121.027 92.1623C119.098 92.6916 105.26 96.7374 103.898 97.3047C103.634 87.7765 101.97 78.135 97.3193 73.4086" stroke="#17334F" stroke-linecap="round" stroke-linejoin="round"/>
  <path d="M84.048 141.697C83.594 145.931 77.6576 152.548 81.7415 151.528C84.9173 150.734 91.5886 145.915 94.7862 143.436C95.8502 142.611 96.527 141.62 95.4288 139.995C94.5138 138.7 93.4893 137.486 92.3663 136.365" stroke="#17334F" stroke-linecap="round" stroke-linejoin="round"/>
  <path d="M126.699 102.411C131.2 102.789 137.103 110.464 136.756 106.117C136.497 102.864 133.632 96.0505 131.728 92.5425C131.09 91.3675 130.176 90.4471 128.135 91.2185C126.685 91.8215 125.293 92.5557 123.976 93.4118" stroke="#17334F" stroke-linecap="round" stroke-linejoin="round"/>
  <path d="M32.5111 76.9267C33.2228 76.5623 33.9997 76.3426 34.7969 76.2804C35.594 76.2182 36.3956 76.3148 37.1552 76.5644C37.9148 76.8141 38.6174 77.2119 39.2222 77.735C39.827 78.2577 40.3221 78.8956 40.6788 79.6112C40.8759 80.0225 41.4727 81.1991 41.4727 81.1991" stroke="#17334F" stroke-linecap="round" stroke-linejoin="round"/>
  <path d="M59.5086 102.978L62.4578 108.725C63.1972 110.169 63.3338 111.849 62.8376 113.393C62.3413 114.938 61.2528 116.225 59.8105 116.968L33.6846 130.391C31.1424 131.699 28.1847 131.944 25.462 131.072C22.7393 130.2 20.4744 128.282 19.1654 125.74L4.94718 97.9458C4.20788 96.5015 4.07129 94.8228 4.56736 93.2776C5.06343 91.7331 6.15169 90.4479 7.59368 89.7036L12.1308 87.359" stroke="#17334F" stroke-linecap="round" stroke-linejoin="round"/>
  <path d="M15.3453 94.5837C22.4536 90.9167 41.4727 81.1991 41.4727 81.1991C42.9171 80.4595 44.5957 80.3229 46.1407 80.8196C47.6856 81.3155 48.9709 82.4036 49.7149 83.8456L53.3447 90.9167" stroke="#17334F" stroke-linecap="round" stroke-linejoin="round"/>
  <path d="M51.039 86.3415C51.4063 86.1522 51.8073 86.0365 52.2192 86.0024C52.631 85.9682 53.0456 86.0163 53.439 86.1428C53.8324 86.2693 54.197 86.4719 54.5118 86.7397C54.8266 87.0074 55.0854 87.3349 55.2735 87.7028L60.9452 98.7056C61.1347 99.0727 61.2498 99.4739 61.284 99.886C61.3181 100.297 61.2706 100.712 61.1441 101.105C61.0176 101.499 60.8147 101.864 60.547 102.179C60.2792 102.493 59.9519 102.752 59.5839 102.94L59.5459 102.978L48.5082 108.65C48.1409 108.839 47.7398 108.955 47.328 108.989C46.9162 109.023 46.5017 108.975 46.1082 108.848C45.7148 108.722 45.3502 108.519 45.0354 108.252C44.7206 107.984 44.4618 107.656 44.2738 107.288L40.9466 100.861C40.757 100.494 40.6418 100.093 40.6074 99.6811C40.5731 99.2698 40.6203 98.8554 40.7464 98.4619C40.8725 98.0684 41.075 97.7036 41.3423 97.3885C41.6096 97.0742 41.9364 96.815 42.304 96.6264L53.4209 90.9174" stroke="#17334F" stroke-linecap="round" stroke-linejoin="round"/>
  <path d="M55.2735 87.7012C55.7655 88.6838 54.9335 90.1211 53.4209 90.9151" stroke="#17334F" stroke-linecap="round" stroke-linejoin="round"/>
  <path d="M48.9211 104.755C51.0719 104.755 52.8156 103.011 52.8156 100.861C52.8156 98.7102 51.0719 96.9663 48.9211 96.9663C46.7702 96.9663 45.0266 98.7102 45.0266 100.861C45.0266 103.011 46.7702 104.755 48.9211 104.755Z" stroke="#17334F" stroke-linecap="round" stroke-linejoin="round"/>
  <path d="M25.2135 73.9396C22.7565 73.7797 20.3081 74.3603 18.1846 75.6065C16.0611 76.8526 14.3601 78.7071 13.3015 80.9298C12.2429 83.1526 11.8753 85.6423 12.2464 88.0761C12.6174 90.51 13.7098 92.777 15.3826 94.5837L36.5189 83.7703C35.9647 81.1231 34.56 78.7296 32.5189 76.9544C30.4778 75.1795 27.9123 74.1208 25.2135 73.9396Z" stroke="#17334F" stroke-linecap="round" stroke-linejoin="round"/>
  <path d="M15.4572 89.9333C14.8793 88.5736 14.633 87.0967 14.7385 85.6229C14.8563 83.8557 15.4542 82.1537 16.4679 80.7009C17.4817 79.248 18.8727 78.0994 20.491 77.3792" stroke="#17334F" stroke-linecap="round" stroke-linejoin="round"/>
  <path d="M34.0222 85.0183C33.9068 84.0327 33.6254 83.0742 33.1902 82.1824" stroke="#17334F" stroke-linecap="round" stroke-linejoin="round"/>
  <path d="M25.592 76.624C27.1561 76.81 28.6496 77.3815 29.9382 78.2871" stroke="#17334F" stroke-linecap="round" stroke-linejoin="round"/>
  <path d="M19.0504 65.5451C26.8395 65.5451 33.1537 59.2308 33.1537 51.4418C33.1537 43.6528 26.8395 37.3385 19.0504 37.3385C11.2614 37.3385 4.94714 43.6528 4.94714 51.4418C4.94714 59.2308 11.2614 65.5451 19.0504 65.5451Z" stroke="#17334F" stroke-linecap="round" stroke-linejoin="round"/>
  <path d="M8.0896 53.2563C8.42599 55.255 9.30073 57.1242 10.6197 58.6631C11.9387 60.202 13.6522 61.3523 15.5759 61.9905C17.1819 62.5268 18.8905 62.6823 20.567 62.4445" stroke="#17334F" stroke-linecap="round" stroke-linejoin="round"/>
  <path d="M18.08 58.0001C17.3855 58 16.7076 57.863 16.0651 57.5927C14.8198 57.0689 13.8589 56.1051 13.3595 54.8788C12.86 53.6525 12.8817 52.3105 13.4205 51.1001C13.7393 50.384 14.2317 49.7472 14.8474 49.2533C14.7962 48.479 14.9368 47.6941 15.2556 46.978C16.0609 45.169 17.8918 44.0001 19.92 44.0001C20.6145 44.0001 21.2924 44.1371 21.9349 44.4074C23.1802 44.9312 24.141 45.895 24.6405 47.1213C25.14 48.3476 25.1183 49.6896 24.5795 50.9001C24.2607 51.6161 23.7683 52.253 23.1526 52.7468C23.2038 53.5211 23.0632 54.306 22.7444 55.0221C21.9391 56.8311 20.1081 58.0001 18.0802 58.0001H18.08ZM15.0361 50.3039C14.7132 50.6405 14.4539 51.0265 14.2633 51.4546C13.352 53.5016 14.3239 55.8877 16.4298 56.7736C16.9563 56.9951 17.5116 57.1074 18.0803 57.1074C19.7419 57.1074 21.2419 56.1497 21.9017 54.6677C22.0923 54.2396 22.2042 53.7916 22.2356 53.3325C21.5175 53.69 20.721 53.8779 19.9145 53.8779C19.2202 53.8779 18.5425 53.7409 17.9001 53.4707C17.1547 53.1571 16.4912 52.67 15.9816 52.0618C15.55 51.5468 15.2263 50.9439 15.0361 50.3039ZM15.8232 49.6637C16.0738 50.9991 16.9802 52.1111 18.2649 52.6515C18.7913 52.8729 19.3465 52.9852 19.9152 52.9852C20.7205 52.9852 21.5002 52.7612 22.1769 52.3364C21.9263 51.0011 21.0199 49.889 19.7352 49.3486C19.2089 49.1272 18.6536 49.0149 18.085 49.0149C17.2796 49.0149 16.4998 49.239 15.8232 49.6637ZM18.0855 48.1222C18.7798 48.1222 19.4575 48.2593 20.0999 48.5294C20.8454 48.843 21.5088 49.3302 22.0184 49.9383C22.4501 50.4533 22.7737 51.0563 22.964 51.6962C23.2868 51.3597 23.5462 50.9737 23.7367 50.5456C24.1782 49.5539 24.196 48.4545 23.7868 47.4499C23.3776 46.4453 22.5904 45.6557 21.5703 45.2266C21.0438 45.0051 20.4884 44.8928 19.9197 44.8928C18.2581 44.8928 16.7581 45.8505 16.0984 47.3325C15.9078 47.7606 15.7959 48.2086 15.7645 48.6677C16.4825 48.3101 17.279 48.1222 18.0855 48.1222Z" fill="#17334F"/>
  <path d="M8.72839 47.358C9.39173 45.677 10.4578 44.1845 11.8328 43.0118" stroke="#17334F" stroke-linecap="round" stroke-linejoin="round"/>
  <path d="M26.0455 60.0627C27.4509 58.9384 28.5556 57.4833 29.2609 55.8275" stroke="#17334F" stroke-linecap="round" stroke-linejoin="round"/>
  <path d="M17.0848 40.5144C18.5669 40.2453 20.0883 40.2814 21.556 40.6204C23.0237 40.9594 24.4068 41.5942 25.6207 42.4861C26.8346 43.378 27.8538 44.5082 28.616 45.8075C29.3782 47.1067 29.8673 48.5478 30.0535 50.0426" stroke="#17334F" stroke-linecap="round" stroke-linejoin="round"/>
  <path d="M140.575 61.4241C142.325 62.2527 143.836 63.5149 144.961 65.0908C146.086 66.6668 146.791 68.5043 147.007 70.4289C147.223 72.3536 146.943 74.3013 146.194 76.0875C145.445 77.8737 144.253 79.4389 142.73 80.6349C141.206 81.8301 139.403 82.617 137.49 82.9197C135.577 83.2224 133.618 83.0307 131.8 82.364C129.982 81.6966 128.364 80.5759 127.101 79.1083C125.837 77.6404 124.97 75.874 124.581 73.9768C124.347 72.8712 124.283 71.7364 124.392 70.6116" stroke="#17334F" stroke-linecap="round" stroke-linejoin="round"/>
  <path d="M140.01 63.8439C141.208 64.4999 142.243 65.4175 143.037 66.5285C143.982 67.8585 144.542 69.4233 144.655 71.0509C144.769 72.6784 144.431 74.3058 143.68 75.754" stroke="#17334F" stroke-linecap="round" stroke-linejoin="round"/>
  <path d="M126.812 71.2169C126.692 73.2139 127.266 75.1909 128.438 76.8126C129.298 78.0256 130.439 79.0105 131.765 79.6842" stroke="#17334F" stroke-linecap="round" stroke-linejoin="round"/>
  <path d="M136.378 80.5937C137.825 80.4851 139.225 80.0326 140.462 79.2744" stroke="#17334F" stroke-linecap="round" stroke-linejoin="round"/>
  <path d="M54.5927 27.0537C60.8576 27.0537 65.9362 21.9751 65.9362 15.7102C65.9362 9.44539 60.8576 4.36676 54.5927 4.36676C48.3279 4.36676 43.2493 9.44539 43.2493 15.7102C43.2493 21.9751 48.3279 27.0537 54.5927 27.0537Z" stroke="#17334F" stroke-linecap="round" stroke-linejoin="round"/>
  <path d="M53.81 21.0001C53.2891 21 52.7807 20.8924 52.2988 20.68C51.3649 20.2685 50.6442 19.5112 50.2696 18.5477C49.895 17.5841 49.9112 16.5297 50.3154 15.5787C50.5545 15.016 50.9237 14.5156 51.3855 14.1276C51.3472 13.5192 51.4526 12.9025 51.6917 12.3399C52.2957 10.9185 53.6688 10.0001 55.19 10.0001C55.7108 10.0001 56.2193 10.1077 56.7012 10.3201C57.6351 10.7317 58.3558 11.489 58.7304 12.4525C59.105 13.416 59.0887 14.4704 58.6846 15.4215C58.4455 15.9841 58.0762 16.4845 57.6144 16.8725C57.6528 17.4809 57.5474 18.0976 57.3083 18.6602C56.7043 20.0816 55.3311 21.0001 53.8101 21.0001H53.81ZM51.5271 14.9531C51.2849 15.2176 51.0904 15.5208 50.9475 15.8572C50.264 17.4656 50.9929 19.3404 52.5723 20.0364C52.9672 20.2104 53.3837 20.2987 53.8103 20.2987C55.0565 20.2987 56.1814 19.5462 56.6763 18.3817C56.8192 18.0454 56.9031 17.6934 56.9267 17.3327C56.3881 17.6136 55.7907 17.7612 55.1859 17.7612C54.6652 17.7612 54.1569 17.6536 53.6751 17.4413C53.116 17.1949 52.6184 16.8121 52.2362 16.3343C51.9125 15.9297 51.6697 15.4559 51.5271 14.9531ZM52.1174 14.4501C52.3053 15.4993 52.9851 16.373 53.9487 16.7976C54.3435 16.9716 54.7599 17.0598 55.1864 17.0598C55.7904 17.0598 56.3752 16.8838 56.8827 16.5501C56.6947 15.5009 56.0149 14.6271 55.0514 14.2025C54.6566 14.0285 54.2402 13.9403 53.8137 13.9403C53.2097 13.9403 52.6249 14.1163 52.1174 14.4501ZM53.8141 13.2389C54.3348 13.2389 54.8432 13.3466 55.3249 13.5589C55.884 13.8052 56.3816 14.188 56.7638 14.6658C57.0875 15.0705 57.3303 15.5442 57.473 16.0471C57.7151 15.7826 57.9096 15.4793 58.0526 15.143C58.3836 14.3638 58.397 13.5 58.0901 12.7107C57.7832 11.9213 57.1928 11.3009 56.4277 10.9638C56.0328 10.7897 55.6163 10.7015 55.1898 10.7015C53.9436 10.7015 52.8186 11.454 52.3238 12.6184C52.1808 12.9548 52.0969 13.3067 52.0733 13.6675C52.6119 13.3865 53.2093 13.2389 53.8141 13.2389Z" fill="#17334F"/>
  <path d="M46.3497 12.2318C45.7122 13.7322 45.4985 15.3787 45.732 16.9921C45.9654 18.6055 46.6371 20.1239 47.6738 21.382C48.5482 22.4309 49.6463 23.2707 50.8876 23.8399" stroke="#17334F" stroke-linecap="round" stroke-linejoin="round"/>
  <path d="M55.614 24.5539C57.0565 24.3977 58.4356 23.8774 59.6218 23.0421" stroke="#17334F" stroke-linecap="round" stroke-linejoin="round"/>
  <path d="M62.8736 12.3419C63.3395 13.481 63.5632 14.7046 63.5305 15.935C63.4979 17.1652 63.2098 18.3753 62.6842 19.4882" stroke="#17334F" stroke-linecap="round" stroke-linejoin="round"/>
  <path d="M49.3369 8.48861C50.5157 7.64384 51.8751 7.08577 53.3074 6.85876" stroke="#17334F" stroke-linecap="round" stroke-linejoin="round"/>
  <path d="M61.4744 10.0345C60.5237 8.90058 59.3189 8.00684 57.9579 7.42609" stroke="#17334F" stroke-linecap="round" stroke-linejoin="round"/>
  <path d="M96.4493 148.729C100.123 137.08 107.524 126.961 117.513 119.93C127.501 112.9 139.524 109.347 151.729 109.82" stroke="#17334F" stroke-linecap="round" stroke-linejoin="round"/>
  <path d="M103.823 28.6797C105.449 25.3518 107.609 22.755 110.591 21.4954C114.758 19.7352 120.195 20.7014 128.627 25.4659C137.06 30.2304 140.703 34.4244 141.33 38.8886C141.756 41.9153 140.762 44.9421 138.948 47.8913" stroke="#17334F" stroke-linecap="round" stroke-linejoin="round"/>
  <path d="M122.047 66.9064C123.064 67.2082 124.102 67.4357 125.152 67.5871C131.586 68.374 135.241 65.4279 137.063 62.2933C140.716 56.0069 137.83 51.7042 137.101 47.1694C136.431 43.008 137.817 40.5532 135.361 37.3005C133.621 34.9947 130.643 32.6734 126.022 30.0409C121.417 27.4177 117.893 26.0657 115.019 25.7677C110.936 25.3455 109.571 27.7638 105.642 29.3603C102.123 30.7898 97.9278 30.8348 94.6007 34.5027" stroke="#17334F" stroke-linecap="round" stroke-linejoin="round"/>
  <path d="M131.803 18.0922C131.514 17.5563 131.082 17.1113 130.555 16.8069C130.176 16.5816 129.756 16.434 129.32 16.3729C128.883 16.3117 128.438 16.3383 128.012 16.4509C127.585 16.5636 127.186 16.7601 126.836 17.029C126.487 17.2978 126.194 17.6337 125.976 18.0169C125.694 18.5085 125.54 19.0637 125.529 19.6306C125.519 20.1977 125.652 20.7582 125.916 21.2599C126.18 21.7617 126.567 22.1887 127.04 22.5009C127.514 22.8132 128.058 23.0007 128.623 23.046" stroke="#17334F" stroke-linecap="round" stroke-linejoin="round"/>
  <path d="M74.5192 77.8719C86.6946 78.2499 95.5041 78.2872 99.0206 75.5654" stroke="#17334F" stroke-linecap="round" stroke-linejoin="round"/>
  <path d="M93.5382 80.2158C93.8789 80.9344 94.1808 81.6127 94.4455 82.2957" stroke="#17334F" stroke-linecap="round" stroke-linejoin="round"/>
  <path d="M95.9581 86.6062C99.5127 98.2896 96.676 104.827 103.176 103.129C109.414 101.5 112.818 100.445 116.486 99.4243" stroke="#17334F" stroke-linecap="round" stroke-linejoin="round" stroke-dasharray="5.88 5.88"/>
  <path d="M118.72 98.8569C119.439 98.6676 120.157 98.5162 120.914 98.3276" stroke="#17334F" stroke-linecap="round" stroke-linejoin="round"/>
  <path d="M81.7787 94.5837C81.4768 95.3024 81.1741 96.0211 80.8715 96.6637" stroke="#17334F" stroke-linecap="round" stroke-linejoin="round"/>
  <path d="M79.1323 100.861C77.4311 105.133 76.8273 107.477 77.2037 109.482C77.8502 112.922 79.1323 117.309 85.7493 132.849" stroke="#17334F" stroke-linecap="round" stroke-linejoin="round" stroke-dasharray="5.82 5.82"/>
  <path d="M86.6566 134.928C86.9593 135.609 87.262 136.29 87.5639 137.008" stroke="#17334F" stroke-linecap="round" stroke-linejoin="round"/>
  <path d="M84.3881 11.929C84.7474 10.9633 85.2728 10.0676 85.9403 9.28253" stroke="#17334F" stroke-linecap="round" stroke-linejoin="round"/>
  <path d="M84.842 18.4328C84.3484 17.519 84.0395 16.5168 83.934 15.4836" stroke="#17334F" stroke-linecap="round" stroke-linejoin="round"/>
  <path d="M90.0978 22.4786C89.0593 22.2423 88.0815 21.793 87.2262 21.1592" stroke="#17334F" stroke-linecap="round" stroke-linejoin="round"/>
  <path d="M96.6008 21.2306C95.7091 21.8508 94.7087 22.2983 93.6516 22.55" stroke="#17334F" stroke-linecap="round" stroke-linejoin="round"/>
  <path d="M99.9636 15.4836C99.8511 16.5563 99.5298 17.5966 99.0183 18.5461" stroke="#17334F" stroke-linecap="round" stroke-linejoin="round"/>
  <path d="M97.8488 9.16925C98.5721 9.96173 99.1371 10.8857 99.5127 11.891" stroke="#17334F" stroke-linecap="round" stroke-linejoin="round"/>
  <path d="M88.9631 7.16535C89.9115 6.78163 90.9267 6.5891 91.9503 6.5988C92.9888 6.60567 94.0155 6.81088 94.9771 7.20338" stroke="#17334F" stroke-linecap="round" stroke-linejoin="round"/>
  <path d="M68.1295 134.323C68.1739 134.662 68.1998 135.003 68.2071 135.344C68.2032 136.612 67.8214 137.849 67.1105 138.898" stroke="#17334F" stroke-linecap="round" stroke-linejoin="round"/>
  <path d="M58.2986 130.089C59.3477 129.378 60.585 128.996 61.8523 128.992C63.4172 128.988 64.9274 129.568 66.0875 130.618" stroke="#17334F" stroke-linecap="round" stroke-linejoin="round"/>
  <path d="M56.1054 138.029C55.7139 137.188 55.5075 136.272 55.5 135.344C55.496 134.771 55.572 134.199 55.7259 133.646" stroke="#17334F" stroke-linecap="round" stroke-linejoin="round"/>
  <path d="M63.743 141.394C63.1316 141.59 62.4942 141.692 61.8524 141.697C60.9245 141.689 60.0091 141.483 59.1678 141.091" stroke="#17334F" stroke-linecap="round" stroke-linejoin="round"/>
  <path fill-rule="evenodd" clip-rule="evenodd" d="M28.1622 88.14C28.1644 88.0089 28.1612 87.8777 28.1526 87.7468C28.7683 87.253 29.2607 86.6161 29.5795 85.9C30.1183 84.6896 30.14 83.3476 29.6405 82.1213C29.141 80.895 28.1802 79.9311 26.9349 79.4073C26.2924 79.1371 25.6145 79 24.92 79C22.8918 79 21.0609 80.1689 20.2556 81.978C19.9368 82.6941 19.7962 83.4789 19.8474 84.2532C19.2317 84.7471 18.7393 85.384 18.4205 86.1C17.8817 87.3105 17.86 88.6525 18.3595 89.8788C18.7425 90.8192 19.3968 91.6052 20.2427 92.1568L21.2024 91.67C19.2551 90.7129 18.3854 88.4264 19.2633 86.4545C19.4539 86.0264 19.7132 85.6404 20.0361 85.3039C20.2263 85.9438 20.55 86.5468 20.9816 87.0618C21.4912 87.6699 22.1547 88.1571 22.9001 88.4707C23.5425 88.7409 24.2202 88.8778 24.9145 88.8778C25.721 88.8778 26.5175 88.69 27.2356 88.3324C27.2288 88.4307 27.2184 88.5286 27.2043 88.6258L28.1622 88.14ZM23.2649 87.6515C21.9802 87.1111 21.0738 85.999 20.8232 84.6637C21.4998 84.2389 22.2796 84.0149 23.085 84.0149C23.6536 84.0149 24.2089 84.1271 24.7352 84.3486C26.0199 84.889 26.9263 86.001 27.1769 87.3364C26.5002 87.7611 25.7205 87.9852 24.9152 87.9852C24.3465 87.9852 23.7913 87.8729 23.2649 87.6515ZM25.0999 83.5294C24.4575 83.2592 23.7798 83.1222 23.0855 83.1222C22.279 83.1222 21.4825 83.3101 20.7645 83.6676C20.7959 83.2085 20.9078 82.7605 21.0984 82.3325C21.7581 80.8504 23.2581 79.8928 24.9197 79.8928C25.4884 79.8928 26.0438 80.0051 26.5703 80.2265C27.5904 80.6556 28.3776 81.4452 28.7868 82.4499C29.196 83.4545 29.1782 84.5539 28.7367 85.5455C28.5462 85.9736 28.2868 86.3596 27.964 86.6962C27.7737 86.0562 27.4501 85.4532 27.0184 84.9383C26.5088 84.3301 25.8453 83.843 25.0999 83.5294Z" fill="#17334F"/>
</svg>