<svg width="180" height="180" viewBox="0 0 180 180" fill="none" xmlns="http://www.w3.org/2000/svg">
<g id="Protect-Privacy--Streamline-Bangalore.svg">
<g id="Users-People-Protect-privacy-01">
<g id="color 2">
<path id="Vector" d="M115.148 95.2924L92.2464 101.418C86.1241 103.291 79.6638 103.791 73.3263 102.881C71.4663 107.463 70.3917 113.194 72.6797 117.598V117.615C70.001 123.921 66.713 129.949 62.8623 135.615C53.511 134.311 44.2405 132.482 35.0947 130.136C31.7921 134.876 30.267 137.864 31.1133 145.79C41.1689 149.022 49.4039 151.455 59.0341 153.616C62.1021 154.308 65.3038 154.107 68.2613 153.037C71.2189 151.968 73.8088 150.075 75.7253 147.582C80.7274 140.889 85.3293 133.907 89.5071 126.671L80.5109 123.511C88.3447 125.647 98.3967 121.703 104.806 118.432V118.449L99.6119 140.21C103.673 143.494 109.865 144.736 114.874 143.902L126.189 106.739C126.66 105.187 126.709 103.538 126.329 101.962C125.95 100.386 125.156 98.9391 124.031 97.7721C122.905 96.6051 121.488 95.76 119.927 95.324C118.365 94.8881 116.715 94.8772 115.148 95.2924Z" fill="#24BBFF"/>
<path id="Vector_2" d="M123.332 71.3863L127.756 70.5866L117.122 12.1078L111.252 4.92767L123.332 71.3863Z" fill="#24BBFF"/>
<path id="Vector_3" d="M110.673 5.02881L107.696 13.8253L118.347 72.3041L122.754 71.5045L110.673 5.02881Z" fill="#24BBFF"/>
</g>
<g id="color 1">
<path id="Vector_4" d="M62.7261 106.844C62.675 106.334 61.8753 105.789 60.0208 105.551L60.361 108.188C61.7732 108.018 62.7798 107.44 62.7261 106.844Z" fill="#F0F2F4"/>
<path id="Vector_5" d="M53.3503 105.756C51.022 106.114 50.0907 106.707 50.0674 107.253C50.0387 107.899 51.3094 108.478 53.0619 108.41C53.2097 108.282 53.3216 108.118 53.3852 107.933C53.4661 107.209 53.4538 106.477 53.3503 105.756Z" fill="#F0F2F4"/>
<path id="Vector_6" d="M33.444 132.519C31.5498 131.783 29.6122 131.164 27.6421 130.665C22.4016 133.676 15.1051 136.9 7.71813 143.273C7.57357 143.393 7.46715 143.552 7.41187 143.732C11.9413 143.919 16.4779 143.794 20.9894 143.358C24.1711 143.102 27.6931 142.558 30.8749 143.034C30.7916 139.074 31.2375 136.224 33.444 132.519Z" fill="#F0F2F4"/>
<path id="Vector_7" d="M112.681 154.297C112.412 151.03 111.847 147.389 112.391 144.178C108.734 144.298 105.109 143.459 101.876 141.745C101.187 143.562 100.59 145.413 100.09 147.291C103.255 152.617 106.521 160.154 113.054 168.048C113.243 163.461 113.118 158.867 112.681 154.297Z" fill="#F0F2F4"/>
<path id="Vector_8" d="M82.5989 51.3602C82.4684 51.0457 82.2344 50.7852 81.9357 50.6216C81.637 50.4581 81.2915 50.4014 80.9562 50.4609C80.6209 50.5205 80.316 50.6926 80.0918 50.949C79.8677 51.2053 79.7377 51.5304 79.7234 51.8707C79.6894 51.8707 79.6724 51.8877 79.6384 51.8877C79.495 51.5638 79.2421 51.3008 78.924 51.1449C78.606 50.9889 78.2431 50.9501 77.8993 51.0352C77.5551 51.1205 77.2523 51.3247 77.0443 51.6119C76.8363 51.899 76.7366 52.2505 76.7629 52.6041C76.7459 52.6041 76.7289 52.6211 76.7119 52.6211C76.5423 52.2731 76.2445 52.0043 75.881 51.8711C75.5175 51.7379 75.1166 51.7507 74.7623 51.9067C74.408 52.0628 74.128 52.35 73.9809 52.7081C73.8338 53.0662 73.8311 53.4673 73.9734 53.8273C73.8176 53.5445 73.5739 53.3202 73.2792 53.1882C72.9845 53.0562 72.6548 53.0237 72.34 53.0957C72.1019 53.1539 71.8813 53.2688 71.6971 53.4305C71.5129 53.5923 71.3705 53.7961 71.282 54.0247C71.1934 54.2533 71.1614 54.4999 71.1886 54.7435C71.2158 54.9871 71.3015 55.2206 71.4383 55.424C72.4421 57.3126 77.5805 67.3852 76.4235 71.0057C77.8868 67.7049 77.1399 63.094 76.8319 62.8388C73.8373 60.3546 76.0492 57.5813 77.4954 59.4359C78.193 60.3206 78.5163 60.2866 78.7035 59.7251C79.299 56.8326 82.889 52.613 84.7929 58.415C82.3508 50.5382 82.7386 51.7802 82.5989 51.3602Z" fill="#F0F2F4"/>
<path id="Vector_9" d="M70.0593 88.5547C68.5913 89.0714 67.1685 89.7088 65.8057 90.4603L69.1575 86.6661C69.4915 87.2786 69.7933 87.909 70.0593 88.5547Z" fill="#F0F2F4"/>
<path id="Vector_10" d="M92.7905 99.0867L84.9639 86.8532L92.9267 96.024C92.9929 97.0468 92.9473 98.0738 92.7905 99.0867Z" fill="#F0F2F4"/>
<path id="Vector_11" d="M91.3614 123.433C90.7489 124.507 90.1364 125.577 89.4898 126.666L79.6895 123.229C83.1774 124.471 87.4651 124.266 91.3614 123.433Z" fill="#F0F2F4"/>
<path id="Vector_12" d="M124.642 89.0975L127.789 88.519L126.871 83.4827C125.952 83.6869 124.863 83.8409 123.736 84.0782L124.642 89.0975Z" fill="#F0F2F4"/>
<path id="Vector_13" d="M124.999 73.2746L124.608 71.1648L121.46 71.7433L121.851 73.8531C122.42 73.751 124.664 73.3435 124.999 73.2746Z" fill="#F0F2F4"/>
<path id="Vector_14" d="M139.853 165.051C139.882 165.285 140.001 165.498 140.185 165.647C140.368 165.795 140.601 165.867 140.836 165.847C141.071 165.827 141.29 165.718 141.446 165.541C141.602 165.364 141.683 165.134 141.673 164.898L141.537 163.465C141.527 163.346 141.494 163.229 141.439 163.123C141.384 163.016 141.308 162.921 141.216 162.844C141.125 162.766 141.019 162.708 140.904 162.671C140.79 162.635 140.67 162.621 140.55 162.631C140.431 162.641 140.314 162.675 140.208 162.73C140.101 162.785 140.006 162.861 139.929 162.952C139.852 163.044 139.793 163.15 139.757 163.264C139.72 163.378 139.707 163.499 139.717 163.618L139.853 165.051Z" fill="#F0F2F4"/>
</g>
<g id="outlines">
<path id="Vector_15" d="M106.777 163.503C102.199 168.047 97.0175 171.941 91.3785 175.073C79.6215 171.074 68.9015 163.503 59.8677 153.788" stroke="#F0F2F4" stroke-width="0.93913" stroke-linecap="round" stroke-linejoin="round"/>
<path id="Vector_16" d="M114.297 49.2862C102.167 44.581 90.3568 39.0907 78.9408 32.8502C63.0134 44.645 46.4008 55.4852 29.1904 65.3139L31.4193 90.6995C32.8708 105.331 37.3126 119.507 44.4695 132.351" stroke="#F0F2F4" stroke-width="0.93913" stroke-linecap="round" stroke-linejoin="round"/>
<path id="Vector_17" d="M112.783 156.918C129.61 136.314 138.015 106.793 135.803 81.5439L133.574 56.1753C130.56 55.1961 127.56 54.1752 124.574 53.1127" stroke="#F0F2F4" stroke-width="0.93913" stroke-linecap="round" stroke-linejoin="round"/>
<path id="Vector_18" d="M73.3091 74.0241C78.5836 72.2035 77.2609 63.2145 76.8311 62.8456C73.8688 60.3059 76.043 57.5917 77.4947 59.4427C78.0024 60.091 78.5379 60.4922 78.7125 59.6835C79.3922 56.5359 83.5921 51.864 85.2703 60.2934C87.5636 71.8131 79.2131 66.9801 79.2131 66.9801" stroke="#F0F2F4" stroke-width="0.93913" stroke-linecap="round" stroke-linejoin="round"/>
<path id="Vector_19" d="M53.0619 108.41C51.3094 108.479 50.0387 107.899 50.0674 107.254C50.1327 105.78 55.4825 105.499 56.9376 105.454C58.3507 105.411 62.6348 105.434 62.7262 106.845C62.7262 107.042 62.5623 107.92 60.3611 108.188" stroke="#F0F2F4" stroke-width="0.93913" stroke-linecap="round" stroke-linejoin="round"/>
<path id="Vector_20" d="M60.395 108.7C60.7021 110.773 60.8669 112.865 60.8884 114.962C60.6842 116.102 57.8437 121.834 56.0733 124.32C54.9485 125.901 53.4199 126.362 54.7632 123.18C55.532 121.269 56.1687 119.308 56.6688 117.31C58.0658 112.001 54.1497 110.878 52.6023 113.039C50.3824 116.14 48.6881 117.054 49.4376 114.689C49.8961 113.243 50.1352 112.375 50.4585 111.269C50.7092 110.418 52.3811 109.152 53.0393 108.444C53.1871 108.309 53.2999 108.14 53.368 107.952C53.4396 107.227 53.4289 106.496 53.3339 105.774C55.5362 105.447 57.7695 105.384 59.9866 105.587C59.9866 105.587 60.0985 106.365 60.395 108.7Z" stroke="#F0F2F4" stroke-width="0.93913" stroke-linecap="round" stroke-linejoin="round"/>
<path id="Vector_21" d="M55.9204 119.911C54.8034 121.251 53.5231 122.445 52.1091 123.467C50.3558 124.674 49.6609 123.758 51.6327 121.578C53.014 120.052 54.2342 118.387 55.2738 116.61" stroke="#F0F2F4" stroke-width="0.93913" stroke-linecap="round" stroke-linejoin="round"/>
<path id="Vector_22" d="M53.9146 115.658C54.7384 116.345 55.6617 116.902 56.6539 117.309" stroke="#F0F2F4" stroke-width="0.93913" stroke-linecap="round" stroke-linejoin="round"/>
<path id="Vector_23" d="M53.7084 118.976C52.3668 119.785 50.9326 120.429 49.4369 120.895C47.4981 121.476 47.6459 120.293 49.6751 119.228C51.2983 118.289 52.8157 117.178 54.2009 115.914" stroke="#F0F2F4" stroke-width="0.93913" stroke-linecap="round" stroke-linejoin="round"/>
<path id="Vector_24" d="M51.6497 117.972C50.6042 118.245 49.5311 118.4 48.4509 118.431C46.9877 118.374 46.5122 117.584 48.6721 117.07C50.3762 116.674 52.0078 116.014 53.5078 115.113C53.5819 114.034 53.8896 112.983 54.4096 112.034" stroke="#F0F2F4" stroke-width="0.93913" stroke-linecap="round" stroke-linejoin="round"/>
<path id="Vector_25" d="M65.8057 90.4602L69.1575 86.666C69.4969 87.2758 69.8023 87.9036 70.0745 88.5465" stroke="#F0F2F4" stroke-width="0.93913" stroke-linecap="round" stroke-linejoin="round"/>
<path id="Vector_26" d="M92.7905 99.0868L84.9639 86.8704L92.9267 96.0412" stroke="#F0F2F4" stroke-width="0.93913" stroke-linecap="round" stroke-linejoin="round"/>
<path id="Vector_27" d="M62.7262 106.845C62.437 103.119 62.0098 94.4072 62.0456 92.4335C64.2844 91.3652 67.4724 89.3673 70.0747 88.5497C71.7609 92.5992 72.6278 97.9946 73.3092 102.897C79.6465 103.815 86.1086 103.316 92.2294 101.434C92.816 99.7001 93.0531 97.8669 92.927 96.0406C92.8374 95.8239 96.9361 101.42 102.829 97.725L122.804 85.4405C121.801 80.7445 119.521 76.3548 115.675 74.296L99.2393 85.5793C92.2294 74.9283 92.2285 70.5681 80.8467 72.2364C72.6448 73.4408 64.1259 77.1769 56.1416 82.6152C50.1892 86.6692 50.0522 88.8936 49.8633 94.8316C49.6898 98.9726 49.7636 103.12 50.0844 107.252" stroke="#F0F2F4" stroke-width="0.93913" stroke-linecap="round" stroke-linejoin="round"/>
<path id="Vector_28" d="M109.686 115.71C109.686 115.71 107.781 116.935 104.803 118.449" stroke="#F0F2F4" stroke-width="0.93913" stroke-linecap="round" stroke-linejoin="round"/>
<path id="Vector_29" d="M91.3464 123.536C86.6983 131.908 81.4736 139.947 75.71 147.594C73.7939 150.088 71.2042 151.982 68.2467 153.053C65.2892 154.123 62.0873 154.325 59.0188 153.634C49.3895 151.468 41.1536 149.041 31.098 145.791C30.8294 142.451 30.5607 139.279 31.8861 135.718C32.6823 133.72 33.7512 131.842 35.0624 130.137C44.2082 132.483 53.4788 134.312 62.8301 135.616C66.7262 129.955 70.0006 123.89 72.5964 117.527" stroke="#F0F2F4" stroke-width="0.93913" stroke-linecap="round" stroke-linejoin="round"/>
<path id="Vector_30" d="M81.7816 67.909C81.5935 69.4869 81.2747 70.8642 82.498 72.0498" stroke="#F0F2F4" stroke-width="0.93913" stroke-linecap="round" stroke-linejoin="round"/>
<path id="Vector_31" d="M7.41201 143.731C6.90158 143.697 6.35711 143.683 5.84668 143.646C5.7089 143.636 5.5752 143.594 5.45565 143.525C5.3361 143.456 5.23382 143.361 5.15649 143.246C5.07916 143.132 5.02881 143.001 5.00923 142.864C4.98964 142.728 5.00133 142.588 5.04342 142.457C5.09983 142.281 5.20729 142.126 5.35326 142.012C8.79311 139.322 12.4527 136.926 16.2936 134.848C19.683 133 22.7251 131.565 25.1752 130.118C26.0089 130.289 26.8256 130.442 27.6423 130.663" stroke="#F0F2F4" stroke-width="0.93913" stroke-linecap="round" stroke-linejoin="round"/>
<path id="Vector_32" d="M33.4441 132.519C31.2501 136.202 30.7898 139.049 30.8749 143.034C27.6931 142.558 24.1711 143.101 20.9894 143.358C16.4779 143.793 11.9413 143.917 7.41187 143.73C7.46715 143.55 7.57357 143.391 7.71813 143.271C15.1096 136.897 22.4043 133.674 27.6421 130.663C29.6107 131.168 31.548 131.788 33.4441 132.519Z" stroke="#F0F2F4" stroke-width="0.93913" stroke-linecap="round" stroke-linejoin="round"/>
<path id="Vector_33" d="M113.054 168.046C113.021 168.501 113.003 168.971 112.953 169.425C112.938 169.609 112.869 169.784 112.753 169.928C112.638 170.072 112.482 170.177 112.306 170.231C112.129 170.284 111.94 170.283 111.764 170.228C111.588 170.171 111.434 170.064 111.32 169.919C105.268 162.204 102.319 154.997 99.4265 150.097C99.6137 149.144 99.8519 148.225 100.09 147.289" stroke="#F0F2F4" stroke-width="0.93913" stroke-linecap="round" stroke-linejoin="round"/>
<path id="Vector_34" d="M112.212 148.987C112.092 147.382 112.147 145.769 112.375 144.176C108.717 144.296 105.092 143.457 101.86 141.743C101.173 143.666 100.606 145.288 100.09 147.289C103.255 152.615 106.521 160.151 113.054 168.046C113.494 160.189 112.404 152.418 112.212 148.987Z" stroke="#F0F2F4" stroke-width="0.93913" stroke-linecap="round" stroke-linejoin="round"/>
<path id="Vector_35" d="M113.685 73.1574L132.418 69.7375" stroke="#F0F2F4" stroke-width="0.93913" stroke-linecap="round" stroke-linejoin="round"/>
<path id="Vector_36" d="M9.14771 114.178L12.959 118.653L16.3108 111.388" stroke="#F0F2F4" stroke-width="0.93913" stroke-linecap="round" stroke-linejoin="round"/>
<path id="Vector_37" d="M145.825 164.61L145.332 158.91L135.191 159.795L135.684 165.495C135.734 166.167 135.917 166.822 136.223 167.423C136.528 168.024 136.95 168.558 137.463 168.995C137.976 169.432 138.571 169.762 139.213 169.967C139.855 170.172 140.532 170.248 141.203 170.19C141.875 170.131 142.528 169.939 143.125 169.626C143.722 169.313 144.25 168.885 144.68 168.366C145.11 167.846 145.433 167.247 145.629 166.602C145.826 165.958 145.892 165.28 145.825 164.61Z" stroke="#F0F2F4" stroke-width="0.93913" stroke-linecap="round" stroke-linejoin="round"/>
<path id="Vector_38" d="M135.191 159.794L134.868 156.153C134.769 154.818 135.2 153.498 136.067 152.479C136.935 151.46 138.168 150.824 139.501 150.708C140.834 150.591 142.16 151.004 143.191 151.857C144.221 152.711 144.875 153.936 145.008 155.268" stroke="#F0F2F4" stroke-width="0.93913" stroke-linecap="round" stroke-linejoin="round"/>
<path id="Vector_39" d="M139.853 165.051C139.883 165.285 140.002 165.499 140.185 165.647C140.368 165.795 140.602 165.867 140.837 165.847C141.072 165.828 141.29 165.718 141.446 165.541C141.602 165.364 141.683 165.134 141.674 164.898L141.537 163.465C141.527 163.346 141.494 163.229 141.439 163.123C141.384 163.016 141.308 162.921 141.217 162.844C141.125 162.767 141.019 162.708 140.905 162.672C140.79 162.635 140.67 162.622 140.551 162.632C140.431 162.642 140.315 162.675 140.208 162.73C140.101 162.785 140.007 162.861 139.929 162.952C139.852 163.044 139.793 163.15 139.757 163.264C139.72 163.379 139.707 163.499 139.717 163.618L139.853 165.051Z" stroke="#F0F2F4" stroke-width="0.93913" stroke-linecap="round" stroke-linejoin="round"/>
<path id="Vector_40" d="M40.097 36.6942C40.1417 37.1076 40.1034 37.5257 39.9845 37.9242C39.8656 38.3226 39.6683 38.6933 39.4043 39.0145C39.1403 39.3358 38.8148 39.6011 38.447 39.795C38.0791 39.9888 37.6763 40.1074 37.2621 40.1436C36.8479 40.1798 36.4306 40.133 36.0347 40.0059C35.6388 39.8789 35.2722 39.6741 34.9564 39.4035C34.6407 39.133 34.382 38.8022 34.1957 38.4304C34.0094 38.0587 33.8992 37.6535 33.8715 37.2387C33.8169 36.4227 34.0844 35.6178 34.6164 34.9968C35.1485 34.3758 35.9028 33.988 36.7175 33.9168C37.5322 33.8455 38.3424 34.0964 38.9742 34.6157C39.606 35.1349 40.0091 35.8811 40.097 36.6942Z" stroke="#F0F2F4" stroke-width="0.93913" stroke-linecap="round" stroke-linejoin="round"/>
<path id="Vector_41" d="M127.262 80.8304C129.015 80.6772 129.322 83.0422 127.889 83.2634C127.77 83.2822 124.367 83.8759 122.546 84.3523C121.577 80.6262 119.77 77.2233 116.983 75.1287C118.293 74.4481 119.926 74.1759 124.571 73.3377C125.235 73.2186 127.037 72.8577 127.668 72.7422C129.384 72.427 129.854 74.8654 128.45 75.2093C128.298 75.2469 126.817 75.5675 126.647 75.6006C126.732 75.5836 127.514 75.5478 127.6 75.5326C129.43 75.2138 129.88 77.7104 128.382 78.0507L126.936 78.2719C127.038 78.2549 127.362 78.2209 127.464 78.2038C129.267 77.9997 129.653 80.3736 128.18 80.688C127.959 80.7417 127.5 80.7963 127.262 80.8304Z" stroke="#F0F2F4" stroke-width="0.93913" stroke-linecap="round" stroke-linejoin="round"/>
<path id="Vector_42" d="M84.7942 58.421L82.6163 51.36C82.4764 51.0474 82.236 50.7904 81.9334 50.63C81.6308 50.4696 81.2832 50.4149 80.946 50.4746C80.6087 50.5343 80.301 50.7049 80.0718 50.9594C79.8426 51.2139 79.705 51.5377 79.6809 51.8794C79.567 51.6377 79.3925 51.4297 79.1744 51.2754C78.9563 51.1212 78.7019 51.0261 78.4362 50.9993C78.1704 50.9725 77.9022 51.015 77.6577 51.1226C77.4132 51.2303 77.2007 51.3993 77.0409 51.6134C76.8273 51.9008 76.72 52.2534 76.7373 52.611C75.9072 50.8021 73.1553 52.1238 73.9729 53.8271C73.8657 53.6324 73.7162 53.4642 73.5354 53.3349C73.3546 53.2056 73.1471 53.1185 72.9282 53.08C72.7092 53.0415 72.4845 53.0526 72.2704 53.1125C72.0563 53.1723 71.8584 53.2794 71.6912 53.4259C71.4101 53.6685 71.2274 54.0056 71.1776 54.3736C71.1278 54.7416 71.2143 55.1151 71.4208 55.4238C72.4246 57.3124 77.563 67.3679 76.406 70.992" stroke="#F0F2F4" stroke-width="0.93913" stroke-linecap="round" stroke-linejoin="round"/>
<path id="Vector_43" d="M143.443 40.9991L143.698 43.9937" stroke="#F0F2F4" stroke-width="0.93913" stroke-linecap="round" stroke-linejoin="round"/>
<path id="Vector_44" d="M141.129 47.0559L138.135 47.3281" stroke="#F0F2F4" stroke-width="0.93913" stroke-linecap="round" stroke-linejoin="round"/>
<path id="Vector_45" d="M149.756 46.2898L146.761 46.562" stroke="#F0F2F4" stroke-width="0.93913" stroke-linecap="round" stroke-linejoin="round"/>
<path id="Vector_46" d="M144.447 52.6202L144.192 49.6256" stroke="#F0F2F4" stroke-width="0.93913" stroke-linecap="round" stroke-linejoin="round"/>
<path id="Vector_47" d="M146.761 46.5622C146.204 46.6117 145.644 46.4946 145.154 46.2258C144.664 45.957 144.264 45.5486 144.006 45.0523C143.835 44.7228 143.73 44.3629 143.698 43.993C143.731 44.3628 143.69 44.7354 143.579 45.0895C143.467 45.4436 143.287 45.7723 143.048 46.0567C142.81 46.3412 142.517 46.5758 142.188 46.7472C141.859 46.9186 141.499 47.0234 141.129 47.0556C141.686 47.0069 142.245 47.1243 142.735 47.393C143.225 47.6617 143.625 48.0697 143.883 48.5654C144.055 48.8949 144.159 49.2549 144.192 49.6248C144.142 49.0677 144.259 48.5085 144.528 48.0181C144.797 47.5277 145.205 47.1282 145.701 46.8702C146.031 46.6992 146.391 46.5944 146.761 46.5622Z" stroke="#F0F2F4" stroke-width="0.93913" stroke-linecap="round" stroke-linejoin="round"/>
<path id="Vector_48" d="M89.5411 126.685L79.9968 123.374" stroke="#F0F2F4" stroke-width="0.93913" stroke-linecap="round" stroke-linejoin="round"/>
<path id="Vector_49" d="M92.2123 101.434L115.114 95.3092C116.683 94.8898 118.337 94.8975 119.902 95.3316C121.468 95.7656 122.889 96.6103 124.019 97.778C125.148 98.9458 125.945 100.394 126.327 101.973C126.709 103.553 126.662 105.205 126.19 106.76L114.876 143.923C112.329 144.329 109.729 144.255 107.21 143.705C104.441 143.159 101.838 141.969 99.6136 140.231L104.808 118.453C98.9734 121.442 90.7571 124.57 83.8734 124.074C76.0011 123.506 70.1938 118.446 71.5612 109.029C71.8809 106.926 72.4699 104.873 73.3137 102.921" stroke="#F0F2F4" stroke-width="0.93913" stroke-linecap="round" stroke-linejoin="round"/>
<path id="Vector_50" d="M99.2393 85.5769L100.141 86.87" stroke="#F0F2F4" stroke-width="0.93913" stroke-linecap="round" stroke-linejoin="round"/>
<path id="Vector_51" d="M107.695 13.8269L110.941 5.05371L117.121 12.1085L127.755 70.5873L118.346 72.3058L107.695 13.8269Z" stroke="#F0F2F4" stroke-width="0.93913" stroke-linejoin="round"/>
<path id="Vector 1" d="M110.948 5.05954L123.031 71.3633" stroke="#F0F2F4" stroke-width="0.93913" stroke-linecap="round"/>
<path id="Vector_52" d="M124.642 89.0995L127.79 88.521L126.871 83.4847C125.952 83.6889 124.863 83.8429 123.737 84.0802L124.642 89.0995Z" stroke="#F0F2F4" stroke-width="0.93913" stroke-linejoin="round"/>
<path id="Vector_53" d="M124.999 73.2763L124.608 71.1665L121.46 71.745L121.852 73.8548C122.42 73.7527 124.664 73.3453 124.999 73.2763Z" stroke="#F0F2F4" stroke-width="0.93913" stroke-linejoin="round"/>
</g>
</g>
</g>
</svg>
