<svg width="180" height="180" viewBox="0 0 180 180" fill="none" xmlns="http://www.w3.org/2000/svg">
<g id="Newsletter--Streamline-Bangalore.svg">
<g id="Product-Newsletter-01">
<g id="color 2">
<path id="Vector" d="M140.397 80.6394L113.084 78.5977C110.439 78.3973 107.784 78.8349 105.343 79.8738L98.0773 82.9704C97.1002 84.7444 95.8994 86.3855 94.5043 87.8536C90.9993 91.5968 77.5578 98.5557 70.4628 100.019C68.7912 100.316 67.0682 100.015 65.5966 99.1682C62.3822 101.747 59.014 104.129 55.5106 106.299C55.5106 106.299 62.1463 125.202 86.8531 114.517L106.505 105.993L102.2 116.321C102.319 122.225 102.353 129.966 101.962 135.126C106.576 136.531 111.496 136.578 116.136 135.261C117.99 122.671 119.402 102.798 114.604 95.2943L138.085 95.0731C141.043 89.744 140.783 86.7136 140.397 80.6394Z" fill="#24BBFF"/>
<g id="Vector_2">
<path id="Vector_3" d="M96.7708 73.3218L99.6292 60.7481C99.6924 60.4728 99.6436 60.1838 99.4937 59.9444C99.3437 59.7051 99.1048 59.5352 98.8295 59.472C98.5543 59.4089 98.2652 59.4576 98.0259 59.6076C97.7866 59.7575 97.6166 59.9964 97.5534 60.2717L94.1846 75.0913" fill="#24BBFF"/>
<path id="Vector_4" d="M96.7708 73.3218L99.6292 60.7481C99.6924 60.4728 99.6436 60.1838 99.4937 59.9444C99.3437 59.7051 99.1048 59.5352 98.8295 59.472C98.5543 59.4089 98.2652 59.4576 98.0259 59.6076C97.7866 59.7575 97.6166 59.9964 97.5534 60.2717L94.1846 75.0913C94.6081 76.654 95.7463 78.7495 96.7708 73.3218Z" fill="#24BBFF"/>
</g>
<path id="Vector_3_2" d="M94.5588 25.6809C94.5588 27.7909 93.9332 29.8535 92.7609 31.6078C91.5887 33.3622 89.9226 34.7295 87.9733 35.537C86.0239 36.3444 83.8789 36.5557 81.8095 36.144C79.7401 35.7324 77.8392 34.7164 76.3473 33.2244C74.8553 31.7325 73.8393 29.8316 73.4276 27.7622C73.016 25.6928 73.2273 23.5478 74.0347 21.5984C74.8422 19.6491 76.2095 17.983 77.9639 16.8107C79.7182 15.6385 81.7808 15.0128 83.8907 15.0128C86.7195 15.0147 89.4319 16.1393 91.4321 18.1396C93.4324 20.1398 94.5569 22.8522 94.5588 25.6809Z" fill="#24BBFF"/>
</g>
<g id="color 1">
<path id="Vector_4_2" d="M150.267 81.9821C148.31 86.6232 145.544 90.8804 142.1 94.5558C143.989 94.8451 145.877 95.2722 147.494 95.5256C149.177 94.7914 150.756 93.8365 152.188 92.686C156.665 89.0789 165.889 84.6041 167.909 82.052C164.251 81.5227 155.302 81.88 150.267 81.9821Z" fill="#1D2329"/>
<path id="Vector_5" d="M115.657 145.617C110.942 143.837 106.58 141.233 102.777 137.926C102.556 139.815 102.215 141.721 102.011 143.354C102.809 145.011 103.822 146.556 105.023 147.948C108.784 152.27 113.599 161.322 116.217 163.261C116.627 159.586 115.947 150.654 115.657 145.617Z" fill="#1D2329"/>
<path id="Vector_6" d="M57.2461 91.6808C56.9058 91.851 56.5485 92.0041 56.1912 92.1572C54.5225 90.1964 52.9545 88.152 51.4934 86.032C51.6465 86.3902 56.3425 96.547 64.1352 100.375C64.6456 99.9669 65.139 99.5756 65.5984 99.1842C62.6872 97.6019 59.6622 94.5393 57.2461 91.6808Z" fill="#1D2329"/>
<path id="Vector_7" d="M101.994 107.93C101.994 107.93 102.147 111.52 102.232 116.301L106.503 105.991L101.994 107.93Z" fill="#1D2329"/>
<path id="Vector_8" d="M56.1741 47.0345C56.1741 47.0345 53.1948 41.4529 46.1866 44.8567C39.1784 48.2605 40.5378 61.9392 40.5378 61.9392C40.5378 61.9392 34.3096 64.9168 30.9918 69.9361C25.8534 77.7117 28.4405 89.4517 44.4189 89.4517C43.6572 86.1001 43.3935 82.6545 43.6362 79.226C44.0616 73.1858 46.2565 67.6561 48.1961 61.9903C50.6695 54.666 50.1385 55.2516 51.0035 52.5643C48.9439 50.6076 51.3948 48.2596 52.5008 50.1643C52.9691 50.9344 53.0811 50.9649 53.4554 51.0822C55.4828 51.7171 59.1615 52.4254 61.1567 51.7646C61.1594 51.7126 61.3295 47.0345 56.1741 47.0345Z" fill="#1D2329"/>
<path id="Vector_9" d="M52.397 64.3548L50.5764 59.7949C51.1836 60.6089 51.8991 61.3352 52.7032 61.9558C52.5537 62.7487 52.4515 63.5498 52.397 64.3548Z" fill="#1D2329"/>
<path id="Vector_10" d="M76.4725 141.618C76.5902 142.194 76.5346 142.791 76.3128 143.335C76.0911 143.879 75.713 144.345 75.2265 144.673C74.74 145.002 74.1669 145.18 73.5796 145.183C72.9923 145.186 72.4173 145.015 71.9272 144.692C71.4371 144.368 71.0539 143.906 70.8262 143.365C70.5984 142.824 70.5363 142.227 70.6476 141.651C70.759 141.074 71.0388 140.543 71.4517 140.126C71.8647 139.708 72.3921 139.422 72.9675 139.304C73.3497 139.223 73.7442 139.219 74.1279 139.293C74.5117 139.366 74.877 139.515 75.2026 139.731C75.5287 139.946 75.8088 140.223 76.0268 140.547C76.2448 140.871 76.3963 141.235 76.4725 141.618Z" fill="#1D2329"/>
</g>
<g id="outlines">
<path id="Vector_11" d="M94.5588 25.681C94.5588 27.7909 93.9332 29.8535 92.7609 31.6078C91.5887 33.3622 89.9226 34.7296 87.9733 35.537C86.0239 36.3444 83.8789 36.5557 81.8095 36.1441C79.7401 35.7324 77.8392 34.7164 76.3473 33.2244C74.8553 31.7325 73.8393 29.8316 73.4276 27.7622C73.016 25.6928 73.2273 23.5478 74.0347 21.5985C74.8422 19.6491 76.2095 17.983 77.9639 16.8108C79.7182 15.6386 81.7808 15.0129 83.8908 15.0129C86.7195 15.0148 89.4319 16.1393 91.4321 18.1396C93.4324 20.1398 94.5569 22.8522 94.5588 25.681Z" stroke="#1D2329" stroke-width="0.9"/>
<path id="Vector_12" d="M117.886 114.141L126.682 118.582C128.488 119.49 130.58 119.646 132.5 119.014C134.421 118.383 136.012 117.016 136.926 115.213L146.998 95.2717" stroke="#1D2329" stroke-width="0.9" stroke-linecap="round" stroke-linejoin="round"/>
<path id="Vector_13" d="M153.379 82.647L159.589 70.3625C160.498 68.557 160.653 66.4649 160.022 64.5448C159.39 62.6247 158.023 61.0334 156.22 60.1198L94.0626 28.7164M58.8282 69.5834L76.8618 33.861" stroke="#1D2329" stroke-width="0.9" stroke-linecap="round" stroke-linejoin="round"/>
<path id="Vector_14" d="M159.878 64.066L107.966 72.4371L88.7775 35.1709" stroke="#1D2329" stroke-width="0.9" stroke-linecap="round" stroke-linejoin="round"/>
<path id="Vector_15" d="M79.5225 116.982C73.6891 123.396 66.0472 127.891 57.6061 129.872C49.1649 131.852 40.3215 131.226 32.2437 128.075C26.8814 125.984 21.9951 122.835 17.8761 118.814C13.7572 114.794 10.49 109.986 8.26937 104.676C4.92504 96.6765 4.08517 87.8511 5.86062 79.3646C7.63607 70.8781 11.9434 63.1296 18.2139 57.1418" stroke="#1D2329" stroke-width="0.9" stroke-linecap="round" stroke-linejoin="round"/>
<path id="Vector_16" d="M52.397 65.7683C52.3496 64.4788 52.4588 63.1884 52.723 61.9248C54.797 63.3119 56.5109 62.4496 57.7691 60.655C59.3829 58.0431 60.2114 55.0222 60.1556 51.9525" stroke="#1D2329" stroke-width="0.9" stroke-linecap="round" stroke-linejoin="round"/>
<path id="Vector_17" d="M51.4933 86.0324C52.9539 88.1524 54.5212 90.1968 56.1893 92.1576C58.8706 91.0337 61.3406 89.4607 63.493 87.5064C65.0876 86.0589 66.5183 84.4406 67.7592 82.6805C64.8233 78.8416 62.1028 74.8428 59.6102 70.7023C58.396 68.683 56.5738 67.1 54.4046 66.18C53.4742 65.8185 52.4695 65.69 51.4781 65.8057C50.7419 65.9989 49.9705 66.016 49.2264 65.8558C48.4824 65.6955 47.7864 65.3624 47.1949 64.8834" stroke="#1D2329" stroke-width="0.9" stroke-linecap="round" stroke-linejoin="round"/>
<path id="Vector_18" d="M140.533 81.9652C142.847 82.0503 147.441 82.0332 150.248 81.9822C148.296 86.6219 145.537 90.879 142.099 94.5559C141.231 94.4198 139.394 94.2326 138.56 94.1816" stroke="#1D2329" stroke-width="0.9" stroke-linecap="round" stroke-linejoin="round"/>
<path id="Vector_19" d="M167.908 82.0513C168.878 82.1874 169.502 82.4095 169.576 82.7149C170.047 84.6474 159.933 89.3416 155.386 93.0087C154.063 94.0888 152.583 94.9609 150.998 95.5949C149.841 95.8075 148.653 95.7843 147.505 95.5268C149.192 94.7944 150.772 93.8394 152.205 92.6872C156.67 89.0873 165.885 84.6205 167.908 82.0513Z" stroke="#1D2329" stroke-width="0.9" stroke-linecap="round" stroke-linejoin="round"/>
<path id="Vector_20" d="M150.267 81.9825C155.303 81.8804 164.253 81.5231 167.908 82.0505C165.884 84.6027 156.665 89.082 152.187 92.6846C150.755 93.837 149.176 94.7926 147.491 95.526C145.875 95.2708 143.986 94.8454 142.097 94.5562C145.542 90.8809 148.308 86.6237 150.267 81.9825Z" stroke="#1D2329" stroke-width="0.9" stroke-linecap="round" stroke-linejoin="round"/>
<path id="Vector_21" d="M115.452 135.46C115.299 138.012 115.452 141.772 115.657 145.634C110.949 143.851 106.594 141.247 102.794 137.944C102.896 137.076 102.964 136.208 102.981 135.392" stroke="#1D2329" stroke-width="0.9" stroke-linecap="round" stroke-linejoin="round"/>
<path id="Vector_22" d="M116.218 163.261C116.116 164.246 115.931 164.864 115.623 164.962C113.725 165.567 108.644 155.555 104.819 151.147C103.685 149.861 102.755 148.41 102.062 146.842C101.813 145.693 101.796 144.506 102.011 143.35C102.806 145.008 103.819 146.553 105.023 147.943C108.784 152.284 113.598 161.321 116.218 163.261Z" stroke="#1D2329" stroke-width="0.9" stroke-linecap="round" stroke-linejoin="round"/>
<path id="Vector_23" d="M115.657 145.618C115.946 150.655 116.627 159.588 116.218 163.26C113.598 161.32 108.771 152.278 105.025 147.947C103.822 146.555 102.809 145.01 102.013 143.353C102.217 141.719 102.558 139.813 102.779 137.924C106.581 141.232 110.942 143.837 115.657 145.618Z" stroke="#1D2329" stroke-width="0.9" stroke-linecap="round" stroke-linejoin="round"/>
<path id="Vector_24" d="M64.1369 100.375C56.3442 96.5469 51.6482 86.3893 51.4933 86.032" stroke="#1D2329" stroke-width="0.9" stroke-linecap="round" stroke-linejoin="round"/>
<path id="Vector_25" d="M57.2461 91.681C59.6639 94.5394 62.6925 97.6164 65.6011 99.2032C67.0763 100.039 68.797 100.334 70.4664 100.037C77.5677 98.6041 91.0029 91.6147 94.5078 87.8715C100.855 81.0926 100.334 75.9283 99.7823 67.301C99.5585 63.796 99.1179 63.8802 98.5913 65.51C97.8078 67.9422 96.8191 73.8382 96.0051 76.1611C95.929 76.3948 95.7723 76.5936 95.5628 76.7226C94.9359 77.0808 94.541 76.2972 94.2195 75.1913C93.8783 74.0173 93.6347 72.4537 93.3177 71.5197C92.7616 69.8729 91.627 68.372 91.4461 73.2041C91.3405 76.0456 91.3333 80.9395 88.2474 82.7323C85.8457 84.1009 83.343 85.284 80.761 86.2713C78.0906 87.3171 75.2931 88.0037 72.4418 88.313C70.8926 88.3954 68.8168 86.6286 66.8432 83.8893" stroke="#1D2329" stroke-width="0.9" stroke-linecap="round" stroke-linejoin="round"/>
<path id="Vector_26" d="M96.7708 73.3219L99.6292 60.7481C99.6924 60.4729 99.6436 60.1838 99.4937 59.9445C99.3437 59.7052 99.1048 59.5352 98.8295 59.4721C98.5543 59.4089 98.2652 59.4576 98.0259 59.6076C97.7866 59.7576 97.6166 59.9965 97.5534 60.2717L94.1846 75.0914" stroke="#1D2329" stroke-width="0.9" stroke-linecap="round" stroke-linejoin="round"/>
<path id="Vector_27" d="M102 107.946C104.654 106.806 106.507 105.991 106.507 105.991L102.232 116.301" stroke="#1D2329" stroke-width="0.9" stroke-linecap="round" stroke-linejoin="round"/>
<path id="Vector_28" d="M65.6001 99.2018C62.3862 101.773 59.0166 104.143 55.5105 106.299C49.7942 102.309 45.8247 96.2801 44.4188 89.4525" stroke="#1D2329" stroke-width="0.9" stroke-linecap="round" stroke-linejoin="round"/>
<path id="Vector_29" d="M98.064 82.9702L106.044 79.5843C108.02 78.7493 110.165 78.3936 112.305 78.5464L140.397 80.6392C141.029 86.5181 140.954 89.8995 138.083 95.0675L114.636 95.2887" stroke="#1D2329" stroke-width="0.9" stroke-linecap="round" stroke-linejoin="round"/>
<path id="Vector_30" d="M56.1741 47.0345C56.1741 47.0345 53.1948 41.4529 46.1866 44.8567C39.1784 48.2605 40.5378 61.9392 40.5378 61.9392C40.5378 61.9392 34.3096 64.9168 30.9918 69.9361C25.8534 77.7117 28.4405 89.4517 44.4189 89.4517C43.6572 86.1001 43.3935 82.6545 43.6362 79.226C44.0616 73.1858 46.2565 67.6561 48.1961 61.9903C48.6385 60.6802 49.6934 57.4814 50.0507 56.1534C50.374 54.9123 50.5271 54.0436 51.0035 52.5643C48.9439 50.6076 51.3948 48.2596 52.5008 50.1643C52.9888 50.9703 53.0838 50.9237 53.6184 51.1001C54.9419 51.5353 58.5078 52.5231 61.1612 51.727C61.1594 51.7296 61.3295 47.0345 56.1741 47.0345Z" stroke="#1D2329" stroke-width="0.9" stroke-linecap="round" stroke-linejoin="round"/>
<path id="Vector_31" d="M22.5866 49.9602C16.5547 52.8697 10.8796 56.467 5.67415 60.6803C5.52764 60.7714 5.40543 60.8967 5.318 61.0454C5.23056 61.1942 5.18052 61.3619 5.17215 61.5342C5.16379 61.7065 5.19735 61.8783 5.26997 62.0348C5.34259 62.1913 5.45209 62.3279 5.58908 62.4328L9.46838 65.5124C11.8191 62.4292 15.0062 59.8233 18.2085 57.1314C15.7437 60.32 13.5849 63.7338 11.7609 67.3276L15.9348 70.6338C16.0694 70.7408 16.2279 70.814 16.3967 70.8471C16.5655 70.8802 16.7398 70.8722 16.9049 70.8238C17.0701 70.7755 17.2211 70.6881 17.3454 70.5692C17.4697 70.4502 17.5636 70.3032 17.6192 70.1403L24.1859 51.2247C24.2626 51.0126 24.2707 50.7818 24.2089 50.5649C24.1472 50.348 24.0188 50.156 23.8419 50.0162C23.665 49.8763 23.4485 49.7956 23.2232 49.7856C22.9979 49.7756 22.7752 49.8367 22.5866 49.9602Z" stroke="#1D2329" stroke-width="0.9" stroke-linecap="round" stroke-linejoin="round"/>
<path id="Vector_32" d="M137.947 17.5317C134.561 15.8464 130.767 18.2481 131.311 21.7854L129.729 23.2477L131.907 23.4179C133.829 26.6676 138.712 26.8046 140.312 23.605C140.801 22.4857 140.827 21.2182 140.383 20.08C139.94 18.9417 139.064 18.0255 137.947 17.5317Z" stroke="#1D2329" stroke-width="0.9" stroke-linecap="round" stroke-linejoin="round"/>
<path id="Vector_33" d="M158.092 115.842C157.054 115.305 155.845 115.202 154.731 115.556C154.18 115.731 153.668 116.013 153.226 116.386C152.784 116.76 152.419 117.217 152.154 117.731C152.154 117.731 149.278 123.347 146.862 123.175L158.875 129.386C157.326 127.514 159.981 121.781 159.981 121.781C160.247 121.267 160.41 120.706 160.459 120.129C160.508 119.553 160.443 118.972 160.267 118.42C160.092 117.869 159.81 117.357 159.436 116.915C159.063 116.472 158.606 116.108 158.092 115.842Z" stroke="#1D2329" stroke-width="0.9" stroke-linecap="round" stroke-linejoin="round"/>
<path id="Vector_34" d="M154.842 127.31C154.712 127.576 154.53 127.813 154.307 128.008C154.084 128.202 153.824 128.351 153.543 128.443C153.262 128.536 152.965 128.572 152.67 128.549C152.375 128.525 152.087 128.443 151.824 128.307C151.561 128.171 151.328 127.984 151.139 127.757C150.949 127.529 150.807 127.266 150.72 126.983C150.634 126.7 150.604 126.403 150.634 126.108C150.664 125.813 150.753 125.528 150.895 125.268" stroke="#1D2329" stroke-width="0.9" stroke-linecap="round" stroke-linejoin="round"/>
<path id="Vector_35" d="M171.193 50.8464L168.011 61.8038" stroke="#1D2329" stroke-width="0.9" stroke-linecap="round" stroke-linejoin="round"/>
<path id="Vector_36" d="M175.072 57.9065L164.115 54.7248" stroke="#1D2329" stroke-width="0.9" stroke-linecap="round" stroke-linejoin="round"/>
<path id="Vector_37" d="M102.25 129.505C107.083 130.3 112.006 130.391 116.865 129.774" stroke="#1D2329" stroke-width="0.9" stroke-linecap="round" stroke-linejoin="round"/>
<path id="Vector_38" d="M133.897 80.1964C134.664 85.3007 133.838 90.5173 131.532 95.1352" stroke="#1D2329" stroke-width="0.9" stroke-linecap="round" stroke-linejoin="round"/>
<path id="Vector_39" d="M76.4725 141.62C76.5902 142.196 76.5346 142.793 76.3128 143.337C76.0911 143.881 75.713 144.346 75.2265 144.675C74.74 145.004 74.1669 145.182 73.5796 145.185C72.9923 145.188 72.4173 145.017 71.9272 144.694C71.4371 144.37 71.0539 143.908 70.8262 143.367C70.5984 142.826 70.5363 142.229 70.6476 141.652C70.759 141.076 71.0388 140.545 71.4517 140.128C71.8647 139.71 72.3921 139.424 72.9675 139.306C73.3497 139.225 73.7442 139.221 74.1279 139.295C74.5117 139.368 74.877 139.517 75.2026 139.733C75.5288 139.948 75.8089 140.225 76.0269 140.549C76.2449 140.873 76.3964 141.237 76.4725 141.62Z" stroke="#1D2329" stroke-width="0.9" stroke-linecap="round" stroke-linejoin="round"/>
<path id="Vector_40" d="M75.1283 132.312C76.2688 131.245 77.7002 130.54 79.2414 130.287C80.7825 130.034 82.3642 130.243 83.786 130.89C85.2083 131.535 86.4073 132.588 87.2311 133.915C88.055 135.242 88.4668 136.783 88.4145 138.344C88.3622 139.905 87.848 141.416 86.9371 142.684C86.0262 143.953 84.7594 144.923 83.2971 145.472C81.835 146.021 80.2431 146.124 78.7225 145.768C77.202 145.412 75.821 144.614 74.754 143.473C73.3244 141.943 72.5607 139.908 72.6309 137.815C72.7011 135.722 73.5994 133.743 75.1283 132.312Z" stroke="#1D2329" stroke-width="0.9" stroke-linecap="round" stroke-linejoin="round"/>
<path id="Vector_41" d="M55.5106 106.298C55.5106 106.298 62.1463 125.201 86.8531 114.516L102 107.946C102.188 115.094 102.583 127.191 101.982 135.12C106.595 136.525 111.515 136.572 116.155 135.256C118.009 122.664 119.443 102.789 114.64 95.2882C108.419 85.5693 89.2889 91.8002 89.2889 91.8002" stroke="#1D2329" stroke-width="0.9" stroke-linecap="round" stroke-linejoin="round"/>
<path id="Vector_42" d="M52.7228 61.924C51.903 61.3396 51.1827 60.6269 50.5897 59.8133L52.3968 64.3552" stroke="#1D2329" stroke-width="0.9" stroke-linecap="round" stroke-linejoin="round"/>
</g>
</g>
</g>
</svg>
