<svg width="248" height="248" viewBox="0 0 248 248" fill="none" xmlns="http://www.w3.org/2000/svg">
<g id="Start-Up-Team--Streamline-Bangalore 2">
<g id="start-up-team--work-start-up-team">
<g id="rocket 2">
<path id="Vector" d="M184.84 160.649C179.85 167.479 177.429 175.852 178.006 184.292C186.444 183.694 194.401 180.137 200.475 174.248L184.84 160.649Z" fill="#F0F2F4"/>
<path id="Vector_2" d="M184.84 160.649C179.85 167.479 177.429 175.852 178.006 184.292C186.444 183.694 194.401 180.137 200.475 174.248L184.84 160.649Z" stroke="#F0F2F4" stroke-width="1.58654" stroke-linecap="round" stroke-linejoin="round"/>
<path id="Vector_3" d="M177.219 154.019L215.944 187.698C233.28 167.767 242.753 141.319 241.124 112.398C221.897 113.876 203.433 120.549 187.703 131.703" stroke="#F0F2F4" stroke-width="1.58654" stroke-linecap="round" stroke-linejoin="round"/>
<path id="Vector_4" d="M212.783 152.949C213.828 152.949 214.862 152.743 215.827 152.344C216.792 151.944 217.669 151.358 218.407 150.62C219.146 149.881 219.732 149.004 220.131 148.039C220.531 147.074 220.737 146.04 220.736 144.996C220.736 143.422 220.27 141.885 219.396 140.577C218.522 139.269 217.28 138.25 215.827 137.648C214.373 137.046 212.774 136.888 211.231 137.195C209.689 137.502 208.271 138.259 207.159 139.372C206.047 140.484 205.289 141.901 204.982 143.444C204.676 144.987 204.833 146.586 205.435 148.039C206.037 149.492 207.056 150.735 208.364 151.609C209.672 152.482 211.21 152.949 212.783 152.949Z" stroke="#F0F2F4" stroke-width="1.58654" stroke-linecap="round" stroke-linejoin="round"/>
</g>
<g id="rocket 3">
<path id="Vector_5" d="M104.247 53.4686C101.409 56.761 99.9861 61.0408 100.287 65.3771C104.623 65.0749 108.663 63.0736 111.531 59.8083L104.247 53.4686Z" fill="#F0F2F4"/>
<path id="Vector_6" d="M104.247 53.4686C101.409 56.761 99.9861 61.0408 100.287 65.3771C104.623 65.0749 108.663 63.0736 111.531 59.8083L104.247 53.4686Z" stroke="#F0F2F4" stroke-width="1.58654" stroke-linecap="round" stroke-linejoin="round"/>
<path id="Vector_7" d="M128.361 47.5583C129.844 42.2275 130.435 36.6878 130.109 31.1639C117.471 32.0859 105.703 37.9422 97.3467 47.468L118.508 65.8709C121.304 62.6549 123.652 59.0748 125.486 55.2284C124.852 55.1521 124.243 54.9327 123.706 54.5867C123.169 54.2408 122.718 53.7774 122.386 53.2314C122.054 52.6855 121.851 52.0713 121.791 51.4353C121.731 50.7992 121.817 50.1579 122.041 49.5598C122.266 48.9616 122.623 48.4223 123.086 47.9825C123.55 47.5426 124.107 47.2138 124.716 47.0208C125.325 46.8278 125.97 46.7757 126.602 46.8684C127.234 46.9611 127.837 47.1961 128.365 47.5559L128.361 47.5583Z" fill="#F0F2F4"/>
<path id="Vector_8" d="M130.109 31.1639C117.471 32.0859 105.703 37.9422 97.3467 47.468L118.508 65.8709C126.778 56.2716 130.945 43.8069 130.109 31.1639Z" stroke="#F0F2F4" stroke-width="1.58654" stroke-linecap="round" stroke-linejoin="round"/>
<path id="Vector_9" d="M122.81 48.271C122.309 48.8488 121.975 49.5519 121.843 50.305C121.711 51.0581 121.786 51.8329 122.061 52.5465C122.335 53.2601 122.799 53.8855 123.402 54.3559C124.004 54.8264 124.724 55.124 125.483 55.2171C126.659 52.752 127.622 50.1904 128.361 47.5607C127.51 46.9777 126.474 46.728 125.45 46.859C124.427 46.99 123.487 47.4925 122.81 48.271Z" stroke="#F0F2F4" stroke-width="1.58654" stroke-linecap="round" stroke-linejoin="round"/>
</g>
<g id="cog">
<path id="Vector_10" d="M187.605 210.437C186.832 208.473 185.734 206.654 184.356 205.055C185.14 204.239 185.632 203.188 185.758 202.064C185.883 200.94 185.634 199.806 185.049 198.838C184.661 198.196 184.136 197.647 183.512 197.229C182.888 196.812 182.18 196.537 181.438 196.424C180.696 196.31 179.938 196.36 179.218 196.572C178.497 196.783 177.832 197.15 177.269 197.646C176.706 198.142 176.259 198.755 175.959 199.443C172.349 198.25 168.463 198.174 164.81 199.225C164.515 198.554 164.079 197.954 163.533 197.466C162.986 196.978 162.341 196.613 161.641 196.396C160.941 196.18 160.203 196.115 159.476 196.207C158.75 196.299 158.051 196.545 157.427 196.928C156.803 197.312 156.268 197.825 155.859 198.433C155.451 199.042 155.177 199.731 155.059 200.454C154.938 201.177 154.974 201.917 155.164 202.625C155.355 203.332 155.695 203.991 156.161 204.556C153.611 207.317 151.942 210.776 151.368 214.491C150.634 214.476 149.906 214.618 149.232 214.908C148.558 215.199 147.954 215.631 147.461 216.174C146.968 216.718 146.598 217.362 146.375 218.061C146.152 218.76 146.081 219.499 146.168 220.228C146.255 220.957 146.497 221.658 146.877 222.286C147.45 223.233 148.314 223.968 149.34 224.383C150.366 224.797 151.499 224.868 152.569 224.585C153.373 226.541 154.503 228.346 155.91 229.925C155.291 230.618 154.871 231.466 154.695 232.378C154.52 233.291 154.595 234.234 154.914 235.107C155.232 235.98 155.781 236.75 156.503 237.336C157.224 237.921 158.091 238.3 159.011 238.432C159.746 238.535 160.495 238.478 161.205 238.265C161.916 238.052 162.573 237.687 163.13 237.197C163.685 236.705 164.128 236.099 164.428 235.419C167.95 236.518 171.717 236.56 175.262 235.543C175.557 236.214 175.993 236.814 176.539 237.302C177.086 237.79 177.731 238.155 178.431 238.372C179.131 238.589 179.869 238.653 180.596 238.561C181.323 238.47 182.022 238.224 182.646 237.84C183.27 237.455 183.804 236.942 184.212 236.334C184.621 235.725 184.894 235.037 185.014 234.314C185.134 233.591 185.097 232.851 184.907 232.143C184.717 231.436 184.377 230.777 183.911 230.212C186.395 227.523 188.045 224.169 188.658 220.56C189.388 220.58 190.114 220.444 190.788 220.161C191.462 219.878 192.067 219.455 192.565 218.92C193.314 218.113 193.784 217.085 193.904 215.99C194.024 214.895 193.788 213.791 193.232 212.84C192.675 211.89 191.828 211.144 190.815 210.713C189.802 210.281 188.677 210.186 187.606 210.442L187.605 210.437Z" stroke="#F0F2F4" stroke-width="1.58654" stroke-linecap="round" stroke-linejoin="round"/>
<path id="Vector_11" d="M169.935 227.305C172.61 227.305 175.176 226.243 177.067 224.351C178.959 222.46 180.021 219.894 180.021 217.22C180.021 214.545 178.959 211.979 177.067 210.088C175.176 208.197 172.61 207.134 169.935 207.134C167.261 207.134 164.695 208.197 162.804 210.088C160.912 211.979 159.85 214.545 159.85 217.22C159.85 219.894 160.912 222.46 162.804 224.351C164.695 226.243 167.261 227.305 169.935 227.305Z" stroke="#F0F2F4" stroke-width="1.58654" stroke-linecap="round" stroke-linejoin="round"/>
</g>
<g id="rocket 1">
<g id="Group">
<path id="Vector_12" d="M85.9246 126.697L67.8447 140.807L127.701 192.871L140.194 173.9L85.9246 126.697Z" fill="#24BBFF"/>
<path id="Vector_13" d="M85.9246 126.697L67.8447 140.807L127.701 192.871L140.194 173.9L85.9246 126.697Z" stroke="#F0F2F4" stroke-width="1.58654" stroke-linecap="round" stroke-linejoin="round"/>
<g id="Group_2">
<path id="Vector_14" d="M97.8118 166.872L113.084 150.32" stroke="#F0F2F4" stroke-width="1.58654" stroke-linecap="round" stroke-linejoin="round"/>
<path id="Vector_15" d="M93.0833 162.758L108.49 146.324" stroke="#F0F2F4" stroke-width="1.58654" stroke-linecap="round" stroke-linejoin="round"/>
<path id="Vector_16" d="M88.5715 158.834L103.845 142.284" stroke="#F0F2F4" stroke-width="1.58654" stroke-linecap="round" stroke-linejoin="round"/>
<path id="Vector_17" d="M84.1326 154.841L99.3377 138.364" stroke="#F0F2F4" stroke-width="1.58654" stroke-linecap="round" stroke-linejoin="round"/>
<path id="Vector_18" d="M78.5808 150.145L94.4864 134.145" stroke="#F0F2F4" stroke-width="1.58654" stroke-linecap="round" stroke-linejoin="round"/>
<path id="Vector_19" d="M73.48 145.708L89.6628 129.949" stroke="#F0F2F4" stroke-width="1.58654" stroke-linecap="round" stroke-linejoin="round"/>
<path id="Vector_20" d="M122.11 188.007L136.638 170.808" stroke="#F0F2F4" stroke-width="1.58654" stroke-linecap="round" stroke-linejoin="round"/>
<path id="Vector_21" d="M117.272 183.8L131.871 166.661" stroke="#F0F2F4" stroke-width="1.58654" stroke-linecap="round" stroke-linejoin="round"/>
<path id="Vector_22" d="M111.965 179.086L127.091 162.503" stroke="#F0F2F4" stroke-width="1.58654" stroke-linecap="round" stroke-linejoin="round"/>
<path id="Vector_23" d="M107.213 175L122.497 158.508" stroke="#F0F2F4" stroke-width="1.58654" stroke-linecap="round" stroke-linejoin="round"/>
<path id="Vector_24" d="M102.679 171.102L117.853 154.469" stroke="#F0F2F4" stroke-width="1.58654" stroke-linecap="round" stroke-linejoin="round"/>
</g>
</g>
<path id="Vector_25" d="M200.885 68.5698C201.166 61.4728 201.064 55.1826 200.689 48.5223C194.064 49.0718 187.807 49.844 180.803 51.1087L200.885 68.5698Z" fill="#24BBFF"/>
<path id="Vector_26" d="M200.885 68.5698C201.166 61.4728 201.064 55.1826 200.689 48.5223C194.064 49.0718 187.807 49.844 180.803 51.1087L200.885 68.5698Z" stroke="#F0F2F4" stroke-width="1.58654" stroke-linecap="round" stroke-linejoin="round"/>
<path id="Vector_27" d="M180.799 51.1088C138.025 58.6677 99.115 80.6089 70.5127 113.299L154.574 186.416C182.985 153.559 199.323 111.984 200.881 68.5748L180.799 51.1088Z" stroke="#F0F2F4" stroke-width="1.58654" stroke-linecap="round" stroke-linejoin="round"/>
<path id="Vector_28" d="M83.3011 154.251C69.0699 170.612 59.4842 191.21 57.7542 212.85C78.9674 208.11 97.9729 195.829 112.245 179.429L83.3011 154.251Z" stroke="#F0F2F4" stroke-width="1.58654" stroke-linecap="round" stroke-linejoin="round"/>
<path id="Vector_29" d="M91.924 161.751C87.3376 167.066 85.0222 173.969 85.4766 180.974C92.4774 180.453 98.9936 177.204 103.622 171.926L91.924 161.751Z" fill="#F0F2F4"/>
<path id="Vector_30" d="M91.924 161.751C87.3376 167.066 85.0222 173.969 85.4766 180.974C92.4774 180.453 98.9936 177.204 103.622 171.926L91.924 161.751Z" stroke="#F0F2F4" stroke-width="1.58654" stroke-linecap="round" stroke-linejoin="round"/>
<path id="Vector_31" d="M160.032 96.4258C157.94 94.5773 155.503 93.1612 152.861 92.2592C150.219 91.3572 147.425 90.9871 144.639 91.1702C141.854 91.3533 139.132 92.0861 136.631 93.3262C134.13 94.5663 131.899 96.2893 130.067 98.3958C128.235 100.502 126.838 102.95 125.957 105.599C125.076 108.248 124.728 111.045 124.933 113.83C125.138 116.614 125.892 119.33 127.152 121.821C128.411 124.312 130.152 126.529 132.273 128.345C136.512 131.974 142.015 133.78 147.58 133.37C153.146 132.96 158.324 130.367 161.987 126.156C165.649 121.945 167.499 116.457 167.133 110.888C166.767 105.32 164.214 100.121 160.032 96.4258Z" stroke="#F0F2F4" stroke-width="1.58654" stroke-linecap="round" stroke-linejoin="round"/>
<path id="Vector_32" d="M157.643 99.1731C155.908 97.6642 153.893 96.5118 151.713 95.7816C149.533 95.0514 147.23 94.7578 144.936 94.9175C142.643 95.0773 140.403 95.6872 138.345 96.7125C136.287 97.7378 134.451 99.1584 132.942 100.893C131.433 102.628 130.281 104.643 129.551 106.823C128.821 109.003 128.527 111.306 128.687 113.6C128.847 115.893 129.456 118.133 130.482 120.191C131.507 122.249 132.928 124.085 134.663 125.594C138.166 128.641 142.737 130.172 147.369 129.849C152.001 129.527 156.316 127.377 159.363 123.874C162.41 120.37 163.941 115.799 163.619 111.167C163.296 106.535 161.147 102.221 157.643 99.1731ZM137.931 113.63C137.632 113.985 137.265 114.278 136.851 114.49C136.438 114.703 135.986 114.831 135.523 114.867C135.059 114.903 134.593 114.847 134.152 114.701C133.711 114.555 133.303 114.323 132.952 114.018C132.601 113.713 132.315 113.341 132.109 112.924C131.904 112.507 131.783 112.054 131.755 111.59C131.726 111.126 131.791 110.661 131.944 110.222C132.097 109.783 132.336 109.379 132.647 109.034C133.261 108.35 134.119 107.936 135.036 107.88C135.953 107.824 136.856 108.13 137.549 108.733C138.242 109.336 138.67 110.187 138.742 111.103C138.813 112.019 138.522 112.926 137.931 113.63Z" fill="#F0F2F4"/>
<path id="Vector_33" d="M157.643 99.1731C155.908 97.6642 153.893 96.5118 151.713 95.7816C149.533 95.0514 147.23 94.7578 144.936 94.9175C142.643 95.0773 140.403 95.6872 138.345 96.7125C136.287 97.7378 134.451 99.1584 132.942 100.893C131.433 102.628 130.281 104.643 129.551 106.823C128.821 109.003 128.527 111.306 128.687 113.6C128.847 115.893 129.456 118.133 130.482 120.191C131.507 122.249 132.928 124.085 134.663 125.594C138.166 128.641 142.737 130.172 147.369 129.849C152.001 129.527 156.316 127.377 159.363 123.874C162.41 120.37 163.941 115.799 163.619 111.167C163.296 106.535 161.147 102.221 157.643 99.1731Z" stroke="#F0F2F4" stroke-width="1.58654" stroke-linecap="round" stroke-linejoin="round"/>
<path id="Vector_34" d="M137.586 108.69C137.064 108.234 136.418 107.944 135.731 107.856C135.043 107.768 134.345 107.886 133.725 108.195C133.104 108.504 132.59 108.99 132.246 109.592C131.902 110.194 131.745 110.884 131.794 111.575C131.843 112.266 132.095 112.927 132.519 113.475C132.943 114.023 133.519 114.432 134.176 114.653C134.944 114.911 135.778 114.894 136.535 114.605C137.293 114.317 137.926 113.774 138.329 113.071C138.731 112.368 138.877 111.546 138.741 110.747C138.606 109.949 138.198 109.221 137.586 108.69Z" stroke="#F0F2F4" stroke-width="1.58654" stroke-linecap="round" stroke-linejoin="round"/>
</g>
<g id="effect">
<path id="Vector_35" d="M37.6792 216.634L14.8894 237.979" stroke="#F0F2F4" stroke-width="1.58654" stroke-linecap="round" stroke-linejoin="round"/>
<path id="Vector_36" d="M61.9326 174.692L39.1428 196.037" stroke="#F0F2F4" stroke-width="1.58654" stroke-linecap="round" stroke-linejoin="round"/>
<path id="Vector_37" d="M111.458 196.037L88.6665 217.382" stroke="#F0F2F4" stroke-width="1.58654" stroke-linecap="round" stroke-linejoin="round"/>
<path id="Vector_38" d="M64.8806 216.634L42.0908 237.979" stroke="#F0F2F4" stroke-width="1.58654" stroke-linecap="round" stroke-linejoin="round"/>
</g>
<g id="light bulb">
<path id="Vector_39" d="M38.6841 91.9649C34.1024 92.2621 29.7318 93.9995 26.1966 96.9291C22.6614 99.8586 20.1424 103.83 18.9994 108.277C17.8564 112.724 18.1479 117.418 19.8323 121.689C21.5166 125.961 24.5077 129.59 28.3782 132.06C29.8233 132.958 31.0097 134.217 31.8206 135.713C32.6314 137.209 33.0388 138.89 33.0027 140.591H48.5358C48.5358 137.062 49.2028 133.924 52.5923 131.545C56.4887 128.82 59.386 124.895 60.8421 120.369C62.2981 115.842 62.2327 110.964 60.6559 106.478C59.0797 101.993 56.079 98.1457 52.1117 95.5251C48.1444 92.9045 43.4286 91.6542 38.6841 91.9649Z" stroke="#F0F2F4" stroke-width="1.58654" stroke-linecap="round" stroke-linejoin="round"/>
<path id="Vector_40" d="M33.0027 140.592C33.0027 142.652 33.8209 144.628 35.2775 146.084C36.734 147.541 38.7094 148.359 40.7692 148.359C42.8291 148.359 44.8045 147.541 46.261 146.084C47.7175 144.628 48.5358 142.652 48.5358 140.592H33.0027Z" fill="#F0F2F4"/>
<path id="Vector_41" d="M33.0027 140.592C33.0027 142.652 33.8209 144.628 35.2775 146.084C36.734 147.541 38.7094 148.359 40.7692 148.359C42.8291 148.359 44.8045 147.541 46.261 146.084C47.7175 144.628 48.5358 142.652 48.5358 140.592H33.0027Z" stroke="#F0F2F4" stroke-width="1.58654" stroke-linecap="round" stroke-linejoin="round"/>
<g id="Group_3">
<path id="Vector_42" d="M38.7149 111.939C38.1279 113.321 37.8254 114.807 37.8254 116.308C37.8254 117.809 38.1279 119.294 38.7149 120.676C39.3019 119.295 39.6044 117.809 39.6044 116.308C39.6044 114.807 39.3019 113.321 38.7149 111.939Z" stroke="#F0F2F4" stroke-width="1.58654" stroke-linecap="round" stroke-linejoin="round"/>
<path id="Vector_43" d="M42.9795 111.939C42.3924 113.321 42.0898 114.807 42.0898 116.308C42.0898 117.809 42.3924 119.295 42.9795 120.676C43.5663 119.294 43.8687 117.809 43.8687 116.308C43.8687 114.807 43.5663 113.321 42.9795 111.939Z" stroke="#F0F2F4" stroke-width="1.58654" stroke-linecap="round" stroke-linejoin="round"/>
<path id="Vector_44" d="M42.962 140.592V128.039C42.962 122.508 47.2858 122.029 47.2858 116.308C47.2858 112.966 46.1312 110.142 44.9346 110.142C44.0262 110.142 43.5065 110.563 42.9768 111.939C42.3383 111.009 41.7542 110.248 40.8446 110.248C40.3703 110.313 39.9222 110.504 39.5471 110.802C39.172 111.099 38.8837 111.492 38.7124 111.939C37.1037 108.686 34.0099 110.151 34.4269 116.308C34.7858 121.67 38.7124 122.607 38.7124 128.039V140.592" stroke="#F0F2F4" stroke-width="1.58654" stroke-linecap="round" stroke-linejoin="round"/>
</g>
<path id="Vector_45" d="M68.7875 80.7012L57.7119 92.4265" stroke="#F0F2F4" stroke-width="1.58654" stroke-linecap="round" stroke-linejoin="round"/>
<path id="Vector_46" d="M49.6137 70.9583L45.4482 87.1485" stroke="#F0F2F4" stroke-width="1.58654" stroke-linecap="round" stroke-linejoin="round"/>
<path id="Vector_47" d="M26.2844 70.9645L31.1998 86.7018" stroke="#F0F2F4" stroke-width="1.58654" stroke-linecap="round" stroke-linejoin="round"/>
<path id="Vector_48" d="M6.18726 85.27L19.8653 94.3607" stroke="#F0F2F4" stroke-width="1.58654" stroke-linecap="round" stroke-linejoin="round"/>
</g>
<g id="elements">
<g id="Group_4">
<path id="Vector_49" d="M12.1609 187.895L21.3543 197.088" stroke="#F0F2F4" stroke-width="1.58654" stroke-linecap="round" stroke-linejoin="round"/>
<path id="Vector_50" d="M12.1609 197.088L21.3543 187.895" stroke="#F0F2F4" stroke-width="1.58654" stroke-linecap="round" stroke-linejoin="round"/>
</g>
<g id="Group_5">
<path id="Vector_51" d="M211.433 210.502L216.123 215.193" stroke="#F0F2F4" stroke-width="1.58654" stroke-linecap="round" stroke-linejoin="round"/>
<path id="Vector_52" d="M211.433 215.193L216.123 210.502" stroke="#F0F2F4" stroke-width="1.58654" stroke-linecap="round" stroke-linejoin="round"/>
</g>
<g id="Group_6">
<path id="Vector_53" d="M200.777 15.4006H213.778" stroke="#F0F2F4" stroke-width="1.58654" stroke-linecap="round" stroke-linejoin="round"/>
<path id="Vector_54" d="M207.278 21.9024V8.90002" stroke="#F0F2F4" stroke-width="1.58654" stroke-linecap="round" stroke-linejoin="round"/>
</g>
<g id="Group_7">
<path id="Vector_55" d="M217.191 67.2867H224.283" stroke="#F0F2F4" stroke-width="1.58654" stroke-linecap="round" stroke-linejoin="round"/>
<path id="Vector_56" d="M220.738 70.8333V63.7412" stroke="#F0F2F4" stroke-width="1.58654" stroke-linecap="round" stroke-linejoin="round"/>
</g>
</g>
</g>
</g>
</svg>
