<?xml version="1.0" encoding="utf-8"?>
<!-- Generator: Adobe Illustrator 16.0.0, SVG Export Plug-In . SVG Version: 6.00 Build 0)  -->
<!DOCTYPE svg PUBLIC "-//W3C//DTD SVG 1.1//EN" "http://www.w3.org/Graphics/SVG/1.1/DTD/svg11.dtd">
<svg version="1.1" id="Isolation_Mode" xmlns="http://www.w3.org/2000/svg" xmlns:xlink="http://www.w3.org/1999/xlink" x="0px"
	 y="0px" width="762px" height="496px" viewBox="0 0 762 496" enable-background="new 0 0 762 496" xml:space="preserve">
<g id="XMLID_158_">
	<g id="XMLID_64_">
		<defs>
			<filter id="Adobe_OpacityMaskFilter" filterUnits="userSpaceOnUse" x="375.159" y="114.89" width="266.813" height="266.813">
				<feFlood  style="flood-color:white;flood-opacity:1" result="back"/>
				<feBlend  in="SourceGraphic" in2="back" mode="normal"/>
			</filter>
		</defs>
		<mask maskUnits="userSpaceOnUse" x="375.159" y="114.89" width="266.813" height="266.813" id="XMLID_2_">
			<g id="XMLID_984_" filter="url(#Adobe_OpacityMaskFilter)">
				<defs>
					
						<filter id="Adobe_OpacityMaskFilter_1_" filterUnits="userSpaceOnUse" x="375.159" y="114.89" width="266.813" height="266.813">
						<feFlood  style="flood-color:white;flood-opacity:1" result="back"/>
						<feBlend  in="SourceGraphic" in2="back" mode="normal"/>
					</filter>
				</defs>
				<mask maskUnits="userSpaceOnUse" x="375.159" y="114.89" width="266.813" height="266.813" id="XMLID_2_">
					<g id="XMLID_1069_" filter="url(#Adobe_OpacityMaskFilter_1_)">
					</g>
				</mask>
				<linearGradient id="XMLID_3_" gradientUnits="userSpaceOnUse" x1="958.6113" y1="223.563" x2="348.5335" y2="257.0916">
					<stop  offset="0" style="stop-color:#000000"/>
					<stop  offset="0.9928" style="stop-color:#FFFFFF"/>
				</linearGradient>
				<path id="XMLID_986_" mask="url(#XMLID_2_)" fill="url(#XMLID_3_)" d="M508.565,381.703
					c-73.56,0-133.406-59.846-133.406-133.406c0-73.561,59.847-133.407,133.406-133.407c73.561,0,133.406,59.846,133.406,133.407
					C641.972,321.857,582.126,381.703,508.565,381.703z M508.565,115.619c-73.158,0-132.677,59.519-132.677,132.678
					c0,73.158,59.519,132.678,132.677,132.678c73.159,0,132.678-59.52,132.678-132.678
					C641.243,175.138,581.725,115.619,508.565,115.619z"/>
			</g>
		</mask>
		<linearGradient id="XMLID_4_" gradientUnits="userSpaceOnUse" x1="958.6113" y1="223.563" x2="348.5335" y2="257.0916">
			<stop  offset="0" style="stop-color:#D1FFFF"/>
			<stop  offset="0.9928" style="stop-color:#FFFFFF"/>
		</linearGradient>
		<path id="XMLID_65_" fill="url(#XMLID_4_)" d="M508.565,381.703c-73.56,0-133.406-59.846-133.406-133.406
			c0-73.561,59.847-133.407,133.406-133.407c73.561,0,133.406,59.846,133.406,133.407
			C641.972,321.857,582.126,381.703,508.565,381.703z M508.565,115.619c-73.158,0-132.677,59.519-132.677,132.678
			c0,73.158,59.519,132.678,132.677,132.678c73.159,0,132.678-59.52,132.678-132.678
			C641.243,175.138,581.725,115.619,508.565,115.619z"/>
	</g>
	<g id="XMLID_60_">
		<defs>
			<filter id="Adobe_OpacityMaskFilter_2_" filterUnits="userSpaceOnUse" x="319.123" y="74.16" width="348.273" height="348.273">
				<feFlood  style="flood-color:white;flood-opacity:1" result="back"/>
				<feBlend  in="SourceGraphic" in2="back" mode="normal"/>
			</filter>
		</defs>
		<mask maskUnits="userSpaceOnUse" x="319.123" y="74.16" width="348.273" height="348.273" id="XMLID_5_">
			<g id="XMLID_975_" filter="url(#Adobe_OpacityMaskFilter_2_)">
				<defs>
					
						<filter id="Adobe_OpacityMaskFilter_3_" filterUnits="userSpaceOnUse" x="319.123" y="74.16" width="348.273" height="348.273">
						<feFlood  style="flood-color:white;flood-opacity:1" result="back"/>
						<feBlend  in="SourceGraphic" in2="back" mode="normal"/>
					</filter>
				</defs>
				<mask maskUnits="userSpaceOnUse" x="319.123" y="74.16" width="348.273" height="348.273" id="XMLID_5_">
					<g id="XMLID_1063_" filter="url(#Adobe_OpacityMaskFilter_3_)">
					</g>
				</mask>
				<linearGradient id="XMLID_6_" gradientUnits="userSpaceOnUse" x1="958.5664" y1="222.7261" x2="348.4852" y2="256.2549">
					<stop  offset="0" style="stop-color:#000000"/>
					<stop  offset="0.9928" style="stop-color:#FFFFFF"/>
				</linearGradient>
				<path id="XMLID_977_" mask="url(#XMLID_5_)" fill="url(#XMLID_6_)" d="M493.259,422.434c-46.514,0-90.243-18.113-123.133-51.004
					c-32.89-32.891-51.003-76.619-51.003-123.133s18.113-90.244,51.003-123.134c32.89-32.89,76.62-51.003,123.133-51.003
					s90.243,18.113,123.133,51.003c32.891,32.89,51.004,76.62,51.004,123.134s-18.113,90.242-51.004,123.133
					C583.502,404.32,539.772,422.434,493.259,422.434z M493.259,74.889c-95.617,0-173.408,77.791-173.408,173.408
					c0,95.617,77.791,173.408,173.408,173.408s173.408-77.791,173.408-173.408C666.667,152.679,588.876,74.889,493.259,74.889z"/>
			</g>
		</mask>
		<linearGradient id="XMLID_7_" gradientUnits="userSpaceOnUse" x1="958.5664" y1="222.7261" x2="348.4852" y2="256.2549">
			<stop  offset="0" style="stop-color:#D1FFFF"/>
			<stop  offset="0.9928" style="stop-color:#FFFFFF"/>
		</linearGradient>
		<path id="XMLID_61_" fill="url(#XMLID_7_)" d="M493.259,422.434c-46.514,0-90.243-18.113-123.133-51.004
			c-32.89-32.891-51.003-76.619-51.003-123.133s18.113-90.244,51.003-123.134c32.89-32.89,76.62-51.003,123.133-51.003
			s90.243,18.113,123.133,51.003c32.891,32.89,51.004,76.62,51.004,123.134s-18.113,90.242-51.004,123.133
			C583.502,404.32,539.772,422.434,493.259,422.434z M493.259,74.889c-95.617,0-173.408,77.791-173.408,173.408
			c0,95.617,77.791,173.408,173.408,173.408s173.408-77.791,173.408-173.408C666.667,152.679,588.876,74.889,493.259,74.889z"/>
	</g>
	<g id="XMLID_54_">
		<defs>
			<filter id="Adobe_OpacityMaskFilter_4_" filterUnits="userSpaceOnUse" x="298.383" y="89.521" width="266.813" height="266.813">
				<feFlood  style="flood-color:white;flood-opacity:1" result="back"/>
				<feBlend  in="SourceGraphic" in2="back" mode="normal"/>
			</filter>
		</defs>
		<mask maskUnits="userSpaceOnUse" x="298.383" y="89.521" width="266.813" height="266.813" id="XMLID_8_">
			<g id="XMLID_966_" filter="url(#Adobe_OpacityMaskFilter_4_)">
				<defs>
					
						<filter id="Adobe_OpacityMaskFilter_5_" filterUnits="userSpaceOnUse" x="298.383" y="89.521" width="266.813" height="266.813">
						<feFlood  style="flood-color:white;flood-opacity:1" result="back"/>
						<feBlend  in="SourceGraphic" in2="back" mode="normal"/>
					</filter>
				</defs>
				<mask maskUnits="userSpaceOnUse" x="298.383" y="89.521" width="266.813" height="266.813" id="XMLID_8_">
					<g id="XMLID_1057_" filter="url(#Adobe_OpacityMaskFilter_5_)">
					</g>
				</mask>
				<linearGradient id="XMLID_9_" gradientUnits="userSpaceOnUse" x1="677.1963" y1="471.7354" x2="309.1079" y2="98.5442">
					<stop  offset="0" style="stop-color:#000000"/>
					<stop  offset="0.9928" style="stop-color:#FFFFFF"/>
				</linearGradient>
				<path id="XMLID_968_" mask="url(#XMLID_8_)" fill="url(#XMLID_9_)" d="M431.79,356.334
					c-73.561,0-133.407-59.846-133.407-133.406S358.229,89.521,431.79,89.521s133.406,59.846,133.406,133.407
					S505.351,356.334,431.79,356.334z M431.79,90.25c-73.159,0-132.678,59.519-132.678,132.678
					c0,73.158,59.519,132.678,132.678,132.678c73.159,0,132.678-59.52,132.678-132.678C564.468,149.769,504.949,90.25,431.79,90.25z
					"/>
			</g>
		</mask>
		<linearGradient id="XMLID_10_" gradientUnits="userSpaceOnUse" x1="677.1963" y1="471.7354" x2="309.1079" y2="98.5442">
			<stop  offset="0" style="stop-color:#D1FFFF"/>
			<stop  offset="0.9928" style="stop-color:#FFFFFF"/>
		</linearGradient>
		<path id="XMLID_55_" fill="url(#XMLID_10_)" d="M431.79,356.334c-73.561,0-133.407-59.846-133.407-133.406
			S358.229,89.521,431.79,89.521s133.406,59.846,133.406,133.407S505.351,356.334,431.79,356.334z M431.79,90.25
			c-73.159,0-132.678,59.519-132.678,132.678c0,73.158,59.519,132.678,132.678,132.678c73.159,0,132.678-59.52,132.678-132.678
			C564.468,149.769,504.949,90.25,431.79,90.25z"/>
	</g>
	<g id="XMLID_50_">
		<defs>
			<filter id="Adobe_OpacityMaskFilter_6_" filterUnits="userSpaceOnUse" x="242.347" y="48.791" width="348.273" height="348.273">
				<feFlood  style="flood-color:white;flood-opacity:1" result="back"/>
				<feBlend  in="SourceGraphic" in2="back" mode="normal"/>
			</filter>
		</defs>
		<mask maskUnits="userSpaceOnUse" x="242.347" y="48.791" width="348.273" height="348.273" id="XMLID_11_">
			<g id="XMLID_957_" filter="url(#Adobe_OpacityMaskFilter_6_)">
				<defs>
					
						<filter id="Adobe_OpacityMaskFilter_7_" filterUnits="userSpaceOnUse" x="242.347" y="48.791" width="348.273" height="348.273">
						<feFlood  style="flood-color:white;flood-opacity:1" result="back"/>
						<feBlend  in="SourceGraphic" in2="back" mode="normal"/>
					</filter>
				</defs>
				<mask maskUnits="userSpaceOnUse" x="242.347" y="48.791" width="348.273" height="348.273" id="XMLID_11_">
					<g id="XMLID_1051_" filter="url(#Adobe_OpacityMaskFilter_7_)">
					</g>
				</mask>
				<linearGradient id="XMLID_12_" gradientUnits="userSpaceOnUse" x1="669.4365" y1="479.3867" x2="301.3494" y2="106.1968">
					<stop  offset="0" style="stop-color:#000000"/>
					<stop  offset="0.9928" style="stop-color:#FFFFFF"/>
				</linearGradient>
				<path id="XMLID_959_" mask="url(#XMLID_11_)" fill="url(#XMLID_12_)" d="M416.483,397.064
					c-46.514,0-90.243-18.113-123.133-51.004c-32.89-32.89-51.003-76.619-51.003-123.133s18.113-90.243,51.003-123.133
					c32.89-32.89,76.619-51.003,123.133-51.003s90.243,18.113,123.133,51.003c32.891,32.89,51.004,76.62,51.004,123.133
					s-18.113,90.243-51.004,123.133C506.727,378.951,462.997,397.064,416.483,397.064z M416.483,49.52
					c-95.617,0-173.408,77.791-173.408,173.408c0,95.617,77.791,173.407,173.408,173.407c95.618,0,173.408-77.79,173.408-173.407
					C589.892,127.31,512.102,49.52,416.483,49.52z"/>
			</g>
		</mask>
		<linearGradient id="XMLID_13_" gradientUnits="userSpaceOnUse" x1="669.4365" y1="479.3867" x2="301.3494" y2="106.1968">
			<stop  offset="0" style="stop-color:#D1FFFF"/>
			<stop  offset="0.9928" style="stop-color:#FFFFFF"/>
		</linearGradient>
		<path id="XMLID_51_" fill="url(#XMLID_13_)" d="M416.483,397.064c-46.514,0-90.243-18.113-123.133-51.004
			c-32.89-32.89-51.003-76.619-51.003-123.133s18.113-90.243,51.003-123.133c32.89-32.89,76.619-51.003,123.133-51.003
			s90.243,18.113,123.133,51.003c32.891,32.89,51.004,76.62,51.004,123.133s-18.113,90.243-51.004,123.133
			C506.727,378.951,462.997,397.064,416.483,397.064z M416.483,49.52c-95.617,0-173.408,77.791-173.408,173.408
			c0,95.617,77.791,173.407,173.408,173.407c95.618,0,173.408-77.79,173.408-173.407C589.892,127.31,512.102,49.52,416.483,49.52z"
			/>
	</g>
	<g id="XMLID_43_">
		<defs>
			<filter id="Adobe_OpacityMaskFilter_8_" filterUnits="userSpaceOnUse" x="525.12" y="260.284" width="197.702" height="197.703">
				<feFlood  style="flood-color:white;flood-opacity:1" result="back"/>
				<feBlend  in="SourceGraphic" in2="back" mode="normal"/>
			</filter>
		</defs>
		<mask maskUnits="userSpaceOnUse" x="525.12" y="260.284" width="197.702" height="197.703" id="XMLID_14_">
			<g id="XMLID_948_" filter="url(#Adobe_OpacityMaskFilter_8_)">
				<defs>
					
						<filter id="Adobe_OpacityMaskFilter_9_" filterUnits="userSpaceOnUse" x="525.12" y="260.284" width="197.702" height="197.703">
						<feFlood  style="flood-color:white;flood-opacity:1" result="back"/>
						<feBlend  in="SourceGraphic" in2="back" mode="normal"/>
					</filter>
				</defs>
				<mask maskUnits="userSpaceOnUse" x="525.12" y="260.284" width="197.702" height="197.703" id="XMLID_14_">
					<g id="XMLID_1045_" filter="url(#Adobe_OpacityMaskFilter_9_)">
					</g>
				</mask>
				<linearGradient id="XMLID_15_" gradientUnits="userSpaceOnUse" x1="693.3535" y1="429.4805" x2="554.5878" y2="288.791">
					<stop  offset="0" style="stop-color:#000000"/>
					<stop  offset="0.9928" style="stop-color:#FFFFFF"/>
				</linearGradient>
				<path id="XMLID_950_" mask="url(#XMLID_14_)" fill="url(#XMLID_15_)" d="M623.972,457.987
					c-54.507,0-98.852-44.345-98.852-98.852s44.345-98.852,98.852-98.852c54.506,0,98.851,44.345,98.851,98.852
					S678.478,457.987,623.972,457.987z M623.972,261.014c-54.105,0-98.123,44.017-98.123,98.122
					c0,54.104,44.018,98.122,98.123,98.122c54.104,0,98.122-44.018,98.122-98.122C722.094,305.03,678.076,261.014,623.972,261.014z"
					/>
			</g>
		</mask>
		<linearGradient id="XMLID_16_" gradientUnits="userSpaceOnUse" x1="693.3535" y1="429.4805" x2="554.5878" y2="288.791">
			<stop  offset="0" style="stop-color:#D1FFFF"/>
			<stop  offset="0.9928" style="stop-color:#FFFFFF"/>
		</linearGradient>
		<path id="XMLID_46_" fill="url(#XMLID_16_)" d="M623.972,457.987c-54.507,0-98.852-44.345-98.852-98.852
			s44.345-98.852,98.852-98.852c54.506,0,98.851,44.345,98.851,98.852S678.478,457.987,623.972,457.987z M623.972,261.014
			c-54.105,0-98.123,44.017-98.123,98.122c0,54.104,44.018,98.122,98.123,98.122c54.104,0,98.122-44.018,98.122-98.122
			C722.094,305.03,678.076,261.014,623.972,261.014z"/>
	</g>
	<g id="XMLID_93_">
		<circle id="XMLID_27_" fill="#FFFFFF" cx="375.888" cy="257.187" r="4.703"/>
		<defs>
			<filter id="Adobe_OpacityMaskFilter_10_" filterUnits="userSpaceOnUse" x="363.842" y="245.14" width="24.093" height="24.093">
				<feFlood  style="flood-color:white;flood-opacity:1" result="back"/>
				<feBlend  in="SourceGraphic" in2="back" mode="normal"/>
			</filter>
		</defs>
		<mask maskUnits="userSpaceOnUse" x="363.842" y="245.14" width="24.093" height="24.093" id="XMLID_17_">
			<g id="XMLID_942_" filter="url(#Adobe_OpacityMaskFilter_10_)">
				<defs>
					
						<filter id="Adobe_OpacityMaskFilter_11_" filterUnits="userSpaceOnUse" x="363.842" y="245.14" width="24.093" height="24.093">
						<feFlood  style="flood-color:white;flood-opacity:1" result="back"/>
						<feBlend  in="SourceGraphic" in2="back" mode="normal"/>
					</filter>
				</defs>
				<mask maskUnits="userSpaceOnUse" x="363.842" y="245.14" width="24.093" height="24.093" id="XMLID_17_">
					<g id="XMLID_1041_" filter="url(#Adobe_OpacityMaskFilter_11_)">
					</g>
				</mask>
				<radialGradient id="XMLID_18_" cx="375.8882" cy="257.1865" r="12.0466" gradientUnits="userSpaceOnUse">
					<stop  offset="0" style="stop-color:#FFFFFF"/>
					<stop  offset="1" style="stop-color:#000000"/>
				</radialGradient>
				<circle id="XMLID_944_" mask="url(#XMLID_17_)" fill="url(#XMLID_18_)" cx="375.888" cy="257.187" r="12.046"/>
			</g>
		</mask>
		<radialGradient id="XMLID_19_" cx="375.8882" cy="257.1865" r="12.0466" gradientUnits="userSpaceOnUse">
			<stop  offset="0" style="stop-color:#FFFFFF"/>
			<stop  offset="1" style="stop-color:#D1FFFF"/>
		</radialGradient>
		<circle id="XMLID_69_" fill="url(#XMLID_19_)" cx="375.888" cy="257.187" r="12.046"/>
	</g>
	<g id="XMLID_91_">
		<circle id="XMLID_29_" fill="#FFFFFF" cx="353.303" cy="115.619" r="4.736"/>
		<defs>
			<filter id="Adobe_OpacityMaskFilter_12_" filterUnits="userSpaceOnUse" x="340.444" y="102.76" width="25.718" height="25.719">
				<feFlood  style="flood-color:white;flood-opacity:1" result="back"/>
				<feBlend  in="SourceGraphic" in2="back" mode="normal"/>
			</filter>
		</defs>
		<mask maskUnits="userSpaceOnUse" x="340.444" y="102.76" width="25.718" height="25.719" id="XMLID_20_">
			<g id="XMLID_936_" filter="url(#Adobe_OpacityMaskFilter_12_)">
				<defs>
					
						<filter id="Adobe_OpacityMaskFilter_13_" filterUnits="userSpaceOnUse" x="340.444" y="102.76" width="25.718" height="25.719">
						<feFlood  style="flood-color:white;flood-opacity:1" result="back"/>
						<feBlend  in="SourceGraphic" in2="back" mode="normal"/>
					</filter>
				</defs>
				<mask maskUnits="userSpaceOnUse" x="340.444" y="102.76" width="25.718" height="25.719" id="XMLID_20_">
					<g id="XMLID_1037_" filter="url(#Adobe_OpacityMaskFilter_13_)">
					</g>
				</mask>
				<radialGradient id="XMLID_21_" cx="353.3027" cy="115.6191" r="12.8594" gradientUnits="userSpaceOnUse">
					<stop  offset="0" style="stop-color:#FFFFFF"/>
					<stop  offset="1" style="stop-color:#000000"/>
				</radialGradient>
				<circle id="XMLID_938_" mask="url(#XMLID_20_)" fill="url(#XMLID_21_)" cx="353.303" cy="115.619" r="12.859"/>
			</g>
		</mask>
		<radialGradient id="XMLID_22_" cx="353.3027" cy="115.6191" r="12.8594" gradientUnits="userSpaceOnUse">
			<stop  offset="0" style="stop-color:#FFFFFF"/>
			<stop  offset="1" style="stop-color:#D1FFFF"/>
		</radialGradient>
		<circle id="XMLID_72_" fill="url(#XMLID_22_)" cx="353.303" cy="115.619" r="12.859"/>
	</g>
	<g id="XMLID_114_">
		<circle id="XMLID_70_" fill="#FFFFFF" cx="652.137" cy="178.728" r="5.091"/>
		<defs>
			<filter id="Adobe_OpacityMaskFilter_14_" filterUnits="userSpaceOnUse" x="640.685" y="167.275" width="22.904" height="22.904">
				<feFlood  style="flood-color:white;flood-opacity:1" result="back"/>
				<feBlend  in="SourceGraphic" in2="back" mode="normal"/>
			</filter>
		</defs>
		<mask maskUnits="userSpaceOnUse" x="640.685" y="167.275" width="22.904" height="22.904" id="XMLID_23_">
			<g id="XMLID_930_" filter="url(#Adobe_OpacityMaskFilter_14_)">
				<defs>
					
						<filter id="Adobe_OpacityMaskFilter_15_" filterUnits="userSpaceOnUse" x="640.685" y="167.275" width="22.904" height="22.904">
						<feFlood  style="flood-color:white;flood-opacity:1" result="back"/>
						<feBlend  in="SourceGraphic" in2="back" mode="normal"/>
					</filter>
				</defs>
				<mask maskUnits="userSpaceOnUse" x="640.685" y="167.275" width="22.904" height="22.904" id="XMLID_23_">
					<g id="XMLID_1033_" filter="url(#Adobe_OpacityMaskFilter_15_)">
					</g>
				</mask>
				<radialGradient id="XMLID_24_" cx="652.1367" cy="178.7275" r="11.4521" gradientUnits="userSpaceOnUse">
					<stop  offset="0" style="stop-color:#FFFFFF"/>
					<stop  offset="1" style="stop-color:#000000"/>
				</radialGradient>
				<circle id="XMLID_932_" mask="url(#XMLID_23_)" fill="url(#XMLID_24_)" cx="652.137" cy="178.728" r="11.452"/>
			</g>
		</mask>
		<radialGradient id="XMLID_25_" cx="652.1367" cy="178.7275" r="11.4521" gradientUnits="userSpaceOnUse">
			<stop  offset="0" style="stop-color:#FFFFFF"/>
			<stop  offset="1" style="stop-color:#D1FFFF"/>
		</radialGradient>
		<circle id="XMLID_76_" fill="url(#XMLID_25_)" cx="652.137" cy="178.728" r="11.452"/>
	</g>
	<g id="XMLID_106_">
		<circle id="XMLID_34_" fill="#FFFFFF" cx="531.152" cy="390.14" r="4.647"/>
		<defs>
			<filter id="Adobe_OpacityMaskFilter_16_" filterUnits="userSpaceOnUse" x="520.136" y="379.124" width="22.032" height="22.031">
				<feFlood  style="flood-color:white;flood-opacity:1" result="back"/>
				<feBlend  in="SourceGraphic" in2="back" mode="normal"/>
			</filter>
		</defs>
		<mask maskUnits="userSpaceOnUse" x="520.136" y="379.124" width="22.032" height="22.031" id="XMLID_26_">
			<g id="XMLID_924_" filter="url(#Adobe_OpacityMaskFilter_16_)">
				<defs>
					
						<filter id="Adobe_OpacityMaskFilter_17_" filterUnits="userSpaceOnUse" x="520.136" y="379.124" width="22.032" height="22.031">
						<feFlood  style="flood-color:white;flood-opacity:1" result="back"/>
						<feBlend  in="SourceGraphic" in2="back" mode="normal"/>
					</filter>
				</defs>
				<mask maskUnits="userSpaceOnUse" x="520.136" y="379.124" width="22.032" height="22.031" id="XMLID_26_">
					<g id="XMLID_1029_" filter="url(#Adobe_OpacityMaskFilter_17_)">
					</g>
				</mask>
				<radialGradient id="XMLID_28_" cx="531.1523" cy="390.1396" r="11.0156" gradientUnits="userSpaceOnUse">
					<stop  offset="0" style="stop-color:#FFFFFF"/>
					<stop  offset="1" style="stop-color:#000000"/>
				</radialGradient>
				<circle id="XMLID_926_" mask="url(#XMLID_26_)" fill="url(#XMLID_28_)" cx="531.152" cy="390.14" r="11.016"/>
			</g>
		</mask>
		<radialGradient id="XMLID_31_" cx="531.1523" cy="390.1396" r="11.0156" gradientUnits="userSpaceOnUse">
			<stop  offset="0" style="stop-color:#FFFFFF"/>
			<stop  offset="1" style="stop-color:#D1FFFF"/>
		</radialGradient>
		<circle id="XMLID_77_" fill="url(#XMLID_31_)" cx="531.152" cy="390.14" r="11.016"/>
	</g>
	<g id="XMLID_92_">
		<circle id="XMLID_37_" fill="#FFFFFF" cx="319.851" cy="236.581" r="3.098"/>
		<defs>
			<filter id="Adobe_OpacityMaskFilter_18_" filterUnits="userSpaceOnUse" x="312.552" y="229.282" width="14.598" height="14.598">
				<feFlood  style="flood-color:white;flood-opacity:1" result="back"/>
				<feBlend  in="SourceGraphic" in2="back" mode="normal"/>
			</filter>
		</defs>
		<mask maskUnits="userSpaceOnUse" x="312.552" y="229.282" width="14.598" height="14.598" id="XMLID_32_">
			<g id="XMLID_918_" filter="url(#Adobe_OpacityMaskFilter_18_)">
				<defs>
					
						<filter id="Adobe_OpacityMaskFilter_19_" filterUnits="userSpaceOnUse" x="312.552" y="229.282" width="14.598" height="14.598">
						<feFlood  style="flood-color:white;flood-opacity:1" result="back"/>
						<feBlend  in="SourceGraphic" in2="back" mode="normal"/>
					</filter>
				</defs>
				<mask maskUnits="userSpaceOnUse" x="312.552" y="229.282" width="14.598" height="14.598" id="XMLID_32_">
					<g id="XMLID_1025_" filter="url(#Adobe_OpacityMaskFilter_19_)">
					</g>
				</mask>
				<radialGradient id="XMLID_36_" cx="319.8516" cy="236.5811" r="7.2988" gradientUnits="userSpaceOnUse">
					<stop  offset="0" style="stop-color:#FFFFFF"/>
					<stop  offset="1" style="stop-color:#000000"/>
				</radialGradient>
				<circle id="XMLID_920_" mask="url(#XMLID_32_)" fill="url(#XMLID_36_)" cx="319.851" cy="236.581" r="7.299"/>
			</g>
		</mask>
		<radialGradient id="XMLID_38_" cx="319.8516" cy="236.5811" r="7.2988" gradientUnits="userSpaceOnUse">
			<stop  offset="0" style="stop-color:#FFFFFF"/>
			<stop  offset="1" style="stop-color:#D1FFFF"/>
		</radialGradient>
		<circle id="XMLID_78_" fill="url(#XMLID_38_)" cx="319.851" cy="236.581" r="7.299"/>
	</g>
	<g id="XMLID_115_">
		<circle id="XMLID_35_" fill="#FFFFFF" cx="482.863" cy="100.462" r="3.098"/>
		<defs>
			<filter id="Adobe_OpacityMaskFilter_20_" filterUnits="userSpaceOnUse" x="475.563" y="93.163" width="14.599" height="14.599">
				<feFlood  style="flood-color:white;flood-opacity:1" result="back"/>
				<feBlend  in="SourceGraphic" in2="back" mode="normal"/>
			</filter>
		</defs>
		<mask maskUnits="userSpaceOnUse" x="475.563" y="93.163" width="14.599" height="14.599" id="XMLID_39_">
			<g id="XMLID_912_" filter="url(#Adobe_OpacityMaskFilter_20_)">
				<defs>
					
						<filter id="Adobe_OpacityMaskFilter_21_" filterUnits="userSpaceOnUse" x="475.563" y="93.163" width="14.599" height="14.599">
						<feFlood  style="flood-color:white;flood-opacity:1" result="back"/>
						<feBlend  in="SourceGraphic" in2="back" mode="normal"/>
					</filter>
				</defs>
				<mask maskUnits="userSpaceOnUse" x="475.563" y="93.163" width="14.599" height="14.599" id="XMLID_39_">
					<g id="XMLID_1021_" filter="url(#Adobe_OpacityMaskFilter_21_)">
					</g>
				</mask>
				<radialGradient id="XMLID_40_" cx="482.8633" cy="100.4624" r="7.2991" gradientUnits="userSpaceOnUse">
					<stop  offset="0" style="stop-color:#FFFFFF"/>
					<stop  offset="1" style="stop-color:#000000"/>
				</radialGradient>
				<circle id="XMLID_914_" mask="url(#XMLID_39_)" fill="url(#XMLID_40_)" cx="482.863" cy="100.462" r="7.299"/>
			</g>
		</mask>
		<radialGradient id="XMLID_41_" cx="482.8633" cy="100.4624" r="7.2991" gradientUnits="userSpaceOnUse">
			<stop  offset="0" style="stop-color:#FFFFFF"/>
			<stop  offset="1" style="stop-color:#D1FFFF"/>
		</radialGradient>
		<circle id="XMLID_79_" fill="url(#XMLID_41_)" cx="482.863" cy="100.462" r="7.299"/>
	</g>
	<g id="XMLID_105_">
		<circle id="XMLID_71_" fill="#FFFFFF" cx="341.326" cy="332.794" r="3.098"/>
		<defs>
			<filter id="Adobe_OpacityMaskFilter_22_" filterUnits="userSpaceOnUse" x="334.027" y="325.495" width="14.598" height="14.599">
				<feFlood  style="flood-color:white;flood-opacity:1" result="back"/>
				<feBlend  in="SourceGraphic" in2="back" mode="normal"/>
			</filter>
		</defs>
		<mask maskUnits="userSpaceOnUse" x="334.027" y="325.495" width="14.598" height="14.599" id="XMLID_42_">
			<g id="XMLID_906_" filter="url(#Adobe_OpacityMaskFilter_22_)">
				<defs>
					
						<filter id="Adobe_OpacityMaskFilter_23_" filterUnits="userSpaceOnUse" x="334.027" y="325.495" width="14.598" height="14.599">
						<feFlood  style="flood-color:white;flood-opacity:1" result="back"/>
						<feBlend  in="SourceGraphic" in2="back" mode="normal"/>
					</filter>
				</defs>
				<mask maskUnits="userSpaceOnUse" x="334.027" y="325.495" width="14.598" height="14.599" id="XMLID_42_">
					<g id="XMLID_1017_" filter="url(#Adobe_OpacityMaskFilter_23_)">
					</g>
				</mask>
				<radialGradient id="XMLID_44_" cx="341.3262" cy="332.7949" r="7.2991" gradientUnits="userSpaceOnUse">
					<stop  offset="0" style="stop-color:#FFFFFF"/>
					<stop  offset="1" style="stop-color:#000000"/>
				</radialGradient>
				<circle id="XMLID_908_" mask="url(#XMLID_42_)" fill="url(#XMLID_44_)" cx="341.326" cy="332.794" r="7.299"/>
			</g>
		</mask>
		<radialGradient id="XMLID_45_" cx="341.3262" cy="332.7949" r="7.2991" gradientUnits="userSpaceOnUse">
			<stop  offset="0" style="stop-color:#FFFFFF"/>
			<stop  offset="1" style="stop-color:#D1FFFF"/>
		</radialGradient>
		<circle id="XMLID_80_" fill="url(#XMLID_45_)" cx="341.326" cy="332.794" r="7.299"/>
	</g>
	<g id="XMLID_94_">
		<circle id="XMLID_30_" fill="#FFFFFF" cx="387.935" cy="347.919" r="3.098"/>
		<defs>
			<filter id="Adobe_OpacityMaskFilter_24_" filterUnits="userSpaceOnUse" x="380.635" y="340.619" width="14.598" height="14.599">
				<feFlood  style="flood-color:white;flood-opacity:1" result="back"/>
				<feBlend  in="SourceGraphic" in2="back" mode="normal"/>
			</filter>
		</defs>
		<mask maskUnits="userSpaceOnUse" x="380.635" y="340.619" width="14.598" height="14.599" id="XMLID_48_">
			<g id="XMLID_900_" filter="url(#Adobe_OpacityMaskFilter_24_)">
				<defs>
					
						<filter id="Adobe_OpacityMaskFilter_25_" filterUnits="userSpaceOnUse" x="380.635" y="340.619" width="14.598" height="14.599">
						<feFlood  style="flood-color:white;flood-opacity:1" result="back"/>
						<feBlend  in="SourceGraphic" in2="back" mode="normal"/>
					</filter>
				</defs>
				<mask maskUnits="userSpaceOnUse" x="380.635" y="340.619" width="14.598" height="14.599" id="XMLID_48_">
					<g id="XMLID_1013_" filter="url(#Adobe_OpacityMaskFilter_25_)">
					</g>
				</mask>
				<radialGradient id="XMLID_56_" cx="387.9346" cy="347.918" r="7.2993" gradientUnits="userSpaceOnUse">
					<stop  offset="0" style="stop-color:#FFFFFF"/>
					<stop  offset="1" style="stop-color:#000000"/>
				</radialGradient>
				<circle id="XMLID_902_" mask="url(#XMLID_48_)" fill="url(#XMLID_56_)" cx="387.934" cy="347.919" r="7.299"/>
			</g>
		</mask>
		<radialGradient id="XMLID_57_" cx="387.9346" cy="347.918" r="7.2993" gradientUnits="userSpaceOnUse">
			<stop  offset="0" style="stop-color:#FFFFFF"/>
			<stop  offset="1" style="stop-color:#D1FFFF"/>
		</radialGradient>
		<circle id="XMLID_81_" fill="url(#XMLID_57_)" cx="387.934" cy="347.919" r="7.299"/>
	</g>
	<g id="XMLID_89_">
		<circle id="XMLID_73_" fill="#FFFFFF" cx="307.869" cy="359.136" r="3.098"/>
		<defs>
			<filter id="Adobe_OpacityMaskFilter_26_" filterUnits="userSpaceOnUse" x="300.57" y="351.836" width="14.598" height="14.599">
				<feFlood  style="flood-color:white;flood-opacity:1" result="back"/>
				<feBlend  in="SourceGraphic" in2="back" mode="normal"/>
			</filter>
		</defs>
		<mask maskUnits="userSpaceOnUse" x="300.57" y="351.836" width="14.598" height="14.599" id="XMLID_75_">
			<g id="XMLID_894_" filter="url(#Adobe_OpacityMaskFilter_26_)">
				<defs>
					
						<filter id="Adobe_OpacityMaskFilter_27_" filterUnits="userSpaceOnUse" x="300.57" y="351.836" width="14.598" height="14.599">
						<feFlood  style="flood-color:white;flood-opacity:1" result="back"/>
						<feBlend  in="SourceGraphic" in2="back" mode="normal"/>
					</filter>
				</defs>
				<mask maskUnits="userSpaceOnUse" x="300.57" y="351.836" width="14.598" height="14.599" id="XMLID_75_">
					<g id="XMLID_1009_" filter="url(#Adobe_OpacityMaskFilter_27_)">
					</g>
				</mask>
				<radialGradient id="XMLID_83_" cx="307.8691" cy="359.1348" r="7.2993" gradientUnits="userSpaceOnUse">
					<stop  offset="0" style="stop-color:#FFFFFF"/>
					<stop  offset="1" style="stop-color:#000000"/>
				</radialGradient>
				<circle id="XMLID_896_" mask="url(#XMLID_75_)" fill="url(#XMLID_83_)" cx="307.869" cy="359.136" r="7.299"/>
			</g>
		</mask>
		<radialGradient id="XMLID_85_" cx="307.8691" cy="359.1348" r="7.2993" gradientUnits="userSpaceOnUse">
			<stop  offset="0" style="stop-color:#FFFFFF"/>
			<stop  offset="1" style="stop-color:#D1FFFF"/>
		</radialGradient>
		<circle id="XMLID_82_" fill="url(#XMLID_85_)" cx="307.869" cy="359.136" r="7.299"/>
	</g>
	<g id="XMLID_112_">
		<circle id="XMLID_68_" fill="#FFFFFF" cx="616.067" cy="170.374" r="3.098"/>
		<defs>
			<filter id="Adobe_OpacityMaskFilter_28_" filterUnits="userSpaceOnUse" x="608.769" y="163.074" width="14.598" height="14.598">
				<feFlood  style="flood-color:white;flood-opacity:1" result="back"/>
				<feBlend  in="SourceGraphic" in2="back" mode="normal"/>
			</filter>
		</defs>
		<mask maskUnits="userSpaceOnUse" x="608.769" y="163.074" width="14.598" height="14.598" id="XMLID_95_">
			<g id="XMLID_888_" filter="url(#Adobe_OpacityMaskFilter_28_)">
				<defs>
					
						<filter id="Adobe_OpacityMaskFilter_29_" filterUnits="userSpaceOnUse" x="608.769" y="163.074" width="14.598" height="14.598">
						<feFlood  style="flood-color:white;flood-opacity:1" result="back"/>
						<feBlend  in="SourceGraphic" in2="back" mode="normal"/>
					</filter>
				</defs>
				<mask maskUnits="userSpaceOnUse" x="608.769" y="163.074" width="14.598" height="14.598" id="XMLID_95_">
					<g id="XMLID_1005_" filter="url(#Adobe_OpacityMaskFilter_29_)">
					</g>
				</mask>
				<radialGradient id="XMLID_96_" cx="616.0674" cy="170.373" r="7.2991" gradientUnits="userSpaceOnUse">
					<stop  offset="0" style="stop-color:#FFFFFF"/>
					<stop  offset="1" style="stop-color:#000000"/>
				</radialGradient>
				<circle id="XMLID_890_" mask="url(#XMLID_95_)" fill="url(#XMLID_96_)" cx="616.067" cy="170.374" r="7.299"/>
			</g>
		</mask>
		<radialGradient id="XMLID_97_" cx="616.0674" cy="170.373" r="7.2991" gradientUnits="userSpaceOnUse">
			<stop  offset="0" style="stop-color:#FFFFFF"/>
			<stop  offset="1" style="stop-color:#D1FFFF"/>
		</radialGradient>
		<circle id="XMLID_84_" fill="url(#XMLID_97_)" cx="616.067" cy="170.374" r="7.299"/>
	</g>
	<g id="XMLID_111_">
		<circle id="XMLID_74_" fill="#FFFFFF" cx="641.243" cy="261.924" r="3.098"/>
		<defs>
			<filter id="Adobe_OpacityMaskFilter_30_" filterUnits="userSpaceOnUse" x="633.944" y="254.591" width="14.598" height="14.599">
				<feFlood  style="flood-color:white;flood-opacity:1" result="back"/>
				<feBlend  in="SourceGraphic" in2="back" mode="normal"/>
			</filter>
		</defs>
		<mask maskUnits="userSpaceOnUse" x="633.944" y="254.591" width="14.598" height="14.599" id="XMLID_98_">
			<g id="XMLID_882_" filter="url(#Adobe_OpacityMaskFilter_30_)">
				<defs>
					
						<filter id="Adobe_OpacityMaskFilter_31_" filterUnits="userSpaceOnUse" x="633.944" y="254.591" width="14.598" height="14.599">
						<feFlood  style="flood-color:white;flood-opacity:1" result="back"/>
						<feBlend  in="SourceGraphic" in2="back" mode="normal"/>
					</filter>
				</defs>
				<mask maskUnits="userSpaceOnUse" x="633.944" y="254.591" width="14.598" height="14.599" id="XMLID_98_">
					<g id="XMLID_1001_" filter="url(#Adobe_OpacityMaskFilter_31_)">
					</g>
				</mask>
				<radialGradient id="XMLID_99_" cx="641.2432" cy="261.8906" r="7.2988" gradientUnits="userSpaceOnUse">
					<stop  offset="0" style="stop-color:#FFFFFF"/>
					<stop  offset="1" style="stop-color:#000000"/>
				</radialGradient>
				<circle id="XMLID_884_" mask="url(#XMLID_98_)" fill="url(#XMLID_99_)" cx="641.243" cy="261.89" r="7.299"/>
			</g>
		</mask>
		<radialGradient id="XMLID_100_" cx="641.2432" cy="261.8906" r="7.2988" gradientUnits="userSpaceOnUse">
			<stop  offset="0" style="stop-color:#FFFFFF"/>
			<stop  offset="1" style="stop-color:#D1FFFF"/>
		</radialGradient>
		<circle id="XMLID_86_" fill="url(#XMLID_100_)" cx="641.243" cy="261.89" r="7.299"/>
	</g>
	<g id="XMLID_107_">
		<circle id="XMLID_33_" fill="#FFFFFF" cx="652.137" cy="319.012" r="3.098"/>
		<defs>
			<filter id="Adobe_OpacityMaskFilter_32_" filterUnits="userSpaceOnUse" x="644.838" y="311.712" width="14.598" height="14.599">
				<feFlood  style="flood-color:white;flood-opacity:1" result="back"/>
				<feBlend  in="SourceGraphic" in2="back" mode="normal"/>
			</filter>
		</defs>
		<mask maskUnits="userSpaceOnUse" x="644.838" y="311.712" width="14.598" height="14.599" id="XMLID_101_">
			<g id="XMLID_876_" filter="url(#Adobe_OpacityMaskFilter_32_)">
				<defs>
					
						<filter id="Adobe_OpacityMaskFilter_33_" filterUnits="userSpaceOnUse" x="644.838" y="311.712" width="14.598" height="14.599">
						<feFlood  style="flood-color:white;flood-opacity:1" result="back"/>
						<feBlend  in="SourceGraphic" in2="back" mode="normal"/>
					</filter>
				</defs>
				<mask maskUnits="userSpaceOnUse" x="644.838" y="311.712" width="14.598" height="14.599" id="XMLID_101_">
					<g id="XMLID_997_" filter="url(#Adobe_OpacityMaskFilter_33_)">
					</g>
				</mask>
				<radialGradient id="XMLID_102_" cx="652.1367" cy="319.0117" r="7.2988" gradientUnits="userSpaceOnUse">
					<stop  offset="0" style="stop-color:#FFFFFF"/>
					<stop  offset="1" style="stop-color:#000000"/>
				</radialGradient>
				<circle id="XMLID_878_" mask="url(#XMLID_101_)" fill="url(#XMLID_102_)" cx="652.137" cy="319.012" r="7.299"/>
			</g>
		</mask>
		<radialGradient id="XMLID_103_" cx="652.1367" cy="319.0117" r="7.2988" gradientUnits="userSpaceOnUse">
			<stop  offset="0" style="stop-color:#FFFFFF"/>
			<stop  offset="1" style="stop-color:#D1FFFF"/>
		</radialGradient>
		<circle id="XMLID_88_" fill="url(#XMLID_103_)" cx="652.137" cy="319.012" r="7.299"/>
	</g>
	<g id="XMLID_87_">
		<circle id="XMLID_110_" fill="#FFFFFF" cx="388.3" cy="110.059" r="3.098"/>
		<defs>
			<filter id="Adobe_OpacityMaskFilter_34_" filterUnits="userSpaceOnUse" x="381" y="102.76" width="14.598" height="14.599">
				<feFlood  style="flood-color:white;flood-opacity:1" result="back"/>
				<feBlend  in="SourceGraphic" in2="back" mode="normal"/>
			</filter>
		</defs>
		<mask maskUnits="userSpaceOnUse" x="381" y="102.76" width="14.598" height="14.599" id="XMLID_104_">
			<g id="XMLID_870_" filter="url(#Adobe_OpacityMaskFilter_34_)">
				<defs>
					<filter id="Adobe_OpacityMaskFilter_35_" filterUnits="userSpaceOnUse" x="381" y="102.76" width="14.598" height="14.599">
						<feFlood  style="flood-color:white;flood-opacity:1" result="back"/>
						<feBlend  in="SourceGraphic" in2="back" mode="normal"/>
					</filter>
				</defs>
				<mask maskUnits="userSpaceOnUse" x="381" y="102.76" width="14.598" height="14.599" id="XMLID_104_">
					<g id="XMLID_993_" filter="url(#Adobe_OpacityMaskFilter_35_)">
					</g>
				</mask>
				<radialGradient id="XMLID_108_" cx="388.2998" cy="110.0591" r="7.2991" gradientUnits="userSpaceOnUse">
					<stop  offset="0" style="stop-color:#FFFFFF"/>
					<stop  offset="1" style="stop-color:#000000"/>
				</radialGradient>
				<circle id="XMLID_872_" mask="url(#XMLID_104_)" fill="url(#XMLID_108_)" cx="388.3" cy="110.059" r="7.299"/>
			</g>
		</mask>
		<radialGradient id="XMLID_109_" cx="388.2998" cy="110.0591" r="7.2991" gradientUnits="userSpaceOnUse">
			<stop  offset="0" style="stop-color:#FFFFFF"/>
			<stop  offset="1" style="stop-color:#D1FFFF"/>
		</radialGradient>
		<circle id="XMLID_90_" fill="url(#XMLID_109_)" cx="388.3" cy="110.059" r="7.299"/>
	</g>
</g>
</svg>
