<svg width="249" height="249" viewBox="0 0 249 249" fill="none" xmlns="http://www.w3.org/2000/svg">
<g id="Social-Media-Discussion--Streamline-Bangalore.svg">
<g id="Social-media-Social-media-discussion-01">
<g id="color 2">
<path id="Vector" d="M239.642 174.869C233.426 164.367 222.082 150.572 210.315 147.425L207.02 155.286C206.804 155.77 206.439 156.172 205.977 156.431C205.513 156.69 204.98 156.792 204.454 156.722L195.44 155.451C195.076 155.399 194.729 155.266 194.423 155.062C194.117 154.857 193.862 154.587 193.673 154.271C193.486 153.956 193.372 153.601 193.34 153.235C193.307 152.869 193.357 152.5 193.486 152.156L195.44 146.366C189.173 147.956 179.788 143.281 174.186 140.011L183.977 117.069C182.099 114.891 179.762 113.158 177.132 111.994C174.503 110.83 171.648 110.264 168.774 110.337L157.311 135.545C155.879 138.705 155.635 142.276 156.626 145.601C157.616 148.926 159.774 151.783 162.701 153.645C169.583 158.135 177.174 161.43 185.154 163.389C185.009 170.06 186.461 176.669 189.391 182.664C196.602 184.616 204.198 184.641 211.421 182.735C210.98 178.477 212.878 173.018 214.41 169.014L223.401 178.545L204.696 194.715C205.315 201.005 210.322 206.359 216.135 208.178L236.946 190.643C239.186 188.755 240.686 186.136 241.179 183.249C241.672 180.361 241.128 177.393 239.642 174.869Z" fill="#24BBFF"/>
<path id="Vector_2" d="M35.2747 88.2272C34.0077 88.9549 32.6451 89.5016 31.2264 89.8513C18.2577 93.1229 11.2673 110.093 7.93126 122.355C7.06471 125.535 7.45059 128.926 9.00941 131.83C10.5682 134.733 13.1813 136.93 16.3103 137.964C25.49 140.917 35.0395 142.566 44.6783 142.86C47.3638 138.359 48.1752 132.983 46.9378 127.89C39.6277 127.257 32.3888 125.973 25.3076 124.05C26.6495 120.309 28.3318 116.699 30.3333 113.265C32.0948 119.198 31.4209 116.912 33.3063 123.368C41.0734 124.639 50.2292 125.203 58.8672 123.015C60.2542 117.854 61.0826 112.559 61.3386 107.221C65.5437 110.554 70.2554 113.192 75.2946 115.036C77.2345 115.793 79.3068 116.155 81.3886 116.098C83.4707 116.042 85.5201 115.568 87.416 114.706C95.9177 110.834 101.232 107.927 111.565 100.184C111.635 94.0408 108.905 89.7571 103.303 87.3799C96.713 92.2991 88.8988 97.3359 81.7201 100.184C76.745 96.4638 71.4887 93.1351 65.9988 90.2279C59.9511 87.2808 51.4531 86.3208 50.2057 86.156C46.3408 90.6898 42.6801 90.4014 35.2747 88.2272Z" fill="#24BBFF"/>
<path id="Vector_3" d="M42.1946 129.723C41.9339 129.723 41.679 129.8 41.4623 129.945C41.2455 130.09 41.0766 130.295 40.9768 130.537C40.8771 130.777 40.851 131.042 40.9018 131.299C40.9527 131.554 41.0782 131.789 41.2625 131.973C41.4468 132.157 41.6817 132.282 41.9374 132.334C42.1931 132.385 42.458 132.359 42.699 132.259C42.9398 132.159 43.1457 131.99 43.2905 131.773C43.4353 131.557 43.5126 131.301 43.5126 131.041C43.5072 130.693 43.3666 130.361 43.1205 130.115C42.8745 129.869 42.5424 129.728 42.1946 129.723Z" fill="#24BBFF"/>
<path id="Vector_4" d="M23.0592 136.926C23.7871 136.926 24.3772 136.336 24.3772 135.608C24.3772 134.88 23.7871 134.29 23.0592 134.29C22.3311 134.29 21.7411 134.88 21.7411 135.608C21.7411 136.336 22.3311 136.926 23.0592 136.926Z" fill="#24BBFF"/>
<path id="Vector_5" d="M13.7387 119.297C14.4666 119.297 15.0567 118.707 15.0567 117.979C15.0567 117.251 14.4666 116.661 13.7387 116.661C13.0108 116.661 12.4206 117.251 12.4206 117.979C12.4206 118.707 13.0108 119.297 13.7387 119.297Z" fill="#24BBFF"/>
<path id="Vector_6" d="M29.6259 108.116C30.3538 108.116 30.944 107.526 30.944 106.798C30.944 106.07 30.3538 105.48 29.6259 105.48C28.898 105.48 28.3079 106.07 28.3079 106.798C28.3079 107.526 28.898 108.116 29.6259 108.116Z" fill="#24BBFF"/>
<path id="Vector_7" d="M35.6984 90.1581C35.4377 90.1581 35.1828 90.2354 34.9662 90.3802C34.7494 90.525 34.5804 90.7309 34.4807 90.9717C34.3809 91.2125 34.3548 91.4776 34.4056 91.7333C34.4566 91.989 34.582 92.2237 34.7664 92.4081C34.9507 92.5924 35.1856 92.718 35.4413 92.7688C35.6969 92.8197 35.9619 92.7936 36.2029 92.6938C36.4437 92.5941 36.6494 92.4252 36.7944 92.2084C36.9392 91.9916 37.0165 91.7368 37.0165 91.4761C37.011 91.1283 36.8704 90.7962 36.6244 90.5502C36.3784 90.3041 36.0463 90.1635 35.6984 90.1581Z" fill="#24BBFF"/>
<path id="Vector_8" d="M48.9025 103.385C48.6417 103.385 48.3869 103.463 48.1701 103.607C47.9535 103.752 47.7845 103.958 47.6848 104.199C47.5849 104.44 47.5589 104.705 47.6097 104.96C47.6606 105.216 47.7861 105.451 47.9704 105.635C48.1548 105.82 48.3896 105.945 48.6453 105.996C48.901 106.047 49.166 106.021 49.4069 105.921C49.6477 105.821 49.8535 105.652 49.9984 105.436C50.1433 105.219 50.2206 104.964 50.2206 104.703C50.2151 104.355 50.0745 104.023 49.8285 103.777C49.5825 103.531 49.2503 103.391 48.9025 103.385Z" fill="#24BBFF"/>
<path id="Vector_9" d="M38.1933 115.343C37.9325 115.343 37.6777 115.421 37.4611 115.565C37.2443 115.71 37.0753 115.916 36.9756 116.157C36.8757 116.398 36.8497 116.663 36.9005 116.918C36.9514 117.174 37.0769 117.409 37.2612 117.593C37.4456 117.778 37.6804 117.903 37.9361 117.954C38.1918 118.005 38.4568 117.979 38.6977 117.879C38.9385 117.779 39.1444 117.61 39.2892 117.394C39.4341 117.177 39.5114 116.922 39.5114 116.661C39.5116 116.488 39.4778 116.317 39.4116 116.157C39.3456 115.996 39.2485 115.851 39.126 115.729C39.0036 115.606 38.8581 115.509 38.6981 115.443C38.538 115.377 38.3665 115.343 38.1933 115.343Z" fill="#24BBFF"/>
<path id="Vector_10" d="M68.1779 108.116C68.9058 108.116 69.4959 107.526 69.4959 106.798C69.4959 106.07 68.9058 105.48 68.1779 105.48C67.4498 105.48 66.8598 106.07 66.8598 106.798C66.8598 107.526 67.4498 108.116 68.1779 108.116Z" fill="#24BBFF"/>
<path id="Vector_11" d="M80.8641 101.83C80.6035 101.83 80.3486 101.907 80.1319 102.052C79.9151 102.197 79.7461 102.403 79.6464 102.644C79.5467 102.884 79.5206 103.149 79.5714 103.405C79.6223 103.661 79.7478 103.896 79.9321 104.08C80.1164 104.264 80.3513 104.39 80.607 104.441C80.8627 104.492 81.1278 104.465 81.3686 104.366C81.6094 104.266 81.8153 104.097 81.9601 103.88C82.1049 103.663 82.1822 103.409 82.1822 103.148C82.1767 102.8 82.0361 102.468 81.7901 102.222C81.5441 101.976 81.212 101.835 80.8641 101.83Z" fill="#24BBFF"/>
<path id="Vector_12" d="M96.8456 107.341C97.5736 107.341 98.1637 106.751 98.1637 106.023C98.1637 105.295 97.5736 104.705 96.8456 104.705C96.1177 104.705 95.5276 105.295 95.5276 106.023C95.5276 106.751 96.1177 107.341 96.8456 107.341Z" fill="#24BBFF"/>
<path id="Vector_13" d="M103.836 93.149C104.564 93.149 105.154 92.5589 105.154 91.831C105.154 91.1031 104.564 90.5129 103.836 90.5129C103.108 90.5129 102.518 91.1031 102.518 91.831C102.518 92.5589 103.108 93.149 103.836 93.149Z" fill="#24BBFF"/>
<path id="Vector_14" d="M55.3515 117.955C55.0908 117.955 54.836 118.032 54.6192 118.177C54.4025 118.322 54.2335 118.528 54.1338 118.769C54.034 119.009 54.008 119.274 54.0587 119.53C54.1097 119.786 54.2351 120.021 54.4195 120.205C54.6038 120.389 54.8387 120.515 55.0944 120.566C55.35 120.617 55.615 120.59 55.8558 120.491C56.0968 120.391 56.3025 120.222 56.4474 120.005C56.5923 119.788 56.6696 119.534 56.6696 119.273C56.6641 118.925 56.5235 118.593 56.2775 118.347C56.0315 118.101 55.6994 117.96 55.3515 117.955Z" fill="#24BBFF"/>
<path id="Vector_15" d="M57.9641 92.3231C58.692 92.3231 59.2822 91.733 59.2822 91.0051C59.2822 90.2772 58.692 89.687 57.9641 89.687C57.2361 89.687 56.6461 90.2772 56.6461 91.0051C56.6461 91.733 57.2361 92.3231 57.9641 92.3231Z" fill="#24BBFF"/>
<path id="Subtract" fill-rule="evenodd" clip-rule="evenodd" d="M110.685 32.7066L112.945 26.7518C111.488 24.7109 110.698 22.2689 110.685 19.7614C110.685 12.6062 117.04 6.81616 124.878 6.81616C132.716 6.81616 139.047 12.6062 139.047 19.7614C139.047 26.9165 132.692 32.7066 124.854 32.7066C121.93 32.7223 119.066 31.8794 116.616 30.2823L110.685 32.7066ZM119.96 20.5325C120.113 20.3042 120.194 20.0359 120.194 19.7614C120.193 19.3926 120.046 19.0393 119.785 18.7789C119.524 18.5185 119.17 18.3723 118.802 18.3727C118.527 18.3734 118.259 18.4556 118.031 18.6086C117.803 18.7615 117.626 18.9787 117.521 19.2325C117.417 19.4864 117.39 19.7654 117.444 20.0345C117.498 20.3037 117.63 20.5508 117.825 20.7446C118.019 20.9384 118.266 21.0704 118.536 21.1236C118.805 21.1769 119.084 21.1492 119.338 21.044C119.591 20.9388 119.808 20.7608 119.96 20.5325ZM126.243 19.7614C126.243 20.036 126.161 20.3046 126.009 20.5329C125.856 20.7613 125.64 20.9392 125.386 21.0444C125.132 21.1494 124.853 21.1769 124.583 21.1234C124.314 21.0698 124.067 20.9376 123.872 20.7433C123.678 20.5491 123.546 20.3017 123.492 20.0323C123.439 19.763 123.466 19.4838 123.571 19.2299C123.676 18.9762 123.854 18.7593 124.083 18.6067C124.311 18.4542 124.579 18.3727 124.854 18.3727C125.222 18.3733 125.575 18.5199 125.835 18.7801C126.096 19.0404 126.242 19.3933 126.243 19.7614ZM132.081 20.5329C132.234 20.3046 132.315 20.036 132.315 19.7614C132.314 19.3933 132.168 19.0404 131.908 18.7801C131.648 18.5199 131.295 18.3733 130.927 18.3727C130.652 18.3727 130.384 18.4542 130.155 18.6067C129.927 18.7593 129.749 18.9762 129.643 19.2299C129.538 19.4838 129.511 19.763 129.565 20.0323C129.619 20.3017 129.751 20.5491 129.944 20.7433C130.139 20.9376 130.387 21.0698 130.655 21.1234C130.926 21.1769 131.204 21.1494 131.458 21.0444C131.712 20.9392 131.929 20.7613 132.081 20.5329Z" fill="#24BBFF"/>
<path id="Vector_16" d="M203.466 88.228C203.466 88.7215 203.319 89.2038 203.046 89.6141C202.771 90.0244 202.382 90.3443 201.926 90.533C201.47 90.7218 200.968 90.7713 200.484 90.675C200 90.5788 199.556 90.3411 199.207 89.9922C198.857 89.6432 198.62 89.1988 198.524 88.7148C198.428 88.2308 198.477 87.7292 198.665 87.2733C198.855 86.8175 199.175 86.4277 199.585 86.1536C199.995 85.8795 200.478 85.7332 200.971 85.7332C201.632 85.7335 202.267 85.9964 202.735 86.4643C203.202 86.932 203.466 87.5664 203.466 88.228Z" fill="#24BBFF"/>
<path id="Vector_17" d="M108.92 227.26L87.1014 226.7C86.9099 226.682 86.717 226.711 86.5386 226.783C86.3603 226.854 86.2014 226.968 86.0752 227.113C85.9489 227.258 85.8587 227.431 85.8121 227.618C85.7655 227.803 85.7637 227.999 85.8069 228.186L86.7979 232.234C91.2852 232.339 95.7746 232.15 100.237 231.67C96.1482 233.343 91.8967 234.588 87.5511 235.386L89.5752 241.27C89.6192 241.456 89.7073 241.629 89.832 241.774C89.9568 241.92 90.1147 242.033 90.2922 242.105C90.4699 242.176 90.6621 242.204 90.8527 242.186C91.0433 242.167 91.2268 242.104 91.3876 242C97.9871 238.734 104.07 234.515 109.44 229.478C109.654 229.346 109.82 229.149 109.916 228.916C110.013 228.684 110.033 228.428 109.976 228.182C109.919 227.937 109.786 227.717 109.596 227.551C109.407 227.386 109.17 227.283 108.92 227.26Z" fill="#24BBFF"/>
</g>
<g id="color 1">
<path id="Vector_18" d="M152.439 49.2762H91.997C90.1174 49.2754 88.256 49.645 86.5194 50.364C84.7827 51.083 83.2048 52.1371 81.8758 53.4663C80.5467 54.7954 79.4928 56.3734 78.7739 58.1101C78.0552 59.8468 77.6857 61.7082 77.6866 63.5878V73.3072H84.0391V64.9752C84.0461 63.6594 84.3169 62.3585 84.8354 61.1492C85.3538 59.9397 86.1095 58.8466 87.0576 57.9343C88.0056 57.0219 89.1271 56.3089 90.3555 55.8374C91.5838 55.3658 92.8943 55.1453 94.2094 55.1889H150.65C151.965 55.1474 153.274 55.3693 154.502 55.8416C155.729 56.314 156.849 57.0271 157.797 57.939C158.745 58.851 159.5 59.9433 160.019 61.1518C160.537 62.3602 160.81 63.6602 160.818 64.9752V127.818L166.75 114.779V63.5878C166.751 61.7082 166.38 59.847 165.662 58.1103C164.943 56.3737 163.889 54.7957 162.56 53.4667C161.231 52.1376 159.653 51.0834 157.917 50.3644C156.18 49.6453 154.319 49.2756 152.439 49.2762Z" fill="#F0F2F4"/>
<path id="Vector_19" d="M160.796 192.166V200.218C160.795 202.915 159.725 205.5 157.817 207.406C155.91 209.314 153.325 210.384 150.628 210.386H94.1859C91.4894 210.384 88.9035 209.314 86.9969 207.406C85.0902 205.5 84.0186 202.915 84.018 200.218V136.792H77.6631V201.988C77.663 203.867 78.033 205.728 78.7522 207.463C79.4713 209.2 80.5255 210.777 81.8545 212.105C83.1833 213.434 84.761 214.487 86.4973 215.206C88.2336 215.924 90.0943 216.295 91.9734 216.293H152.439C154.318 216.295 156.18 215.924 157.917 215.206C159.653 214.487 161.231 213.433 162.56 212.104C163.889 210.775 164.943 209.196 165.662 207.461C166.38 205.724 166.751 203.862 166.75 201.983V192.168L160.796 192.166Z" fill="#F0F2F4"/>
<path id="Vector_20" d="M202.971 138.221L200.735 140.834C200.901 140.052 200.979 139.255 200.971 138.456C201.643 138.432 202.312 138.352 202.971 138.221Z" fill="#F0F2F4"/>
<path id="Vector_21" d="M46.9254 84.4154C46.2252 83.6511 45.8386 82.651 45.8427 81.6145C46.3568 81.9479 46.8932 82.2455 47.4481 82.5052C47.0792 83.0719 46.8965 83.7397 46.9254 84.4154Z" fill="#F0F2F4"/>
<path id="Vector_22" d="M32.1208 110.308L31.7157 117.957L30.327 113.203C30.8486 112.308 31.4382 111.371 32.1208 110.308Z" fill="#F0F2F4"/>
<path id="Vector_23" d="M61.3298 107.225C61.4599 104.462 61.389 101.693 61.118 98.9399L64.3388 109.437C63.3775 108.778 62.3654 108.049 61.3298 107.225Z" fill="#F0F2F4"/>
<path id="Vector_24" d="M52.5271 63.3061C52.4888 62.9086 52.3189 62.5354 52.0442 62.2455C51.7695 61.9556 51.4059 61.7658 51.011 61.7064C50.616 61.6469 50.2127 61.721 49.8647 61.9171C49.5169 62.1131 49.2445 62.4198 49.0907 62.7883H48.8554C48.7347 62.4058 48.4897 62.0747 48.1592 61.8473C47.8288 61.6202 47.4318 61.5098 47.0315 61.5341C46.6312 61.5582 46.2504 61.7155 45.9497 61.981C45.6491 62.2464 45.4456 62.6047 45.3719 62.9989H45.2778C45.162 62.5503 44.8772 62.1639 44.483 61.9204C44.0889 61.677 43.6159 61.5954 43.1628 61.6926C42.7099 61.7899 42.3122 62.0586 42.0526 62.4425C41.7932 62.8262 41.6923 63.2955 41.7708 63.7521C41.639 63.3461 41.367 63.0004 41.0035 62.7767C40.6401 62.5528 40.2088 62.4657 39.787 62.5309C39.3652 62.5959 38.9804 62.8091 38.7013 63.132C38.4222 63.4549 38.2672 63.8667 38.2638 64.2934C38.2625 64.4685 38.2863 64.6429 38.3345 64.8112C39.2614 67.6021 40.0469 70.438 40.6881 73.308C41.4648 77.0739 41.865 81.1222 40.6881 83.2182C43.0183 79.8054 43.6067 76.369 43.2301 75.9924C39.6054 72.4161 42.8064 69.0726 44.4775 71.6381C45.2778 72.862 45.7485 72.862 46.0074 72.1572C47.0901 68.4842 52.2447 63.4015 54.0595 71.1439L52.5271 63.3061Z" fill="#F0F2F4"/>
<path id="Vector_25" d="M206.125 83.9919C206.117 84.2142 206.022 84.4244 205.863 84.5786C205.703 84.7328 205.489 84.8189 205.267 84.8189C205.044 84.8189 204.83 84.7328 204.67 84.5786C204.51 84.4244 204.416 84.2142 204.407 83.9919C204.416 83.7697 204.51 83.5595 204.67 83.4052C204.83 83.251 205.044 83.1648 205.267 83.1648C205.489 83.1648 205.703 83.251 205.863 83.4052C206.022 83.5595 206.117 83.7697 206.125 83.9919Z" fill="#F0F2F4"/>
<path id="Vector_26" d="M215.352 132.736C215.757 131.415 215.995 130.046 216.058 128.665C216.34 120.117 207.655 118.144 201.583 123.157C204.901 121.039 206.808 126.217 206.478 129.394C206.478 129.954 206.669 130.477 208.102 129.518C210.621 127.776 212.292 132.084 207.585 134.014C206.69 134.367 205.726 138.792 206.831 144.252C207.255 146.416 208.267 146.73 210.315 147.383C215.946 149.025 221.573 152.992 225.637 156.844C236.393 135.796 215.328 132.736 215.352 132.736Z" fill="#F0F2F4"/>
</g>
<g id="outlines">
<path id="Vector_27" d="M206.125 83.9918C206.117 84.214 206.023 84.4243 205.863 84.5785C205.703 84.7327 205.489 84.8188 205.267 84.8188C205.044 84.8188 204.83 84.7327 204.67 84.5785C204.51 84.4243 204.416 84.214 204.407 83.9918C204.416 83.7696 204.51 83.5593 204.67 83.4051C204.83 83.2509 205.044 83.1647 205.267 83.1647C205.489 83.1647 205.703 83.2509 205.863 83.4051C206.023 83.5593 206.117 83.7696 206.125 83.9918Z" stroke="#F0F2F4" stroke-width="1.195"/>
<path id="Vector_28" d="M189.391 182.657L185.507 192.166" stroke="#F0F2F4" stroke-width="1.195" stroke-linecap="round" stroke-linejoin="round"/>
<path id="Vector_29" d="M84.0391 73.3074V64.9531C84.0453 63.6367 84.3155 62.335 84.8336 61.125C85.3516 59.915 86.1071 58.821 87.0554 57.908C88.0036 56.9951 89.1253 56.2815 90.354 55.8095C91.5829 55.3377 92.8939 55.1169 94.2095 55.1606H150.651C151.965 55.1191 153.276 55.3412 154.503 55.8139C155.731 56.2865 156.852 57.0003 157.8 57.9129C158.747 58.8255 159.502 59.9186 160.021 61.1276C160.54 62.3368 160.811 63.6375 160.818 64.9531V127.818" stroke="#F0F2F4" stroke-width="1.195" stroke-linecap="round" stroke-linejoin="round"/>
<path id="Vector_30" d="M166.742 114.754V63.5626C166.741 61.6831 166.371 59.8221 165.651 58.0861C164.93 56.3501 163.874 54.7731 162.545 53.4452C161.215 52.1172 159.635 51.0644 157.899 50.3469C156.162 49.6292 154.3 49.2612 152.421 49.2634H91.9735C90.0933 49.2639 88.2316 49.6348 86.4949 50.3549C84.758 51.075 83.1802 52.1302 81.8512 53.4603C80.5224 54.7904 79.4684 56.3692 78.7499 58.1066C78.0313 59.8441 77.662 61.7059 77.6631 63.5862V73.3056" stroke="#F0F2F4" stroke-width="1.195" stroke-linecap="round" stroke-linejoin="round"/>
<path id="Vector_31" d="M197.464 128.687H179.011" stroke="#F0F2F4" stroke-width="1.195" stroke-linecap="round" stroke-linejoin="round"/>
<path id="Vector_32" d="M216.034 128.677H227.873C228.587 128.676 229.293 128.816 229.952 129.088C230.612 129.359 231.211 129.759 231.716 130.264C232.221 130.767 232.622 131.365 232.895 132.024C233.169 132.683 233.31 133.389 233.31 134.103V165.289" stroke="#F0F2F4" stroke-width="1.195" stroke-linecap="round" stroke-linejoin="round"/>
<path id="Vector_33" d="M160.425 128.689H156.77L141.1 123.864L146.089 139.163V186.732C146.091 188.174 146.663 189.556 147.682 190.576C148.702 191.596 150.084 192.168 151.526 192.169H207.585" stroke="#F0F2F4" stroke-width="1.195" stroke-linecap="round" stroke-linejoin="round"/>
<path id="Vector_34" d="M98.8933 90.5576V78.7434C98.8926 77.3016 98.3196 75.9191 97.3001 74.8996C96.2806 73.8801 94.8981 73.307 93.4563 73.3064H54.4101" stroke="#F0F2F4" stroke-width="1.195" stroke-linecap="round" stroke-linejoin="round"/>
<path id="Vector_35" d="M160.818 192.166V200.218C160.817 202.915 159.747 205.5 157.839 207.406C155.933 209.314 153.347 210.384 150.651 210.386H94.1859C91.4894 210.384 88.9035 209.314 86.9968 207.406C85.0902 205.5 84.0187 202.915 84.0181 200.218V136.792" stroke="#F0F2F4" stroke-width="1.195" stroke-linecap="round" stroke-linejoin="round"/>
<path id="Union" fill-rule="evenodd" clip-rule="evenodd" d="M137.784 111.592C137.674 111.492 137.02 110.933 136.141 110.933C135.49 110.933 127.517 110.935 125.501 110.936L125.041 110.936C119.583 110.936 114.671 114.138 112.527 119.093C111.682 121.046 111.307 123.186 111.438 125.298C109.809 126.648 108.505 128.386 107.66 130.34C106.225 133.655 106.168 137.331 107.498 140.69C108.828 144.05 111.386 146.69 114.702 148.124C116.412 148.865 118.218 149.24 120.067 149.24C125.467 149.24 130.342 146.038 132.487 141.083C133.332 139.13 133.707 136.99 133.575 134.878C135.205 133.527 136.508 131.789 137.354 129.836C138.088 128.138 138.464 126.347 138.469 124.511L138.47 123.808C138.472 121.466 138.479 114.043 138.479 113.292C138.479 112.244 137.901 111.692 137.784 111.592ZM131.028 136.542C130.937 137.756 130.644 138.94 130.154 140.073C128.412 144.097 124.453 146.698 120.068 146.698C118.567 146.698 117.101 146.393 115.711 145.792C113.019 144.626 110.941 142.482 109.861 139.755C108.781 137.027 108.828 134.042 109.993 131.349C110.484 130.216 111.147 129.191 111.969 128.294C112.479 130.013 113.331 131.632 114.46 133.019C115.817 134.684 117.584 136.019 119.569 136.878C121.279 137.618 123.084 137.993 124.932 137.993C127.048 137.993 129.138 137.494 131.028 136.542ZM124.934 135.451C123.433 135.451 121.968 135.146 120.578 134.545C117.199 133.082 114.811 130.077 114.14 126.467C115.919 125.327 117.966 124.725 120.08 124.725C121.581 124.725 123.046 125.03 124.436 125.631C127.815 127.094 130.203 130.099 130.874 133.709C129.094 134.849 127.047 135.451 124.934 135.451ZM113.986 123.634C114.077 122.42 114.37 121.236 114.86 120.103C116.601 116.078 120.56 113.47 124.946 113.47C124.971 113.47 124.998 113.47 125.025 113.47L125.026 113.47C125.083 113.469 125.144 113.469 125.196 113.47H125.593H126.636C126.636 113.47 127.86 113.471 128.569 113.47C135.667 113.46 135.926 113.462 135.926 113.462V115.792V120.076C135.926 121.43 135.926 122.689 135.914 123.955C135.994 125.633 135.693 127.273 135.02 128.827C134.53 129.96 133.867 130.985 133.044 131.882C132.535 130.163 131.683 128.544 130.553 127.157C129.196 125.492 127.43 124.157 125.445 123.298C123.735 122.558 121.93 122.183 120.081 122.183C117.965 122.183 115.876 122.682 113.986 123.634ZM119.243 131.795C120.154 131.795 120.893 131.057 120.893 130.146C120.893 129.235 120.154 128.497 119.243 128.497C118.333 128.497 117.594 129.235 117.594 130.146C117.594 131.057 118.333 131.795 119.243 131.795ZM127.176 131.125C127.176 132.549 126.022 133.704 124.598 133.704C123.174 133.704 122.02 132.549 122.02 131.125C122.02 129.701 123.174 128.547 124.598 128.547C126.022 128.547 127.176 129.701 127.176 131.125Z" fill="#F0F2F4"/>
<path id="Vector_36" d="M77.6631 136.785V201.98C77.662 203.859 78.0313 205.721 78.7501 207.458C79.4688 209.195 80.5227 210.773 81.8518 212.102C83.1809 213.431 84.7589 214.486 86.4956 215.205C88.2324 215.924 90.0938 216.294 91.9735 216.293H152.439C154.319 216.294 156.18 215.924 157.917 215.205C159.653 214.487 161.231 213.433 162.56 212.103C163.889 210.774 164.944 209.196 165.662 207.46C166.381 205.724 166.751 203.862 166.75 201.983V192.168" stroke="#F0F2F4" stroke-width="1.195" stroke-linecap="round" stroke-linejoin="round"/>
<path id="Vector_37" d="M40.6411 73.3064H17.0809C15.6397 73.308 14.2582 73.8816 13.2394 74.9009C12.2208 75.9203 11.6482 77.3023 11.6476 78.7434V111.323" stroke="#F0F2F4" stroke-width="1.195" stroke-linecap="round" stroke-linejoin="round"/>
<path id="Vector_38" d="M70.8858 136.784H88.2076L103.86 141.586L98.8933 126.31V108.846" stroke="#F0F2F4" stroke-width="1.195" stroke-linecap="round" stroke-linejoin="round"/>
<path id="Vector_39" d="M125.325 216.292C120.519 221.588 114.689 225.854 108.187 228.831C101.685 231.809 94.6466 233.437 87.4975 233.617C80.3484 233.796 73.2372 232.524 66.594 229.876C59.951 227.228 53.914 223.26 48.8486 218.212C43.783 213.164 39.7941 207.14 37.1233 200.507C34.4524 193.873 33.1552 186.766 33.3098 179.616C33.4645 172.467 35.0678 165.423 38.023 158.911C40.9783 152.399 45.2239 146.553 50.503 141.729" stroke="#F0F2F4" stroke-width="1.195" stroke-linecap="round" stroke-linejoin="round"/>
<path id="Vector_40" d="M108.92 227.259L87.1014 226.7C86.9099 226.682 86.717 226.711 86.5386 226.783C86.3603 226.854 86.2014 226.968 86.0752 227.113C85.9489 227.258 85.8587 227.43 85.8121 227.617C85.7655 227.803 85.7637 227.999 85.8069 228.186L86.7979 232.234C91.2852 232.338 95.7746 232.15 100.237 231.669C96.1482 233.343 91.8967 234.588 87.5511 235.386L89.5752 241.27C89.6192 241.456 89.7073 241.629 89.832 241.774C89.9568 241.92 90.1147 242.033 90.2922 242.105C90.4699 242.176 90.6621 242.204 90.8527 242.185C91.0433 242.167 91.2268 242.104 91.3876 242C97.9871 238.734 104.07 234.515 109.44 229.478C109.654 229.346 109.82 229.149 109.916 228.916C110.013 228.684 110.033 228.428 109.976 228.182C109.919 227.937 109.786 227.717 109.596 227.551C109.407 227.386 109.17 227.283 108.92 227.259Z" stroke="#F0F2F4" stroke-width="1.195" stroke-linecap="round" stroke-linejoin="round"/>
<path id="Vector_41" d="M200.971 138.433C201.642 138.42 202.312 138.349 202.971 138.221L200.735 140.81" stroke="#F0F2F4" stroke-width="1.195" stroke-linecap="round" stroke-linejoin="round"/>
<path id="Vector_42" d="M185.154 163.335C177.152 161.467 169.548 158.183 162.701 153.638C159.774 151.776 157.617 148.919 156.626 145.594C155.637 142.269 155.879 138.698 157.311 135.538L168.773 110.308C174.736 110.71 179.562 111.876 183.977 117.038L174.191 140.01C178.592 142.575 184.029 145.285 189.066 146.271C195.974 147.622 200.976 145.463 200.976 138.433C197.845 138.527 192.667 137.374 198.081 127.512C203.494 117.65 207.095 125.282 206.648 129.442C206.672 130.172 207.048 130.36 208.272 129.513C210.791 127.77 212.474 132.114 207.754 134.008C206.862 134.367 205.896 138.787 207.001 144.247C207.845 148.389 210.746 145.774 219.287 151.679C228.775 158.245 235.631 167.749 239.811 174.815C241.307 177.338 241.858 180.311 241.366 183.204C240.874 186.095 239.373 188.72 237.128 190.608L216.157 208.166C213.164 207.244 210.495 205.489 208.465 203.104C206.435 200.72 205.127 197.805 204.695 194.703L223.4 178.533L212.385 166.837" stroke="#F0F2F4" stroke-width="1.195" stroke-linecap="round" stroke-linejoin="round"/>
<path id="Vector_43" d="M46.9254 84.4154C46.2252 83.6511 45.8386 82.651 45.8427 81.6145C46.3568 81.9479 46.8932 82.2455 47.4482 82.5052" stroke="#F0F2F4" stroke-width="1.195" stroke-linecap="round" stroke-linejoin="round"/>
<path id="Vector_44" d="M45.9839 72.1524C47.0666 68.4807 52.2447 63.3967 54.036 71.1403L54.4361 73.6352C55.6835 85.0319 50.2701 83.8266 47.4457 82.5086C47.4457 82.5086 45.4711 85.4284 49.087 86.0341C49.6668 86.1307 50.0607 86.1394 50.2019 86.158C47.3775 90.3005 42.1499 90.5594 35.2797 88.2292C41.668 84.6095 43.9672 76.7916 43.188 76.0137C39.5956 72.4311 42.7619 69.0951 44.4354 71.6594C45.2345 72.8845 45.6594 72.8597 45.9653 72.2007L45.9839 72.1524Z" stroke="#F0F2F4" stroke-width="1.195" stroke-linecap="round" stroke-linejoin="round"/>
<path id="Vector_45" d="M30.3209 113.266C30.8622 112.348 31.4618 111.364 32.1208 110.305L31.7157 117.978" stroke="#F0F2F4" stroke-width="1.195" stroke-linecap="round" stroke-linejoin="round"/>
<path id="Vector_46" d="M61.3299 107.222C61.46 104.459 61.3891 101.69 61.1181 98.9375L64.3389 109.435" stroke="#F0F2F4" stroke-width="1.195" stroke-linecap="round" stroke-linejoin="round"/>
<path id="Vector_47" d="M35.2747 88.2272C34.0077 88.9549 32.6451 89.5016 31.2264 89.8513C18.2577 93.1229 11.2673 110.093 7.93126 122.355C7.06471 125.535 7.45059 128.926 9.00941 131.83C10.5682 134.733 13.1813 136.93 16.3103 137.964C25.49 140.917 35.0395 142.566 44.6783 142.86C47.3638 138.359 48.1752 132.983 46.9378 127.89C39.6277 127.257 32.3888 125.973 25.3076 124.05C26.6495 120.309 28.3318 116.699 30.3333 113.265C32.0948 119.198 31.4209 116.912 33.3063 123.368C41.0734 124.639 50.2292 125.203 58.8672 123.015C60.2542 117.854 61.0826 112.559 61.3386 107.221C65.5437 110.554 70.2554 113.192 75.2946 115.036C77.2345 115.793 79.3068 116.155 81.3886 116.098C83.4707 116.042 85.5201 115.568 87.416 114.706C95.9177 110.834 101.232 107.927 111.565 100.184C111.635 94.0408 108.905 89.7571 103.303 87.3799C96.713 92.2991 88.8988 97.3359 81.7201 100.184C76.745 96.4638 71.4887 93.1351 65.9988 90.2279C59.9511 87.2808 51.4531 86.3208 50.2057 86.156" stroke="#F0F2F4" stroke-width="1.195" stroke-linecap="round" stroke-linejoin="round"/>
<path id="Vector_48" d="M176.211 99.3227C176.311 99.0408 176.477 98.7863 176.693 98.5802C176.91 98.3742 177.173 98.2224 177.459 98.1372C178.705 97.8077 180.541 100.42 179.953 103.786C179.649 105.613 178.364 106.438 177.634 103.683" stroke="#F0F2F4" stroke-width="1.195" stroke-linecap="round" stroke-linejoin="round"/>
<path id="Vector_49" d="M178.752 98.7019C178.96 98.4956 179.22 98.3493 179.505 98.2782C180.755 97.9574 182.659 99.8552 182.212 103.268C181.979 105.041 180.914 105.473 180.024 103.282" stroke="#F0F2F4" stroke-width="1.195" stroke-linecap="round" stroke-linejoin="round"/>
<path id="Vector_50" d="M170.045 110.379C172.846 105.342 172.631 103.93 173.363 101.529C173.715 100.376 174.208 99.3588 175.222 99.1049C176.46 98.7927 178.037 100.892 177.575 104.184C177.385 105.546 175.552 105.267 175.222 101.807" stroke="#F0F2F4" stroke-width="1.195" stroke-linecap="round" stroke-linejoin="round"/>
<path id="Vector_51" d="M183.13 116.119C184.024 114.165 190.264 102.77 189.556 102.444C188.781 102.087 184.566 105.833 184.566 105.833C184.566 105.833 179.623 106.516 179.953 109.674" stroke="#F0F2F4" stroke-width="1.195" stroke-linecap="round" stroke-linejoin="round"/>
<path id="Vector_52" d="M184.542 105.833C186.613 97.6188 185.038 90.7201 184.613 91.9465C183.81 94.2754 182.824 100.494 182.212 103.244" stroke="#F0F2F4" stroke-width="1.195" stroke-linecap="round" stroke-linejoin="round"/>
<path id="Vector_53" d="M174.093 103.244C174.563 103.118 175.062 103.148 175.513 103.33" stroke="#F0F2F4" stroke-width="1.195" stroke-linecap="round" stroke-linejoin="round"/>
<path id="Vector_54" d="M106.166 88.8636C110.685 87.7103 133.563 90.7466 132.574 92.9826C126.902 93.8497 118.388 92.9925 113.486 95.807C113.157 95.9965 112 96.798 111.368 97.2427" stroke="#F0F2F4" stroke-width="1.195" stroke-linecap="round" stroke-linejoin="round"/>
<path id="Vector_55" d="M106.802 88.7452C115.604 86.674 125.349 75.141 117.158 86.8152C116.381 88.1097 116.004 88.8393 117.111 89.0982" stroke="#F0F2F4" stroke-width="1.195" stroke-linecap="round" stroke-linejoin="round"/>
<path id="Vector_56" d="M113.816 95.6198C118.288 93.8545 141.754 99.7622 125.466 93.5015" stroke="#F0F2F4" stroke-width="1.195" stroke-linecap="round" stroke-linejoin="round"/>
<path id="Vector_57" d="M113.839 95.5955C115.697 94.6045 133.492 101.789 124.078 95.8544" stroke="#F0F2F4" stroke-width="1.195" stroke-linecap="round" stroke-linejoin="round"/>
<path id="Vector_58" d="M59.2166 136.785C62.8412 138.767 64.1147 142.32 62.8883 143.281C62.2663 143.605 61.5567 143.721 60.8641 143.61" stroke="#F0F2F4" stroke-width="1.195" stroke-linecap="round" stroke-linejoin="round"/>
<path id="Vector_59" d="M60.5792 134.69C64.2039 136.672 65.4711 140.216 64.251 141.186C63.9582 141.375 63.6297 141.502 63.2859 141.558" stroke="#F0F2F4" stroke-width="1.195" stroke-linecap="round" stroke-linejoin="round"/>
<path id="Vector_60" d="M45.1601 142.01C49.2878 141.268 53.5426 141.75 57.3992 143.399" stroke="#F0F2F4" stroke-width="1.195" stroke-linecap="round" stroke-linejoin="round"/>
<path id="Vector_61" d="M57.1639 138.832C60.6003 140.856 61.5132 143.699 60.3649 144.739C59.0184 145.957 54.5043 145.328 53.2333 142.103" stroke="#F0F2F4" stroke-width="1.195" stroke-linecap="round" stroke-linejoin="round"/>
<path id="Vector_62" d="M47.0431 128.642C50.1029 128.548 61.9208 129.089 61.9654 129.983C62.0162 131.019 59.2116 131.607 59.2116 131.607" stroke="#F0F2F4" stroke-width="1.195" stroke-linecap="round" stroke-linejoin="round"/>
<path id="Vector_63" d="M47.0667 128.664C50.9103 128.942 54.6886 129.807 58.2701 131.23C58.2701 131.23 67.9722 134.946 72.3674 135.913C73.8291 136.234 69.6421 137.961 62.4126 136.008" stroke="#F0F2F4" stroke-width="1.195" stroke-linecap="round" stroke-linejoin="round"/>
<path id="Vector_64" d="M33.2976 123.368C32.3931 123.908 31.5953 124.61 30.944 125.439" stroke="#F0F2F4" stroke-width="1.195" stroke-linecap="round" stroke-linejoin="round"/>
<path id="Vector_65" d="M58.8585 123.016L59.7294 129.323" stroke="#F0F2F4" stroke-width="1.195" stroke-linecap="round" stroke-linejoin="round"/>
<path id="Vector_66" d="M214.269 168.864C212.692 172.912 210.809 178.82 211.42 182.727C204.197 184.634 196.6 184.609 189.39 182.656C183.152 168.84 184.47 158.909 188.472 152.183" stroke="#F0F2F4" stroke-width="1.195" stroke-linecap="round" stroke-linejoin="round"/>
<path id="Vector_67" d="M201.454 123.262C208.405 117.417 218.876 120.77 215.328 132.743C215.328 132.743 236.387 135.803 225.637 156.845" stroke="#F0F2F4" stroke-width="1.195" stroke-linecap="round" stroke-linejoin="round"/>
<path id="Vector_68" d="M211.421 182.723C212.863 183.429 214.156 184.404 215.234 185.594" stroke="#F0F2F4" stroke-width="1.195" stroke-linecap="round" stroke-linejoin="round"/>
<path id="Vector_69" d="M210.456 147.423L207.02 155.261C206.805 155.745 206.439 156.148 205.977 156.407C205.513 156.666 204.979 156.767 204.454 156.697L195.44 155.449C195.075 155.397 194.729 155.265 194.423 155.06C194.117 154.856 193.861 154.586 193.673 154.27C193.486 153.954 193.372 153.6 193.34 153.233C193.307 152.868 193.357 152.498 193.486 152.154L195.722 146.293" stroke="#F0F2F4" stroke-width="1.195" stroke-linecap="round" stroke-linejoin="round"/>
<path id="Vector_70" d="M54.0571 71.1395L52.4801 63.2782C52.4221 62.8777 52.2357 62.5067 51.9488 62.2213C51.6619 61.9359 51.29 61.7513 50.8893 61.6955C50.4884 61.6396 50.0802 61.7154 49.7262 61.9115C49.3721 62.1076 49.0913 62.4133 48.9261 62.7827C48.7862 62.3966 48.5254 62.066 48.1825 61.84C47.8397 61.6141 47.433 61.5048 47.0229 61.5286C46.613 61.5524 46.2217 61.708 45.9073 61.9721C45.5928 62.2363 45.372 62.5948 45.2779 62.9946C45.1547 62.5475 44.8655 62.1643 44.4693 61.9233C44.0732 61.6822 43.5998 61.6016 43.1462 61.6977C42.6925 61.7938 42.2927 62.0595 42.0283 62.4406C41.764 62.8215 41.6551 63.2891 41.7238 63.7477C41.5731 63.3047 41.2556 62.9378 40.8387 62.7251C40.4219 62.5124 39.9385 62.4706 39.4912 62.6083C39.044 62.7462 38.6681 63.0529 38.4433 63.4634C38.2186 63.874 38.1627 64.3558 38.2875 64.8069C39.2144 67.5977 39.9999 70.4336 40.6411 73.3036C41.4067 77.02 41.8068 81.0063 40.6894 83.1247" stroke="#F0F2F4" stroke-width="1.195" stroke-linecap="round" stroke-linejoin="round"/>
<path id="Vector_71" d="M120.194 19.7603C120.194 20.0348 120.113 20.3031 119.96 20.5314C119.808 20.7597 119.591 20.9377 119.338 21.0429C119.084 21.148 118.805 21.1758 118.536 21.1225C118.266 21.0693 118.019 20.9373 117.825 20.7435C117.63 20.5497 117.498 20.3026 117.444 20.0334C117.39 19.7643 117.417 19.4852 117.521 19.2314C117.626 18.9776 117.803 18.7604 118.031 18.6074C118.259 18.4545 118.527 18.3723 118.802 18.3716C119.17 18.3712 119.524 18.5174 119.785 18.7778C120.046 19.0382 120.193 19.3915 120.194 19.7603Z" stroke="#F0F2F4" stroke-width="1.195" stroke-linecap="round" stroke-linejoin="round"/>
<path id="Vector_72" d="M126.243 19.7602C126.243 20.0349 126.161 20.3035 126.009 20.5318C125.856 20.7602 125.64 20.9381 125.386 21.0432C125.132 21.1483 124.853 21.1758 124.583 21.1223C124.314 21.0686 124.067 20.9365 123.872 20.7422C123.678 20.548 123.546 20.3006 123.492 20.0312C123.439 19.7619 123.466 19.4826 123.571 19.2288C123.676 18.9751 123.854 18.7582 124.083 18.6056C124.311 18.4531 124.579 18.3716 124.854 18.3716C125.222 18.3722 125.575 18.5187 125.835 18.779C126.096 19.0393 126.242 19.3922 126.243 19.7602Z" stroke="#F0F2F4" stroke-width="1.195" stroke-linecap="round" stroke-linejoin="round"/>
<path id="Vector_73" d="M132.315 19.7602C132.315 20.0349 132.234 20.3035 132.081 20.5318C131.929 20.7602 131.712 20.9381 131.458 21.0432C131.204 21.1483 130.926 21.1758 130.655 21.1223C130.387 21.0686 130.139 20.9365 129.944 20.7422C129.751 20.548 129.619 20.3006 129.565 20.0312C129.511 19.7619 129.538 19.4826 129.643 19.2288C129.749 18.9751 129.927 18.7582 130.155 18.6056C130.384 18.4531 130.652 18.3716 130.927 18.3716C131.295 18.3722 131.648 18.5187 131.908 18.779C132.168 19.0393 132.314 19.3922 132.315 19.7602Z" stroke="#F0F2F4" stroke-width="1.195" stroke-linecap="round" stroke-linejoin="round"/>
<path id="Vector_75" d="M203.466 88.2279C203.466 88.7213 203.319 89.2037 203.046 89.614C202.771 90.0243 202.382 90.3441 201.926 90.5329C201.47 90.7217 200.968 90.7711 200.484 90.6749C200 90.5786 199.556 90.341 199.207 89.9921C198.857 89.6431 198.62 89.1986 198.524 88.7146C198.428 88.2307 198.477 87.7291 198.665 87.2732C198.855 86.8173 199.175 86.4276 199.585 86.1535C199.995 85.8793 200.478 85.733 200.971 85.733C201.632 85.7334 202.267 85.9963 202.735 86.4642C203.202 86.9319 203.466 87.5663 203.466 88.2279Z" stroke="#F0F2F4" stroke-width="1.195" stroke-linecap="round" stroke-linejoin="round"/>
<path id="Vector_76" d="M180.8 204.239C180.8 204.644 180.68 205.04 180.454 205.376C180.23 205.713 179.91 205.975 179.536 206.13C179.162 206.285 178.75 206.326 178.353 206.247C177.956 206.167 177.59 205.973 177.304 205.687C177.018 205.401 176.823 205.035 176.744 204.637C176.665 204.241 176.706 203.829 176.86 203.454C177.015 203.08 177.278 202.761 177.615 202.537C177.951 202.311 178.347 202.191 178.752 202.191C179.295 202.191 179.816 202.406 180.2 202.79C180.583 203.175 180.8 203.696 180.8 204.239Z" stroke="#F0F2F4" stroke-width="1.195" stroke-linecap="round" stroke-linejoin="round"/>
<path id="Vector_77" d="M64.3067 50.3123V60.4801" stroke="#F0F2F4" stroke-width="1.195" stroke-linecap="round" stroke-linejoin="round"/>
<path id="Vector_78" d="M69.3794 55.3958H59.2115" stroke="#F0F2F4" stroke-width="1.195" stroke-linecap="round" stroke-linejoin="round"/>
<path id="Vector_79" d="M206.102 204.357C203.852 207.019 201.932 209.944 200.382 213.065C199.45 214.603 198.684 216.237 198.099 217.937C196.443 222.736 197.835 222.617 200.359 218.855C206.772 209.292 209.797 208.358 212.127 206.287" stroke="#F0F2F4" stroke-width="1.195" stroke-linecap="round" stroke-linejoin="round"/>
<path id="Vector_80" d="M198.617 216.527C197.111 217.568 195.473 218.407 193.747 219.019C193.252 219.153 192.478 218.761 194.877 216.689C195.395 216.242 197.536 214.309 198.267 213.582C199.795 212.182 201.242 210.697 202.602 209.134" stroke="#F0F2F4" stroke-width="1.195" stroke-linecap="round" stroke-linejoin="round"/>
<path id="Vector_81" d="M204.384 206.546C205.396 204.428 200.5 205.835 198.358 206.175C196.428 206.477 194.146 206.108 198.994 203.727C201.525 202.511 203.832 200.879 205.819 198.896" stroke="#F0F2F4" stroke-width="1.195" stroke-linecap="round" stroke-linejoin="round"/>
<path id="Vector_82" d="M112.945 26.7518L110.685 32.7066L116.616 30.2823C119.066 31.8794 121.93 32.7223 124.854 32.7066C132.692 32.7066 139.047 26.9165 139.047 19.7614C139.047 12.6062 132.716 6.81616 124.878 6.81616C117.04 6.81616 110.685 12.6062 110.685 19.7614C110.698 22.2689 111.488 24.7109 112.945 26.7518Z" stroke="#F0F2F4" stroke-width="1.195" stroke-linecap="round" stroke-linejoin="round"/>
<path id="Vector_83" d="M223.401 178.539L225.19 177.15" stroke="#F0F2F4" stroke-width="1.195" stroke-linecap="round" stroke-linejoin="round"/>
<path id="Vector_84" d="M81.7114 100.186L83.5944 101.528" stroke="#F0F2F4" stroke-width="1.195" stroke-linecap="round" stroke-linejoin="round"/>
<path id="Vector_85" d="M25.2717 124.029L24.3773 126.171" stroke="#F0F2F4" stroke-width="1.195" stroke-linecap="round" stroke-linejoin="round"/>
<path id="Vector_86" d="M42.1946 129.723C41.9339 129.723 41.679 129.8 41.4623 129.945C41.2455 130.09 41.0766 130.295 40.9768 130.537C40.8771 130.777 40.851 131.042 40.9018 131.299C40.9527 131.554 41.0782 131.789 41.2625 131.973C41.4468 132.157 41.6817 132.282 41.9374 132.334C42.1931 132.385 42.458 132.359 42.699 132.259C42.9398 132.158 43.1457 131.99 43.2905 131.773C43.4353 131.556 43.5126 131.301 43.5126 131.041C43.5072 130.693 43.3666 130.361 43.1205 130.114C42.8745 129.869 42.5424 129.728 42.1946 129.723Z" stroke="#F0F2F4" stroke-width="1.195"/>
<path id="Vector_87" d="M23.0591 136.926C23.787 136.926 24.3772 136.336 24.3772 135.608C24.3772 134.88 23.787 134.29 23.0591 134.29C22.3311 134.29 21.7411 134.88 21.7411 135.608C21.7411 136.336 22.3311 136.926 23.0591 136.926Z" stroke="#F0F2F4" stroke-width="1.195"/>
<path id="Vector_88" d="M13.7387 119.297C14.4666 119.297 15.0567 118.706 15.0567 117.979C15.0567 117.251 14.4666 116.661 13.7387 116.661C13.0108 116.661 12.4206 117.251 12.4206 117.979C12.4206 118.706 13.0108 119.297 13.7387 119.297Z" stroke="#F0F2F4" stroke-width="1.195"/>
<path id="Vector_89" d="M29.6259 108.116C30.3538 108.116 30.944 107.526 30.944 106.798C30.944 106.07 30.3538 105.48 29.6259 105.48C28.898 105.48 28.3079 106.07 28.3079 106.798C28.3079 107.526 28.898 108.116 29.6259 108.116Z" stroke="#F0F2F4" stroke-width="1.195"/>
<path id="Vector_90" d="M35.6984 90.158C35.4376 90.158 35.1828 90.2353 34.9662 90.3801C34.7494 90.5249 34.5804 90.7308 34.4807 90.9716C34.3808 91.2124 34.3548 91.4775 34.4056 91.7332C34.4565 91.9889 34.582 92.2236 34.7663 92.4079C34.9507 92.5923 35.1855 92.7179 35.4412 92.7687C35.6969 92.8196 35.9619 92.7934 36.2028 92.6937C36.4436 92.594 36.6494 92.425 36.7943 92.2083C36.9392 91.9915 37.0165 91.7367 37.0165 91.476C37.011 91.1282 36.8704 90.7961 36.6244 90.55C36.3784 90.304 36.0462 90.1634 35.6984 90.158Z" stroke="#F0F2F4" stroke-width="1.195"/>
<path id="Vector_91" d="M48.9025 103.385C48.6417 103.385 48.3869 103.463 48.1701 103.607C47.9535 103.752 47.7845 103.958 47.6848 104.199C47.5849 104.44 47.5589 104.705 47.6097 104.96C47.6606 105.216 47.7861 105.451 47.9704 105.635C48.1548 105.82 48.3896 105.945 48.6453 105.996C48.901 106.047 49.166 106.021 49.4069 105.921C49.6477 105.821 49.8535 105.652 49.9984 105.436C50.1433 105.219 50.2206 104.964 50.2206 104.703C50.2151 104.355 50.0745 104.023 49.8285 103.777C49.5825 103.531 49.2503 103.391 48.9025 103.385Z" stroke="#F0F2F4" stroke-width="1.195"/>
<path id="Vector_92" d="M38.1933 115.343C37.9325 115.343 37.6777 115.421 37.4611 115.565C37.2443 115.71 37.0753 115.916 36.9756 116.157C36.8757 116.398 36.8497 116.663 36.9005 116.918C36.9514 117.174 37.0769 117.409 37.2612 117.593C37.4456 117.778 37.6804 117.903 37.9361 117.954C38.1918 118.005 38.4568 117.979 38.6977 117.879C38.9385 117.779 39.1444 117.61 39.2892 117.394C39.4341 117.177 39.5114 116.922 39.5114 116.661C39.5116 116.488 39.4778 116.317 39.4116 116.157C39.3456 115.996 39.2485 115.851 39.126 115.729C39.0036 115.606 38.8581 115.509 38.6981 115.443C38.538 115.377 38.3665 115.343 38.1933 115.343Z" stroke="#F0F2F4" stroke-width="1.195"/>
<path id="Vector_93" d="M68.1779 108.116C68.9058 108.116 69.4959 107.526 69.4959 106.798C69.4959 106.07 68.9058 105.48 68.1779 105.48C67.4498 105.48 66.8598 106.07 66.8598 106.798C66.8598 107.526 67.4498 108.116 68.1779 108.116Z" stroke="#F0F2F4" stroke-width="1.195"/>
<path id="Vector_94" d="M80.8641 101.83C80.6035 101.83 80.3486 101.907 80.1319 102.052C79.9151 102.197 79.7461 102.403 79.6464 102.643C79.5467 102.884 79.5206 103.149 79.5714 103.405C79.6223 103.661 79.7478 103.895 79.9321 104.08C80.1164 104.264 80.3513 104.39 80.607 104.441C80.8627 104.491 81.1278 104.465 81.3686 104.366C81.6094 104.266 81.8153 104.097 81.9601 103.88C82.1049 103.663 82.1822 103.409 82.1822 103.148C82.1767 102.8 82.0361 102.468 81.7901 102.222C81.5441 101.976 81.212 101.835 80.8641 101.83Z" stroke="#F0F2F4" stroke-width="1.195"/>
<path id="Vector_95" d="M96.8456 107.341C97.5735 107.341 98.1636 106.751 98.1636 106.023C98.1636 105.295 97.5735 104.705 96.8456 104.705C96.1177 104.705 95.5275 105.295 95.5275 106.023C95.5275 106.751 96.1177 107.341 96.8456 107.341Z" stroke="#F0F2F4" stroke-width="1.195"/>
<path id="Vector_96" d="M103.836 93.1489C104.564 93.1489 105.154 92.5588 105.154 91.8309C105.154 91.103 104.564 90.5128 103.836 90.5128C103.108 90.5128 102.518 91.103 102.518 91.8309C102.518 92.5588 103.108 93.1489 103.836 93.1489Z" stroke="#F0F2F4" stroke-width="1.195"/>
<path id="Vector_97" d="M55.3515 117.955C55.0908 117.955 54.836 118.032 54.6192 118.177C54.4025 118.322 54.2335 118.528 54.1338 118.768C54.034 119.009 54.008 119.274 54.0587 119.53C54.1097 119.786 54.2351 120.02 54.4195 120.205C54.6038 120.389 54.8387 120.515 55.0944 120.566C55.35 120.616 55.615 120.59 55.8558 120.491C56.0968 120.391 56.3025 120.222 56.4474 120.005C56.5923 119.788 56.6696 119.534 56.6696 119.273C56.6641 118.925 56.5235 118.593 56.2775 118.347C56.0315 118.101 55.6994 117.96 55.3515 117.955Z" stroke="#F0F2F4" stroke-width="1.195"/>
<path id="Vector_98" d="M57.9641 92.3231C58.692 92.3231 59.2822 91.733 59.2822 91.0051C59.2822 90.2772 58.692 89.687 57.9641 89.687C57.2361 89.687 56.6461 90.2772 56.6461 91.0051C56.6461 91.733 57.2361 92.3231 57.9641 92.3231Z" stroke="#F0F2F4" stroke-width="1.195"/>
</g>
</g>
</g>
</svg>
