<svg width="113" height="41" viewBox="0 0 113 41" fill="none" xmlns="http://www.w3.org/2000/svg">
<path d="M13.6309 40.3145C11.7673 40.3144 9.94821 39.9265 8.22434 39.1615C4.88304 37.6788 2.30475 34.9506 0.964502 31.4794C-0.375683 28.0081 -0.317526 24.2094 1.1284 20.783C1.98369 18.7562 3.30481 16.9533 4.95692 15.5554C4.81965 13.3636 5.19692 11.1419 6.05228 9.1149C8.21314 3.99415 13.1258 0.685303 18.5679 0.685303C20.4313 0.685303 22.2504 1.07326 23.9745 1.83829C27.3157 3.32102 29.894 6.04931 31.2342 9.52054C32.5744 12.9918 32.5162 16.7905 31.0703 20.2168C30.2149 22.2438 28.8937 24.0466 27.2416 25.4444C27.379 27.6362 27.0018 29.8579 26.1465 31.885C23.9855 37.0056 19.0728 40.3145 13.6313 40.3145H13.6309ZM5.46327 18.5294C4.5969 19.4821 3.90111 20.5746 3.38966 21.7865C0.944432 27.5809 3.55229 34.3352 9.20287 36.8428C10.6156 37.4697 12.1057 37.7876 13.6317 37.7876C18.0901 37.7876 22.1149 35.0768 23.8852 30.8816C24.3966 29.6699 24.6969 28.4017 24.7811 27.1022C22.8544 28.1143 20.7171 28.6461 18.5532 28.6461C16.6902 28.6461 14.8717 28.2583 13.1482 27.4935C11.1479 26.6058 9.36777 25.2268 8.00027 23.5055C6.84211 22.0476 5.97359 20.3409 5.46327 18.5294ZM7.57518 16.7172C8.24763 20.4971 10.6797 23.6449 14.1269 25.1746C15.5393 25.8014 17.0292 26.1192 18.555 26.1192C20.716 26.1192 22.8081 25.4851 24.6238 24.2827C23.9513 20.5029 21.5193 17.355 18.0722 15.8253C16.6598 15.1985 15.1699 14.8807 13.6441 14.8807C11.4831 14.8807 9.39088 15.5148 7.57518 16.7172ZM13.6454 12.3538C15.5085 12.3538 17.3271 12.7416 19.0507 13.5064C21.0509 14.394 22.831 15.7731 24.1985 17.4945C25.3566 18.9522 26.2252 20.659 26.7356 22.4705C27.6018 21.5179 28.2977 20.4252 28.8091 19.2134C29.9936 16.4064 30.0413 13.2944 28.9434 10.4507C27.8455 7.60692 25.7333 5.37187 22.996 4.15718C21.5833 3.53028 20.0932 3.2124 18.5671 3.2124C14.1087 3.2124 10.0839 5.9232 8.31365 10.1184C7.80226 11.3301 7.50197 12.5981 7.41769 13.8977C9.34435 12.8856 11.4816 12.3538 13.6454 12.3538Z" fill="#292C33"/>
<path d="M41.1424 15.657V9.44145H43.4618C43.8845 9.44145 44.2572 9.51932 44.5798 9.67506C44.9079 9.82523 45.1638 10.0477 45.3473 10.3425C45.5309 10.6317 45.6226 10.9849 45.6226 11.4021C45.6226 11.8136 45.5281 12.1668 45.339 12.4616C45.1554 12.7508 44.9024 12.9733 44.5798 13.1291C44.2572 13.2848 43.8845 13.3627 43.4618 13.3627H42.2771V15.657H41.1424ZM42.2771 12.3615H43.4785C43.6843 12.3615 43.8623 12.3226 44.0124 12.2447C44.1626 12.1613 44.2794 12.0472 44.3628 11.9026C44.4463 11.758 44.488 11.5912 44.488 11.4021C44.488 11.2074 44.4463 11.0405 44.3628 10.9015C44.2794 10.7569 44.1626 10.6456 44.0124 10.5678C43.8623 10.4843 43.6843 10.4426 43.4785 10.4426H42.2771V12.3615ZM51.4497 15.7571C50.9936 15.7571 50.5681 15.6764 50.1732 15.5152C49.7783 15.3539 49.4335 15.1286 49.1387 14.8394C48.8439 14.5501 48.6131 14.2109 48.4462 13.8215C48.2849 13.4266 48.2043 13.0011 48.2043 12.545C48.2043 12.0834 48.2849 11.6579 48.4462 11.2686C48.6075 10.8792 48.8356 10.5399 49.1303 10.2507C49.4251 9.9615 49.77 9.73902 50.1649 9.58328C50.5598 9.42199 50.988 9.34134 51.4497 9.34134C51.9113 9.34134 52.3396 9.42199 52.7345 9.58328C53.1294 9.74458 53.4743 9.96984 53.769 10.2591C54.0638 10.5427 54.2919 10.8792 54.4532 11.2686C54.62 11.6579 54.7035 12.0834 54.7035 12.545C54.7035 13.0011 54.62 13.4266 54.4532 13.8215C54.2863 14.2109 54.0555 14.5501 53.7607 14.8394C53.4659 15.1286 53.1211 15.3539 52.7262 15.5152C52.3368 15.6764 51.9113 15.7571 51.4497 15.7571ZM51.4497 14.7226C51.7556 14.7226 52.0365 14.6697 52.2923 14.5641C52.5482 14.4528 52.7707 14.2999 52.9598 14.1052C53.1544 13.9105 53.3018 13.6797 53.4019 13.4127C53.5076 13.1457 53.5605 12.8565 53.5605 12.545C53.5605 12.2336 53.5076 11.9471 53.4019 11.6857C53.3018 11.4187 53.1544 11.1879 52.9598 10.9933C52.7707 10.793 52.5482 10.6401 52.2923 10.5344C52.0365 10.4287 51.7556 10.3759 51.4497 10.3759C51.1493 10.3759 50.8712 10.4287 50.6154 10.5344C50.3595 10.6401 50.1343 10.793 49.9396 10.9933C49.7505 11.1879 49.6031 11.4187 49.4974 11.6857C49.3917 11.9471 49.3389 12.2336 49.3389 12.545C49.3389 12.8565 49.3917 13.1457 49.4974 13.4127C49.6031 13.6797 49.7505 13.9105 49.9396 14.1052C50.1343 14.2999 50.3595 14.4528 50.6154 14.5641C50.8712 14.6697 51.1493 14.7226 51.4497 14.7226ZM58.5446 15.657L56.876 9.44145H58.094L59.4039 14.7393H59.0868L60.4551 9.44145H61.6315L62.9914 14.7393H62.6743L63.9842 9.44145H65.2023L63.5337 15.657H62.2322L60.8556 10.501H61.2227L59.8461 15.657H58.5446ZM67.7263 15.657V9.44145H71.8561V10.4426H68.8609V12.0361H71.6892V13.0373H68.8609V14.6558H71.8561V15.657H67.7263ZM74.5235 15.657V9.44145H76.8345C77.2573 9.44145 77.6299 9.51932 77.9525 9.67506C78.2807 9.82523 78.5365 10.0477 78.7201 10.3425C78.9036 10.6317 78.9954 10.9849 78.9954 11.4021C78.9954 11.8303 78.8925 12.1946 78.6867 12.495C78.4865 12.7953 78.2139 13.0178 77.8691 13.1624L79.2957 15.657H78.0109L76.4841 12.9288L77.2183 13.3627H75.6582V15.657H74.5235ZM75.6582 12.3615H76.8512C77.057 12.3615 77.235 12.3226 77.3852 12.2447C77.5354 12.1613 77.6522 12.0472 77.7356 11.9026C77.819 11.758 77.8607 11.5912 77.8607 11.4021C77.8607 11.2074 77.819 11.0405 77.7356 10.9015C77.6522 10.7569 77.5354 10.6456 77.3852 10.5678C77.235 10.4843 77.057 10.4426 76.8512 10.4426H75.6582V12.3615ZM81.8748 15.657V9.44145H86.0046V10.4426H83.0095V12.0361H85.8377V13.0373H83.0095V14.6558H86.0046V15.657H81.8748ZM88.6721 15.657V9.44145H90.6994C91.3557 9.44145 91.9258 9.57494 92.4097 9.84192C92.8992 10.1033 93.2774 10.4676 93.5444 10.9348C93.8114 11.3965 93.9448 11.9332 93.9448 12.545C93.9448 13.1513 93.8114 13.6908 93.5444 14.1636C93.2774 14.6308 92.8992 14.9979 92.4097 15.2649C91.9258 15.5263 91.3557 15.657 90.6994 15.657H88.6721ZM89.8067 14.6558H90.7244C91.1472 14.6558 91.5115 14.5696 91.8174 14.3972C92.1289 14.2192 92.3708 13.9745 92.5432 13.663C92.7156 13.346 92.8019 12.9733 92.8019 12.545C92.8019 12.1112 92.7156 11.7386 92.5432 11.4271C92.3708 11.1156 92.1289 10.8737 91.8174 10.7012C91.5115 10.5288 91.1472 10.4426 90.7244 10.4426H89.8067V14.6558ZM100.002 15.657V9.44145H102.621C103.033 9.44145 103.383 9.51376 103.673 9.65837C103.967 9.79742 104.193 9.99765 104.348 10.2591C104.51 10.5149 104.59 10.8264 104.59 11.1935C104.59 11.4771 104.512 11.7441 104.357 11.9944C104.206 12.2391 103.965 12.4421 103.631 12.6034V12.0778C103.937 12.1946 104.179 12.3393 104.357 12.5117C104.535 12.6841 104.66 12.876 104.732 13.0873C104.804 13.2987 104.841 13.5212 104.841 13.7548C104.841 14.3499 104.643 14.8171 104.248 15.1564C103.859 15.4901 103.317 15.657 102.621 15.657H100.002ZM101.136 14.6558H102.738C103.033 14.6558 103.266 14.5752 103.439 14.4139C103.617 14.247 103.706 14.0273 103.706 13.7548C103.706 13.4822 103.617 13.2625 103.439 13.0957C103.266 12.9288 103.033 12.8454 102.738 12.8454H101.136V14.6558ZM101.136 11.8526H102.68C102.913 11.8526 103.1 11.7858 103.239 11.6523C103.378 11.5133 103.447 11.3353 103.447 11.1184C103.447 10.9015 103.378 10.7291 103.239 10.6011C103.1 10.4732 102.913 10.4092 102.68 10.4092H101.136V11.8526ZM108.857 15.657V12.9038L106.762 9.44145H108.056L109.657 12.1446H109.199L110.792 9.44145H112.085L110 12.8955V15.657H108.857Z" fill="#292C33"/>
<path d="M41.9333 20.657H42.0403C42.5332 20.657 42.9419 20.9002 43.2664 21.3869C43.3767 21.6075 43.4318 21.8183 43.4318 22.0192V35.9344C43.4318 36.5184 43.1302 36.9498 42.5268 37.2285C42.3906 37.2742 42.2965 37.2966 42.2446 37.2966H41.7289C41.4955 37.2966 41.2164 37.1477 40.892 36.849C40.6584 36.5766 40.5417 36.2588 40.5417 35.8954V22.068C40.5417 21.4583 40.8531 21.0138 41.4758 20.7349C41.6445 20.683 41.7971 20.657 41.9333 20.657Z" fill="#292C33"/>
<path d="M51.3101 23.5475H51.3807C51.6084 23.5475 51.8362 23.4838 52.0642 23.3565C52.5265 23.0484 52.7578 22.6528 52.7578 22.1705V22.12C52.7578 21.8855 52.6939 21.6578 52.5668 21.4366C52.2584 20.9675 51.8496 20.733 51.3403 20.733C51.1596 20.733 50.9586 20.78 50.7373 20.8738C50.2013 21.182 49.9331 21.6044 49.9331 22.1402C49.9331 22.2944 49.97 22.4787 50.0438 22.6932C50.3454 23.2627 50.7675 23.5475 51.3101 23.5475Z" fill="#292C33"/>
<path d="M62.1093 23.1482C62.4466 22.7978 62.6154 22.4411 62.6154 22.0778V22.0193C62.6154 21.8052 62.5601 21.5977 62.4499 21.3965C62.1514 20.9036 61.7427 20.657 61.2238 20.657C61.1005 20.657 60.935 20.6861 60.7275 20.7445C60.4615 20.8355 60.1372 21.1435 59.7544 21.6689C56.42 25.9441 52.9622 30.3781 49.3813 34.9709C49.1217 35.2567 48.9921 35.5841 48.9921 35.9538C48.9921 35.9544 48.9921 35.9551 48.9921 35.9557C48.9921 35.9564 48.9921 35.957 48.9921 35.9575C48.9921 35.9652 48.9931 35.9728 48.9931 35.9805C48.9939 36.0113 48.995 36.0421 48.9979 36.0724C49.04 36.5753 49.355 36.9998 49.7948 37.1984C49.8932 37.2489 49.9873 37.2801 50.0769 37.2907C50.1664 37.3094 50.259 37.3193 50.3539 37.3193C50.4361 37.3193 50.5165 37.3107 50.5947 37.2966H50.6171C50.8441 37.2966 51.1101 37.1542 51.415 36.8687C54.1072 33.424 55.5668 31.5491 55.794 31.2442L57.4384 33.3363C59.203 35.6068 60.1468 36.8071 60.2702 36.9368C60.3002 36.9621 60.3294 36.9852 60.3584 37.0078C60.4164 37.0564 60.4787 37.0995 60.544 37.1381C60.6853 37.2261 60.8126 37.2779 60.9257 37.2919C61.0272 37.3158 61.1326 37.33 61.2416 37.33C61.7889 37.33 62.2601 37.0089 62.481 36.5456C62.5286 36.4509 62.5628 36.3502 62.5844 36.2444C62.5861 36.2366 62.5876 36.2288 62.5891 36.2213C62.5958 36.1857 62.6019 36.1499 62.6056 36.1128C62.6101 36.0728 62.6124 36.0319 62.6135 35.991C62.6137 35.9816 62.6154 35.973 62.6154 35.9636V35.9051C62.6154 35.6781 62.5536 35.4574 62.4304 35.2434C62.3071 35.0748 60.6852 32.9923 57.565 28.9961V28.9864L62.1093 23.1482Z" fill="#292C33"/>
<path d="M69.6203 37.3371C70.0194 37.3371 70.3807 37.1751 70.6419 36.9135C70.922 36.6573 71.0655 36.332 71.0655 35.9344V22.0192C71.0655 21.8183 71.0103 21.6074 70.9 21.3868C70.5757 20.9002 70.1669 20.657 69.674 20.657H69.5669C69.4306 20.657 69.2782 20.6829 69.1096 20.7349C68.4868 21.0138 68.1754 21.4583 68.1754 22.068V35.8956C68.1754 36.259 68.2922 36.5768 68.5257 36.8492C68.5499 36.8716 68.5732 36.8913 68.5967 36.9118C68.7291 37.0446 68.8869 37.1518 69.0625 37.2254C69.1049 37.2441 69.1462 37.2593 69.186 37.2707C69.3231 37.3136 69.469 37.3371 69.6203 37.3371Z" fill="#292C33"/>
<path d="M89.9665 28.938C89.9339 28.8342 88.682 26.3268 86.2104 21.4159C85.8796 20.9099 85.4612 20.657 84.9552 20.657H84.8384C84.3971 20.657 84.0048 20.8677 83.6608 21.2894C83.6025 21.3738 83.197 22.1748 82.4446 23.6929C79.0061 30.5434 77.287 33.9784 77.287 33.9979C77.1033 34.3358 76.9602 34.6258 76.853 34.8733C76.7156 35.0946 76.6337 35.3531 76.6272 35.6309C76.6271 35.6376 76.6254 35.6458 76.6254 35.6522C76.6254 35.6547 76.6257 35.6572 76.6259 35.6597C76.6257 35.6622 76.6254 35.6643 76.6254 35.6668C76.6254 36.0433 76.7644 36.3866 76.9928 36.6507C77.0244 36.6883 77.0571 36.7253 77.0926 36.7615C77.1103 36.7762 77.1275 36.7892 77.1452 36.8035C77.223 36.8709 77.3076 36.9312 77.3983 36.9819C77.5694 37.0852 77.7251 37.1406 77.8653 37.1483C77.9521 37.1638 78.0409 37.1732 78.1319 37.1732C78.2176 37.1732 78.3008 37.1644 78.3826 37.1505H78.416C78.4548 37.1505 78.5003 37.1442 78.5522 37.131C78.9284 37.0081 79.2139 36.8005 79.4085 36.5084L84.3907 26.651C84.5205 26.2877 84.689 26.106 84.8968 26.106C85.007 26.106 85.1076 26.1515 85.1985 26.2424C86.5413 28.9347 87.2322 30.31 87.2711 30.3682C87.6149 30.8289 88.0399 31.059 88.5459 31.059C88.7794 31.059 89.0162 31.0008 89.2562 30.8839C89.8208 30.5531 90.1029 30.0958 90.1029 29.512C90.1027 29.4474 90.0573 29.2558 89.9665 28.938Z" fill="#292C33"/>
<path d="M91.6597 37.1733C92.4917 37.1733 93.1662 36.4988 93.1662 35.6668C93.1662 34.8348 92.4917 34.1603 91.6597 34.1603C90.8277 34.1603 90.1532 34.8348 90.1532 35.6668C90.1532 36.4988 90.8277 37.1733 91.6597 37.1733Z" fill="#292C33"/>
<path fill-rule="evenodd" clip-rule="evenodd" d="M98.7313 22.1644V35.952C98.7313 36.7197 99.3536 37.342 100.121 37.342C100.889 37.342 101.511 36.7197 101.511 35.952V26.3317L109.095 36.7699C109.388 37.1734 109.858 37.3729 110.321 37.3393C110.35 37.3411 110.378 37.3419 110.407 37.3419C111.175 37.3419 111.797 36.7196 111.797 35.9519V22.0518C111.797 21.2841 111.175 20.6618 110.407 20.6618C109.639 20.6618 109.017 21.2841 109.017 22.0518V31.9328L101.279 21.2826C101.233 21.2126 101.18 21.147 101.122 21.0867C100.649 20.5903 99.8695 20.5084 99.2995 20.9226C98.8915 21.219 98.6921 21.696 98.7313 22.1644Z" fill="#292C33"/>
</svg>
